<?xml version="1.0" standalone="no"?>
<!DOCTYPE svg PUBLIC "-//W3C//DTD SVG 20010904//EN"
 "http://www.w3.org/TR/2001/REC-SVG-20010904/DTD/svg10.dtd">
<svg version="1.0" xmlns="http://www.w3.org/2000/svg"
 width="512.000000pt" height="512.000000pt" viewBox="0 0 512.000000 512.000000"
 preserveAspectRatio="xMidYMid meet">
<metadata>
Created by potrace 1.16, written by Peter Selinger 2001-2019
</metadata>
<g transform="translate(0.000000,512.000000) scale(0.100000,-0.100000)"
fill="#000000" stroke="none">
<path d="M1144 5011 c-97 -45 -149 -135 -142 -249 7 -123 83 -208 207 -232 29
-5 116 -10 192 -10 l138 0 3 -442 c3 -430 4 -445 25 -497 12 -29 34 -71 48
-92 l25 -39 -437 0 c-435 0 -537 -6 -594 -35 l-28 -15 -3 238 c-3 270 -9 292
-81 340 -39 26 -47 27 -167 27 -120 0 -128 -1 -167 -27 -75 -49 -73 -35 -73
-590 0 -474 1 -495 21 -538 67 -148 169 -200 391 -200 l128 0 0 -1258 c0
-1122 2 -1260 16 -1280 15 -22 19 -22 225 -22 196 0 210 1 229 20 19 19 20 33
20 370 l0 350 1440 0 1440 0 0 -350 c0 -337 1 -351 20 -370 19 -19 33 -20 229
-20 206 0 210 0 225 22 14 20 16 158 16 1280 l0 1258 127 0 c149 0 216 15 286
66 52 38 101 107 117 164 6 21 10 233 10 518 0 544 2 531 -73 580 -39 26 -47
27 -166 27 -114 0 -130 -2 -163 -23 -20 -13 -47 -40 -60 -60 -22 -36 -23 -47
-26 -279 l-4 -243 -27 15 c-48 24 -149 35 -340 35 l-183 0 16 23 c84 116 108
180 114 308 7 148 -32 257 -128 362 -195 214 -527 221 -732 16 -63 -62 -121
-169 -137 -250 -6 -28 -9 129 -10 427 -1 523 -3 537 -66 611 -49 57 -109 83
-192 83 -80 0 -132 -21 -182 -71 -67 -66 -71 -86 -71 -356 l0 -243 -213 0
-214 0 -6 173 c-5 133 -11 187 -27 237 -35 111 -106 187 -220 236 -41 17 -76
19 -390 22 -320 2 -348 1 -386 -17z m711 -142 c22 -8 60 -34 86 -59 63 -63 73
-105 74 -314 l0 -168 -160 -93 -160 -93 -5 226 c-7 316 5 302 -258 302 -197 0
-235 7 -266 51 -38 55 -8 139 57 159 49 15 582 6 632 -11z m1067 -18 l33 -29
0 -579 0 -578 -23 -46 c-31 -63 -85 -117 -146 -145 -48 -23 -62 -24 -253 -24
l-203 0 0 380 0 380 189 0 190 0 20 26 c20 26 21 39 21 306 l0 280 29 29 c41
41 98 41 143 0z m-742 -1022 l0 -380 -142 3 c-163 3 -194 13 -264 84 -66 66
-84 127 -84 292 l1 137 212 122 c150 87 221 123 245 123 l32 0 0 -381z m1531
315 c78 -22 152 -77 197 -144 51 -75 66 -132 60 -223 -8 -126 -87 -240 -206
-299 -40 -19 -63 -23 -147 -23 -90 0 -105 3 -153 28 -72 38 -132 100 -168 173
-25 51 -29 70 -29 144 0 71 4 94 26 141 79 167 253 252 420 203z m-3291 -303
c6 -13 10 -162 10 -415 l0 -395 26 -20 27 -21 2077 0 2077 0 27 21 26 20 0
395 c0 253 4 402 10 415 9 16 22 19 90 19 70 0 81 -2 90 -20 8 -15 10 -157 8
-463 -3 -479 -2 -470 -60 -524 -60 -57 94 -53 -2268 -53 -2362 0 -2208 -4
-2268 53 -58 54 -57 45 -60 524 -2 306 0 448 8 463 9 18 20 20 90 20 68 0 81
-3 90 -19z m2737 -251 c11 -25 36 -66 56 -92 l37 -48 -121 0 -121 0 18 28 c40
59 63 115 75 184 l13 71 11 -49 c6 -27 21 -69 32 -94z m1295 -318 c43 -26 73
-66 83 -105 l7 -27 -1981 0 c-1433 0 -1981 3 -1981 11 0 49 72 125 133 139 17
5 858 7 1867 7 l1835 -2 37 -23z m-3482 -1832 l0 -1210 -95 0 -95 0 0 1210 0
1210 95 0 95 0 0 -1210z m1520 545 l0 -665 -685 0 -685 0 0 665 0 665 685 0
685 0 0 -665z m1510 0 l0 -665 -685 0 -685 0 0 665 0 665 685 0 685 0 0 -665z
m340 -545 l0 -1210 -95 0 -95 0 0 1210 0 1210 95 0 95 0 0 -1210z m-340 -365
l0 -95 -1440 0 -1440 0 0 95 0 95 1440 0 1440 0 0 -95z"/>
<path d="M2112 2205 c-140 -43 -204 -203 -134 -336 40 -78 111 -119 202 -119
81 0 134 23 182 79 60 70 74 181 34 260 -27 51 -86 100 -139 116 -61 18 -88
18 -145 0z m136 -171 c12 -14 22 -34 22 -45 0 -28 -26 -75 -45 -83 -83 -32
-158 52 -109 122 33 48 92 50 132 6z"/>
<path d="M2864 2206 c-160 -50 -216 -249 -106 -377 48 -56 101 -79 182 -79 57
0 73 5 120 33 172 103 137 365 -56 423 -57 17 -86 17 -140 0z m134 -172 c47
-54 10 -134 -63 -134 -88 0 -114 117 -35 157 33 17 70 8 98 -23z"/>
</g>
</svg>
