<?xml version="1.0" standalone="no"?>
<!DOCTYPE svg PUBLIC "-//W3C//DTD SVG 20010904//EN"
 "http://www.w3.org/TR/2001/REC-SVG-20010904/DTD/svg10.dtd">
<svg version="1.0" xmlns="http://www.w3.org/2000/svg"
 width="512.000000pt" height="512.000000pt" viewBox="0 0 512.000000 512.000000"
 preserveAspectRatio="xMidYMid meet">
<metadata>
Created by potrace 1.16, written by Peter Selinger 2001-2019
</metadata>
<g transform="translate(0.000000,512.000000) scale(0.100000,-0.100000)"
fill="#000000" stroke="none">
<path d="M1734 5069 c-217 -21 -447 -105 -619 -227 -140 -99 -283 -268 -350
-415 -24 -53 -29 -57 -60 -57 -93 0 -232 -71 -299 -153 -64 -78 -90 -149 -94
-259 -6 -135 22 -217 107 -311 71 -79 192 -137 284 -137 41 0 44 -2 60 -39 75
-169 251 -338 456 -439 l97 -48 -51 -60 -51 -60 -45 14 c-73 22 -243 26 -329
8 -179 -38 -356 -165 -441 -316 -19 -34 -26 -38 -86 -49 -127 -23 -230 -100
-281 -209 -24 -50 -27 -69 -27 -162 0 -99 2 -110 33 -172 39 -80 109 -146 187
-179 30 -12 55 -27 55 -33 2 -122 53 -812 65 -870 35 -167 137 -376 230 -468
46 -46 114 -35 134 22 12 37 3 66 -38 118 -75 94 -135 221 -166 352 -11 47
-63 720 -65 843 0 4 72 7 160 7 l160 0 0 -256 c0 -162 4 -271 11 -294 18 -59
78 -130 139 -164 l55 -31 263 -3 c317 -4 336 0 424 88 82 82 88 109 88 392 l0
228 28 -6 c45 -11 144 -50 202 -79 113 -57 194 -119 333 -253 190 -183 307
-259 497 -321 150 -50 180 -51 1016 -51 431 0 784 -2 784 -4 0 -3 -7 -35 -15
-73 -82 -388 -379 -670 -764 -728 -142 -22 -2410 -22 -2551 -1 -98 15 -208 50
-292 92 -59 30 -108 31 -133 4 -24 -26 -25 -83 -2 -108 25 -27 158 -87 258
-116 161 -46 206 -47 1509 -44 1355 4 1264 0 1456 70 360 130 636 475 689 859
l6 47 48 6 c110 14 219 96 278 208 26 49 28 62 28 163 0 100 -2 115 -28 167
-53 108 -148 182 -265 207 -29 6 -95 11 -145 11 l-93 0 -12 58 c-15 72 -74
197 -101 211 -54 29 -121 -6 -121 -63 0 -16 13 -56 30 -90 16 -33 32 -73 36
-89 l6 -28 -688 3 -689 3 -60 32 c-40 21 -95 67 -167 140 l-108 108 2 205 c1
197 -5 256 -38 367 l-6 23 53 -16 c143 -42 281 -149 349 -272 68 -123 74 -126
187 -97 158 41 337 0 459 -106 66 -57 84 -62 154 -44 74 19 156 19 231 0 50
-13 64 -14 87 -3 55 27 64 103 15 135 -54 36 -243 55 -338 34 -24 -5 -38 0
-74 27 -115 87 -258 133 -410 131 -53 -1 -109 -4 -126 -8 -28 -6 -33 -2 -69
54 -110 171 -313 295 -527 325 -70 9 -76 12 -109 52 -19 23 -49 58 -66 77
l-31 34 106 54 c186 92 357 254 436 410 l30 60 62 5 c157 14 306 137 358 296
27 83 18 228 -18 306 -36 77 -86 138 -151 182 -56 38 -159 74 -211 74 -31 0
-36 4 -60 57 -66 146 -214 321 -355 419 -250 175 -580 256 -916 223z m61 -194
c-58 -57 -75 -97 -75 -177 1 -85 24 -132 99 -200 49 -44 66 -67 77 -105 17
-56 35 -73 81 -73 50 0 73 29 73 91 0 71 -23 114 -102 188 -94 89 -93 106 5
203 39 40 77 81 82 90 9 17 15 17 100 -1 338 -71 589 -259 725 -542 67 -141
83 -219 84 -404 1 -187 -12 -250 -79 -390 -118 -245 -340 -402 -676 -477 -90
-20 -131 -23 -304 -23 -173 0 -214 3 -304 23 -336 75 -558 232 -676 477 -67
140 -80 203 -79 390 0 132 4 174 22 240 95 347 366 601 742 696 62 16 142 28
238 38 8 0 -7 -19 -33 -44z m-1121 -745 c-7 -41 -13 -127 -13 -190 0 -63 6
-149 13 -190 8 -41 12 -77 11 -78 -8 -9 -104 42 -134 71 -113 107 -107 300 11
402 31 26 116 68 124 61 1 0 -4 -35 -12 -76z m2534 14 c118 -101 124 -294 11
-401 -30 -29 -126 -80 -134 -71 -1 1 3 37 11 78 22 122 16 351 -12 442 -5 16
-2 16 39 2 25 -8 63 -31 85 -50z m-1593 -1236 c101 -19 467 -16 565 5 l75 15
53 -40 c103 -80 195 -225 226 -358 9 -36 19 -129 22 -208 l7 -143 -98 62
c-313 196 -663 289 -1094 289 l-133 0 6 31 c10 49 62 152 112 218 52 69 152
153 174 146 8 -2 47 -10 85 -17z m-525 -178 l36 -10 -31 -95 -30 -95 -248 0
-248 0 21 28 c56 71 165 140 263 167 61 16 187 19 237 5z m-330 -580 l0 -220
-215 0 c-233 0 -252 3 -314 56 -45 37 -71 97 -71 162 0 66 18 109 64 155 56
57 101 66 334 66 l202 1 0 -220z m798 214 l22 -6 0 -537 c0 -517 -1 -537 -20
-569 -11 -18 -34 -41 -52 -52 -30 -18 -51 -20 -263 -20 -211 0 -233 2 -262 20
-70 42 -68 25 -71 628 l-3 542 313 0 c172 0 323 -3 336 -6z m323 -50 c186 -47
366 -126 529 -231 113 -74 161 -114 310 -258 130 -127 185 -162 291 -190 45
-12 199 -15 900 -15 942 0 913 2 984 -67 47 -46 65 -88 65 -155 -1 -91 -51
-169 -132 -202 -33 -14 -144 -16 -913 -16 -959 0 -939 -1 -1107 60 -139 51
-228 112 -392 270 -83 80 -183 167 -223 193 -96 64 -260 141 -363 170 l-85 25
-3 221 c-3 257 -19 235 139 195z"/>
<path d="M1201 4024 c-17 -22 -21 -41 -21 -105 0 -92 12 -124 51 -138 35 -12
85 3 99 29 6 10 10 59 10 108 0 80 -2 91 -23 110 -34 32 -89 30 -116 -4z"/>
<path d="M2452 4027 c-19 -20 -22 -35 -22 -111 0 -48 4 -96 10 -106 14 -26 64
-41 99 -29 39 14 51 46 51 138 0 64 -4 83 -21 105 -27 35 -86 36 -117 3z"/>
<path d="M1685 3929 c-56 -32 -60 -82 -10 -138 103 -114 317 -114 420 0 50 55
47 107 -7 135 -37 19 -78 11 -108 -21 -50 -54 -126 -55 -185 -4 -38 33 -81 44
-110 28z"/>
<path d="M4730 4017 c-95 -27 -176 -100 -204 -185 -24 -70 -21 -177 8 -238
108 -231 444 -231 552 0 29 62 32 168 8 239 -21 62 -83 130 -147 161 -63 31
-154 41 -217 23z m162 -179 c63 -44 79 -142 32 -198 -68 -80 -160 -80 -228 0
-60 71 -15 198 79 223 32 8 87 -3 117 -25z"/>
<path d="M3848 3481 c-230 -74 -363 -314 -303 -546 46 -176 188 -305 369 -336
138 -23 289 25 389 124 188 187 180 491 -19 666 -27 24 -65 51 -84 61 -102 52
-247 64 -352 31z m235 -157 c61 -20 131 -84 165 -148 22 -42 27 -64 27 -126 0
-90 -24 -149 -82 -207 -146 -146 -390 -102 -476 86 -33 70 -30 179 5 247 32
62 104 127 161 148 56 19 143 20 200 0z"/>
</g>
</svg>
