<?xml version="1.0" encoding="UTF-8"?>
<!DOCTYPE svg PUBLIC "-//W3C//DTD SVG 1.1//EN" "http://www.w3.org/Graphics/SVG/1.1/DTD/svg11.dtd">
<svg xmlns="http://www.w3.org/2000/svg" version="1.1" width="512px" height="512px" style="shape-rendering:geometricPrecision; text-rendering:geometricPrecision; image-rendering:optimizeQuality; fill-rule:evenodd; clip-rule:evenodd" xmlns:xlink="http://www.w3.org/1999/xlink">
<g><path style="opacity:0.975" fill="#000000" d="M 511.5,229.5 C 511.5,246.833 511.5,264.167 511.5,281.5C 504.485,297.511 492.152,303.844 474.5,300.5C 474.667,319.17 474.5,337.836 474,356.5C 467.833,384 451,400.833 423.5,407C 311.5,407.667 199.5,407.667 87.5,407C 60,400.833 43.1667,384 37,356.5C 36.5001,337.836 36.3334,319.17 36.5,300.5C 18.848,303.844 6.51462,297.511 -0.5,281.5C -0.5,264.167 -0.5,246.833 -0.5,229.5C 6.51462,213.489 18.848,207.156 36.5,210.5C 36.3334,191.83 36.5001,173.164 37,154.5C 43.1667,127 60,110.167 87.5,104C 199.5,103.333 311.5,103.333 423.5,104C 451,110.167 467.833,127 474,154.5C 474.5,173.164 474.667,191.83 474.5,210.5C 492.152,207.156 504.485,213.489 511.5,229.5 Z M 98.5,117.5 C 203.167,117.333 307.834,117.5 412.5,118C 432.538,119.099 447.038,128.599 456,146.5C 458.442,152.6 459.775,158.933 460,165.5C 460.667,225.5 460.667,285.5 460,345.5C 456.833,374 441,389.833 412.5,393C 307.833,393.667 203.167,393.667 98.5,393C 78.462,391.901 63.962,382.401 55,364.5C 52.5584,358.4 51.2251,352.067 51,345.5C 50.0372,282.147 50.3705,218.813 52,155.5C 58.7747,132.043 74.2747,119.377 98.5,117.5 Z M 95.5,145.5 C 202.167,145.333 308.834,145.5 415.5,146C 425.667,146.833 431.167,152.333 432,162.5C 432.667,224.5 432.667,286.5 432,348.5C 431.167,358.667 425.667,364.167 415.5,365C 308.833,365.667 202.167,365.667 95.5,365C 85.3333,364.167 79.8333,358.667 79,348.5C 78.3333,286.5 78.3333,224.5 79,162.5C 80.0112,152.324 85.5112,146.657 95.5,145.5 Z M 25.5,224.5 C 29.1667,224.5 32.8333,224.5 36.5,224.5C 36.5,245.167 36.5,265.833 36.5,286.5C 30.6197,286.952 24.9531,286.118 19.5,284C 16.2456,281.658 14.4123,278.491 14,274.5C 13.3333,261.833 13.3333,249.167 14,236.5C 15.348,229.987 19.1813,225.987 25.5,224.5 Z M 474.5,224.5 C 479.58,224.25 484.58,224.75 489.5,226C 493.944,228.111 496.444,231.611 497,236.5C 497.667,249.167 497.667,261.833 497,274.5C 496.444,279.389 493.944,282.889 489.5,285C 484.58,286.25 479.58,286.75 474.5,286.5C 474.5,265.833 474.5,245.167 474.5,224.5 Z"/></g>
<g><path style="opacity:0.989" fill="#000000" d="M 87.5,131.5 C 199.5,131.333 311.5,131.5 423.5,132C 435,135.5 442.5,143 446,154.5C 446.667,221.833 446.667,289.167 446,356.5C 442.5,368 435,375.5 423.5,379C 311.5,379.667 199.5,379.667 87.5,379C 76,375.5 68.5,368 65,356.5C 64.3333,289.167 64.3333,221.833 65,154.5C 68.684,142.984 76.184,135.317 87.5,131.5 Z M 95.5,145.5 C 85.5112,146.657 80.0112,152.324 79,162.5C 78.3333,224.5 78.3333,286.5 79,348.5C 79.8333,358.667 85.3333,364.167 95.5,365C 202.167,365.667 308.833,365.667 415.5,365C 425.667,364.167 431.167,358.667 432,348.5C 432.667,286.5 432.667,224.5 432,162.5C 431.167,152.333 425.667,146.833 415.5,146C 308.834,145.5 202.167,145.333 95.5,145.5 Z"/></g>
</svg>
