<?xml version="1.0" encoding="UTF-8"?>
<!DOCTYPE svg PUBLIC "-//W3C//DTD SVG 1.1//EN" "http://www.w3.org/Graphics/SVG/1.1/DTD/svg11.dtd">
<svg xmlns="http://www.w3.org/2000/svg" version="1.1" width="512px" height="512px" style="shape-rendering:geometricPrecision; text-rendering:geometricPrecision; image-rendering:optimizeQuality; fill-rule:evenodd; clip-rule:evenodd" xmlns:xlink="http://www.w3.org/1999/xlink">
<g><path style="opacity:0.926" fill="#000000" d="M 217.5,-0.5 C 220.5,-0.5 223.5,-0.5 226.5,-0.5C 230.181,2.2046 231.681,5.87126 231,10.5C 223.481,20.865 215.481,30.865 207,40.5C 205.963,43.2764 205.13,46.1098 204.5,49C 208.727,57.2893 212.56,65.7893 216,74.5C 218.043,87.7325 214.376,99.0658 205,108.5C 193.848,113.097 188.848,109.43 190,97.5C 194.695,93.1085 197.528,87.7751 198.5,81.5C 198.406,79.0772 197.906,76.7438 197,74.5C 184.805,60.0809 183.471,44.7476 193,28.5C 201.377,18.9606 209.544,9.29391 217.5,-0.5 Z"/></g>
<g><path style="opacity:0.927" fill="#000000" d="M 268.5,-0.5 C 271.5,-0.5 274.5,-0.5 277.5,-0.5C 282.397,3.13203 283.564,7.7987 281,13.5C 272.24,22.9228 264.24,32.9228 257,43.5C 256.333,47.1667 256.333,50.8333 257,54.5C 270.573,71.6352 270.906,88.9685 258,106.5C 253.8,110.714 248.966,111.548 243.5,109C 240.735,106.005 239.902,102.505 241,98.5C 243,95.8333 245,93.1667 247,90.5C 251.237,81.8671 249.903,74.2004 243,67.5C 235.634,54.3179 235.967,41.3179 244,28.5C 252.377,18.9606 260.544,9.29391 268.5,-0.5 Z"/></g>
<g><path style="opacity:0.926" fill="#000000" d="M 320.5,-0.5 C 323.167,-0.5 325.833,-0.5 328.5,-0.5C 333.026,2.23886 334.526,6.23886 333,11.5C 327.383,19.7195 321.049,27.3861 314,34.5C 311.484,37.5344 309.484,40.8677 308,44.5C 307.333,47.5 307.333,50.5 308,53.5C 312.113,59.3908 315.446,65.7242 318,72.5C 321.025,86.7625 317.191,98.9292 306.5,109C 294.57,112.735 290.07,108.568 293,96.5C 299.308,91.2184 301.641,84.5518 300,76.5C 296.599,71.4227 293.599,66.0893 291,60.5C 287.754,48.6895 289.42,37.6895 296,27.5C 304.061,17.9481 312.227,8.61481 320.5,-0.5 Z"/></g>
<g><path style="opacity:0.939" fill="#000000" d="M 262.5,511.5 C 257.833,511.5 253.167,511.5 248.5,511.5C 238.744,508.241 232.578,501.575 230,491.5C 229.5,463.835 229.333,436.169 229.5,408.5C 195.275,407.155 162.109,400.488 130,388.5C 114.837,415.487 100.171,442.821 86,470.5C 74.1613,482.296 61.3279,483.463 47.5,474C 40.1498,466.608 37.6498,457.775 40,447.5C 53.8466,418.973 68.3466,390.806 83.5,363C 32.1739,322.504 7.0072,269.337 8,203.5C 11.1939,190.303 18.3606,179.803 29.5,172C 47.7311,160.054 67.3977,151.054 88.5,145C 143.222,130.568 198.888,123.401 255.5,123.5C 300.914,123.775 345.914,128.275 390.5,137C 423.226,142.792 453.559,154.458 481.5,172C 492.639,179.803 499.806,190.303 503,203.5C 503.916,269.327 478.749,322.66 427.5,363.5C 442.27,391.374 456.77,419.374 471,447.5C 472.991,470.509 462.491,481.342 439.5,480C 433.104,478.38 427.938,474.88 424,469.5C 409.993,442.147 395.493,415.147 380.5,388.5C 348.618,400.721 315.618,407.387 281.5,408.5C 281.667,436.169 281.5,463.835 281,491.5C 278.422,501.575 272.256,508.241 262.5,511.5 Z M 254.5,141.5 C 310.144,141.183 364.811,148.349 418.5,163C 440.037,169.018 459.537,178.851 477,192.5C 479,195.167 481,197.833 483,200.5C 486.608,207.866 485.941,214.866 481,221.5C 468.188,234.623 453.022,244.123 435.5,250C 388.822,265.78 340.822,274.447 291.5,276C 242.207,278.523 193.207,275.857 144.5,268C 111.966,263.119 80.9655,253.452 51.5,239C 43.3245,234.484 36.1578,228.651 30,221.5C 24.0114,213.461 24.0114,205.461 30,197.5C 35.5697,190.933 42.0697,185.433 49.5,181C 72.8909,168.758 97.5576,160.092 123.5,155C 166.882,146.262 210.548,141.762 254.5,141.5 Z M 30.5,247.5 C 58.4325,264.983 88.7658,276.483 121.5,282C 199.167,296.347 277.167,298.347 355.5,288C 386.284,283.804 416.284,276.471 445.5,266C 457.795,260.854 469.462,254.688 480.5,247.5C 469.466,297.013 442.133,334.513 398.5,360C 361.771,378.766 322.771,388.932 281.5,390.5C 281.666,383.492 281.5,376.492 281,369.5C 274.225,350.568 261.391,344.735 242.5,352C 236.064,355.771 231.897,361.271 230,368.5C 229.5,375.826 229.334,383.159 229.5,390.5C 193.699,388.974 159.366,381.141 126.5,367C 75.3701,342.593 43.3701,302.759 30.5,247.5 Z M 254.5,366.5 C 258.57,366.735 261.403,368.735 263,372.5C 263.667,411.167 263.667,449.833 263,488.5C 259.987,493.535 255.82,494.702 250.5,492C 249.299,491.097 248.465,489.931 248,488.5C 247.333,449.833 247.333,411.167 248,372.5C 249.436,369.558 251.603,367.558 254.5,366.5 Z M 98.5,373.5 C 103.272,375.72 107.938,378.22 112.5,381C 98.6175,406.597 85.1175,432.43 72,458.5C 68.0375,463.405 63.7042,463.739 59,459.5C 57.5783,456.97 57.245,454.303 58,451.5C 71.2577,425.316 84.7577,399.316 98.5,373.5 Z M 410.5,373.5 C 411.496,373.414 412.329,373.748 413,374.5C 426.078,400.324 439.412,425.991 453,451.5C 454.167,459.667 450.667,463.167 442.5,462C 441.333,460.833 440.167,459.667 439,458.5C 425.5,432.833 412,407.167 398.5,381.5C 402.529,378.823 406.529,376.156 410.5,373.5 Z"/></g>
<g><path style="opacity:0.923" fill="#000000" d="M 227.5,152.5 C 237.714,152.917 240.881,157.917 237,167.5C 208.167,196.333 179.333,225.167 150.5,254C 138.514,257.678 134.014,253.511 137,241.5C 166.781,211.217 196.948,181.55 227.5,152.5 Z"/></g>
<g><path style="opacity:0.922" fill="#000000" d="M 278.5,152.5 C 288.072,152.649 291.572,157.316 289,166.5C 256.833,198.667 224.667,230.833 192.5,263C 180.489,265.986 176.322,261.486 180,249.5C 212.448,216.551 245.281,184.217 278.5,152.5 Z"/></g>
<g><path style="opacity:0.921" fill="#000000" d="M 166.5,161.5 C 177.729,161.217 181.229,166.217 177,176.5C 153.833,199.667 130.667,222.833 107.5,246C 99.4973,249.332 94.4973,246.832 92.5,238.5C 92.8988,236.803 93.3988,235.137 94,233.5C 118.062,209.271 142.228,185.271 166.5,161.5 Z"/></g>
<g><path style="opacity:0.924" fill="#000000" d="M 319.5,161.5 C 329.659,160.158 333.826,164.491 332,174.5C 302.5,204 273,233.5 243.5,263C 235.882,266.358 231.215,264.024 229.5,256C 229.615,253.268 230.448,250.768 232,248.5C 261.062,219.271 290.228,190.271 319.5,161.5 Z"/></g>
<g><path style="opacity:0.915" fill="#000000" d="M 107.5,169.5 C 118.641,170.116 121.808,175.45 117,185.5C 102.833,199.667 88.6667,213.833 74.5,228C 68.0584,232.124 62.8917,230.957 59,224.5C 58.245,221.697 58.5783,219.03 60,216.5C 75.7284,200.604 91.5617,184.938 107.5,169.5 Z"/></g>
<g><path style="opacity:0.922" fill="#000000" d="M 363.5,169.5 C 374.641,170.116 377.808,175.45 373,185.5C 347.5,211 322,236.5 296.5,262C 290.058,266.124 284.892,264.957 281,258.5C 280.245,255.697 280.578,253.03 282,250.5C 309.062,223.271 336.228,196.271 363.5,169.5 Z"/></g>
<g><path style="opacity:0.922" fill="#000000" d="M 415.5,169.5 C 425.229,170.286 428.396,175.286 425,184.5C 401.833,207.667 378.667,230.833 355.5,254C 343.571,257.736 339.071,253.57 342,241.5C 366.115,216.883 390.615,192.883 415.5,169.5 Z"/></g>
<g><path style="opacity:0.916" fill="#000000" d="M 439.5,195.5 C 449.802,194.962 453.635,199.629 451,209.5C 438.833,221.667 426.667,233.833 414.5,246C 402.489,248.986 398.322,244.486 402,232.5C 414.395,219.937 426.895,207.604 439.5,195.5 Z"/></g>
</svg>
