<?xml version="1.0" encoding="UTF-8"?>
<!DOCTYPE svg PUBLIC "-//W3C//DTD SVG 1.1//EN" "http://www.w3.org/Graphics/SVG/1.1/DTD/svg11.dtd">
<svg xmlns="http://www.w3.org/2000/svg" version="1.1" width="512px" height="512px" style="shape-rendering:geometricPrecision; text-rendering:geometricPrecision; image-rendering:optimizeQuality; fill-rule:evenodd; clip-rule:evenodd" xmlns:xlink="http://www.w3.org/1999/xlink">
<g><path style="opacity:0.976" fill="#000000" d="M 121.5,89.5 C 210.834,89.3333 300.167,89.5 389.5,90C 418.311,94.4771 435.811,110.977 442,139.5C 442.333,177.5 442.667,215.5 443,253.5C 452.472,260.998 458.805,270.664 462,282.5C 463.612,304.791 463.946,327.124 463,349.5C 460.332,360.844 453.832,369.177 443.5,374.5C 442.667,386.152 442.167,397.819 442,409.5C 437.644,419.594 430.144,423.094 419.5,420C 414.577,417.673 411.41,413.84 410,408.5C 409.5,398.506 409.334,388.506 409.5,378.5C 306.833,378.5 204.167,378.5 101.5,378.5C 101.666,388.506 101.5,398.506 101,408.5C 97.1415,419.346 89.6415,423.18 78.5,420C 73.5723,418.073 70.4056,414.573 69,409.5C 68.8325,397.819 68.3325,386.152 67.5,374.5C 57.1685,369.177 50.6685,360.844 48,349.5C 47.3333,328.833 47.3333,308.167 48,287.5C 50.5854,273.648 57.2521,262.314 68,253.5C 68.3333,215.5 68.6667,177.5 69,139.5C 75.3641,110.966 92.8641,94.2991 121.5,89.5 Z M 123.5,122.5 C 212.877,122.01 302.211,122.51 391.5,124C 400.862,127.36 406.695,133.86 409,143.5C 409.5,175.498 409.667,207.498 409.5,239.5C 399.167,239.5 388.833,239.5 378.5,239.5C 378.667,221.164 378.5,202.83 378,184.5C 373.672,167.417 362.839,157.25 345.5,154C 320.833,153.333 296.167,153.333 271.5,154C 265.869,154.983 260.535,156.816 255.5,159.5C 250.465,156.816 245.131,154.983 239.5,154C 214.833,153.333 190.167,153.333 165.5,154C 149.812,156.689 139.312,165.523 134,180.5C 132.549,200.112 132.049,219.779 132.5,239.5C 122.167,239.5 111.833,239.5 101.5,239.5C 101.333,207.498 101.5,175.498 102,143.5C 105.097,132.235 112.264,125.235 123.5,122.5 Z M 168.5,186.5 C 191.591,186.021 214.591,186.521 237.5,188C 238.191,189.067 238.691,190.234 239,191.5C 239.5,207.497 239.667,223.497 239.5,239.5C 214.833,239.5 190.167,239.5 165.5,239.5C 165.333,222.83 165.5,206.163 166,189.5C 167.045,188.627 167.878,187.627 168.5,186.5 Z M 275.5,186.5 C 297.836,186.333 320.169,186.5 342.5,187C 343.333,187.833 344.167,188.667 345,189.5C 345.5,206.163 345.667,222.83 345.5,239.5C 320.833,239.5 296.167,239.5 271.5,239.5C 271.333,223.497 271.5,207.497 272,191.5C 272.257,189.093 273.424,187.427 275.5,186.5 Z M 105.5,271.5 C 207.53,271.013 309.53,271.513 411.5,273C 421,275.833 427.167,282 430,291.5C 431.555,307.798 431.888,324.131 431,340.5C 430.727,342.329 429.893,343.829 428.5,345C 313.167,345.667 197.833,345.667 82.5,345C 81.1068,343.829 80.2735,342.329 80,340.5C 79.112,324.131 79.4453,307.798 81,291.5C 85.0909,279.72 93.2576,273.053 105.5,271.5 Z"/></g>
</svg>
