<?xml version="1.0" encoding="UTF-8"?>
<!DOCTYPE svg PUBLIC "-//W3C//DTD SVG 1.1//EN" "http://www.w3.org/Graphics/SVG/1.1/DTD/svg11.dtd">
<svg xmlns="http://www.w3.org/2000/svg" version="1.1" width="512px" height="512px" style="shape-rendering:geometricPrecision; text-rendering:geometricPrecision; image-rendering:optimizeQuality; fill-rule:evenodd; clip-rule:evenodd" xmlns:xlink="http://www.w3.org/1999/xlink">
<g><path style="opacity:0.952" fill="#000000" d="M 100.5,-0.5 C 203.833,-0.5 307.167,-0.5 410.5,-0.5C 420.06,2.90214 426.227,9.56881 429,19.5C 429.667,176.833 429.667,334.167 429,491.5C 426.227,501.431 420.06,508.098 410.5,511.5C 307.167,511.5 203.833,511.5 100.5,511.5C 90.7534,508.25 84.5868,501.583 82,491.5C 81.3333,334.167 81.3333,176.833 82,19.5C 84.5868,9.41684 90.7534,2.75018 100.5,-0.5 Z M 105.5,10.5 C 116.833,10.5 128.167,10.5 139.5,10.5C 139.823,14.226 139.489,17.8927 138.5,21.5C 121.262,15.5398 109.096,20.8731 102,37.5C 101.333,42.1667 101.333,46.8333 102,51.5C 102.45,53.519 103.283,55.3523 104.5,57C 100.514,57.4988 96.5138,57.6655 92.5,57.5C 92.0824,45.1051 92.5824,32.7718 94,20.5C 96.5658,15.6447 100.399,12.3113 105.5,10.5 Z M 151.5,10.5 C 220.833,10.5 290.167,10.5 359.5,10.5C 359.5,17.5 359.5,24.5 359.5,31.5C 290.167,31.5 220.833,31.5 151.5,31.5C 151.5,24.5 151.5,17.5 151.5,10.5 Z M 371.5,10.5 C 382.838,10.3335 394.172,10.5001 405.5,11C 412.743,12.6515 416.909,17.1515 418,24.5C 418.5,35.495 418.667,46.495 418.5,57.5C 414.486,57.6655 410.486,57.4988 406.5,57C 413.232,39.8558 408.232,27.5224 391.5,20C 385.017,19.0207 378.684,19.5207 372.5,21.5C 371.511,17.8927 371.177,14.226 371.5,10.5 Z M 124.5,30.5 C 134.242,30.6871 139.908,35.5204 141.5,45C 138.689,57.4044 131.355,61.4044 119.5,57C 109.339,45.9744 111.006,37.1411 124.5,30.5 Z M 381.5,30.5 C 395.51,31.9829 400.343,39.3162 396,52.5C 385.638,62.5623 376.971,61.229 370,48.5C 369.073,39.3344 372.907,33.3344 381.5,30.5 Z M 152.5,43.5 C 220.999,42.3345 289.665,42.1679 358.5,43C 358.294,61.6265 367.628,70.7932 386.5,70.5C 386.5,123.5 386.5,176.5 386.5,229.5C 369.28,229.719 359.614,238.385 357.5,255.5C 359.614,272.615 369.28,281.281 386.5,281.5C 386.5,334.5 386.5,387.5 386.5,440.5C 367.628,440.207 358.294,449.373 358.5,468C 289.833,468.667 221.167,468.667 152.5,468C 152.706,449.373 143.372,440.207 124.5,440.5C 124.5,387.5 124.5,334.5 124.5,281.5C 141.729,281.271 151.395,272.605 153.5,255.5C 151.386,238.385 141.72,229.719 124.5,229.5C 124.5,176.5 124.5,123.5 124.5,70.5C 136.831,71.5867 145.664,66.5867 151,55.5C 152.665,51.4227 153.165,47.4227 152.5,43.5 Z M 92.5,69.5 C 99.5,69.5 106.5,69.5 113.5,69.5C 113.5,122.833 113.5,176.167 113.5,229.5C 106.5,229.5 99.5,229.5 92.5,229.5C 92.5,176.167 92.5,122.833 92.5,69.5 Z M 397.5,69.5 C 404.5,69.5 411.5,69.5 418.5,69.5C 418.5,122.833 418.5,176.167 418.5,229.5C 411.5,229.5 404.5,229.5 397.5,229.5C 397.5,176.167 397.5,122.833 397.5,69.5 Z M 200.5,109.5 C 210.826,108.661 215.659,113.328 215,123.5C 210.167,132.113 203.834,133.447 196,127.5C 191.667,119.957 193.167,113.957 200.5,109.5 Z M 234.5,109.5 C 247.621,109.438 251.787,115.438 247,127.5C 239.122,133.428 232.789,132.095 228,123.5C 226.669,117.163 228.836,112.497 234.5,109.5 Z M 268.5,109.5 C 278.826,108.661 283.659,113.328 283,123.5C 278.211,132.095 271.878,133.428 264,127.5C 259.667,119.957 261.167,113.957 268.5,109.5 Z M 302.5,109.5 C 312.826,108.661 317.659,113.328 317,123.5C 312.211,132.095 305.878,133.428 298,127.5C 293.667,119.957 295.167,113.957 302.5,109.5 Z M 218.5,138.5 C 229.984,138.805 234.151,144.472 231,155.5C 227.562,160.081 223.062,161.581 217.5,160C 211.397,156.96 209.231,152.126 211,145.5C 212.742,142.254 215.242,139.921 218.5,138.5 Z M 252.5,138.5 C 262.808,138.307 267.308,143.307 266,153.5C 262.96,159.603 258.126,161.769 251.5,160C 244.124,155.733 242.624,149.899 247,142.5C 248.812,141.023 250.645,139.69 252.5,138.5 Z M 286.5,138.5 C 296.84,138.337 301.34,143.337 300,153.5C 296.23,160.414 290.73,162.247 283.5,159C 276.209,150.916 277.209,144.083 286.5,138.5 Z M 237.5,167.5 C 248.938,170.038 251.938,176.371 246.5,186.5C 241.04,191.767 235.54,191.767 230,186.5C 225.312,177.221 227.812,170.888 237.5,167.5 Z M 271.5,167.5 C 282.677,169.855 285.844,176.188 281,186.5C 275.333,191.833 269.667,191.833 264,186.5C 259.283,177.272 261.783,170.939 271.5,167.5 Z M 252.5,197.5 C 263.984,197.805 268.151,203.472 265,214.5C 261.562,219.081 257.062,220.581 251.5,219C 244.577,215.259 242.744,209.759 246,202.5C 247.965,200.45 250.132,198.783 252.5,197.5 Z M 92.5,241.5 C 96.5546,241.176 100.555,241.509 104.5,242.5C 100.5,251.167 100.5,259.833 104.5,268.5C 100.555,269.491 96.5546,269.824 92.5,269.5C 92.5,260.167 92.5,250.833 92.5,241.5 Z M 122.5,241.5 C 138.213,241.364 143.713,248.697 139,263.5C 133.096,269.972 126.262,271.139 118.5,267C 110.013,256.962 111.346,248.462 122.5,241.5 Z M 379.5,241.5 C 391.46,240.3 397.627,245.634 398,257.5C 394.075,269.044 386.575,272.211 375.5,267C 366.711,256.903 368.044,248.403 379.5,241.5 Z M 406.5,241.5 C 410.5,241.5 414.5,241.5 418.5,241.5C 418.5,250.833 418.5,260.167 418.5,269.5C 414.445,269.824 410.445,269.491 406.5,268.5C 410.453,259.501 410.453,250.501 406.5,241.5 Z M 92.5,281.5 C 99.5,281.5 106.5,281.5 113.5,281.5C 113.5,334.833 113.5,388.167 113.5,441.5C 106.5,441.5 99.5,441.5 92.5,441.5C 92.5,388.167 92.5,334.833 92.5,281.5 Z M 397.5,281.5 C 404.5,281.5 411.5,281.5 418.5,281.5C 418.5,334.833 418.5,388.167 418.5,441.5C 411.5,441.5 404.5,441.5 397.5,441.5C 397.5,388.167 397.5,334.833 397.5,281.5 Z M 251.5,356.5 C 261.808,355.643 266.641,360.309 266,370.5C 263.747,376.926 259.247,379.426 252.5,378C 245.852,375.426 243.352,370.593 245,363.5C 246.694,360.642 248.861,358.309 251.5,356.5 Z M 124.5,451.5 C 134.197,451.673 139.864,456.507 141.5,466C 138.732,478.384 131.398,482.384 119.5,478C 109.339,466.974 111.006,458.141 124.5,451.5 Z M 381.5,451.5 C 395.515,452.987 400.348,460.32 396,473.5C 389.873,481.126 382.707,482.292 374.5,477C 366.445,465.617 368.778,457.117 381.5,451.5 Z M 92.5,453.5 C 96.5138,453.334 100.514,453.501 104.5,454C 97.3693,471.278 102.369,483.611 119.5,491C 125.983,491.979 132.316,491.479 138.5,489.5C 139.489,493.107 139.823,496.774 139.5,500.5C 128.162,500.667 116.828,500.5 105.5,500C 98.2575,498.348 94.0908,493.848 93,486.5C 92.5002,475.505 92.3335,464.505 92.5,453.5 Z M 406.5,454.5 C 410.298,453.517 414.298,453.183 418.5,453.5C 418.667,464.505 418.5,475.505 418,486.5C 416.909,493.848 412.743,498.348 405.5,500C 394.172,500.5 382.838,500.667 371.5,500.5C 371.177,496.774 371.511,493.107 372.5,489.5C 390.272,495.528 402.438,489.861 409,472.5C 409.667,468.167 409.667,463.833 409,459.5C 408.626,457.509 407.793,455.842 406.5,454.5 Z M 151.5,479.5 C 220.833,479.5 290.167,479.5 359.5,479.5C 359.5,486.5 359.5,493.5 359.5,500.5C 290.167,500.5 220.833,500.5 151.5,500.5C 151.5,493.5 151.5,486.5 151.5,479.5 Z"/></g>
<g><path style="opacity:0.914" fill="#000000" d="M 36.5,511.5 C 28.8333,511.5 21.1667,511.5 13.5,511.5C 7.16667,508.5 2.5,503.833 -0.5,497.5C -0.5,485.167 -0.5,472.833 -0.5,460.5C 3.88358,342.335 8.05025,224.002 12,105.5C 16.4523,96.3489 23.2856,93.8489 32.5,98C 36.6422,101.12 38.4755,105.287 38,110.5C 42.5776,239.159 46.5776,367.826 50,496.5C 47.7368,503.593 43.2368,508.593 36.5,511.5 Z M 24.5,107.5 C 25.1174,107.611 25.6174,107.944 26,108.5C 29.1891,198.506 32.3558,288.506 35.5,378.5C 28.5,378.5 21.5,378.5 14.5,378.5C 17.0585,288.072 20.3918,197.739 24.5,107.5 Z M 13.5,390.5 C 20.8333,390.5 28.1667,390.5 35.5,390.5C 37.155,425.15 37.9884,459.817 38,494.5C 34.9853,499.172 30.652,501.172 25,500.5C 18.0724,501.544 13.4058,498.877 11,492.5C 11.9294,458.517 12.7628,424.517 13.5,390.5 Z"/></g>
<g><path style="opacity:0.914" fill="#000000" d="M 511.5,460.5 C 511.5,472.833 511.5,485.167 511.5,497.5C 508.5,503.833 503.833,508.5 497.5,511.5C 489.833,511.5 482.167,511.5 474.5,511.5C 463.14,505.95 458.474,496.784 460.5,484C 464.7,359.501 468.867,235.001 473,110.5C 474.485,97.5089 481.318,93.3423 493.5,98C 496.467,100.1 498.3,102.934 499,106.5C 502.972,224.667 507.139,342.667 511.5,460.5 Z M 485.5,107.5 C 486.117,107.611 486.617,107.944 487,108.5C 490.633,198.48 493.799,288.48 496.5,378.5C 489.5,378.5 482.5,378.5 475.5,378.5C 478.502,288.098 481.835,197.765 485.5,107.5 Z M 475.5,390.5 C 482.833,390.5 490.167,390.5 497.5,390.5C 498.267,424.516 499.101,458.516 500,492.5C 497.594,498.877 492.928,501.544 486,500.5C 480.348,501.172 476.015,499.172 473,494.5C 473.012,459.817 473.845,425.15 475.5,390.5 Z"/></g>
<g><path style="opacity:0.913" fill="#000000" d="M 198.5,97.5 C 207.394,96.0219 215.061,98.3552 221.5,104.5C 232.833,95.1667 244.167,95.1667 255.5,104.5C 266.833,95.1667 278.167,95.1667 289.5,104.5C 298.655,96.6242 308.655,95.4576 319.5,101C 331.584,112.084 332.584,124.084 322.5,137C 318.94,139.607 315.274,141.94 311.5,144C 313.622,155.093 309.955,163.759 300.5,170C 298.564,170.813 296.564,171.313 294.5,171.5C 296.812,180.752 294.812,188.918 288.5,196C 284.635,198.095 280.968,200.428 277.5,203C 279.784,219.886 272.451,229.386 255.5,231.5C 238.549,229.386 231.216,219.886 233.5,203C 230.032,200.428 226.365,198.095 222.5,196C 216.188,188.918 214.188,180.752 216.5,171.5C 207.259,169.427 201.426,163.76 199,154.5C 198.283,150.955 198.45,147.455 199.5,144C 182.873,136.573 178.04,124.407 185,107.5C 188.579,102.731 193.079,99.3974 198.5,97.5 Z M 200.5,109.5 C 193.167,113.957 191.667,119.957 196,127.5C 203.834,133.447 210.167,132.113 215,123.5C 215.659,113.328 210.826,108.661 200.5,109.5 Z M 234.5,109.5 C 228.836,112.497 226.669,117.163 228,123.5C 232.789,132.095 239.122,133.428 247,127.5C 251.787,115.438 247.621,109.438 234.5,109.5 Z M 268.5,109.5 C 261.167,113.957 259.667,119.957 264,127.5C 271.878,133.428 278.211,132.095 283,123.5C 283.659,113.328 278.826,108.661 268.5,109.5 Z M 302.5,109.5 C 295.167,113.957 293.667,119.957 298,127.5C 305.878,133.428 312.211,132.095 317,123.5C 317.659,113.328 312.826,108.661 302.5,109.5 Z M 218.5,138.5 C 215.242,139.921 212.742,142.254 211,145.5C 209.231,152.126 211.397,156.96 217.5,160C 223.062,161.581 227.562,160.081 231,155.5C 234.151,144.472 229.984,138.805 218.5,138.5 Z M 252.5,138.5 C 250.645,139.69 248.812,141.023 247,142.5C 242.624,149.899 244.124,155.733 251.5,160C 258.126,161.769 262.96,159.603 266,153.5C 267.308,143.307 262.808,138.307 252.5,138.5 Z M 286.5,138.5 C 277.209,144.083 276.209,150.916 283.5,159C 290.73,162.247 296.23,160.414 300,153.5C 301.34,143.337 296.84,138.337 286.5,138.5 Z M 237.5,167.5 C 227.812,170.888 225.312,177.221 230,186.5C 235.54,191.767 241.04,191.767 246.5,186.5C 251.938,176.371 248.938,170.038 237.5,167.5 Z M 271.5,167.5 C 261.783,170.939 259.283,177.272 264,186.5C 269.667,191.833 275.333,191.833 281,186.5C 285.844,176.188 282.677,169.855 271.5,167.5 Z M 252.5,197.5 C 250.132,198.783 247.965,200.45 246,202.5C 242.744,209.759 244.577,215.259 251.5,219C 257.062,220.581 261.562,219.081 265,214.5C 268.151,203.472 263.984,197.805 252.5,197.5 Z"/></g>
<g><path style="opacity:0.899" fill="#000000" d="M 251.5,344.5 C 269.644,344.476 278.477,353.476 278,371.5C 274.464,385.189 265.631,391.356 251.5,390C 237.811,386.464 231.644,377.631 233,363.5C 235.348,353.32 241.515,346.987 251.5,344.5 Z M 251.5,356.5 C 248.861,358.309 246.694,360.642 245,363.5C 243.352,370.593 245.852,375.426 252.5,378C 259.247,379.426 263.747,376.926 266,370.5C 266.641,360.309 261.808,355.643 251.5,356.5 Z"/></g>
</svg>
