<?xml version="1.0" encoding="UTF-8"?>
<!DOCTYPE svg PUBLIC "-//W3C//DTD SVG 1.1//EN" "http://www.w3.org/Graphics/SVG/1.1/DTD/svg11.dtd">
<svg xmlns="http://www.w3.org/2000/svg" version="1.1" width="512px" height="512px" style="shape-rendering:geometricPrecision; text-rendering:geometricPrecision; image-rendering:optimizeQuality; fill-rule:evenodd; clip-rule:evenodd" xmlns:xlink="http://www.w3.org/1999/xlink">
<g><path style="opacity:0.935" fill="#000000" d="M 128.5,3.5 C 133.358,4.5956 137.691,6.76226 141.5,10C 148.937,15.1366 156.104,20.6366 163,26.5C 172.833,19.3333 182.667,12.1667 192.5,5C 198.546,2.57058 202.712,4.40391 205,10.5C 205.499,16.4908 205.666,22.4908 205.5,28.5C 238.833,28.5 272.167,28.5 305.5,28.5C 305.116,21.4112 305.616,14.4112 307,7.5C 308.779,5.23646 311.113,3.90312 314,3.5C 317.72,4.87951 321.22,6.71285 324.5,9C 332.333,14.8333 340.167,20.6667 348,26.5C 358.318,17.842 369.318,10.1754 381,3.5C 384.72,4.87951 388.22,6.71285 391.5,9C 399.333,14.8333 407.167,20.6667 415,26.5C 425.366,17.8259 436.366,10.1592 448,3.5C 451.425,3.91944 454.091,5.5861 456,8.5C 456.972,15.1346 457.639,21.8013 458,28.5C 466.505,12.7761 479.005,8.60943 495.5,16C 505.315,23.436 508.815,33.2693 506,45.5C 503.096,54.0696 497.263,59.5696 488.5,62C 475.172,64.9165 465.338,60.4165 459,48.5C 458.667,48.8333 458.333,49.1667 458,49.5C 457.854,192.17 457.187,334.837 456,477.5C 447.456,485.046 438.623,492.212 429.5,499C 425.112,502.862 420.112,505.695 414.5,507.5C 402.671,500.844 391.504,493.178 381,484.5C 371.783,492.051 362.283,499.218 352.5,506C 350.246,507.15 347.913,507.484 345.5,507C 332.103,498.271 319.27,488.771 307,478.5C 305.522,334.514 305.022,190.514 305.5,46.5C 272.167,46.5 238.833,46.5 205.5,46.5C 205.976,190.513 205.476,334.513 204,478.5C 191.45,489.558 177.95,499.225 163.5,507.5C 159.509,506.348 155.842,504.515 152.5,502C 144.91,496.287 137.41,490.454 130,484.5C 119.496,493.178 108.329,500.844 96.5,507.5C 94.8034,507.101 93.1368,506.601 91.5,506C 78.7604,497.264 66.5937,487.764 55,477.5C 53.9615,334.836 53.1281,192.169 52.5,49.5C 41.9856,63.4057 28.9856,66.2391 13.5,58C 5.0567,50.665 2.22337,41.4983 5,30.5C 8.78149,18.9367 16.7815,12.9367 29,12.5C 40.2131,13.0513 48.2131,18.3846 53,28.5C 53.2886,21.792 53.9552,15.1253 55,8.5C 56.3929,5.63389 58.7262,4.30056 62,4.5C 65.4094,4.95237 68.576,6.11904 71.5,8C 79.7563,14.0452 87.923,20.2118 96,26.5C 106.48,18.1636 117.313,10.4969 128.5,3.5 Z M 27.5,29.5 C 35.687,30.5399 38.187,34.8732 35,42.5C 28.1096,47.46 23.6096,45.7934 21.5,37.5C 22.3565,33.9767 24.3565,31.31 27.5,29.5 Z M 480.5,29.5 C 488.665,30.9485 490.999,35.2818 487.5,42.5C 480.774,47.3088 476.441,45.6421 474.5,37.5C 474.654,33.3573 476.654,30.6907 480.5,29.5 Z M 71.5,30.5 C 76.7874,33.9474 81.9541,37.6141 87,41.5C 87.6667,187.833 87.6667,334.167 87,480.5C 82.0247,477.025 77.1914,473.359 72.5,469.5C 71.5,323.168 71.1667,176.835 71.5,30.5 Z M 119.5,30.5 C 120.833,177.001 120.833,323.667 119.5,470.5C 114.911,473.711 110.411,477.045 106,480.5C 105.333,334.167 105.333,187.833 106,41.5C 110.979,38.3476 115.479,34.6809 119.5,30.5 Z M 138.5,30.5 C 143.787,33.9474 148.954,37.6141 154,41.5C 154.667,187.833 154.667,334.167 154,480.5C 149.077,476.955 144.244,473.288 139.5,469.5C 138.5,323.168 138.167,176.835 138.5,30.5 Z M 186.5,30.5 C 187.666,176.666 187.833,322.999 187,469.5C 182.152,472.926 177.485,476.592 173,480.5C 172.333,334.167 172.333,187.833 173,41.5C 177.846,38.1735 182.346,34.5068 186.5,30.5 Z M 371.5,30.5 C 372.833,176.667 372.833,323.001 371.5,469.5C 366.756,473.288 361.923,476.955 357,480.5C 356.333,334.167 356.333,187.833 357,41.5C 362.018,37.9699 366.851,34.3032 371.5,30.5 Z M 390.5,30.5 C 395.173,34.3344 400.006,38.0011 405,41.5C 405.667,187.833 405.667,334.167 405,480.5C 400.589,477.045 396.089,473.711 391.5,470.5C 390.5,323.835 390.167,177.168 390.5,30.5 Z M 438.5,30.5 C 439.833,176.667 439.833,323.001 438.5,469.5C 433.809,473.359 428.975,477.025 424,480.5C 423.333,334.167 423.333,187.833 424,41.5C 429.018,37.9699 433.851,34.3032 438.5,30.5 Z M 323.5,31.5 C 328.435,34.5874 333.268,37.9207 338,41.5C 338.667,187.833 338.667,334.167 338,480.5C 333.515,476.592 328.848,472.926 324,469.5C 323.5,323.5 323.333,177.5 323.5,31.5 Z"/></g>
</svg>
