<?xml version="1.0" encoding="UTF-8"?>
<!DOCTYPE svg PUBLIC "-//W3C//DTD SVG 1.1//EN" "http://www.w3.org/Graphics/SVG/1.1/DTD/svg11.dtd">
<svg xmlns="http://www.w3.org/2000/svg" version="1.1" width="512px" height="512px" style="shape-rendering:geometricPrecision; text-rendering:geometricPrecision; image-rendering:optimizeQuality; fill-rule:evenodd; clip-rule:evenodd" xmlns:xlink="http://www.w3.org/1999/xlink">
<g><path style="opacity:0.946" fill="#000000" d="M 138.5,-0.5 C 201.167,-0.5 263.833,-0.5 326.5,-0.5C 341.953,4.96995 350.286,15.97 351.5,32.5C 374.46,30.9671 383.96,41.6338 380,64.5C 377.35,73.3227 371.517,78.3227 362.5,79.5C 362.448,83.1981 362.114,86.8648 361.5,90.5C 369.84,90.3336 378.173,90.5003 386.5,91C 417,94.8333 434.167,112 438,142.5C 438.851,164.522 438.518,186.522 437,208.5C 432.65,236.371 418.817,258.204 395.5,274C 374.915,286.877 354.082,299.377 333,311.5C 332.001,318.822 331.168,326.156 330.5,333.5C 345.064,334.581 356.231,341.247 364,353.5C 366.455,357.531 368.121,361.864 369,366.5C 370.593,396.808 370.927,427.142 370,457.5C 367.694,469.246 360.527,474.58 348.5,473.5C 351.738,491.702 345.071,504.369 328.5,511.5C 264.5,511.5 200.5,511.5 136.5,511.5C 127.184,508.349 121.017,502.016 118,492.5C 116.893,486.213 116.393,479.88 116.5,473.5C 106.096,474.559 99.2624,470.226 96,460.5C 95.3333,450.833 95.3333,441.167 96,431.5C 98.4353,426.776 102.269,425.276 107.5,427C 108.667,428.167 109.833,429.333 111,430.5C 111.181,439.411 111.681,448.245 112.5,457C 193.07,457.832 273.57,457.665 354,456.5C 354.667,429.5 354.667,402.5 354,375.5C 352.69,362.526 345.856,354.026 333.5,350C 266.167,349.333 198.833,349.333 131.5,350C 120.789,353.376 114.289,360.543 112,371.5C 111.667,381.167 111.333,390.833 111,400.5C 105.561,407.288 100.561,406.955 96,399.5C 95.3333,389.5 95.3333,379.5 96,369.5C 100.439,347.893 113.606,335.893 135.5,333.5C 129.725,263.47 123.558,193.47 117,123.5C 107.5,109.167 98,94.8333 88.5,80.5C 77.377,75.9301 72.0437,67.5967 72.5,55.5C 72.1715,44.2953 77.1715,36.7953 87.5,33C 95.8333,32.6667 104.167,32.3333 112.5,32C 114.01,15.3341 122.677,4.50074 138.5,-0.5 Z M 146.5,14.5 C 203.834,14.3333 261.168,14.5 318.5,15C 328.424,16.7567 334.091,22.5901 335.5,32.5C 266.833,32.5 198.167,32.5 129.5,32.5C 130.401,21.9338 136.068,15.9338 146.5,14.5 Z M 90.5,48.5 C 181.167,48.3333 271.834,48.5 362.5,49C 363,49.5 363.5,50 364,50.5C 364.667,54.1667 364.667,57.8333 364,61.5C 363.097,62.7014 361.931,63.5348 360.5,64C 323.167,64.3333 285.833,64.6667 248.5,65C 243.316,69.6249 243.316,74.2915 248.5,79C 281.165,79.5 313.832,79.6666 346.5,79.5C 341.825,118.898 336.659,158.231 331,197.5C 304.895,185.955 278.228,184.621 251,193.5C 218.892,180.848 186.392,179.681 153.5,190C 148.802,191.766 144.302,193.933 140,196.5C 137.547,170.845 135.213,145.178 133,119.5C 124.886,106.111 116.386,92.9447 107.5,80C 144.833,79.6667 182.167,79.3333 219.5,79C 223.212,76.4425 224.378,72.9425 223,68.5C 222.5,66.6667 221.333,65.5 219.5,65C 177.5,64.6667 135.5,64.3333 93.5,64C 91.1517,63.8898 89.6517,62.7231 89,60.5C 88.0805,56.2686 88.5805,52.2686 90.5,48.5 Z M 359.5,106.5 C 368.506,106.334 377.506,106.5 386.5,107C 407.463,110.296 419.296,122.463 422,143.5C 422.874,164.526 422.54,185.526 421,206.5C 417.769,225.462 408.936,241.296 394.5,254C 375.924,267.544 356.424,279.71 336,290.5C 336.338,283.806 337.338,277.14 339,270.5C 355.242,261.965 371.076,252.798 386.5,243C 397.176,235.147 403.343,224.647 405,211.5C 406.514,188.187 406.848,164.854 406,141.5C 404.805,132.588 399.971,126.755 391.5,124C 380.172,123.5 368.838,123.333 357.5,123.5C 358.085,117.822 358.751,112.155 359.5,106.5 Z M 355.5,139.5 C 366.172,139.333 376.839,139.5 387.5,140C 388.667,140.5 389.5,141.333 390,142.5C 390.871,165.19 390.538,187.857 389,210.5C 387.245,218.501 383.079,225.001 376.5,230C 364.964,237.762 352.964,244.429 340.5,250C 345.62,213.208 350.62,176.375 355.5,139.5 Z M 193.5,198.5 C 206.152,198.413 218.485,200.247 230.5,204C 210.012,216.304 188.012,219.97 164.5,215C 159.201,214.095 154.201,212.429 149.5,210C 163.445,203.05 178.111,199.216 193.5,198.5 Z M 282.5,203.5 C 298.372,203.374 313.372,206.874 327.5,214C 328.357,214.689 329.023,215.522 329.5,216.5C 323.927,255.416 318.927,294.416 314.5,333.5C 260.167,333.5 205.833,333.5 151.5,333.5C 148.914,298.636 145.914,263.803 142.5,229C 142.833,227.833 143.167,226.667 143.5,225.5C 171.221,236.136 198.888,235.97 226.5,225C 235.5,220 244.5,215 253.5,210C 263.019,206.532 272.685,204.366 282.5,203.5 Z M 132.5,473.5 C 199.167,473.5 265.833,473.5 332.5,473.5C 332.851,479.262 332.351,484.928 331,490.5C 328.658,493.754 325.491,495.588 321.5,496C 292,496.167 262.5,496.333 233,496.5C 201.795,496.648 170.628,496.148 139.5,495C 137,493.833 135.167,492 134,489.5C 132.809,484.233 132.309,478.899 132.5,473.5 Z"/></g>
<g><path style="opacity:0.928" fill="#000000" d="M 188.5,371.5 C 213.799,371.631 225.965,384.298 225,409.5C 219.107,428.372 206.274,436.539 186.5,434C 167.864,427.913 160.031,415.08 163,395.5C 167.192,382.805 175.692,374.805 188.5,371.5 Z M 190.5,387.5 C 203.343,387.508 209.509,393.841 209,406.5C 204.268,418.302 196.101,421.469 184.5,416C 178.401,410.257 176.901,403.423 180,395.5C 182.855,391.789 186.355,389.123 190.5,387.5 Z"/></g>
<g><path style="opacity:0.902" fill="#000000" d="M 255.5,377.5 C 263.84,377.334 272.173,377.5 280.5,378C 287.167,383 287.167,388 280.5,393C 272.167,393.667 263.833,393.667 255.5,393C 250.776,390.565 249.276,386.731 251,381.5C 252.397,379.93 253.897,378.596 255.5,377.5 Z"/></g>
<g><path style="opacity:0.948" fill="#000000" d="M 254.5,413.5 C 263.506,413.334 272.506,413.5 281.5,414C 286.833,418.667 286.833,423.333 281.5,428C 272.5,428.667 263.5,428.667 254.5,428C 251.634,426.607 250.301,424.274 250.5,421C 250.43,417.634 251.763,415.134 254.5,413.5 Z"/></g>
</svg>
