<?xml version="1.0" encoding="UTF-8"?>
<!DOCTYPE svg PUBLIC "-//W3C//DTD SVG 1.1//EN" "http://www.w3.org/Graphics/SVG/1.1/DTD/svg11.dtd">
<svg xmlns="http://www.w3.org/2000/svg" version="1.1" width="512px" height="512px" style="shape-rendering:geometricPrecision; text-rendering:geometricPrecision; image-rendering:optimizeQuality; fill-rule:evenodd; clip-rule:evenodd" xmlns:xlink="http://www.w3.org/1999/xlink">
<g><path style="opacity:0.986" fill="#000000" d="M 198.5,-0.5 C 229.5,-0.5 260.5,-0.5 291.5,-0.5C 292.122,0.626561 292.955,1.62656 294,2.5C 294.5,25.831 294.667,49.1643 294.5,72.5C 305.613,69.6436 313.446,73.3102 318,83.5C 318.5,101.497 318.667,119.497 318.5,137.5C 325.175,137.334 331.842,137.5 338.5,138C 341.937,139.105 344.437,141.272 346,144.5C 347.456,161.097 347.956,177.763 347.5,194.5C 364.638,196.469 375.472,205.802 380,222.5C 380.667,309.5 380.667,396.5 380,483.5C 375.984,498.015 366.817,507.348 352.5,511.5C 300.5,511.5 248.5,511.5 196.5,511.5C 182.156,507.322 172.989,497.989 169,483.5C 168.333,396.5 168.333,309.5 169,222.5C 173.528,205.802 184.362,196.469 201.5,194.5C 201.044,177.763 201.544,161.097 203,144.5C 204.765,141.527 207.265,139.36 210.5,138C 217.158,137.5 223.825,137.334 230.5,137.5C 230.333,119.497 230.5,101.497 231,83.5C 236.036,73.4137 244.202,69.7471 255.5,72.5C 255.5,60.8333 255.5,49.1667 255.5,37.5C 229.831,37.6666 204.165,37.5 178.5,37C 176.005,34.7813 175.005,31.948 175.5,28.5C 176.877,13.7947 184.544,4.12804 198.5,-0.5 Z M 206.5,13.5 C 230.833,13.5 255.167,13.5 279.5,13.5C 279.5,33.1667 279.5,52.8333 279.5,72.5C 276.5,72.5 273.5,72.5 270.5,72.5C 270.667,57.163 270.5,41.8297 270,26.5C 269.167,25.6667 268.333,24.8333 267.5,24C 242.167,23.6667 216.833,23.3333 191.5,23C 195.127,17.5167 200.127,14.3501 206.5,13.5 Z M 247.5,86.5 C 266.213,86.1796 284.88,86.513 303.5,87.5C 304.192,88.0253 304.692,88.6919 305,89.5C 305.667,104.833 305.667,120.167 305,135.5C 304.25,136.126 303.416,136.626 302.5,137C 293.333,137.167 284.167,137.333 275,137.5C 265.072,137.643 255.238,137.143 245.5,136C 244.343,120.574 244.176,105.074 245,89.5C 245.698,88.3094 246.531,87.3094 247.5,86.5 Z M 216.5,151.5 C 255.172,151.167 293.839,151.5 332.5,152.5C 333.648,165.788 333.815,179.121 333,192.5C 313.717,193.827 294.217,194.494 274.5,194.5C 255.167,194.333 235.833,194.167 216.5,194C 216,193.5 215.5,193 215,192.5C 214.333,179.5 214.333,166.5 215,153.5C 215.717,152.956 216.217,152.289 216.5,151.5 Z M 205.5,208.5 C 251.835,208.333 298.168,208.5 344.5,209C 358.137,210.304 365.304,217.804 366,231.5C 366.667,312.5 366.667,393.5 366,474.5C 365.167,488.667 357.667,496.167 343.5,497C 297.5,497.667 251.5,497.667 205.5,497C 191.333,496.167 183.833,488.667 183,474.5C 182.333,393.5 182.333,312.5 183,231.5C 184.01,217.324 191.51,209.658 205.5,208.5 Z M 242.5,302.5 C 263.836,302.333 285.169,302.5 306.5,303C 309.276,303.066 311.442,304.232 313,306.5C 314.648,344.774 314.982,383.107 314,421.5C 313.654,423.848 312.487,425.681 310.5,427C 287.884,428.624 265.217,428.958 242.5,428C 240.324,427.837 238.491,427.004 237,425.5C 235.358,386.88 235.024,348.213 236,309.5C 236.346,305.325 238.512,302.992 242.5,302.5 Z"/></g>
<g><path style="opacity:0.924" fill="#000000" d="M 397.5,25.5 C 410.883,23.1842 422.217,26.8508 431.5,36.5C 449.9,29.2495 464.733,33.5828 476,49.5C 477.197,52.0891 478.197,54.7558 479,57.5C 479.495,64.2051 479.495,70.8717 479,77.5C 486.754,86.4438 489.421,96.7771 487,108.5C 482.984,123.686 473.15,131.686 457.5,132.5C 454.88,145.957 446.88,154.457 433.5,158C 422.9,160.151 413.234,158.151 404.5,152C 386.298,154.479 372.465,147.979 363,132.5C 360.345,125.161 359.845,117.661 361.5,110C 358.713,105.866 355.879,101.699 353,97.5C 347.116,81.822 350.616,68.6553 363.5,58C 366.54,55.7796 369.873,54.2796 373.5,53.5C 375.433,38.9043 383.433,29.571 397.5,25.5 Z M 400.5,40.5 C 407.19,39.4787 413.19,40.9787 418.5,45C 420.519,48.0138 422.852,50.6804 425.5,53C 428.167,53.6667 430.833,53.6667 433.5,53C 440.79,47.9433 448.457,47.2766 456.5,51C 459.433,53.2643 461.6,56.0976 463,59.5C 463.608,66.9544 463.275,74.2877 462,81.5C 464.324,84.823 466.991,87.823 470,90.5C 473.465,99.9933 471.632,108.16 464.5,115C 458.314,117.198 451.98,118.865 445.5,120C 443.594,125.864 441.427,131.697 439,137.5C 433.597,143.059 427.097,144.892 419.5,143C 415.553,140.72 411.887,138.053 408.5,135C 403.442,134.737 398.442,135.237 393.5,136.5C 379.943,134.722 374.11,127.055 376,113.5C 378.076,110.783 378.743,107.783 378,104.5C 373.65,99.813 369.65,94.813 366,89.5C 364.312,81.7109 366.478,75.2109 372.5,70C 377.36,67.7536 382.193,65.587 387,63.5C 386.899,58.7501 387.899,54.0834 390,49.5C 392.505,45.1888 396.005,42.1888 400.5,40.5 Z"/></g>
<g><path style="opacity:0.924" fill="#000000" d="M 169.5,45.5 C 172.749,46.0412 175.249,47.7079 177,50.5C 187.848,66.3754 194.348,83.8754 196.5,103C 196.221,116.925 189.888,126.925 177.5,133C 156.315,134.495 144.982,124.495 143.5,103C 145.652,83.8754 152.152,66.3754 163,50.5C 164.603,47.9649 166.769,46.2982 169.5,45.5 Z M 169.5,68.5 C 176.415,78.5659 180.415,89.8992 181.5,102.5C 181.573,114.619 175.906,119.453 164.5,117C 160.291,113.34 158.291,108.674 158.5,103C 160.066,90.8038 163.732,79.3038 169.5,68.5 Z"/></g>
<g><path style="opacity:0.924" fill="#000000" d="M 127.5,125.5 C 130.749,126.041 133.249,127.708 135,130.5C 145.848,146.375 152.348,163.875 154.5,183C 154.221,196.925 147.888,206.925 135.5,213C 114.315,214.495 102.982,204.495 101.5,183C 103.652,163.875 110.152,146.375 121,130.5C 122.603,127.965 124.769,126.298 127.5,125.5 Z M 127.5,148.5 C 134.415,158.566 138.415,169.899 139.5,182.5C 139.573,194.619 133.906,199.453 122.5,197C 118.291,193.34 116.291,188.674 116.5,183C 118.066,170.804 121.732,159.304 127.5,148.5 Z"/></g>
<g><path style="opacity:0.925" fill="#000000" d="M 71.5,235.5 C 84.4903,233.386 95.4903,237.052 104.5,246.5C 127.438,238.413 142.938,245.746 151,268.5C 151.333,275.167 151.667,281.833 152,288.5C 155.639,292.11 157.972,296.444 159,301.5C 162.239,319.852 155.739,333.352 139.5,342C 136.607,343.149 133.607,343.649 130.5,343.5C 127.44,356.394 119.44,364.561 106.5,368C 95.584,370.397 85.9173,368.063 77.5,361C 58.3632,364.681 44.5299,357.848 36,340.5C 34.9747,332.87 34.1414,325.203 33.5,317.5C 24.5368,307.344 22.0368,295.677 26,282.5C 29.8437,272.819 36.6771,266.486 46.5,263.5C 49.1967,249.136 57.5301,239.803 71.5,235.5 Z M 73.5,250.5 C 78.2675,250.191 82.9342,250.691 87.5,252C 91.5636,255.726 95.2302,259.726 98.5,264C 101.167,264.667 103.833,264.667 106.5,264C 115.903,256.561 125.069,256.728 134,264.5C 138.433,272.495 138.6,280.662 134.5,289C 134.741,290.984 135.408,292.817 136.5,294.5C 146.718,302.736 148.218,312.402 141,323.5C 134.952,327.904 128.119,329.738 120.5,329C 119.667,329.833 118.833,330.667 118,331.5C 116.589,348.941 107.423,355.774 90.5,352C 87.5117,350.01 84.8451,347.677 82.5,345C 75.5482,345.754 68.5482,346.087 61.5,346C 55.6667,344.167 51.8333,340.333 50,334.5C 49.371,327.704 49.7044,321.038 51,314.5C 46.9827,310.145 43.316,305.478 40,300.5C 37.9677,292.266 40.1343,285.433 46.5,280C 50.7295,278.152 54.8962,276.319 59,274.5C 58.7863,263.259 63.6197,255.259 73.5,250.5 Z"/></g>
<g><path style="opacity:0.983" fill="#000000" d="M 235.5,288.5 C 261.502,288.333 287.502,288.5 313.5,289C 320,291.5 324.5,296 327,302.5C 327.667,344.5 327.667,386.5 327,428.5C 324.5,435 320,439.5 313.5,442C 287.5,442.667 261.5,442.667 235.5,442C 229,439.5 224.5,435 222,428.5C 221.333,386.5 221.333,344.5 222,302.5C 224.687,295.981 229.187,291.314 235.5,288.5 Z M 242.5,302.5 C 238.512,302.992 236.346,305.325 236,309.5C 235.024,348.213 235.358,386.88 237,425.5C 238.491,427.004 240.324,427.837 242.5,428C 265.217,428.958 287.884,428.624 310.5,427C 312.487,425.681 313.654,423.848 314,421.5C 314.982,383.107 314.648,344.774 313,306.5C 311.442,304.232 309.276,303.066 306.5,303C 285.169,302.5 263.836,302.333 242.5,302.5 Z"/></g>
</svg>
