<?xml version="1.0" encoding="UTF-8"?>
<!DOCTYPE svg PUBLIC "-//W3C//DTD SVG 1.1//EN" "http://www.w3.org/Graphics/SVG/1.1/DTD/svg11.dtd">
<svg xmlns="http://www.w3.org/2000/svg" version="1.1" width="512px" height="512px" style="shape-rendering:geometricPrecision; text-rendering:geometricPrecision; image-rendering:optimizeQuality; fill-rule:evenodd; clip-rule:evenodd" xmlns:xlink="http://www.w3.org/1999/xlink">
<g><path style="opacity:0.927" fill="#000000" d="M 141.5,37.5 C 146.589,36.4285 150.422,38.0952 153,42.5C 153.015,52.2247 156.681,60.2247 164,66.5C 171.411,79.3356 172.411,92.6689 167,106.5C 163,112.5 159,118.5 155,124.5C 154.081,128.87 153.081,133.203 152,137.5C 147.585,141.051 142.918,141.384 138,138.5C 134.498,128.307 135.831,118.64 142,109.5C 145.385,105.783 148.385,101.783 151,97.5C 153.171,91.0382 152.838,84.7049 150,78.5C 140.042,68.9615 135.375,57.2949 136,43.5C 137.36,40.9774 139.193,38.9774 141.5,37.5 Z"/></g>
<g><path style="opacity:0.925" fill="#000000" d="M 192.5,37.5 C 196.516,36.8999 200.016,37.8999 203,40.5C 204.183,44.7676 205.183,49.101 206,53.5C 210.727,59.8971 215.06,66.5637 219,73.5C 222.333,83.8333 222.333,94.1667 219,104.5C 215.06,111.436 210.727,118.103 206,124.5C 205.319,128.929 204.319,133.263 203,137.5C 197.643,141.787 192.643,141.453 188,136.5C 186.043,126.943 187.71,117.943 193,109.5C 207,95.8333 207,82.1667 193,68.5C 187.717,60.0904 186.05,51.0904 188,41.5C 189.397,39.9297 190.897,38.5964 192.5,37.5 Z"/></g>
<g><path style="opacity:0.928" fill="#000000" d="M 243.5,37.5 C 247.516,36.8999 251.016,37.8999 254,40.5C 255.652,45.4061 256.985,50.4061 258,55.5C 262.784,60.956 266.784,66.956 270,73.5C 274.667,83.8333 274.667,94.1667 270,104.5C 266.784,111.044 262.784,117.044 258,122.5C 256.786,127.114 255.786,131.78 255,136.5C 249.667,141.833 244.333,141.833 239,136.5C 236.984,122.847 240.984,111.18 251,101.5C 254.331,95.5822 255.331,89.2489 254,82.5C 250.724,76.8918 247.057,71.5585 243,66.5C 238.769,58.5372 237.435,50.2039 239,41.5C 240.397,39.9297 241.897,38.5964 243.5,37.5 Z"/></g>
<g><path style="opacity:0.944" fill="#000000" d="M 511.5,236.5 C 511.5,249.5 511.5,262.5 511.5,275.5C 508.392,299.235 500.058,321.069 486.5,341C 490.642,348.296 490.475,355.463 486,362.5C 473.518,380.655 457.352,394.488 437.5,404C 457.833,404.333 478.167,404.667 498.5,405C 504.27,407.273 508.603,411.106 511.5,416.5C 511.5,426.5 511.5,436.5 511.5,446.5C 505.174,462.034 493.507,470.867 476.5,473C 340.5,473.667 204.5,473.667 68.5,473C 44.4752,469.656 32.8085,455.989 33.5,432C 30.6119,419.257 34.9452,410.257 46.5,405C 71.8333,404.667 97.1667,404.333 122.5,404C 106.8,392.282 95.6338,377.116 89,358.5C 37.1742,370.515 7.34085,350.182 -0.5,297.5C -0.5,283.833 -0.5,270.167 -0.5,256.5C 1.24923,241.748 5.74923,227.748 13,214.5C 28.6552,194.44 49.1552,186.94 74.5,192C 77.8273,192.61 81.1606,193.11 84.5,193.5C 84.334,188.156 84.5006,182.823 85,177.5C 86.9337,171.233 91.1004,167.399 97.5,166C 169.89,165.01 242.224,165.343 314.5,167C 319.551,169.72 322.718,173.887 324,179.5C 324.167,213.172 324.667,246.838 325.5,280.5C 326.833,281.167 328.167,281.833 329.5,282.5C 332.298,276.398 335.965,270.898 340.5,266C 356.676,259.274 373.009,252.941 389.5,247C 396.436,246.419 402.936,247.919 409,251.5C 413.085,245.669 416.418,239.335 419,232.5C 422.575,227.585 427.242,224.252 433,222.5C 434.12,212.87 434.786,203.204 435,193.5C 437.036,176.797 446.37,167.464 463,165.5C 471.173,166.084 477.506,169.75 482,176.5C 489.432,189.626 494.599,203.626 497.5,218.5C 505.556,221.981 510.223,227.981 511.5,236.5 Z M 102.5,183.5 C 170.5,183.5 238.5,183.5 306.5,183.5C 306.5,213.5 306.5,243.5 306.5,273.5C 302.004,273.438 297.671,273.938 293.5,275C 287.206,267.038 280.54,259.371 273.5,252C 262.268,244.136 250.601,243.47 238.5,250C 233.766,253.301 230.933,257.801 230,263.5C 229.289,270.215 229.622,276.882 231,283.5C 233.749,294.247 237.582,304.58 242.5,314.5C 239.202,320.948 238.702,327.615 241,334.5C 251.58,353.416 265.413,369.583 282.5,383C 269.626,395.189 254.292,402.189 236.5,404C 214.833,404.667 193.167,404.667 171.5,404C 135.821,398.428 113.321,378.261 104,343.5C 102.526,290.199 102.026,236.866 102.5,183.5 Z M 461.5,183.5 C 464.764,184.927 467.264,187.261 469,190.5C 472.967,199.068 476.133,207.901 478.5,217C 469.804,217.636 461.137,218.47 452.5,219.5C 452.334,211.493 452.5,203.493 453,195.5C 453.659,189.813 456.492,185.813 461.5,183.5 Z M 51.5,209.5 C 62.6739,208.888 73.6739,209.888 84.5,212.5C 84.8288,218.206 84.4954,223.872 83.5,229.5C 73.8228,225.794 63.8228,224.627 53.5,226C 46.9965,227.823 42.1632,231.656 39,237.5C 34.4266,250.25 32.5933,263.417 33.5,277C 31.7185,293.183 35.2185,308.016 44,321.5C 49.0106,326.337 55.0106,328.671 62,328.5C 69.3965,328.325 76.5632,326.992 83.5,324.5C 84.3087,330.165 84.9754,335.832 85.5,341.5C 75.2914,343.887 64.9581,344.72 54.5,344C 41.6606,341.83 32.1606,334.996 26,323.5C 19.2366,309.089 16.4033,293.922 17.5,278C 16.7765,262.731 18.9432,247.897 24,233.5C 29.0446,220.613 38.2112,212.613 51.5,209.5 Z M 486.5,234.5 C 489.561,234.444 491.728,235.778 493,238.5C 497.18,268.033 491.68,295.699 476.5,321.5C 463.133,298.462 446.133,278.462 425.5,261.5C 429.002,255.834 431.835,249.834 434,243.5C 435.214,241.951 436.714,240.785 438.5,240C 454.531,237.09 470.531,235.256 486.5,234.5 Z M 57.5,243.5 C 67.121,242.405 75.7877,244.738 83.5,250.5C 83.8333,259.667 84.1667,268.833 84.5,278C 84.486,287.563 83.8193,296.896 82.5,306C 74.3701,309.635 66.0368,310.635 57.5,309C 54.5169,303.908 52.6836,298.408 52,292.5C 50.8988,278.063 51.5654,263.729 54,249.5C 54.926,247.308 56.0927,245.308 57.5,243.5 Z M 251.5,263.5 C 255.131,263.16 258.464,263.994 261.5,266C 267.4,272.064 272.734,278.564 277.5,285.5C 270.833,290.5 264.167,295.5 257.5,300.5C 252.704,292.888 249.538,284.554 248,275.5C 247.333,272.5 247.333,269.5 248,266.5C 249.145,265.364 250.312,264.364 251.5,263.5 Z M 392.5,264.5 C 409.97,271.784 424.803,282.784 437,297.5C 449.998,313.48 460.998,330.814 470,349.5C 470.667,350.833 470.667,352.167 470,353.5C 455.069,373.063 435.903,386.896 412.5,395C 389.76,404.261 366.427,406.428 342.5,401.5C 335.8,371.65 334.967,341.65 340,311.5C 342.27,300.683 346.103,290.517 351.5,281C 365.306,275.571 378.973,270.071 392.5,264.5 Z M 301.5,291.5 C 303.527,291.338 305.527,291.505 307.5,292C 312.774,295.47 318.44,298.136 324.5,300C 318.269,325.872 316.935,352.039 320.5,378.5C 320.167,379.5 319.833,380.5 319.5,381.5C 291.929,370.928 271.263,352.595 257.5,326.5C 257.667,325.833 257.833,325.167 258,324.5C 271.76,312.387 286.26,301.387 301.5,291.5 Z M 298.5,392.5 C 307.248,396.187 315.915,399.854 324.5,403.5C 311.513,404.666 298.513,404.833 285.5,404C 290.621,401.045 294.955,397.211 298.5,392.5 Z M 51.5,422.5 C 198.833,422.5 346.167,422.5 493.5,422.5C 498.257,440.185 491.924,451.018 474.5,455C 339.833,455.667 205.167,455.667 70.5,455C 53.0764,451.018 46.743,440.185 51.5,422.5 Z"/></g>
</svg>
