<?xml version="1.0" encoding="UTF-8"?>
<!DOCTYPE svg PUBLIC "-//W3C//DTD SVG 1.1//EN" "http://www.w3.org/Graphics/SVG/1.1/DTD/svg11.dtd">
<svg xmlns="http://www.w3.org/2000/svg" version="1.1" width="512px" height="512px" style="shape-rendering:geometricPrecision; text-rendering:geometricPrecision; image-rendering:optimizeQuality; fill-rule:evenodd; clip-rule:evenodd" xmlns:xlink="http://www.w3.org/1999/xlink">
<g><path style="opacity:0.953" fill="#000000" d="M 2.5,-0.5 C 16.1667,-0.5 29.8333,-0.5 43.5,-0.5C 44.8361,1.01027 46.0027,2.67694 47,4.5C 47.4998,13.4938 47.6664,22.4938 47.5,31.5C 92.5,31.5 137.5,31.5 182.5,31.5C 179.833,16.1563 185.5,5.48968 199.5,-0.5C 204.167,-0.5 208.833,-0.5 213.5,-0.5C 226.96,5.74095 232.627,16.4076 230.5,31.5C 247.167,31.5 263.833,31.5 280.5,31.5C 278.373,16.4076 284.04,5.74095 297.5,-0.5C 302.167,-0.5 306.833,-0.5 311.5,-0.5C 325.5,5.48968 331.167,16.1563 328.5,31.5C 373.5,31.5 418.5,31.5 463.5,31.5C 463.334,22.4938 463.5,13.4938 464,4.5C 464.997,2.67694 466.164,1.01027 467.5,-0.5C 481.167,-0.5 494.833,-0.5 508.5,-0.5C 509.167,0.833333 510.167,1.83333 511.5,2.5C 511.5,160.167 511.5,317.833 511.5,475.5C 510.684,477.144 509.35,478.31 507.5,479C 503.514,479.499 499.514,479.666 495.5,479.5C 495.5,485.167 495.5,490.833 495.5,496.5C 499.846,496.334 504.179,496.501 508.5,497C 509.373,498.045 510.373,498.878 511.5,499.5C 511.5,502.5 511.5,505.5 511.5,508.5C 510.167,509.167 509.167,510.167 508.5,511.5C 494.833,511.5 481.167,511.5 467.5,511.5C 462.232,506.663 462.232,501.829 467.5,497C 471.486,496.501 475.486,496.334 479.5,496.5C 479.5,490.833 479.5,485.167 479.5,479.5C 475.818,479.665 472.152,479.499 468.5,479C 466.333,478.167 464.833,476.667 464,474.5C 463.5,332.167 463.333,189.834 463.5,47.5C 418.5,47.5 373.5,47.5 328.5,47.5C 331.007,61.8802 325.84,72.2135 313,78.5C 312.501,84.4908 312.334,90.4908 312.5,96.5C 337.169,96.3334 361.836,96.5 386.5,97C 407.333,116.5 427.5,136.667 447,157.5C 448.658,160.924 448.325,164.258 446,167.5C 431.167,182.333 416.333,197.167 401.5,212C 397.481,214.16 393.647,213.994 390,211.5C 389.667,221.167 389.333,230.833 389,240.5C 386.565,245.224 382.731,246.724 377.5,245C 376,244.167 374.833,243 374,241.5C 373.027,223.076 373.36,204.743 375,186.5C 379.035,182.781 383.202,182.615 387.5,186C 390.333,188.833 393.167,191.667 396,194.5C 406.833,183.667 417.667,172.833 428.5,162C 411.833,145.333 395.167,128.667 378.5,112C 369.84,111.5 361.173,111.334 352.5,111.5C 350.359,124.121 344.359,134.454 334.5,142.5C 338.818,147.319 343.318,151.985 348,156.5C 349.457,159.366 349.79,162.366 349,165.5C 333.167,181.333 317.333,197.167 301.5,213C 298.438,213.741 295.438,213.575 292.5,212.5C 291.5,247.827 291.167,283.16 291.5,318.5C 318.833,318.5 346.167,318.5 373.5,318.5C 373.333,302.163 373.5,285.83 374,269.5C 376.911,265.723 380.744,264.556 385.5,266C 387.049,267.214 388.215,268.714 389,270.5C 389.5,286.497 389.667,302.497 389.5,318.5C 409.737,314.595 421.737,322.595 425.5,342.5C 424.876,348.376 422.876,353.709 419.5,358.5C 424.496,365.814 426.163,373.814 424.5,382.5C 430.509,382.334 436.509,382.501 442.5,383C 445.893,383.394 448.06,385.227 449,388.5C 449.667,427.833 449.667,467.167 449,506.5C 448.003,508.323 446.836,509.99 445.5,511.5C 318.833,511.5 192.167,511.5 65.5,511.5C 64.1639,509.99 62.9973,508.323 62,506.5C 61.3333,467.167 61.3333,427.833 62,388.5C 62.9404,385.227 65.1071,383.394 68.5,383C 74.4908,382.501 80.4908,382.334 86.5,382.5C 84.6789,373.783 86.3456,365.783 91.5,358.5C 82.5842,344.907 84.2509,332.74 96.5,322C 98.7173,320.725 101.051,319.725 103.5,319C 109.491,318.501 115.491,318.334 121.5,318.5C 121.333,299.83 121.5,281.164 122,262.5C 124.435,257.776 128.269,256.276 133.5,258C 135.049,259.214 136.215,260.714 137,262.5C 137.5,281.164 137.667,299.83 137.5,318.5C 183.5,318.5 229.5,318.5 275.5,318.5C 275.333,274.832 275.5,231.165 276,187.5C 279.237,183.751 283.07,182.918 287.5,185C 290.667,188.167 293.833,191.333 297,194.5C 307.667,183.833 318.333,173.167 329,162.5C 329.667,161.833 329.667,161.167 329,160.5C 312.833,144.333 296.667,128.167 280.5,112C 271.833,111.333 263.167,111.333 254.5,112C 248.133,136.863 232.133,150.363 206.5,152.5C 180.086,150.968 164.086,137.301 158.5,111.5C 149.827,111.334 141.16,111.5 132.5,112C 115.833,128.667 99.1667,145.333 82.5,162C 93.3333,172.833 104.167,183.667 115,194.5C 118.581,190.248 122.748,186.748 127.5,184C 130.674,183.494 133.507,184.328 136,186.5C 137.635,202.074 137.968,217.741 137,233.5C 132.099,239.996 127.099,239.996 122,233.5C 121.667,226.167 121.333,218.833 121,211.5C 117.353,213.994 113.519,214.16 109.5,212C 94.6667,197.167 79.8333,182.333 65,167.5C 62.6754,164.258 62.3421,160.924 64,157.5C 83.5,136.667 103.667,116.5 124.5,97C 149.164,96.5 173.831,96.3334 198.5,96.5C 198.334,87.1607 198.5,77.8274 199,68.5C 201.253,64.4553 204.753,62.6219 209.5,63C 211.726,61.7727 213.226,59.9393 214,57.5C 214.498,54.1832 214.665,50.8499 214.5,47.5C 158.833,47.5 103.167,47.5 47.5,47.5C 47.6667,189.834 47.5,332.167 47,474.5C 46.1667,476.667 44.6667,478.167 42.5,479C 38.8484,479.499 35.1817,479.665 31.5,479.5C 31.5,485.167 31.5,490.833 31.5,496.5C 35.5138,496.334 39.5138,496.501 43.5,497C 48.768,501.829 48.768,506.663 43.5,511.5C 29.8333,511.5 16.1667,511.5 2.5,511.5C 1.83333,510.167 0.833333,509.167 -0.5,508.5C -0.5,505.5 -0.5,502.5 -0.5,499.5C 0.626561,498.878 1.62656,498.045 2.5,497C 6.82056,496.501 11.1539,496.334 15.5,496.5C 15.5,490.833 15.5,485.167 15.5,479.5C 11.4862,479.666 7.48617,479.499 3.5,479C 1.64977,478.31 0.316435,477.144 -0.5,475.5C -0.5,317.833 -0.5,160.167 -0.5,2.5C 0.833333,1.83333 1.83333,0.833333 2.5,-0.5 Z M 14.5,14.5 C 20.1667,14.5 25.8333,14.5 31.5,14.5C 31.5,164.167 31.5,313.833 31.5,463.5C 25.8333,463.5 20.1667,463.5 14.5,463.5C 14.5,313.833 14.5,164.167 14.5,14.5 Z M 479.5,14.5 C 485.167,14.5 490.833,14.5 496.5,14.5C 496.5,164.167 496.5,313.833 496.5,463.5C 490.833,463.5 485.167,463.5 479.5,463.5C 479.5,313.833 479.5,164.167 479.5,14.5 Z M 202.5,15.5 C 206.516,14.8999 210.016,15.8999 213,18.5C 214.367,22.6996 214.867,27.0329 214.5,31.5C 209.167,31.5 203.833,31.5 198.5,31.5C 198.334,27.4862 198.501,23.4862 199,19.5C 200.376,18.2949 201.542,16.9616 202.5,15.5 Z M 301.5,15.5 C 305.909,14.6185 309.409,15.9518 312,19.5C 312.499,23.4862 312.666,27.4862 312.5,31.5C 307.167,31.5 301.833,31.5 296.5,31.5C 296.335,27.8183 296.501,24.1516 297,20.5C 298.025,18.313 299.525,16.6464 301.5,15.5 Z M 230.5,47.5 C 257.833,47.5 285.167,47.5 312.5,47.5C 312.867,51.9671 312.367,56.3004 311,60.5C 307.452,62.7185 303.618,64.3852 299.5,65.5C 298.416,66.6651 297.583,67.9984 297,69.5C 296.5,78.4938 296.334,87.4938 296.5,96.5C 269.167,96.5 241.833,96.5 214.5,96.5C 214.334,90.4908 214.501,84.4908 215,78.5C 227.461,72.0146 232.628,61.6813 230.5,47.5 Z M 175.5,111.5 C 196.167,111.5 216.833,111.5 237.5,111.5C 230.132,132.185 215.799,139.685 194.5,134C 184.052,129.916 177.718,122.416 175.5,111.5 Z M 303.5,112.5 C 314.326,111.341 325.326,111.174 336.5,112C 333.88,119.778 329.213,125.945 322.5,130.5C 316.146,124.478 309.813,118.478 303.5,112.5 Z M 106.5,334.5 C 151.835,334.333 197.168,334.5 242.5,335C 247.752,338.086 248.752,342.253 245.5,347.5C 244.335,348.584 243.002,349.417 241.5,350C 196.833,350.667 152.167,350.667 107.5,350C 99.928,345.339 99.5947,340.172 106.5,334.5 Z M 268.5,334.5 C 313.835,334.333 359.168,334.5 404.5,335C 411.255,340.484 410.922,345.484 403.5,350C 358.833,350.667 314.167,350.667 269.5,350C 261.97,345.215 261.637,340.048 268.5,334.5 Z M 107.5,366.5 C 152.168,366.333 196.835,366.5 241.5,367C 248.977,371.67 249.311,376.67 242.5,382C 197.167,382.667 151.833,382.667 106.5,382C 99.8939,376.381 100.227,371.214 107.5,366.5 Z M 269.5,366.5 C 314.168,366.333 358.835,366.5 403.5,367C 410.922,371.516 411.255,376.516 404.5,382C 359.167,382.667 313.833,382.667 268.5,382C 261.754,376.512 262.088,371.346 269.5,366.5 Z M 77.5,398.5 C 196.167,398.5 314.833,398.5 433.5,398.5C 433.5,431.167 433.5,463.833 433.5,496.5C 314.833,496.5 196.167,496.5 77.5,496.5C 77.5,463.833 77.5,431.167 77.5,398.5 Z"/></g>
<g><path style="opacity:0.935" fill="#000000" d="M 98.5,415.5 C 111.171,415.333 123.838,415.5 136.5,416C 141.446,420.3 141.779,424.967 137.5,430C 128.248,431.417 118.915,431.917 109.5,431.5C 109.5,442.167 109.5,452.833 109.5,463.5C 206.833,463.5 304.167,463.5 401.5,463.5C 401.5,452.833 401.5,442.167 401.5,431.5C 322.833,431.667 244.166,431.5 165.5,431C 158.473,426.862 157.806,421.862 163.5,416C 246.5,415.333 329.5,415.333 412.5,416C 415.094,417.339 416.594,419.506 417,422.5C 417.667,439.167 417.667,455.833 417,472.5C 416.55,474.519 415.717,476.352 414.5,478C 309.247,479.662 203.914,479.995 98.5,479C 95.9057,477.661 94.4057,475.494 94,472.5C 93.3333,455.833 93.3333,439.167 94,422.5C 94.5303,419.415 96.0303,417.082 98.5,415.5 Z"/></g>
</svg>
