<?xml version="1.0" encoding="UTF-8"?>
<!DOCTYPE svg PUBLIC "-//W3C//DTD SVG 1.1//EN" "http://www.w3.org/Graphics/SVG/1.1/DTD/svg11.dtd">
<svg xmlns="http://www.w3.org/2000/svg" version="1.1" width="512px" height="512px" style="shape-rendering:geometricPrecision; text-rendering:geometricPrecision; image-rendering:optimizeQuality; fill-rule:evenodd; clip-rule:evenodd" xmlns:xlink="http://www.w3.org/1999/xlink">
<g><path style="opacity:0.946" fill="#000000" d="M 126.5,-0.5 C 239.167,-0.5 351.833,-0.5 464.5,-0.5C 478.885,3.37972 488.719,12.3797 494,26.5C 495.625,49.7832 495.959,73.1165 495,96.5C 491.058,110.107 482.558,119.607 469.5,125C 461.594,126.761 453.594,127.928 445.5,128.5C 437.901,152.131 430.401,175.797 423,199.5C 416.513,212.647 406.013,220.48 391.5,223C 327.5,223.667 263.5,223.667 199.5,223C 183.832,219.99 172.998,211.157 167,196.5C 159.932,173.797 152.766,151.131 145.5,128.5C 128.464,129.713 114.298,124.046 103,111.5C 99.5784,106.655 97.245,101.322 96,95.5C 95.0418,72.4497 95.3752,49.4497 97,26.5C 102.281,12.3797 112.115,3.37972 126.5,-0.5 Z M 134.5,14.5 C 241.834,14.3333 349.167,14.5 456.5,15C 466.784,15.9754 474.117,21.1421 478.5,30.5C 356.501,31.6667 234.501,31.8333 112.5,31C 116.858,21.3408 124.191,15.8408 134.5,14.5 Z M 111.5,47.5 C 234.167,47.5 356.833,47.5 479.5,47.5C 479.667,62.837 479.5,78.1703 479,93.5C 476.256,101.245 471.089,106.745 463.5,110C 407.536,111.157 351.536,111.657 295.5,111.5C 241.167,111.333 186.833,111.167 132.5,111C 121.855,109.021 115.022,102.854 112,92.5C 111.5,77.5037 111.333,62.5037 111.5,47.5 Z M 162.5,127.5 C 169.167,127.5 175.833,127.5 182.5,127.5C 187.486,145.626 192.986,163.626 199,181.5C 201.007,186.838 204.841,190.004 210.5,191C 238.833,191.167 267.167,191.333 295.5,191.5C 324.893,191.655 354.226,191.155 383.5,190C 388.4,188.098 391.567,184.598 393,179.5C 398.178,162.453 403.512,145.453 409,128.5C 415.41,127.522 421.91,127.189 428.5,127.5C 422.108,148.512 415.608,169.512 409,190.5C 405.968,199.533 399.801,205.033 390.5,207C 327.167,207.667 263.833,207.667 200.5,207C 192.546,204.712 186.713,199.878 183,192.5C 175.858,170.907 169.024,149.241 162.5,127.5 Z M 198.5,128.5 C 227.995,127.502 257.662,127.169 287.5,127.5C 287.5,143.5 287.5,159.5 287.5,175.5C 277.167,175.5 266.833,175.5 256.5,175.5C 255.326,166.124 253.826,156.791 252,147.5C 248.58,143.247 244.413,142.413 239.5,145C 237.703,146.594 236.703,148.594 236.5,151C 237.781,159.188 239.115,167.354 240.5,175.5C 231.5,175.5 222.5,175.5 213.5,175.5C 209.072,159.554 204.072,143.887 198.5,128.5 Z M 303.5,127.5 C 316.504,127.333 329.504,127.5 342.5,128C 339.512,143.746 336.845,159.579 334.5,175.5C 324.167,175.5 313.833,175.5 303.5,175.5C 303.5,159.5 303.5,143.5 303.5,127.5 Z M 358.5,127.5 C 369.838,127.333 381.172,127.5 392.5,128C 387.205,143.385 382.205,158.885 377.5,174.5C 368.5,175.833 359.5,175.833 350.5,174.5C 353.274,158.855 355.941,143.189 358.5,127.5 Z"/></g>
<g><path style="opacity:0.925" fill="#000000" d="M 159.5,511.5 C 148.833,511.5 138.167,511.5 127.5,511.5C 73.4517,502.296 37.6184,471.629 20,419.5C 6.29419,360.602 23.4609,313.102 71.5,277C 77.3312,273.919 82.9979,270.585 88.5,267C 84.4043,225.621 101.404,196.788 139.5,180.5C 146.282,181.718 148.782,185.718 147,192.5C 140.252,197.124 133.419,201.624 126.5,206C 109.564,220.704 102.231,239.204 104.5,261.5C 111.996,258.873 119.663,257.373 127.5,257C 134.663,260.994 135.33,265.994 129.5,272C 74.9579,282.542 42.4579,315.042 32,369.5C 28.2854,423.922 50.7854,463.089 99.5,487C 148.625,504.845 191.458,495.011 228,457.5C 231.695,452.638 235.195,447.638 238.5,442.5C 231.898,439.118 226.398,434.451 222,428.5C 221.083,422.573 223.583,418.907 229.5,417.5C 235.801,421.32 242.134,425.154 248.5,429C 276.446,436.114 294.613,425.947 303,398.5C 304.915,380.333 298.249,366.333 283,356.5C 280.664,344.567 285.164,341.067 296.5,346C 298.759,347.715 300.926,349.548 303,351.5C 318.357,319.122 312.524,291.289 285.5,268C 272.453,259.486 258.12,254.819 242.5,254C 238.5,249.667 238.5,245.333 242.5,241C 279.797,239.269 306.297,255.436 322,289.5C 331.548,316.392 328.715,341.892 313.5,366C 324.906,392.907 319.906,416.241 298.5,436C 285.349,445.289 270.682,449.289 254.5,448C 232.55,483.646 200.884,504.812 159.5,511.5 Z M 221.5,319.5 C 227.984,319.815 231.151,323.148 231,329.5C 229.268,334.617 225.768,336.45 220.5,335C 216.139,332.774 214.639,329.274 216,324.5C 217.406,322.256 219.239,320.59 221.5,319.5 Z M 147.5,367.5 C 166.869,367.376 178.702,376.709 183,395.5C 182.651,420.848 169.818,432.681 144.5,431C 126.292,425.116 118.126,412.616 120,393.5C 123.99,379.271 133.157,370.605 147.5,367.5 Z"/></g>
<g><path style="opacity:0.926" fill="#000000" d="M 37.5,207.5 C 57.5672,206.234 68.9005,215.568 71.5,235.5C 68.8119,255.345 57.4786,264.512 37.5,263C 19.7784,257.744 12.6117,245.911 16,227.5C 19.526,216.804 26.6926,210.137 37.5,207.5 Z M 39.5,223.5 C 53.6692,224.194 57.8359,230.861 52,243.5C 43.8085,249.58 37.1418,248.247 32,239.5C 30.5048,232.162 33.0048,226.828 39.5,223.5 Z"/></g>
<g><path style="opacity:0.925" fill="#000000" d="M 219.5,303.5 C 233.584,302.787 242.751,309.12 247,322.5C 248,343.166 238.166,352.666 217.5,351C 203.913,346.335 198.08,336.835 200,322.5C 202.548,311.998 209.048,305.665 219.5,303.5 Z M 221.5,319.5 C 219.239,320.59 217.406,322.256 216,324.5C 214.639,329.274 216.139,332.774 220.5,335C 225.768,336.45 229.268,334.617 231,329.5C 231.151,323.148 227.984,319.815 221.5,319.5 Z"/></g>
<g><path style="opacity:0.926" fill="#000000" d="M 145.5,351.5 C 174.784,351.045 192.617,365.045 199,393.5C 200.458,421.698 187.624,439.531 160.5,447C 130.794,449.94 111.96,437.107 104,408.5C 101.58,377.448 115.414,358.448 145.5,351.5 Z M 147.5,367.5 C 133.157,370.605 123.99,379.271 120,393.5C 118.126,412.616 126.292,425.116 144.5,431C 169.818,432.681 182.651,420.848 183,395.5C 178.702,376.709 166.869,367.376 147.5,367.5 Z"/></g>
</svg>
