<?xml version="1.0" encoding="UTF-8"?>
<!DOCTYPE svg PUBLIC "-//W3C//DTD SVG 1.1//EN" "http://www.w3.org/Graphics/SVG/1.1/DTD/svg11.dtd">
<svg xmlns="http://www.w3.org/2000/svg" version="1.1" width="512px" height="512px" style="shape-rendering:geometricPrecision; text-rendering:geometricPrecision; image-rendering:optimizeQuality; fill-rule:evenodd; clip-rule:evenodd" xmlns:xlink="http://www.w3.org/1999/xlink">
<g><path style="opacity:0.947" fill="#000000" d="M 396.5,-0.5 C 402.5,-0.5 408.5,-0.5 414.5,-0.5C 434.245,5.27377 444.912,18.6071 446.5,39.5C 443.996,64.3381 430.329,77.6714 405.5,79.5C 385.137,78.3008 371.97,67.9675 366,48.5C 362.6,23.4536 372.767,7.12029 396.5,-0.5 Z M 402.5,19.5 C 415.509,19.6747 423.176,26.1747 425.5,39C 421.994,56.087 411.994,61.7537 395.5,56C 385.806,48.1347 383.973,38.6347 390,27.5C 393.579,23.724 397.746,21.0573 402.5,19.5 Z"/></g>
<g><path style="opacity:0.955" fill="#000000" d="M 360.5,511.5 C 290.5,511.5 220.5,511.5 150.5,511.5C 147.658,509.156 145.825,506.156 145,502.5C 144.833,490.153 144.333,477.82 143.5,465.5C 117.227,451.123 105.227,428.957 107.5,399C 80.9139,395.747 66.5806,380.747 64.5,354C 66.3507,331.816 78.0174,317.816 99.5,312C 105.833,311.333 112.167,311.333 118.5,312C 121,312.375 123.333,313.208 125.5,314.5C 130.887,310.138 136.887,306.805 143.5,304.5C 144.333,262.837 144.833,221.171 145,179.5C 147.267,154.569 160.434,138.736 184.5,132C 192.787,130.762 201.12,130.262 209.5,130.5C 209.333,107.164 209.5,83.831 210,60.5C 210.272,55.5623 212.772,52.3956 217.5,51C 242.833,50.3333 268.167,50.3333 293.5,51C 298.228,52.3956 300.728,55.5623 301,60.5C 301.5,83.831 301.667,107.164 301.5,130.5C 307.561,130.21 313.561,130.543 319.5,131.5C 338.758,108.019 362.091,102.853 389.5,116C 411.775,130.826 419.442,151.159 412.5,177C 437.725,193.289 448.558,216.456 445,246.5C 437.336,283.497 414.669,303.497 377,306.5C 373.542,305.714 370.042,305.38 366.5,305.5C 366.667,371.168 366.5,436.834 366,502.5C 365.175,506.156 363.342,509.156 360.5,511.5 Z M 230.5,71.5 C 247.167,71.5 263.833,71.5 280.5,71.5C 280.5,77.8333 280.5,84.1667 280.5,90.5C 263.833,90.5 247.167,90.5 230.5,90.5C 230.5,84.1667 230.5,77.8333 230.5,71.5 Z M 230.5,111.5 C 247.167,111.5 263.833,111.5 280.5,111.5C 280.5,117.833 280.5,124.167 280.5,130.5C 263.833,130.5 247.167,130.5 230.5,130.5C 230.5,124.167 230.5,117.833 230.5,111.5 Z M 360.5,129.5 C 380.345,130.846 391.678,141.346 394.5,161C 393.512,168.296 391.512,175.296 388.5,182C 388.668,185.844 390.335,188.844 393.5,191C 418.858,202.549 428.692,222.049 423,249.5C 413.279,275.781 394.446,287.448 366.5,284.5C 366.943,246.475 366.443,208.475 365,170.5C 361.583,156.83 354.083,145.996 342.5,138C 347.951,133.772 353.951,130.939 360.5,129.5 Z M 192.5,151.5 C 234.501,151.333 276.501,151.5 318.5,152C 334.254,155.087 343.088,164.587 345,180.5C 345.5,284.166 345.667,387.833 345.5,491.5C 285.5,491.5 225.5,491.5 165.5,491.5C 165.334,484.825 165.5,478.158 166,471.5C 187.28,473.74 205.447,467.24 220.5,452C 250.5,451.667 280.5,451.333 310.5,451C 313.553,448.949 315.386,446.115 316,442.5C 316.989,360.456 316.655,278.456 315,196.5C 313.52,193.337 311.02,191.504 307.5,191C 272.833,190.333 238.167,190.333 203.5,191C 198.21,191.958 195.376,195.124 195,200.5C 194.667,239.5 194.333,278.5 194,317.5C 186.377,309.77 177.211,304.77 166.5,302.5C 166.167,282.167 165.833,261.833 165.5,241.5C 165.372,218.803 165.872,196.136 167,173.5C 171.403,161.254 179.903,153.921 192.5,151.5 Z M 215.5,211.5 C 242.167,211.5 268.833,211.5 295.5,211.5C 295.5,284.5 295.5,357.5 295.5,430.5C 275.156,430.833 254.822,430.5 234.5,429.5C 241.422,408.543 239.255,388.543 228,369.5C 224.312,364.814 220.312,360.481 216,356.5C 215.5,308.168 215.333,259.834 215.5,211.5 Z M 152.5,323.5 C 175.256,322.754 185.923,333.588 184.5,356C 185.255,358.175 186.088,360.341 187,362.5C 211.445,374.056 220.945,393.056 215.5,419.5C 206.162,443.335 188.828,453.501 163.5,450C 145.112,445.945 133.612,434.779 129,416.5C 128.453,412.84 127.953,409.173 127.5,405.5C 128.215,398.695 129.548,392.028 131.5,385.5C 131.651,380.967 129.651,377.8 125.5,376C 119.741,375.436 114.074,375.936 108.5,377.5C 95.1664,375.827 87.4998,368.327 85.5,355C 89.0129,337.16 99.6795,330.16 117.5,334C 119.996,335.08 122.33,336.414 124.5,338C 127.167,338.667 129.833,338.667 132.5,338C 136.492,335.008 140.158,331.674 143.5,328C 146.437,326.199 149.437,324.699 152.5,323.5 Z"/></g>
</svg>
