<?xml version="1.0" encoding="UTF-8"?>
<!DOCTYPE svg PUBLIC "-//W3C//DTD SVG 1.1//EN" "http://www.w3.org/Graphics/SVG/1.1/DTD/svg11.dtd">
<svg xmlns="http://www.w3.org/2000/svg" version="1.1" width="512px" height="512px" style="shape-rendering:geometricPrecision; text-rendering:geometricPrecision; image-rendering:optimizeQuality; fill-rule:evenodd; clip-rule:evenodd" xmlns:xlink="http://www.w3.org/1999/xlink">
<g><path style="opacity:0.935" fill="#000000" d="M 454.5,-0.5 C 457.167,-0.5 459.833,-0.5 462.5,-0.5C 464.27,1.11327 465.436,3.11327 466,5.5C 466.667,51.8333 466.667,98.1667 466,144.5C 463.043,149.608 458.876,151.108 453.5,149C 452.299,148.097 451.465,146.931 451,145.5C 450.5,125.169 450.333,104.836 450.5,84.5C 336.5,84.6667 222.5,84.5 108.5,84C 100.589,80.4449 99.5889,75.4449 105.5,69C 220.5,68.5 335.5,68.3333 450.5,68.5C 450.333,46.8308 450.5,25.1641 451,3.5C 451.69,1.64977 452.856,0.316435 454.5,-0.5 Z"/></g>
<g><path style="opacity:0.934" fill="#000000" d="M 7.5,144.5 C 131.167,144.333 254.834,144.5 378.5,145C 383.535,148.013 384.702,152.18 382,157.5C 381.097,158.701 379.931,159.535 378.5,160C 254.833,160.667 131.167,160.667 7.5,160C 2.46475,156.987 1.29808,152.82 4,147.5C 5.14508,146.364 6.31174,145.364 7.5,144.5 Z"/></g>
<g><path style="opacity:0.93" fill="#000000" d="M 511.5,325.5 C 511.5,344.167 511.5,362.833 511.5,381.5C 505.385,423.233 485.718,457.067 452.5,483C 446.165,487.503 439.498,491.503 432.5,495C 424.292,495.452 421.125,491.619 423,483.5C 433.653,476.429 443.82,468.763 453.5,460.5C 436.347,442.847 419.014,425.347 401.5,408C 397.187,409.996 392.854,412.329 388.5,415C 384.637,416.732 380.637,418.066 376.5,419C 360.872,420.235 345.206,420.902 329.5,421C 309.857,425.758 299.191,438.258 297.5,458.5C 300.413,480.913 313.079,493.413 335.5,496C 345.167,496.667 354.833,496.667 364.5,496C 376.547,495.086 388.547,494.086 400.5,493C 405.296,497.248 405.63,501.748 401.5,506.5C 394.85,508.691 388.184,510.358 381.5,511.5C 362.833,511.5 344.167,511.5 325.5,511.5C 302.474,505.472 288.14,490.806 282.5,467.5C 239.504,466.667 196.504,466.167 153.5,466C 147.842,464.171 146.008,460.337 148,454.5C 148.5,452.667 149.667,451.5 151.5,451C 195.165,450.5 238.832,450.333 282.5,450.5C 287.286,425.214 302.286,410.047 327.5,405C 388,413.833 413.833,388 405,327.5C 410.047,302.286 425.214,287.286 450.5,282.5C 450.333,246.498 450.5,210.498 451,174.5C 454.42,170.247 458.587,169.413 463.5,172C 464.893,173.171 465.727,174.671 466,176.5C 466.167,211.838 466.667,247.171 467.5,282.5C 490.81,288.144 505.476,302.478 511.5,325.5 Z M 456.5,297.5 C 479.983,299.484 493.15,312.15 496,335.5C 499.73,369.08 493.73,400.746 478,430.5C 474.381,436.612 470.214,442.279 465.5,447.5C 447.347,429.847 429.347,412.014 411.5,394C 414.964,388.617 417.464,382.784 419,376.5C 420.235,360.872 420.902,345.206 421,329.5C 425.463,310.532 437.296,299.865 456.5,297.5 Z"/></g>
<g><path style="opacity:0.99" fill="#000000" d="M 6.5,182.5 C 65.8343,182.333 125.168,182.5 184.5,183C 189.833,187.667 189.833,192.333 184.5,197C 125.167,197.667 65.8333,197.667 6.5,197C 1.20294,192.215 1.20294,187.382 6.5,182.5 Z"/></g>
<g><path style="opacity:0.929" fill="#000000" d="M 224.5,247.5 C 268.835,247.333 313.168,247.5 357.5,248C 362.518,251.722 363.351,256.222 360,261.5C 359.25,262.126 358.416,262.626 357.5,263C 313.167,263.667 268.833,263.667 224.5,263C 219.465,259.987 218.298,255.82 221,250.5C 222.145,249.364 223.312,248.364 224.5,247.5 Z"/></g>
<g><path style="opacity:0.923" fill="#000000" d="M 176.5,334.5 C 196.503,334.333 216.503,334.5 236.5,335C 240.982,338.705 241.649,343.038 238.5,348C 236.913,348.862 235.246,349.529 233.5,350C 215.167,350.667 196.833,350.667 178.5,350C 174.334,349.015 172.334,346.348 172.5,342C 172.43,338.634 173.763,336.134 176.5,334.5 Z"/></g>
<g><path style="opacity:0.912" fill="#000000" d="M 275.5,334.5 C 286.505,334.333 297.505,334.5 308.5,335C 312.212,337.513 313.378,341.013 312,345.5C 311.065,348.102 309.232,349.602 306.5,350C 297.167,350.667 287.833,350.667 278.5,350C 270.511,346.222 269.511,341.056 275.5,334.5 Z"/></g>
<g><path style="opacity:0.992" fill="#000000" d="M 6.5,389.5 C 83.1674,389.333 159.834,389.5 236.5,390C 240.212,392.513 241.378,396.013 240,400.5C 239.167,402 238,403.167 236.5,404C 159.833,404.667 83.1667,404.667 6.5,404C 1.22458,399.122 1.22458,394.289 6.5,389.5 Z"/></g>
<g><path style="opacity:0.93" fill="#000000" d="M -0.5,462.5 C -0.5,459.833 -0.5,457.167 -0.5,454.5C 0.316435,452.856 1.64977,451.69 3.5,451C 43.1667,450.333 82.8333,450.333 122.5,451C 125.366,452.393 126.699,454.726 126.5,458C 126.666,462.348 124.666,465.015 120.5,466C 82.1667,466.667 43.8333,466.667 5.5,466C 3.11327,465.436 1.11327,464.27 -0.5,462.5 Z"/></g>
</svg>
