<?xml version="1.0" encoding="UTF-8"?>
<!DOCTYPE svg PUBLIC "-//W3C//DTD SVG 1.1//EN" "http://www.w3.org/Graphics/SVG/1.1/DTD/svg11.dtd">
<svg xmlns="http://www.w3.org/2000/svg" version="1.1" width="512px" height="512px" style="shape-rendering:geometricPrecision; text-rendering:geometricPrecision; image-rendering:optimizeQuality; fill-rule:evenodd; clip-rule:evenodd" xmlns:xlink="http://www.w3.org/1999/xlink">
<g><path style="opacity:0.947" fill="#000000" d="M 356.5,-0.5 C 396.833,-0.5 437.167,-0.5 477.5,-0.5C 485.55,2.38949 490.717,8.05616 493,16.5C 493.5,61.4988 493.667,106.499 493.5,151.5C 498.179,151.334 502.845,151.501 507.5,152C 509.35,152.69 510.684,153.856 511.5,155.5C 511.5,230.167 511.5,304.833 511.5,379.5C 506.607,384.598 501.774,384.598 497,379.5C 496.5,308.834 496.333,238.167 496.5,167.5C 489.5,167.5 482.5,167.5 475.5,167.5C 475.994,242.916 475.494,318.249 474,393.5C 473.097,394.701 471.931,395.535 470.5,396C 327.167,396.667 183.833,396.667 40.5,396C 39.0692,395.535 37.9025,394.701 37,393.5C 35.5062,318.249 35.0062,242.916 35.5,167.5C 28.5,167.5 21.5,167.5 14.5,167.5C 14.5,258.833 14.5,350.167 14.5,441.5C 175.167,441.5 335.833,441.5 496.5,441.5C 496.333,427.496 496.5,413.496 497,399.5C 501.831,395.547 506.665,395.547 511.5,399.5C 511.5,417.5 511.5,435.5 511.5,453.5C 510.684,455.144 509.35,456.31 507.5,457C 501.843,457.499 496.176,457.666 490.5,457.5C 490.667,473.837 490.5,490.17 490,506.5C 489.003,508.323 487.836,509.99 486.5,511.5C 472.833,511.5 459.167,511.5 445.5,511.5C 443.856,510.684 442.69,509.35 442,507.5C 441.5,500.174 441.334,492.841 441.5,485.5C 342.776,485.993 244.11,485.493 145.5,484C 140.167,479.333 140.167,474.667 145.5,470C 248.167,469.333 350.833,469.333 453.5,470C 455.049,471.214 456.215,472.714 457,474.5C 457.5,481.826 457.666,489.159 457.5,496.5C 463.167,496.5 468.833,496.5 474.5,496.5C 474.5,483.5 474.5,470.5 474.5,457.5C 328.5,457.5 182.5,457.5 36.5,457.5C 36.5,470.5 36.5,483.5 36.5,496.5C 42.1667,496.5 47.8333,496.5 53.5,496.5C 53.3337,489.159 53.5003,481.826 54,474.5C 54.7845,472.714 55.9512,471.214 57.5,470C 79.8333,469.333 102.167,469.333 124.5,470C 127.366,471.393 128.699,473.726 128.5,477C 128.592,479.814 127.592,482.147 125.5,484C 106.888,485.448 88.2218,485.948 69.5,485.5C 69.6663,492.841 69.4997,500.174 69,507.5C 68.3103,509.35 67.1436,510.684 65.5,511.5C 51.8333,511.5 38.1667,511.5 24.5,511.5C 23.1639,509.99 21.9973,508.323 21,506.5C 20.5001,490.17 20.3334,473.837 20.5,457.5C 14.8236,457.666 9.15688,457.499 3.5,457C 1.64977,456.31 0.316435,455.144 -0.5,453.5C -0.5,354.167 -0.5,254.833 -0.5,155.5C 0.316435,153.856 1.64977,152.69 3.5,152C 17.8333,151.333 32.1667,151.333 46.5,152C 48.6667,152.833 50.1667,154.333 51,156.5C 51.4996,163.158 51.6663,169.825 51.5,176.5C 67.5035,176.333 83.5035,176.5 99.5,177C 103.753,180.42 104.587,184.587 102,189.5C 100.829,190.893 99.3289,191.727 97.5,192C 82.1703,192.5 66.837,192.667 51.5,192.5C 51.5,195.833 51.5,199.167 51.5,202.5C 187.5,202.5 323.5,202.5 459.5,202.5C 459.5,199.167 459.5,195.833 459.5,192.5C 347.166,192.667 234.833,192.5 122.5,192C 115.473,187.862 114.806,182.862 120.5,177C 233.5,176.5 346.5,176.333 459.5,176.5C 459.071,169.053 459.571,161.719 461,154.5C 461.903,153.299 463.069,152.465 464.5,152C 468.821,151.501 473.154,151.334 477.5,151.5C 477.667,107.499 477.5,63.4987 477,19.5C 475.661,16.9057 473.494,15.4057 470.5,15C 434.833,14.3333 399.167,14.3333 363.5,15C 360.724,15.0657 358.558,16.2324 357,18.5C 356.5,26.1594 356.334,33.8261 356.5,41.5C 364.84,41.3336 373.173,41.5003 381.5,42C 392.5,49 403.5,56 414.5,63C 415.701,63.9025 416.535,65.0692 417,66.5C 417.333,74.5 417.667,82.5 418,90.5C 431.926,98.2767 435.926,109.61 430,124.5C 420.65,136.712 409.15,139.212 395.5,132C 384.301,121.014 383.134,109.181 392,96.5C 394.728,94.1078 397.728,92.1078 401,90.5C 401.83,84.8041 401.663,79.1375 400.5,73.5C 392.365,68.5304 384.365,63.3637 376.5,58C 369.842,57.5004 363.175,57.3337 356.5,57.5C 356.334,63.5092 356.501,69.5092 357,75.5C 370.6,82.8536 374.6,93.8536 369,108.5C 359.463,121.51 347.629,124.01 333.5,116C 321.284,103.04 321.618,90.3732 334.5,78C 336.167,77.1667 337.833,76.3333 339.5,75.5C 340.496,69.5368 340.829,63.5368 340.5,57.5C 333.492,57.3337 326.492,57.5004 319.5,58C 311.635,63.3637 303.635,68.5304 295.5,73.5C 294.337,79.1375 294.17,84.8041 295,90.5C 309.047,97.6037 313.381,108.604 308,123.5C 299.489,136.003 288.322,139.169 274.5,133C 263.546,124.791 260.713,114.291 266,101.5C 268.89,96.431 273.056,93.0977 278.5,91.5C 278.334,83.8261 278.5,76.1594 279,68.5C 279.36,66.5789 280.194,64.9122 281.5,63.5C 292.365,56.1366 303.365,48.9699 314.5,42C 323.16,41.5002 331.827,41.3336 340.5,41.5C 340.08,31.7529 340.58,22.0862 342,12.5C 345.162,6.16411 349.996,1.83077 356.5,-0.5 Z M 347.5,89.5 C 356.353,92.2685 357.687,97.1018 351.5,104C 342.945,105.119 339.779,101.619 342,93.5C 343.5,91.5313 345.333,90.198 347.5,89.5 Z M 284.5,105.5 C 292.546,105.363 295.38,109.029 293,116.5C 286.894,122.045 282.394,120.878 279.5,113C 279.831,109.52 281.498,107.02 284.5,105.5 Z M 406.5,105.5 C 415.052,105.543 417.885,109.543 415,117.5C 410.755,121.406 406.755,121.073 403,116.5C 401.663,111.916 402.829,108.249 406.5,105.5 Z M 51.5,218.5 C 69.5,218.5 87.5,218.5 105.5,218.5C 105.5,262.167 105.5,305.833 105.5,349.5C 92.4957,349.333 79.4957,349.5 66.5,350C 61.208,351.206 56.3746,353.372 52,356.5C 51.5,310.501 51.3333,264.501 51.5,218.5 Z M 121.5,218.5 C 139.833,218.5 158.167,218.5 176.5,218.5C 176.5,262.167 176.5,305.833 176.5,349.5C 158.167,349.5 139.833,349.5 121.5,349.5C 121.5,305.833 121.5,262.167 121.5,218.5 Z M 192.5,218.5 C 210.833,218.5 229.167,218.5 247.5,218.5C 247.5,262.167 247.5,305.833 247.5,349.5C 229.167,349.5 210.833,349.5 192.5,349.5C 192.5,305.833 192.5,262.167 192.5,218.5 Z M 263.5,218.5 C 281.833,218.5 300.167,218.5 318.5,218.5C 318.5,262.167 318.5,305.833 318.5,349.5C 300.167,349.5 281.833,349.5 263.5,349.5C 263.5,305.833 263.5,262.167 263.5,218.5 Z M 334.5,218.5 C 352.833,218.5 371.167,218.5 389.5,218.5C 389.5,262.167 389.5,305.833 389.5,349.5C 371.167,349.5 352.833,349.5 334.5,349.5C 334.5,305.833 334.5,262.167 334.5,218.5 Z M 405.5,218.5 C 423.5,218.5 441.5,218.5 459.5,218.5C 459.667,264.501 459.5,310.501 459,356.5C 454.625,353.372 449.792,351.206 444.5,350C 431.504,349.5 418.504,349.333 405.5,349.5C 405.5,305.833 405.5,262.167 405.5,218.5 Z M 68.5,365.5 C 80.8333,365.5 93.1667,365.5 105.5,365.5C 105.5,370.5 105.5,375.5 105.5,380.5C 88.1539,380.833 70.8205,380.5 53.5,379.5C 56.6099,372.721 61.6099,368.054 68.5,365.5 Z M 121.5,365.5 C 139.833,365.5 158.167,365.5 176.5,365.5C 176.5,370.5 176.5,375.5 176.5,380.5C 158.167,380.5 139.833,380.5 121.5,380.5C 121.5,375.5 121.5,370.5 121.5,365.5 Z M 192.5,365.5 C 210.833,365.5 229.167,365.5 247.5,365.5C 247.5,370.5 247.5,375.5 247.5,380.5C 229.167,380.5 210.833,380.5 192.5,380.5C 192.5,375.5 192.5,370.5 192.5,365.5 Z M 263.5,365.5 C 281.833,365.5 300.167,365.5 318.5,365.5C 318.5,370.5 318.5,375.5 318.5,380.5C 300.167,380.5 281.833,380.5 263.5,380.5C 263.5,375.5 263.5,370.5 263.5,365.5 Z M 334.5,365.5 C 352.833,365.5 371.167,365.5 389.5,365.5C 389.5,370.5 389.5,375.5 389.5,380.5C 371.167,380.5 352.833,380.5 334.5,380.5C 334.5,375.5 334.5,370.5 334.5,365.5 Z M 405.5,365.5 C 417.838,365.333 430.171,365.5 442.5,366C 449.569,368.237 454.569,372.737 457.5,379.5C 440.179,380.5 422.846,380.833 405.5,380.5C 405.5,375.5 405.5,370.5 405.5,365.5 Z"/></g>
</svg>
