<?xml version="1.0" encoding="UTF-8"?>
<!DOCTYPE svg PUBLIC "-//W3C//DTD SVG 1.1//EN" "http://www.w3.org/Graphics/SVG/1.1/DTD/svg11.dtd">
<svg xmlns="http://www.w3.org/2000/svg" version="1.1" width="512px" height="512px" style="shape-rendering:geometricPrecision; text-rendering:geometricPrecision; image-rendering:optimizeQuality; fill-rule:evenodd; clip-rule:evenodd" xmlns:xlink="http://www.w3.org/1999/xlink">
<g><path style="opacity:0.968" fill="#000000" d="M 41.5,-0.5 C 184.167,-0.5 326.833,-0.5 469.5,-0.5C 491.833,5.16667 505.833,19.1667 511.5,41.5C 511.5,184.167 511.5,326.833 511.5,469.5C 505.833,491.833 491.833,505.833 469.5,511.5C 326.833,511.5 184.167,511.5 41.5,511.5C 19.1667,505.833 5.16667,491.833 -0.5,469.5C -0.5,326.833 -0.5,184.167 -0.5,41.5C 5.16667,19.1667 19.1667,5.16667 41.5,-0.5 Z M 51.5,14.5 C 190.189,14.0131 328.856,14.5131 467.5,16C 482,19.8333 491.167,29 495,43.5C 496.401,66.8042 496.901,90.1376 496.5,113.5C 335.833,113.5 175.167,113.5 14.5,113.5C 14.3334,93.1639 14.5,72.8306 15,52.5C 16.8759,29.7931 29.0425,17.1264 51.5,14.5 Z M 278.5,47.5 C 333.168,47.3333 387.834,47.5 442.5,48C 444.333,48.5 445.5,49.6667 446,51.5C 446.667,59.8333 446.667,68.1667 446,76.5C 445.691,77.7659 445.191,78.9326 444.5,80C 388.5,80.6667 332.5,80.6667 276.5,80C 276,79.5 275.5,79 275,78.5C 274.333,69.1667 274.333,59.8333 275,50.5C 275.985,49.1859 277.152,48.1859 278.5,47.5 Z M 104.5,49.5 C 119.311,53.6066 122.645,62.1066 114.5,75C 106.613,80.285 99.4467,79.4516 93,72.5C 88.3302,60.506 92.1636,52.8394 104.5,49.5 Z M 181.5,49.5 C 192.796,51.7918 197.296,58.4585 195,69.5C 189.95,78.5158 182.783,80.6825 173.5,76C 165.293,67.6551 165.626,59.6551 174.5,52C 176.927,51.0977 179.26,50.2644 181.5,49.5 Z M 14.5,129.5 C 26.1667,129.5 37.8333,129.5 49.5,129.5C 49.3333,239.167 49.5,348.834 50,458.5C 50.8333,459.333 51.6667,460.167 52.5,461C 187.833,461.667 323.167,461.667 458.5,461C 459.333,460.167 460.167,459.333 461,458.5C 461.5,348.834 461.667,239.167 461.5,129.5C 473.167,129.5 484.833,129.5 496.5,129.5C 496.667,239.167 496.5,348.834 496,458.5C 494.304,481.196 482.137,493.696 459.5,496C 323.5,496.667 187.5,496.667 51.5,496C 28.8632,493.696 16.6965,481.196 15,458.5C 14.5,348.834 14.3333,239.167 14.5,129.5 Z M 64.5,129.5 C 191.833,129.5 319.167,129.5 446.5,129.5C 446.833,144.182 446.499,158.848 445.5,173.5C 432.902,165.745 419.236,161.412 404.5,160.5C 391.136,161.454 378.47,164.954 366.5,171C 357.418,173.122 348.418,172.789 339.5,170C 316.505,157.334 293.505,157.334 270.5,170C 260.5,173.333 250.5,173.333 240.5,170C 217.495,157.334 194.495,157.334 171.5,170C 162.582,172.789 153.582,173.122 144.5,171C 132.53,164.954 119.864,161.454 106.5,160.5C 91.7642,161.412 78.0976,165.745 65.5,173.5C 64.5007,158.848 64.1674,144.182 64.5,129.5 Z M 101.5,176.5 C 106.887,176.405 112.22,176.905 117.5,178C 124.578,180.47 131.578,183.137 138.5,186C 157.051,190.52 174.718,188.187 191.5,179C 206.074,175.011 219.907,176.845 233,184.5C 252.956,191.096 272.123,189.263 290.5,179C 300.167,175.667 309.833,175.667 319.5,179C 334.91,187.402 351.244,190.068 368.5,187C 376.931,184.285 385.265,181.285 393.5,178C 403.035,175.753 412.368,176.42 421.5,180C 429.5,184 437.5,188 445.5,192C 446.498,276.763 446.832,361.596 446.5,446.5C 424.831,446.667 403.164,446.5 381.5,446C 420.248,420.335 438.082,384.168 435,337.5C 429.308,295.912 407.808,265.745 370.5,247C 329.073,230.037 290.24,234.537 254,260.5C 253.667,247.833 253.333,235.167 253,222.5C 250.833,213.667 245.333,208.167 236.5,206C 195.5,205.333 154.5,205.333 113.5,206C 107.201,207.963 102.368,211.797 99,217.5C 97.3633,241.437 97.0299,265.437 98,289.5C 99.4684,297.905 102.135,305.905 106,313.5C 110.667,318.833 115.333,318.833 120,313.5C 120.167,312.167 120.333,310.833 120.5,309.5C 119.176,303.694 117.343,298.027 115,292.5C 113.974,287.215 113.307,281.882 113,276.5C 112.333,260.167 112.333,243.833 113,227.5C 113.346,225.152 114.513,223.319 116.5,222C 156.251,221.012 195.918,221.345 235.5,223C 236.126,223.75 236.626,224.584 237,225.5C 237.93,246.871 237.597,268.204 236,289.5C 230.403,310.101 217.903,324.934 198.5,334C 175.806,342.42 154.806,339.42 135.5,325C 126.019,323.478 122.519,327.312 125,336.5C 132.68,343.426 141.513,348.426 151.5,351.5C 152.666,370.158 152.833,388.824 152,407.5C 135.927,415.65 126.761,428.65 124.5,446.5C 104.5,446.5 84.5,446.5 64.5,446.5C 64.3333,361.833 64.5,277.166 65,192.5C 76.6386,185.589 88.8053,180.256 101.5,176.5 Z M 317.5,252.5 C 360.428,252.534 391.595,271.534 411,309.5C 427.894,353.707 419.061,391.873 384.5,424C 353.703,447.339 320.37,452.006 284.5,438C 242.28,416.401 223.447,381.901 228,334.5C 243.031,320.437 251.698,303.104 254,282.5C 271.576,264.794 292.742,254.794 317.5,252.5 Z M 209.5,346.5 C 210.46,381.586 223.793,411.086 249.5,435C 254.558,439.057 259.892,442.724 265.5,446C 252.5,446.667 239.5,446.667 226.5,446C 223.745,428.986 214.745,416.486 199.5,408.5C 198.167,389.5 198.167,370.5 199.5,351.5C 203.113,350.198 206.446,348.531 209.5,346.5 Z M 167.5,354.5 C 172.5,354.5 177.5,354.5 182.5,354.5C 182.5,371.5 182.5,388.5 182.5,405.5C 177.5,405.5 172.5,405.5 167.5,405.5C 167.5,388.5 167.5,371.5 167.5,354.5 Z M 160.5,421.5 C 170.506,421.334 180.506,421.5 190.5,422C 201.204,426.86 207.537,435.027 209.5,446.5C 186.49,446.833 163.49,446.5 140.5,445.5C 143.223,434.118 149.89,426.118 160.5,421.5 Z"/></g>
<g><path style="opacity:0.961" fill="#000000" d="M 271.5,32.5 C 330.501,32.3333 389.501,32.5 448.5,33C 454.667,35.1667 458.833,39.3333 461,45.5C 461.667,58.1667 461.667,70.8333 461,83.5C 458.737,90.0972 454.237,94.2639 447.5,96C 389.167,96.6667 330.833,96.6667 272.5,96C 266.753,93.9211 262.586,90.0878 260,84.5C 258.893,77.9099 258.393,71.2432 258.5,64.5C 258.413,57.4385 258.913,50.4385 260,43.5C 262.495,38.353 266.329,34.6863 271.5,32.5 Z M 278.5,47.5 C 277.152,48.1859 275.985,49.1859 275,50.5C 274.333,59.8333 274.333,69.1667 275,78.5C 275.5,79 276,79.5 276.5,80C 332.5,80.6667 388.5,80.6667 444.5,80C 445.191,78.9326 445.691,77.7659 446,76.5C 446.667,68.1667 446.667,59.8333 446,51.5C 445.5,49.6667 444.333,48.5 442.5,48C 387.834,47.5 333.168,47.3333 278.5,47.5 Z"/></g>
<g><path style="opacity:0.927" fill="#000000" d="M 96.5,34.5 C 119.42,31.778 132.42,41.778 135.5,64.5C 133.723,83.1104 123.557,93.1104 105,94.5C 86.4306,93.0976 76.2639,83.0976 74.5,64.5C 75.3239,49.6824 82.6573,39.6824 96.5,34.5 Z M 104.5,49.5 C 92.1636,52.8394 88.3302,60.506 93,72.5C 99.4467,79.4516 106.613,80.285 114.5,75C 122.645,62.1066 119.311,53.6066 104.5,49.5 Z"/></g>
<g><path style="opacity:0.927" fill="#000000" d="M 173.5,34.5 C 200.748,32.9128 213.248,45.5795 211,72.5C 204.797,89.5263 192.63,96.6929 174.5,94C 157.141,87.9632 149.641,75.7966 152,57.5C 154.918,45.7517 162.085,38.085 173.5,34.5 Z M 181.5,49.5 C 179.26,50.2644 176.927,51.0977 174.5,52C 165.626,59.6551 165.293,67.6551 173.5,76C 182.783,80.6825 189.95,78.5158 195,69.5C 197.296,58.4585 192.796,51.7918 181.5,49.5 Z"/></g>
<g><path style="opacity:0.924" fill="#000000" d="M 318.5,271.5 C 334.595,271.107 349.595,274.94 363.5,283C 367.995,290.179 366.161,295.013 358,297.5C 328.257,281.75 301.257,285.416 277,308.5C 255.401,337.947 256.568,366.447 280.5,394C 308.414,416.381 336.414,416.714 364.5,395C 382.562,377.258 388.395,356.091 382,331.5C 378.63,323.927 375.13,316.427 371.5,309C 373.579,301.458 378.245,299.458 385.5,303C 402.109,327.606 404.942,353.773 394,381.5C 375.001,416.915 345.501,431.415 305.5,425C 271.754,415.376 251.921,393.209 246,358.5C 243.841,320.304 260.008,293.137 294.5,277C 302.448,274.314 310.448,272.481 318.5,271.5 Z"/></g>
</svg>
