<?xml version="1.0" encoding="UTF-8"?>
<!DOCTYPE svg PUBLIC "-//W3C//DTD SVG 1.1//EN" "http://www.w3.org/Graphics/SVG/1.1/DTD/svg11.dtd">
<svg xmlns="http://www.w3.org/2000/svg" version="1.1" width="512px" height="512px" style="shape-rendering:geometricPrecision; text-rendering:geometricPrecision; image-rendering:optimizeQuality; fill-rule:evenodd; clip-rule:evenodd" xmlns:xlink="http://www.w3.org/1999/xlink">
<g><path style="opacity:0.965" fill="#000000" d="M 177.5,47.5 C 224.168,47.3333 270.835,47.5 317.5,48C 324.857,50.6887 330.357,55.522 334,62.5C 335.406,70.7492 335.906,79.0826 335.5,87.5C 372.788,81.6377 402.955,93.3043 426,122.5C 432.892,132.84 437.225,144.174 439,156.5C 439.667,187.5 439.667,218.5 439,249.5C 436.5,256 432,260.5 425.5,263C 415.5,263.667 405.5,263.667 395.5,263C 393.667,262.5 392.5,261.333 392,259.5C 391.667,232.167 391.333,204.833 391,177.5C 389.301,151.975 376.134,135.975 351.5,129.5C 359.473,216.867 367.806,304.201 376.5,391.5C 383.937,398.043 389.104,406.043 392,415.5C 394.468,414.896 396.468,413.562 398,411.5C 399.459,393.902 399.959,376.236 399.5,358.5C 386.927,355.761 379.093,348.094 376,335.5C 375.333,326.167 375.333,316.833 376,307.5C 377.539,304.479 380.039,303.146 383.5,303.5C 383.334,296.825 383.5,290.158 384,283.5C 385.529,280.484 388.029,279.151 391.5,279.5C 394.971,279.151 397.471,280.484 399,283.5C 399.5,290.158 399.666,296.825 399.5,303.5C 404.833,303.5 410.167,303.5 415.5,303.5C 415.334,296.825 415.5,290.158 416,283.5C 417.529,280.484 420.029,279.151 423.5,279.5C 426.971,279.151 429.471,280.484 431,283.5C 431.5,290.158 431.666,296.825 431.5,303.5C 434.961,303.146 437.461,304.479 439,307.5C 439.667,316.833 439.667,326.167 439,335.5C 435.907,348.094 428.073,355.761 415.5,358.5C 415.964,378.567 415.464,398.567 414,418.5C 409.281,427.538 401.781,432.038 391.5,432C 387.771,446.73 378.771,456.73 364.5,462C 282.544,463.655 200.544,463.989 118.5,463C 102.333,458.833 92.1667,448.667 88,432.5C 84.8193,415.869 89.6526,402.202 102.5,391.5C 107.257,344.678 111.923,297.844 116.5,251C 101.671,208.513 86.8376,166.013 72,123.5C 71.3333,120.833 71.3333,118.167 72,115.5C 72.5,113.667 73.6667,112.5 75.5,112C 93.5092,111.833 111.509,111.333 129.5,110.5C 134.354,96.0777 144.354,88.411 159.5,87.5C 154.966,69.0048 160.966,55.6714 177.5,47.5 Z M 185.5,63.5 C 226.835,63.3333 268.168,63.5 309.5,64C 313.438,64.2141 316.272,66.0474 318,69.5C 319.304,75.4229 319.804,81.4229 319.5,87.5C 271.5,87.5 223.5,87.5 175.5,87.5C 175.196,81.4229 175.696,75.4229 177,69.5C 178.943,66.122 181.776,64.122 185.5,63.5 Z M 160.5,103.5 C 226.501,103.333 292.501,103.5 358.5,104C 392.914,106.748 414.08,124.915 422,158.5C 423.564,186.144 423.898,213.811 423,241.5C 422.602,244.232 421.102,246.065 418.5,247C 414.848,247.499 411.182,247.665 407.5,247.5C 407.667,220.165 407.5,192.831 407,165.5C 400.5,136.333 382.667,118.5 353.5,112C 348.167,111.333 342.833,111.333 337.5,112C 334.384,114.4 333.051,117.567 333.5,121.5C 341.535,208.554 349.868,295.554 358.5,382.5C 279.167,383.833 199.833,383.833 120.5,382.5C 129.196,293.877 137.696,205.21 146,116.5C 148.521,109.473 153.355,105.14 160.5,103.5 Z M 91.5,127.5 C 103.5,127.5 115.5,127.5 127.5,127.5C 125.265,154.518 122.765,181.518 120,208.5C 110.486,181.479 100.986,154.479 91.5,127.5 Z M 242.5,152.5 C 254.308,150.817 261.141,155.817 263,167.5C 263.667,218.167 263.667,268.833 263,319.5C 259.813,333.344 251.646,337.51 238.5,332C 234.618,328.736 232.451,324.57 232,319.5C 231.333,268.833 231.333,218.167 232,167.5C 232.626,160.391 236.126,155.391 242.5,152.5 Z M 391.5,319.5 C 402.167,319.5 412.833,319.5 423.5,319.5C 424.991,329.684 421.324,337.184 412.5,342C 403.409,344.037 396.909,340.871 393,332.5C 391.925,328.23 391.425,323.897 391.5,319.5 Z M 127.5,399.5 C 202.167,399.333 276.834,399.5 351.5,400C 368.414,402.587 375.914,412.421 374,429.5C 370.295,440.204 362.795,446.037 351.5,447C 276.833,447.667 202.167,447.667 127.5,447C 108.737,443.896 101.571,433.062 106,414.5C 110.405,405.393 117.571,400.393 127.5,399.5 Z"/></g>
<g><path style="opacity:0.976" fill="#000000" d="M 239.5,135.5 C 259.464,132.717 272.631,140.717 279,159.5C 279.667,215.5 279.667,271.5 279,327.5C 276.354,337.31 270.52,344.477 261.5,349C 244.774,355.086 230.941,351.252 220,337.5C 218.275,334.326 216.942,330.993 216,327.5C 215.333,271.5 215.333,215.5 216,159.5C 219.349,146.985 227.182,138.985 239.5,135.5 Z M 242.5,152.5 C 236.126,155.391 232.626,160.391 232,167.5C 231.333,218.167 231.333,268.833 232,319.5C 232.451,324.57 234.618,328.736 238.5,332C 251.646,337.51 259.813,333.344 263,319.5C 263.667,268.833 263.667,218.167 263,167.5C 261.141,155.817 254.308,150.817 242.5,152.5 Z"/></g>
<g><path style="opacity:0.967" fill="#000000" d="M 251.5,415.5 C 264.837,415.333 278.171,415.5 291.5,416C 293.333,416.5 294.5,417.667 295,419.5C 295.667,422.167 295.667,424.833 295,427.5C 294.5,429.333 293.333,430.5 291.5,431C 278.167,431.667 264.833,431.667 251.5,431C 248.484,429.471 247.151,426.971 247.5,423.5C 247.282,419.934 248.616,417.268 251.5,415.5 Z"/></g>
<g><path style="opacity:0.967" fill="#000000" d="M 315.5,415.5 C 328.837,415.333 342.171,415.5 355.5,416C 357.333,416.5 358.5,417.667 359,419.5C 359.667,422.167 359.667,424.833 359,427.5C 358.5,429.333 357.333,430.5 355.5,431C 342.167,431.667 328.833,431.667 315.5,431C 312.484,429.471 311.151,426.971 311.5,423.5C 311.282,419.934 312.616,417.268 315.5,415.5 Z"/></g>
</svg>
