<?xml version="1.0" encoding="UTF-8"?>
<!DOCTYPE svg PUBLIC "-//W3C//DTD SVG 1.1//EN" "http://www.w3.org/Graphics/SVG/1.1/DTD/svg11.dtd">
<svg xmlns="http://www.w3.org/2000/svg" version="1.1" width="512px" height="512px" style="shape-rendering:geometricPrecision; text-rendering:geometricPrecision; image-rendering:optimizeQuality; fill-rule:evenodd; clip-rule:evenodd" xmlns:xlink="http://www.w3.org/1999/xlink">
<g><path style="opacity:0.942" fill="#000000" d="M 419.5,7.5 C 456.533,4.2581 483.033,19.2581 499,52.5C 510.727,89.9876 500.561,119.821 468.5,142C 467.333,143.833 466.167,145.667 465,147.5C 463.773,162.127 463.106,176.794 463,191.5C 460.833,199.174 456.666,205.507 450.5,210.5C 454.383,225.236 456.05,240.236 455.5,255.5C 455.731,270.646 454.398,285.646 451.5,300.5C 415.5,290.5 379.5,280.5 343.5,270.5C 346.34,234.032 333.34,204.865 304.5,183C 284.904,170.935 263.571,165.768 240.5,167.5C 230.5,131.5 220.5,95.5 210.5,59.5C 262.909,48.6794 312.242,56.6794 358.5,83.5C 358.745,49.7907 374.078,25.9573 404.5,12C 409.577,10.32 414.577,8.82004 419.5,7.5 Z M 430.5,23.5 C 452.088,24.6086 468.588,34.2752 480,52.5C 490.596,75.3305 488.263,96.6638 473,116.5C 466.667,121.833 460.333,127.167 454,132.5C 449.557,138.053 447.391,144.386 447.5,151.5C 444.833,151.5 442.167,151.5 439.5,151.5C 439.167,135.153 439.501,118.82 440.5,102.5C 455.869,93.887 459.703,81.5537 452,65.5C 442.209,54.7566 430.709,52.59 417.5,59C 407.634,67.1343 404.801,77.301 409,89.5C 412.028,95.361 416.528,99.6943 422.5,102.5C 423.499,118.82 423.833,135.153 423.5,151.5C 420.833,151.5 418.167,151.5 415.5,151.5C 415.609,144.386 413.443,138.053 409,132.5C 402.667,127.167 396.333,121.833 390,116.5C 374.737,96.6638 372.404,75.3305 383,52.5C 394.116,35.0289 409.949,25.3623 430.5,23.5 Z M 253.5,71.5 C 294.527,71.7872 331.527,83.9539 364.5,108C 367.371,114.248 370.871,120.081 375,125.5C 381.848,132.886 389.181,139.553 397,145.5C 397.92,148.101 398.587,150.768 399,153.5C 399.333,166.167 399.667,178.833 400,191.5C 405.323,208.254 416.823,216.254 434.5,215.5C 438.514,236.338 439.514,257.338 437.5,278.5C 411.5,271.5 385.5,264.5 359.5,257.5C 358.997,212.515 338.664,180.015 298.5,160C 284.19,153.506 269.19,150.672 253.5,151.5C 246.5,125.5 239.5,99.5 232.5,73.5C 239.663,73.0361 246.663,72.3695 253.5,71.5 Z M 428.5,72.5 C 437.85,72.3654 440.517,76.532 436.5,85C 427.956,88.3224 424.123,85.4891 425,76.5C 425.69,74.6498 426.856,73.3164 428.5,72.5 Z M 415.5,167.5 C 426.167,167.5 436.833,167.5 447.5,167.5C 447.666,172.844 447.499,178.177 447,183.5C 445.153,195.343 438.32,200.176 426.5,198C 419.947,195.399 416.447,190.566 416,183.5C 415.501,178.177 415.334,172.844 415.5,167.5 Z"/></g>
<g><path style="opacity:0.931" fill="#000000" d="M 64.5,55.5 C 74.9002,53.2901 83.4002,56.2901 90,64.5C 98.4129,80.3276 107.08,95.9942 116,111.5C 139.108,89.5183 165.941,73.5183 196.5,63.5C 205.915,99.6622 215.249,135.829 224.5,172C 176.649,196.873 159.816,235.373 174,287.5C 177.492,295.153 181.492,302.487 186,309.5C 186.667,310.5 186.667,311.5 186,312.5C 160.697,339.47 135.031,366.137 109,392.5C 67.6541,346.52 49.9874,292.52 56,230.5C 19.8052,218.142 3.80519,192.809 8,154.5C 8.92612,149.721 10.2595,145.054 12,140.5C 25.6667,115.167 39.3333,89.8333 53,64.5C 56.1607,60.4905 59.994,57.4905 64.5,55.5 Z M 68.5,72.5 C 72.4896,71.6155 75.3229,72.9489 77,76.5C 90.8729,101.58 104.206,126.914 117,152.5C 122.975,178.715 114.142,198.215 90.5,211C 62.8627,219.903 42.0294,211.736 28,186.5C 22.3349,172.432 22.6683,158.432 29,144.5C 42.3957,120.61 55.5624,96.6098 68.5,72.5 Z M 183.5,86.5 C 184.586,86.62 185.253,87.2867 185.5,88.5C 191.679,113.548 198.012,138.548 204.5,163.5C 157.015,195.106 141.515,238.44 158,293.5C 160.099,298.865 162.599,304.032 165.5,309C 147,328.167 128.5,347.333 110,366.5C 79.9183,326.519 67.7516,281.519 73.5,231.5C 102.841,229.655 122.674,214.989 133,187.5C 138.618,166.273 135.785,146.273 124.5,127.5C 141.613,110.114 161.279,96.4476 183.5,86.5 Z"/></g>
<g><path style="opacity:0.924" fill="#000000" d="M 44.5,147.5 C 49.9224,149.378 54.9224,152.044 59.5,155.5C 54.0305,164.351 55.0305,172.518 62.5,180C 65.2065,181.908 68.2065,182.741 71.5,182.5C 71.5,188.167 71.5,193.833 71.5,199.5C 50.6937,198.36 40.027,187.36 39.5,166.5C 38.9423,159.518 40.609,153.185 44.5,147.5 Z"/></g>
<g><path style="opacity:0.948" fill="#000000" d="M 247.5,183.5 C 252.833,183.5 258.167,183.5 263.5,183.5C 263.5,188.833 263.5,194.167 263.5,199.5C 283.833,200.5 294.5,211.167 295.5,231.5C 289.833,231.5 284.167,231.5 278.5,231.5C 277.778,222.277 272.778,217.111 263.5,216C 254.845,214.726 246.511,215.726 238.5,219C 230.5,227.333 230.5,235.667 238.5,244C 241.246,245.75 244.246,246.75 247.5,247C 255.5,247.333 263.5,247.667 271.5,248C 290.438,254.355 298.272,267.522 295,287.5C 291.833,300 284,307.833 271.5,311C 268.854,311.497 266.187,311.664 263.5,311.5C 263.5,316.833 263.5,322.167 263.5,327.5C 258.167,327.5 252.833,327.5 247.5,327.5C 247.5,322.167 247.5,316.833 247.5,311.5C 231.361,310.857 220.861,302.857 216,287.5C 215.501,282.177 215.334,276.844 215.5,271.5C 220.833,271.5 226.167,271.5 231.5,271.5C 230.495,288.495 238.495,296.495 255.5,295.5C 265.689,296.988 273.189,293.321 278,284.5C 280.176,272.68 275.343,265.847 263.5,264C 255.5,263.667 247.5,263.333 239.5,263C 220.562,256.645 212.728,243.478 216,223.5C 219.167,211 227,203.167 239.5,200C 242.146,199.503 244.813,199.336 247.5,199.5C 247.5,194.167 247.5,188.833 247.5,183.5 Z"/></g>
<g><path style="opacity:0.962" fill="#000000" d="M 338.5,286.5 C 374.853,295.672 411.186,305.005 447.5,314.5C 432.995,359.159 406.495,394.826 368,421.5C 367.667,443.167 367.333,464.833 367,486.5C 364.167,494.667 358.667,500.167 350.5,503C 297.833,503.667 245.167,503.667 192.5,503C 184.333,500.167 178.833,494.667 176,486.5C 174.947,470.523 174.114,454.523 173.5,438.5C 153.105,429.312 134.772,417.145 118.5,402C 144.863,375.969 171.53,350.303 198.5,325C 199.5,324.333 200.5,324.333 201.5,325C 233.828,346.423 267.162,348.09 301.5,330C 317.694,318.776 330.027,304.276 338.5,286.5 Z M 346.5,306.5 C 372.582,312.854 398.582,319.521 424.5,326.5C 411.694,355.784 392.861,380.451 368,400.5C 367.979,388.15 362.146,379.984 350.5,376C 324.167,375.833 297.833,375.667 271.5,375.5C 244.107,375.346 216.773,375.846 189.5,377C 184,379.833 179.833,384 177,389.5C 175.74,399.761 175.073,410.094 175,420.5C 164.029,415.184 153.862,408.684 144.5,401C 163.667,382.5 182.833,364 202,345.5C 228.044,360.036 255.544,363.536 284.5,356C 311.943,347.803 332.61,331.303 346.5,306.5 Z M 199.5,391.5 C 247.501,391.333 295.501,391.5 343.5,392C 348,392.5 350.5,395 351,399.5C 351.497,402.146 351.664,404.813 351.5,407.5C 298.167,407.5 244.833,407.5 191.5,407.5C 191.001,402.636 192.001,398.136 194.5,394C 196.315,393.243 197.981,392.41 199.5,391.5 Z M 191.5,423.5 C 244.833,423.5 298.167,423.5 351.5,423.5C 351.667,442.17 351.5,460.836 351,479.5C 350.5,484 348,486.5 343.5,487C 295.5,487.667 247.5,487.667 199.5,487C 195,486.5 192.5,484 192,479.5C 191.5,460.836 191.333,442.17 191.5,423.5 Z"/></g>
<g><path style="opacity:1" fill="#000000" d="M 287.5,455.5 C 292.833,455.5 298.167,455.5 303.5,455.5C 303.5,460.833 303.5,466.167 303.5,471.5C 298.167,471.5 292.833,471.5 287.5,471.5C 287.5,466.167 287.5,460.833 287.5,455.5 Z"/></g>
<g><path style="opacity:1" fill="#000000" d="M 319.5,455.5 C 324.833,455.5 330.167,455.5 335.5,455.5C 335.5,460.833 335.5,466.167 335.5,471.5C 330.167,471.5 324.833,471.5 319.5,471.5C 319.5,466.167 319.5,460.833 319.5,455.5 Z"/></g>
</svg>
