<?xml version="1.0" encoding="UTF-8"?>
<!DOCTYPE svg PUBLIC "-//W3C//DTD SVG 1.1//EN" "http://www.w3.org/Graphics/SVG/1.1/DTD/svg11.dtd">
<svg xmlns="http://www.w3.org/2000/svg" version="1.1" width="512px" height="512px" style="shape-rendering:geometricPrecision; text-rendering:geometricPrecision; image-rendering:optimizeQuality; fill-rule:evenodd; clip-rule:evenodd" xmlns:xlink="http://www.w3.org/1999/xlink">
<g><path style="opacity:0.968" fill="#000000" d="M 216.5,-0.5 C 222.167,-0.5 227.833,-0.5 233.5,-0.5C 242.424,1.91552 249.591,6.91552 255,14.5C 257.945,22.7771 263.112,29.2771 270.5,34C 322.291,59.3824 371.958,88.049 419.5,120C 426.459,123.66 433.792,124.827 441.5,123.5C 463.403,125.903 475.403,138.069 477.5,160C 476.513,177.961 467.513,189.961 450.5,196C 448.333,198.167 446.167,200.333 444,202.5C 429.711,237.264 411.211,269.43 388.5,299C 444.479,295.052 483.646,318.552 506,369.5C 508.02,376.586 509.853,383.586 511.5,390.5C 511.5,400.5 511.5,410.5 511.5,420.5C 500.72,470.946 470.054,501.28 419.5,511.5C 290.5,511.5 161.5,511.5 32.5,511.5C 15.1667,506.833 4.16667,495.833 -0.5,478.5C -0.5,472.5 -0.5,466.5 -0.5,460.5C 3.20287,446.624 11.5362,436.457 24.5,430C 11.1955,417.886 2.86214,403.052 -0.5,385.5C -0.5,377.5 -0.5,369.5 -0.5,361.5C 4.72898,335.927 19.0623,317.26 42.5,305.5C 43.8905,294.822 47.7238,285.155 54,276.5C 54.8221,274.212 55.4888,271.878 56,269.5C 54.1008,249.406 52.9342,229.239 52.5,209C 52.5838,190.411 53.9171,171.911 56.5,153.5C 56.1936,150.468 55.6936,147.468 55,144.5C 51.1394,138.112 47.8061,131.446 45,124.5C 41.1404,97.359 52.8071,82.0257 80,78.5C 84.6622,78.4572 89.1622,79.2906 93.5,81C 99.2211,84.5272 105.221,87.5272 111.5,90C 128.543,90.4526 145.543,89.7859 162.5,88C 169.966,76.9015 177.799,66.0681 186,55.5C 189.164,47.3741 190.164,39.0408 189,30.5C 191.691,14.3145 200.858,3.98115 216.5,-0.5 Z M 219.5,20.5 C 227.191,19.0054 233.357,21.3387 238,27.5C 241.616,36.1154 247.116,43.282 254.5,49C 274.5,59.6667 294.5,70.3333 314.5,81C 309.562,85.3031 303.896,88.3031 297.5,90C 261.183,89.1012 224.849,88.4345 188.5,88C 195.114,80.0494 200.948,71.5494 206,62.5C 209.47,52.7334 210.804,42.7334 210,32.5C 211.526,27.0719 214.693,23.0719 219.5,20.5 Z M 76.5,99.5 C 79.941,99.3011 83.2744,99.8011 86.5,101C 96.9795,108.936 108.813,112.436 122,111.5C 149.496,110.247 176.996,109.247 204.5,108.5C 232.336,109.261 260.17,110.261 288,111.5C 293.565,111.558 299.065,111.058 304.5,110C 311.895,107.469 318.895,104.136 325.5,100C 339.492,98.9933 345.659,105.493 344,119.5C 334.069,132.558 330.402,147.225 333,163.5C 337.235,197.168 337.068,230.835 332.5,264.5C 332.164,277.154 335.831,288.487 343.5,298.5C 250.835,299.667 158.168,299.833 65.5,299C 72.9622,289.116 76.9622,277.949 77.5,265.5C 72.1667,228.167 72.1667,190.833 77.5,153.5C 77.3398,141.185 73.5065,130.185 66,120.5C 63.1137,110.273 66.6137,103.273 76.5,99.5 Z M 365.5,110.5 C 380.309,119.74 394.975,129.24 409.5,139C 419.305,144.016 429.638,145.849 440.5,144.5C 449.939,145.44 455.273,150.606 456.5,160C 455.928,163.384 454.761,166.551 453,169.5C 443.193,174.635 434.526,181.302 427,189.5C 417.527,209.779 407.527,229.779 397,249.5C 386.724,265.441 376.058,281.107 365,296.5C 364.489,294.122 363.822,291.788 363,289.5C 359.221,284.277 356.221,278.61 354,272.5C 355.073,251.518 356.24,230.518 357.5,209.5C 356.846,190.951 355.512,172.451 353.5,154C 353.279,149.299 354.113,144.799 356,140.5C 363.453,131.911 366.62,121.911 365.5,110.5 Z M 72.5,319.5 C 184.167,319.333 295.834,319.5 407.5,320C 452.461,324.294 479.961,348.461 490,392.5C 493.869,433.604 477.703,463.771 441.5,483C 434.08,486.14 426.414,488.473 418.5,490C 353.515,491.143 288.515,491.643 223.5,491.5C 160.803,491.656 98.1365,491.156 35.5,490C 23.2617,485.365 18.4283,476.532 21,463.5C 24.1311,454.175 30.6311,449.008 40.5,448C 165.167,447.667 289.833,447.333 414.5,447C 439.521,439.487 450.354,422.653 447,396.5C 442.833,379 432,368.167 414.5,364C 307.833,363.333 201.167,363.333 94.5,364C 86.5,370.333 86.5,376.667 94.5,383C 198.5,383.333 302.5,383.667 406.5,384C 424.488,388.136 430.321,398.969 424,416.5C 419.734,423.22 413.567,426.72 405.5,427C 294.833,427.667 184.167,427.667 73.5,427C 45.7101,424.862 28.2101,410.362 21,383.5C 17.8804,355.897 28.7137,336.064 53.5,324C 59.7851,321.677 66.1184,320.177 72.5,319.5 Z"/></g>
</svg>
