<?xml version="1.0" encoding="UTF-8"?>
<!DOCTYPE svg PUBLIC "-//W3C//DTD SVG 1.1//EN" "http://www.w3.org/Graphics/SVG/1.1/DTD/svg11.dtd">
<svg xmlns="http://www.w3.org/2000/svg" version="1.1" width="512px" height="512px" style="shape-rendering:geometricPrecision; text-rendering:geometricPrecision; image-rendering:optimizeQuality; fill-rule:evenodd; clip-rule:evenodd" xmlns:xlink="http://www.w3.org/1999/xlink">
<g><path style="opacity:0.991" fill="#000000" d="M 11.5,71.5 C 174.914,71.0028 338.247,71.5028 501.5,73C 502.126,73.7504 502.626,74.5838 503,75.5C 503.167,135.5 503.333,195.5 503.5,255.5C 503.663,316.248 503.163,376.915 502,437.5C 501.25,438.126 500.416,438.626 499.5,439C 418.167,439.167 336.833,439.333 255.5,439.5C 173.419,439.664 91.4193,439.164 9.5,438C 8.87424,437.25 8.37424,436.416 8,435.5C 7.33333,315.5 7.33333,195.5 8,75.5C 8.68972,73.6498 9.85639,72.3164 11.5,71.5 Z M 23.5,87.5 C 28.8333,87.5 34.1667,87.5 39.5,87.5C 39.0437,104.237 39.5437,120.903 41,137.5C 49.8425,152.045 62.0092,155.545 77.5,148C 81.0916,145.079 83.9249,141.579 86,137.5C 87.4563,120.903 87.9563,104.237 87.5,87.5C 92.8333,87.5 98.1667,87.5 103.5,87.5C 103.044,104.237 103.544,120.903 105,137.5C 113.843,152.045 126.009,155.545 141.5,148C 145.092,145.079 147.925,141.579 150,137.5C 151.456,120.903 151.956,104.237 151.5,87.5C 156.833,87.5 162.167,87.5 167.5,87.5C 167.044,104.237 167.544,120.903 169,137.5C 177.843,152.045 190.009,155.545 205.5,148C 209.092,145.079 211.925,141.579 214,137.5C 215.456,120.903 215.956,104.237 215.5,87.5C 220.833,87.5 226.167,87.5 231.5,87.5C 231.044,104.237 231.544,120.903 233,137.5C 241.843,152.045 254.009,155.545 269.5,148C 273.092,145.079 275.925,141.579 278,137.5C 279.456,120.903 279.956,104.237 279.5,87.5C 284.833,87.5 290.167,87.5 295.5,87.5C 295.044,104.237 295.544,120.903 297,137.5C 305.843,152.045 318.009,155.545 333.5,148C 337.092,145.079 339.925,141.579 342,137.5C 343.456,120.903 343.956,104.237 343.5,87.5C 348.833,87.5 354.167,87.5 359.5,87.5C 359.044,104.237 359.544,120.903 361,137.5C 369.843,152.045 382.009,155.545 397.5,148C 401.092,145.079 403.925,141.579 406,137.5C 407.456,120.903 407.956,104.237 407.5,87.5C 412.833,87.5 418.167,87.5 423.5,87.5C 423.044,104.237 423.544,120.903 425,137.5C 433.843,152.045 446.009,155.545 461.5,148C 465.092,145.079 467.925,141.579 470,137.5C 471.456,120.903 471.956,104.237 471.5,87.5C 476.833,87.5 482.167,87.5 487.5,87.5C 487.5,188.833 487.5,290.167 487.5,391.5C 332.833,391.5 178.167,391.5 23.5,391.5C 23.5,290.167 23.5,188.833 23.5,87.5 Z M 55.5,87.5 C 60.8333,87.5 66.1667,87.5 71.5,87.5C 71.6666,100.837 71.4999,114.171 71,127.5C 69.1344,134.347 64.9677,136.18 58.5,133C 57.283,131.352 56.4497,129.519 56,127.5C 55.5001,114.171 55.3334,100.837 55.5,87.5 Z M 119.5,87.5 C 124.833,87.5 130.167,87.5 135.5,87.5C 135.667,100.837 135.5,114.171 135,127.5C 133.134,134.347 128.968,136.18 122.5,133C 121.283,131.352 120.45,129.519 120,127.5C 119.5,114.171 119.333,100.837 119.5,87.5 Z M 183.5,87.5 C 188.833,87.5 194.167,87.5 199.5,87.5C 199.667,100.837 199.5,114.171 199,127.5C 197.134,134.347 192.968,136.18 186.5,133C 185.283,131.352 184.45,129.519 184,127.5C 183.5,114.171 183.333,100.837 183.5,87.5 Z M 247.5,87.5 C 252.833,87.5 258.167,87.5 263.5,87.5C 263.667,100.837 263.5,114.171 263,127.5C 261.134,134.347 256.968,136.18 250.5,133C 249.283,131.352 248.45,129.519 248,127.5C 247.5,114.171 247.333,100.837 247.5,87.5 Z M 311.5,87.5 C 316.833,87.5 322.167,87.5 327.5,87.5C 327.667,100.837 327.5,114.171 327,127.5C 325.134,134.347 320.968,136.18 314.5,133C 313.283,131.352 312.45,129.519 312,127.5C 311.5,114.171 311.333,100.837 311.5,87.5 Z M 375.5,87.5 C 380.833,87.5 386.167,87.5 391.5,87.5C 391.667,100.837 391.5,114.171 391,127.5C 389.134,134.347 384.968,136.18 378.5,133C 377.283,131.352 376.45,129.519 376,127.5C 375.5,114.171 375.333,100.837 375.5,87.5 Z M 439.5,87.5 C 444.833,87.5 450.167,87.5 455.5,87.5C 455.667,100.837 455.5,114.171 455,127.5C 453.134,134.347 448.968,136.18 442.5,133C 441.283,131.352 440.45,129.519 440,127.5C 439.5,114.171 439.333,100.837 439.5,87.5 Z M 55.5,183.5 C 188.833,183.5 322.167,183.5 455.5,183.5C 455.5,242.167 455.5,300.833 455.5,359.5C 446.143,359.832 436.81,359.498 427.5,358.5C 440.551,338.837 443.051,317.837 435,295.5C 431.341,287.514 426.508,280.347 420.5,274C 404.833,260.333 389.167,246.667 373.5,233C 369.5,231 365.5,231 361.5,233C 360.874,233.75 360.374,234.584 360,235.5C 359.812,243.218 359.146,250.885 358,258.5C 353.089,264.655 348.423,270.989 344,277.5C 340.547,283.859 337.881,290.526 336,297.5C 332.918,294.341 330.584,290.675 329,286.5C 328.842,281.703 327.676,277.203 325.5,273C 319.554,270.168 314.721,271.335 311,276.5C 294.128,261.293 276.962,246.46 259.5,232C 255.756,231.071 252.256,231.571 249,233.5C 247.889,241.779 246.889,250.113 246,258.5C 241.089,264.655 236.423,270.989 232,277.5C 228.547,283.859 225.881,290.526 224,297.5C 220.918,294.341 218.584,290.675 217,286.5C 216.842,281.703 215.676,277.203 213.5,273C 210.298,271.517 206.964,271.183 203.5,272C 201.5,272.667 200.167,274 199.5,276C 198.833,276.667 198.167,276.667 197.5,276C 181.798,261.296 165.798,246.963 149.5,233C 146.298,231.517 142.964,231.183 139.5,232C 137.667,232.5 136.5,233.667 136,235.5C 135.812,243.218 135.146,250.885 134,258.5C 129.089,264.655 124.423,270.989 120,277.5C 116.547,283.859 113.881,290.526 112,297.5C 108.918,294.341 106.584,290.675 105,286.5C 104.737,281.983 103.737,277.649 102,273.5C 97.6667,270.833 93.3333,270.833 89,273.5C 84.4161,280.332 80.0827,287.332 76,294.5C 67.0872,318.109 70.5872,339.609 86.5,359C 76.172,359.5 65.8387,359.666 55.5,359.5C 55.5,300.833 55.5,242.167 55.5,183.5 Z M 151.5,258.5 C 163.795,268.958 175.962,279.625 188,290.5C 185.476,299.781 183.643,309.281 182.5,319C 183.14,334.263 188.474,347.596 198.5,359C 168.161,359.833 137.828,359.667 107.5,358.5C 101.75,351.582 96.5833,344.249 92,336.5C 87.5437,325.237 87.377,313.904 91.5,302.5C 92.0016,301.479 92.6683,301.312 93.5,302C 98.688,309.85 105.688,315.516 114.5,319C 118.295,319.837 121.961,319.504 125.5,318C 127.693,310.304 129.526,302.471 131,294.5C 135.101,285.961 140.434,278.294 147,271.5C 149.202,267.394 150.702,263.06 151.5,258.5 Z M 263.5,258.5 C 275.795,268.958 287.962,279.625 300,290.5C 311.191,305.471 313.524,321.805 307,339.5C 303.355,347.152 298.189,353.652 291.5,359C 267.493,359.833 243.493,359.666 219.5,358.5C 212.651,350.153 206.818,341.153 202,331.5C 199.79,322.069 200.124,312.736 203,303.5C 203.423,302.044 204.256,301.544 205.5,302C 210.688,309.85 217.688,315.516 226.5,319C 230.295,319.837 233.961,319.504 237.5,318C 239.693,310.304 241.526,302.471 243,294.5C 247.101,285.961 252.434,278.294 259,271.5C 261.202,267.394 262.702,263.06 263.5,258.5 Z M 375.5,258.5 C 387.795,268.958 399.962,279.625 412,290.5C 424.018,307.105 425.685,324.771 417,343.5C 413.246,349.258 408.746,354.425 403.5,359C 374.161,359.833 344.828,359.667 315.5,358.5C 325.107,345.078 329.274,330.078 328,313.5C 333.764,318.142 340.264,319.976 347.5,319C 348.416,318.626 349.25,318.126 350,317.5C 351.048,299.406 358.048,284.073 371,271.5C 373.202,267.394 374.702,263.06 375.5,258.5 Z M 23.5,407.5 C 178.167,407.5 332.833,407.5 487.5,407.5C 487.5,412.833 487.5,418.167 487.5,423.5C 332.833,423.5 178.167,423.5 23.5,423.5C 23.5,418.167 23.5,412.833 23.5,407.5 Z"/></g>
<g><path style="opacity:0.971" fill="#000000" d="M 43.5,167.5 C 184.834,167.333 326.167,167.5 467.5,168C 469.333,168.5 470.5,169.667 471,171.5C 471.667,238.167 471.667,304.833 471,371.5C 470.5,373.333 469.333,374.5 467.5,375C 326.167,375.667 184.833,375.667 43.5,375C 41.6667,374.5 40.5,373.333 40,371.5C 39.3333,304.833 39.3333,238.167 40,171.5C 40.6897,169.65 41.8564,168.316 43.5,167.5 Z M 55.5,183.5 C 55.5,242.167 55.5,300.833 55.5,359.5C 65.8387,359.666 76.172,359.5 86.5,359C 70.5872,339.609 67.0872,318.109 76,294.5C 80.0827,287.332 84.4161,280.332 89,273.5C 93.3333,270.833 97.6667,270.833 102,273.5C 103.737,277.649 104.737,281.983 105,286.5C 106.584,290.675 108.918,294.341 112,297.5C 113.881,290.526 116.547,283.859 120,277.5C 124.423,270.989 129.089,264.655 134,258.5C 135.146,250.885 135.812,243.218 136,235.5C 136.5,233.667 137.667,232.5 139.5,232C 142.964,231.183 146.298,231.517 149.5,233C 165.798,246.963 181.798,261.296 197.5,276C 198.167,276.667 198.833,276.667 199.5,276C 200.167,274 201.5,272.667 203.5,272C 206.964,271.183 210.298,271.517 213.5,273C 215.676,277.203 216.842,281.703 217,286.5C 218.584,290.675 220.918,294.341 224,297.5C 225.881,290.526 228.547,283.859 232,277.5C 236.423,270.989 241.089,264.655 246,258.5C 246.889,250.113 247.889,241.779 249,233.5C 252.256,231.571 255.756,231.071 259.5,232C 276.962,246.46 294.128,261.293 311,276.5C 314.721,271.335 319.554,270.168 325.5,273C 327.676,277.203 328.842,281.703 329,286.5C 330.584,290.675 332.918,294.341 336,297.5C 337.881,290.526 340.547,283.859 344,277.5C 348.423,270.989 353.089,264.655 358,258.5C 359.146,250.885 359.812,243.218 360,235.5C 360.374,234.584 360.874,233.75 361.5,233C 365.5,231 369.5,231 373.5,233C 389.167,246.667 404.833,260.333 420.5,274C 426.508,280.347 431.341,287.514 435,295.5C 443.051,317.837 440.551,338.837 427.5,358.5C 436.81,359.498 446.143,359.832 455.5,359.5C 455.5,300.833 455.5,242.167 455.5,183.5C 322.167,183.5 188.833,183.5 55.5,183.5 Z M 151.5,258.5 C 150.702,263.06 149.202,267.394 147,271.5C 140.434,278.294 135.101,285.961 131,294.5C 129.526,302.471 127.693,310.304 125.5,318C 121.961,319.504 118.295,319.837 114.5,319C 105.688,315.516 98.688,309.85 93.5,302C 92.6683,301.312 92.0016,301.479 91.5,302.5C 87.377,313.904 87.5437,325.237 92,336.5C 96.5833,344.249 101.75,351.582 107.5,358.5C 137.828,359.667 168.161,359.833 198.5,359C 188.474,347.596 183.14,334.263 182.5,319C 183.643,309.281 185.476,299.781 188,290.5C 175.962,279.625 163.795,268.958 151.5,258.5 Z M 263.5,258.5 C 262.702,263.06 261.202,267.394 259,271.5C 252.434,278.294 247.101,285.961 243,294.5C 241.526,302.471 239.693,310.304 237.5,318C 233.961,319.504 230.295,319.837 226.5,319C 217.688,315.516 210.688,309.85 205.5,302C 204.256,301.544 203.423,302.044 203,303.5C 200.124,312.736 199.79,322.069 202,331.5C 206.818,341.153 212.651,350.153 219.5,358.5C 243.493,359.666 267.493,359.833 291.5,359C 298.189,353.652 303.355,347.152 307,339.5C 313.524,321.805 311.191,305.471 300,290.5C 287.962,279.625 275.795,268.958 263.5,258.5 Z M 375.5,258.5 C 374.702,263.06 373.202,267.394 371,271.5C 358.048,284.073 351.048,299.406 350,317.5C 349.25,318.126 348.416,318.626 347.5,319C 340.264,319.976 333.764,318.142 328,313.5C 329.274,330.078 325.107,345.078 315.5,358.5C 344.828,359.667 374.161,359.833 403.5,359C 408.746,354.425 413.246,349.258 417,343.5C 425.685,324.771 424.018,307.105 412,290.5C 399.962,279.625 387.795,268.958 375.5,258.5 Z"/></g>
</svg>
