<?xml version="1.0" encoding="UTF-8"?>
<!DOCTYPE svg PUBLIC "-//W3C//DTD SVG 1.1//EN" "http://www.w3.org/Graphics/SVG/1.1/DTD/svg11.dtd">
<svg xmlns="http://www.w3.org/2000/svg" version="1.1" width="512px" height="512px" style="shape-rendering:geometricPrecision; text-rendering:geometricPrecision; image-rendering:optimizeQuality; fill-rule:evenodd; clip-rule:evenodd" xmlns:xlink="http://www.w3.org/1999/xlink">
<g><path style="opacity:0.94" fill="#000000" d="M 179.5,26.5 C 225.06,23.2942 257.227,42.2942 276,83.5C 288.858,125.579 278.358,160.412 244.5,188C 235.358,194.404 225.358,198.904 214.5,201.5C 214.5,220.5 214.5,239.5 214.5,258.5C 248.835,258.333 283.168,258.5 317.5,259C 323.086,260.581 327.586,263.748 331,268.5C 347.47,290.604 364.304,312.437 381.5,334C 410.833,334.333 440.167,334.667 469.5,335C 480.752,337.919 487.585,345.086 490,356.5C 490.667,379.5 490.667,402.5 490,425.5C 487.241,437.258 480.074,444.758 468.5,448C 453.837,448.5 439.17,448.667 424.5,448.5C 423.869,455.563 421.202,461.73 416.5,467C 442.167,467.333 467.833,467.667 493.5,468C 500.16,470.49 501.993,474.99 499,481.5C 498.097,482.701 496.931,483.535 495.5,484C 335.5,484.667 175.5,484.667 15.5,484C 10.6945,480.911 9.52784,476.744 12,471.5C 13.3189,469.513 15.1523,468.346 17.5,468C 36.8419,467.833 56.1753,467.333 75.5,466.5C 71.5924,461.11 69.2591,455.11 68.5,448.5C 50.9329,451.724 38.4329,445.391 31,429.5C 29.3845,405.875 29.0512,382.209 30,358.5C 32.1735,346.656 39.0068,338.823 50.5,335C 68.8424,334.833 87.1757,334.333 105.5,333.5C 122.475,310.691 139.641,288.025 157,265.5C 160.606,261.447 165.106,259.114 170.5,258.5C 170.5,239.5 170.5,220.5 170.5,201.5C 132.947,190.768 110.781,166.101 104,127.5C 100.469,83.712 118.303,52.212 157.5,33C 164.81,30.2808 172.143,28.1141 179.5,26.5 Z M 181.5,43.5 C 219.577,40.8587 245.91,57.0253 260.5,92C 270.303,129.376 258.97,158.376 226.5,179C 187.891,195.557 156.057,187.057 131,153.5C 113.435,119.929 117.602,89.4289 143.5,62C 154.516,52.3247 167.183,46.158 181.5,43.5 Z M 189.5,86.5 C 197.174,86.3336 204.841,86.5003 212.5,87C 213,87.5 213.5,88 214,88.5C 214.667,93.8333 214.667,99.1667 214,104.5C 213.5,105 213,105.5 212.5,106C 204.841,106.5 197.174,106.666 189.5,106.5C 189.5,99.8333 189.5,93.1667 189.5,86.5 Z M 187.5,204.5 C 190.833,204.5 194.167,204.5 197.5,204.5C 197.5,222.167 197.5,239.833 197.5,257.5C 194.167,257.5 190.833,257.5 187.5,257.5C 187.5,239.833 187.5,222.167 187.5,204.5 Z M 171.5,275.5 C 186.833,275.5 202.167,275.5 217.5,275.5C 217.5,295.167 217.5,314.833 217.5,334.5C 187.165,334.667 156.832,334.5 126.5,334C 141.388,314.38 156.388,294.88 171.5,275.5 Z M 234.5,275.5 C 261.169,275.333 287.835,275.5 314.5,276C 329.742,295.153 344.742,314.486 359.5,334C 317.835,334.5 276.168,334.667 234.5,334.5C 234.5,314.833 234.5,295.167 234.5,275.5 Z M 54.5,351.5 C 191.834,351.333 329.167,351.5 466.5,352C 469.728,353.563 471.895,356.063 473,359.5C 473.967,381.564 473.634,403.564 472,425.5C 470.337,427.917 468.171,429.75 465.5,431C 451.837,431.5 438.171,431.667 424.5,431.5C 418.643,409.15 404.143,397.15 381,395.5C 358.527,397.313 344.027,408.98 337.5,430.5C 276.833,431.833 216.167,431.833 155.5,430.5C 145.703,402.766 126.37,391.933 97.5,398C 81.896,404.099 72.2293,415.266 68.5,431.5C 63.8215,431.666 59.1548,431.499 54.5,431C 50.9151,429.084 48.4151,426.251 47,422.5C 46.3333,401.833 46.3333,381.167 47,360.5C 48.1133,356.234 50.6133,353.234 54.5,351.5 Z M 109.5,412.5 C 126.894,413.893 136.894,423.227 139.5,440.5C 135.072,463.214 121.739,471.38 99.5,465C 83.3468,454.196 80.1802,440.362 90,423.5C 95.3409,417.584 101.841,413.918 109.5,412.5 Z M 378.5,412.5 C 399.631,414.126 409.464,425.459 408,446.5C 402.425,462.374 391.259,469.208 374.5,467C 358.159,461.006 351.659,449.506 355,432.5C 359.336,421.659 367.17,414.993 378.5,412.5 Z M 155.5,448.5 C 216.167,448.5 276.833,448.5 337.5,448.5C 338.661,455.321 341.327,461.487 345.5,467C 279.5,467.667 213.5,467.667 147.5,467C 151.672,461.488 154.339,455.321 155.5,448.5 Z"/></g>
<g><path style="opacity:0.938" fill="#000000" d="M 177.5,69.5 C 190.171,69.3334 202.838,69.5001 215.5,70C 222.934,72.4351 228.101,77.2684 231,84.5C 231.667,92.5 231.667,100.5 231,108.5C 228.833,116 224,120.833 216.5,123C 207.506,123.5 198.506,123.666 189.5,123.5C 189.957,135.268 189.457,146.935 188,158.5C 181.838,163.134 176.838,162.134 173,155.5C 172.333,128.833 172.333,102.167 173,75.5C 173.599,72.7458 175.099,70.7458 177.5,69.5 Z M 189.5,86.5 C 189.5,93.1667 189.5,99.8333 189.5,106.5C 197.174,106.666 204.841,106.5 212.5,106C 213,105.5 213.5,105 214,104.5C 214.667,99.1667 214.667,93.8333 214,88.5C 213.5,88 213,87.5 212.5,87C 204.841,86.5003 197.174,86.3336 189.5,86.5 Z"/></g>
<g><path style="opacity:0.889" fill="#000000" d="M 227.5,369.5 C 233.952,369.084 240.285,369.584 246.5,371C 251.682,381.776 248.182,386.942 236,386.5C 230.495,387.541 226.162,385.874 223,381.5C 221.474,376.239 222.974,372.239 227.5,369.5 Z"/></g>
<g><path style="opacity:0.891" fill="#000000" d="M 267.5,369.5 C 273.952,369.084 280.285,369.584 286.5,371C 291.133,377.166 290.133,382.166 283.5,386C 277.32,387.022 271.32,386.522 265.5,384.5C 261.078,378.71 261.745,373.71 267.5,369.5 Z"/></g>
<g><path style="opacity:0.9" fill="#000000" d="M 205.5,386.5 C 211.621,386.09 217.621,386.59 223.5,388C 226.428,391.257 227.262,395.091 226,399.5C 224.786,401.049 223.286,402.215 221.5,403C 215.388,403.909 209.388,403.576 203.5,402C 200.572,398.743 199.738,394.909 201,390.5C 202.397,388.93 203.897,387.596 205.5,386.5 Z"/></g>
<g><path style="opacity:0.9" fill="#000000" d="M 249.5,386.5 C 255.621,386.09 261.621,386.59 267.5,388C 270.318,391.338 271.151,395.171 270,399.5C 268.786,401.049 267.286,402.215 265.5,403C 259.388,403.909 253.388,403.576 247.5,402C 242.391,396.227 243.058,391.061 249.5,386.5 Z"/></g>
</svg>
