<?xml version="1.0" encoding="UTF-8"?>
<!DOCTYPE svg PUBLIC "-//W3C//DTD SVG 1.1//EN" "http://www.w3.org/Graphics/SVG/1.1/DTD/svg11.dtd">
<svg xmlns="http://www.w3.org/2000/svg" version="1.1" width="512px" height="512px" style="shape-rendering:geometricPrecision; text-rendering:geometricPrecision; image-rendering:optimizeQuality; fill-rule:evenodd; clip-rule:evenodd" xmlns:xlink="http://www.w3.org/1999/xlink">
<g><path style="opacity:0.935" fill="#000000" d="M 511.5,102.5 C 511.5,111.167 511.5,119.833 511.5,128.5C 509.848,134.756 508.015,141.089 506,147.5C 496.295,168.409 486.462,189.243 476.5,210C 505.791,254.476 507.958,300.31 483,347.5C 471.07,366.764 455.236,381.931 435.5,393C 413.833,393.667 392.167,393.667 370.5,393C 365.167,388 365.167,383 370.5,378C 390.167,377.667 409.833,377.333 429.5,377C 474.452,346.555 490.619,304.721 478,251.5C 460.249,203.611 425.749,177.945 374.5,174.5C 326.085,176.939 292.251,200.272 273,244.5C 267.862,249.492 262.862,249.158 258,243.5C 257.333,241.167 257.333,238.833 258,236.5C 261.934,226.796 266.767,217.629 272.5,209C 262.53,187.56 252.696,166.06 243,144.5C 231.717,106.699 240.55,74.5319 269.5,48C 283.8,36.5643 300.133,30.2309 318.5,29C 356.167,28.3333 393.833,28.3333 431.5,29C 465.653,32.4854 490.153,49.6521 505,80.5C 507.812,87.7703 509.979,95.1037 511.5,102.5 Z M 318.5,45.5 C 358.53,45.0415 398.53,45.5415 438.5,47C 469.195,54.3621 487.695,73.5287 494,104.5C 496.065,118.786 494.065,132.453 488,145.5C 480.378,162.374 472.378,179.04 464,195.5C 459.434,190.934 454.934,186.434 450.5,182C 458.471,164.559 466.304,147.059 474,129.5C 479.857,102.371 470.69,82.2048 446.5,69C 434.768,64.5261 422.768,63.5261 410.5,66C 406.272,71.2843 406.605,76.2843 411.5,81C 417.5,81.3333 423.5,81.6667 429.5,82C 452.994,87.8514 462.161,102.685 457,126.5C 449.94,142.287 442.607,157.954 435,173.5C 406.759,158.191 376.925,154.025 345.5,161C 334.73,163.92 324.397,167.587 314.5,172C 306.226,155.842 298.726,139.342 292,122.5C 289.205,102.913 297.038,89.746 315.5,83C 342.126,81.7114 368.793,81.0447 395.5,81C 402.492,74.6583 401.825,69.325 393.5,65C 368.833,64.3333 344.167,64.3333 319.5,65C 297.817,68.015 283.317,79.8483 276,100.5C 275.067,105.359 274.234,110.192 273.5,115C 274.234,119.808 275.067,124.641 276,129.5C 283.559,146.952 291.392,164.285 299.5,181.5C 294.841,185.99 290.008,190.323 285,194.5C 274.843,173.854 265.51,152.854 257,131.5C 251.257,95.8227 264.09,69.3227 295.5,52C 303.071,49.0278 310.738,46.8611 318.5,45.5 Z"/></g>
<g><path style="opacity:0.929" fill="#000000" d="M -0.5,315.5 C -0.5,305.833 -0.5,296.167 -0.5,286.5C 5.11919,246.419 23.7859,213.919 55.5,189C 75.6228,173.387 97.9561,169.054 122.5,176C 142.104,184.47 161.438,193.47 180.5,203C 198.777,215.547 209.11,232.88 211.5,255C 211.174,263.669 206.841,266.669 198.5,264C 197.667,263.167 196.833,262.333 196,261.5C 194.324,240.611 184.49,225.111 166.5,215C 154.402,210.342 142.402,210.675 130.5,216C 105.579,228.256 87.4119,247.089 76,272.5C 71.7341,282.964 68.0674,293.631 65,304.5C 57.554,309.015 52.3873,307.182 49.5,299C 58.836,251.358 85.5027,217.692 129.5,198C 112.98,188.163 95.9799,187.163 78.5,195C 43.4098,215.983 22.9098,246.816 17,287.5C 16.1743,298.872 16.5077,310.206 18,321.5C 22.9902,341.484 35.1568,354.65 54.5,361C 48.9316,348.422 46.7649,335.256 48,321.5C 51.0133,316.465 55.1799,315.298 60.5,318C 62.0488,319.214 63.2155,320.714 64,322.5C 63.2304,342.538 69.7304,359.704 83.5,374C 91.8805,379.849 101.214,383.016 111.5,383.5C 119.665,382.111 127.665,380.111 135.5,377.5C 143.47,378.53 145.97,382.863 143,390.5C 132.673,397.082 121.34,400.082 109,399.5C 103.767,399.549 98.6003,399.049 93.5,398C 72.596,389.215 51.9293,379.882 31.5,370C 12.7272,356.625 2.06053,338.458 -0.5,315.5 Z"/></g>
<g><path style="opacity:0.926" fill="#000000" d="M 368.5,224.5 C 404.753,224.359 426.253,242.026 433,277.5C 433.861,311.289 418.028,332.456 385.5,341C 380.833,341.667 376.167,341.667 371.5,341C 366.167,336 366.167,331 371.5,326C 398.037,323.961 413.037,309.794 416.5,283.5C 414.203,260.704 401.87,246.87 379.5,242C 358.117,241.046 343.117,250.379 334.5,270C 324.412,273.573 319.912,270.073 321,259.5C 330.701,239.41 346.534,227.743 368.5,224.5 Z"/></g>
<g><path style="opacity:0.932" fill="#000000" d="M 251.5,254.5 C 260.505,254.751 269.171,256.585 277.5,260C 297.598,268.882 317.264,278.549 336.5,289C 355.103,306.559 363.769,328.226 362.5,354C 360.95,404.119 339.617,443.119 298.5,471C 278.046,483.059 256.712,485.059 234.5,477C 216.046,468.606 197.712,459.94 179.5,451C 161.423,437.019 151.59,418.519 150,395.5C 148.191,377.137 150.358,359.304 156.5,342C 143.167,334.667 129.833,327.333 116.5,320C 110.85,315.364 108.184,309.364 108.5,302C 109.302,286.018 116.969,275.018 131.5,269C 134.5,268.333 137.5,268.333 140.5,269C 154.677,276.517 168.843,284.017 183,291.5C 188.79,286.712 194.29,281.546 199.5,276C 214.753,263.532 232.087,256.365 251.5,254.5 Z M 248.5,271.5 C 259.575,271.58 269.909,274.413 279.5,280C 247.443,293.723 224.277,316.556 210,348.5C 196.055,379.734 193.888,411.401 203.5,443.5C 181.845,435.33 169.678,419.663 167,396.5C 164.247,348.516 182.08,310.349 220.5,282C 229.297,276.794 238.63,273.294 248.5,271.5 Z M 134.5,285.5 C 147.434,291.968 160.101,298.968 172.5,306.5C 168.986,312.865 165.486,319.198 162,325.5C 149.836,318.752 137.836,311.752 126,304.5C 126.032,296.902 128.865,290.569 134.5,285.5 Z M 292.5,294.5 C 319.01,292.845 335.844,304.845 343,330.5C 350.43,376.54 336.93,415.374 302.5,447C 290.57,457.797 276.57,463.963 260.5,465.5C 239.49,463.324 225.323,452.324 218,432.5C 209.54,391.003 219.207,354.336 247,322.5C 259.361,308.412 274.528,299.079 292.5,294.5 Z"/></g>
</svg>
