<?xml version="1.0" encoding="UTF-8"?>
<!DOCTYPE svg PUBLIC "-//W3C//DTD SVG 1.1//EN" "http://www.w3.org/Graphics/SVG/1.1/DTD/svg11.dtd">
<svg xmlns="http://www.w3.org/2000/svg" version="1.1" width="512px" height="512px" style="shape-rendering:geometricPrecision; text-rendering:geometricPrecision; image-rendering:optimizeQuality; fill-rule:evenodd; clip-rule:evenodd" xmlns:xlink="http://www.w3.org/1999/xlink">
<g><path style="opacity:0.911" fill="#000000" d="M 511.5,241.5 C 511.5,245.833 511.5,250.167 511.5,254.5C 507.486,264.154 500.153,269.154 489.5,269.5C 475.094,346.834 433.427,404.334 364.5,442C 308.151,470.261 249.484,476.261 188.5,460C 126.567,441.044 79.0674,403.878 46,348.5C 32.2359,323.708 22.7359,297.375 17.5,269.5C 9.14289,267.677 3.14289,263.011 -0.5,255.5C -0.5,250.5 -0.5,245.5 -0.5,240.5C 4.72012,230.708 13.0535,225.708 24.5,225.5C 47.5226,197.645 70.3559,169.645 93,141.5C 94.319,109.585 94.9856,77.5855 95,45.5C 99.0454,41.5108 103.045,41.5108 107,45.5C 107.333,76.8333 107.667,108.167 108,139.5C 131.5,168.333 155,197.167 178.5,226C 199.457,227.612 206.957,238.445 201,258.5C 197.54,264.48 192.373,267.813 185.5,268.5C 195.447,309.718 219.28,340.052 257,359.5C 292.898,339.729 316.398,310.063 327.5,270.5C 309.041,264.916 303.541,253.25 311,235.5C 316.65,229.055 323.817,225.889 332.5,226C 355.667,197.5 378.833,169 402,140.5C 402.333,109.167 402.667,77.8333 403,46.5C 404.018,43.3171 406.185,41.9838 409.5,42.5C 412.815,41.9838 414.982,43.3171 416,46.5C 416.333,77.5 416.667,108.5 417,139.5C 440.5,168.333 464,197.167 487.5,226C 499.096,225.945 507.096,231.112 511.5,241.5 Z M 100.5,152.5 C 120.636,176.811 140.636,201.311 160.5,226C 120.833,226.667 81.1667,226.667 41.5,226C 61.4035,201.607 81.0702,177.107 100.5,152.5 Z M 408.5,153.5 C 410.371,153.859 411.871,154.859 413,156.5C 431.474,179.942 450.307,203.108 469.5,226C 429.833,226.667 390.167,226.667 350.5,226C 370.047,201.959 389.38,177.792 408.5,153.5 Z M 17.5,240.5 C 73.501,240.333 129.501,240.5 185.5,241C 192.167,245.667 192.167,250.333 185.5,255C 129.5,255.667 73.5,255.667 17.5,255C 10.8987,250.171 10.8987,245.338 17.5,240.5 Z M 325.5,240.5 C 381.501,240.333 437.501,240.5 493.5,241C 500.167,245.667 500.167,250.333 493.5,255C 437.5,255.667 381.5,255.667 325.5,255C 323.042,253.213 321.376,250.879 320.5,248C 321.589,245.084 323.256,242.584 325.5,240.5 Z M 447.5,344.5 C 415.986,396.81 370.653,431.31 311.5,448C 223.509,467.664 148.342,445.164 86,380.5C 57.7657,348.693 39.9323,311.693 32.5,269.5C 42.5,269.5 52.5,269.5 62.5,269.5C 84.782,337.956 128.782,387.123 194.5,417C 226.077,430.782 259.077,437.116 293.5,436C 298.658,432.203 298.658,428.203 293.5,424C 198.885,420.308 129.718,376.808 86,293.5C 82.686,285.708 79.5193,277.875 76.5,270C 84.5208,269.168 92.5208,269.335 100.5,270.5C 137.746,352.657 201.08,400.824 290.5,415C 301.804,416.388 313.137,416.721 324.5,416C 328.5,412 328.5,408 324.5,404C 237.855,401.782 171.688,364.282 126,291.5C 122.484,284.469 118.984,277.469 115.5,270.5C 134.155,269.5 152.821,269.167 171.5,269.5C 181.176,310.662 203.843,342.496 239.5,365C 298.39,398.232 357.723,398.898 417.5,367C 428.226,360.437 438.226,352.937 447.5,344.5 Z M 341.5,269.5 C 386.167,269.5 430.833,269.5 475.5,269.5C 467.106,303.447 448.439,330.28 419.5,350C 373.087,379.395 324.087,384.728 272.5,366C 309.111,343.627 332.111,311.46 341.5,269.5 Z"/></g>
</svg>
