<?xml version="1.0" encoding="UTF-8"?>
<!DOCTYPE svg PUBLIC "-//W3C//DTD SVG 1.1//EN" "http://www.w3.org/Graphics/SVG/1.1/DTD/svg11.dtd">
<svg xmlns="http://www.w3.org/2000/svg" version="1.1" width="512px" height="512px" style="shape-rendering:geometricPrecision; text-rendering:geometricPrecision; image-rendering:optimizeQuality; fill-rule:evenodd; clip-rule:evenodd" xmlns:xlink="http://www.w3.org/1999/xlink">
<g><path style="opacity:0.939" fill="#000000" d="M 250.5,-0.5 C 261.833,-0.5 273.167,-0.5 284.5,-0.5C 317.975,2.82116 346.475,16.4878 370,40.5C 375.907,47.6476 380.24,55.6476 383,64.5C 384.48,79.373 377.813,88.373 363,91.5C 351.098,94.7671 339.265,98.2671 327.5,102C 314.154,106.848 304.487,115.681 298.5,128.5C 312.475,139.114 320.809,153.114 323.5,170.5C 347.52,170.435 371.187,173.269 394.5,179C 408.009,182.52 419.509,189.354 429,199.5C 436.007,213.576 437.34,228.243 433,243.5C 424.069,274.539 407.236,300.373 382.5,321C 367.042,332.894 349.709,340.727 330.5,344.5C 332.671,388.185 332.838,431.852 331,475.5C 326.351,490.15 316.851,500.317 302.5,506C 295.491,508.334 288.491,510.167 281.5,511.5C 269.833,511.5 258.167,511.5 246.5,511.5C 234.355,509.838 223.022,505.671 212.5,499C 204.915,492.751 199.748,484.918 197,475.5C 195.376,447.207 195.042,418.874 196,390.5C 196.872,359.122 198.205,327.788 200,296.5C 189.039,307.564 175.872,314.231 160.5,316.5C 148.737,315.193 138.404,310.693 129.5,303C 106.854,282.229 92.0203,256.729 85,226.5C 78.9824,200.94 80.649,175.94 90,151.5C 93.6213,140.877 100.788,134.044 111.5,131C 118.186,130.172 124.186,131.838 129.5,136C 140.5,146.333 151.5,156.667 162.5,167C 174.597,176.567 188.097,179.734 203,176.5C 204.419,160.05 210.919,146.05 222.5,134.5C 211.477,115.121 202.644,94.7875 196,73.5C 191.096,57.6523 191.429,41.9856 197,26.5C 204.597,15.9357 214.763,8.76907 227.5,5C 235.194,2.69968 242.86,0.866349 250.5,-0.5 Z M 252.5,17.5 C 287.112,14.4834 318.445,22.9834 346.5,43C 354.743,49.6784 360.91,57.8451 365,67.5C 365.667,68.5 365.667,69.5 365,70.5C 362.03,72.4013 358.864,73.9013 355.5,75C 339.132,78.3402 323.465,83.6736 308.5,91C 296.867,97.7992 288.201,107.299 282.5,119.5C 279.19,120.349 275.856,120.182 272.5,119C 260.438,117.538 248.938,119.372 238,124.5C 225.27,103.311 216.27,80.6439 211,56.5C 208.236,45.466 211.069,36.2994 219.5,29C 229.893,23.0375 240.893,19.2042 252.5,17.5 Z M 258.5,136.5 C 282.395,135.85 297.895,146.85 305,169.5C 308.169,187.33 302.669,201.83 288.5,213C 270.146,223.803 252.479,222.803 235.5,210C 218.923,191.973 217.423,172.806 231,152.5C 238.37,143.904 247.537,138.571 258.5,136.5 Z M 114.5,148.5 C 116.612,149.44 118.612,150.606 120.5,152C 132.685,165.862 146.351,177.862 161.5,188C 175.419,195.572 190.086,197.739 205.5,194.5C 209.446,207.411 216.613,218.078 227,226.5C 216.805,248.318 202.972,267.818 185.5,285C 178.464,291.861 170.131,296.361 160.5,298.5C 150.778,295.806 142.445,290.806 135.5,283.5C 104.695,249.615 94.1951,210.282 104,165.5C 106.496,159.168 109.996,153.501 114.5,148.5 Z M 323.5,188.5 C 348.406,188.174 372.739,191.674 396.5,199C 409.618,202.605 416.618,211.105 417.5,224.5C 416.46,239.12 412.293,252.786 405,265.5C 390.209,291.294 369.375,310.46 342.5,323C 332.177,327.058 321.51,328.392 310.5,327C 309.296,325.647 308.629,323.981 308.5,322C 311.9,307.897 315.067,293.731 318,279.5C 321.404,258.897 316.571,240.563 303.5,224.5C 314.299,214.912 320.966,202.912 323.5,188.5 Z M 285.5,234.5 C 290.15,236.985 293.65,240.652 296,245.5C 300.249,255.761 301.583,266.427 300,277.5C 297.315,290.242 294.315,302.908 291,315.5C 287.42,330.181 292.586,340.014 306.5,345C 308.473,345.495 310.473,345.662 312.5,345.5C 313.823,373.82 314.323,402.154 314,430.5C 307.657,435.397 300.49,438.564 292.5,440C 268.806,444.356 245.472,443.023 222.5,436C 219.241,434.789 216.408,432.956 214,430.5C 213.167,376.986 215.834,323.652 222,270.5C 230.412,259.347 238.079,247.68 245,235.5C 251.07,237.889 257.403,238.889 264,238.5C 271.637,239.004 278.803,237.671 285.5,234.5 Z M 252.5,358.5 C 260.943,358.062 269.277,358.562 277.5,360C 278.701,360.903 279.535,362.069 280,363.5C 280.499,367.152 280.665,370.818 280.5,374.5C 269.5,374.5 258.5,374.5 247.5,374.5C 247.335,370.818 247.501,367.152 248,363.5C 249.025,361.313 250.525,359.646 252.5,358.5 Z M 247.5,392.5 C 258.5,392.5 269.5,392.5 280.5,392.5C 282.751,405.749 277.251,411.082 264,408.5C 250.749,411.082 245.249,405.749 247.5,392.5 Z M 213.5,452.5 C 247.178,463.166 280.845,463.166 314.5,452.5C 317.33,474.837 307.663,488.004 285.5,492C 271.167,494 256.833,494 242.5,492C 220.525,487.886 210.858,474.719 213.5,452.5 Z"/></g>
<g><path style="opacity:0.929" fill="#000000" d="M 254.5,33.5 C 281.236,31.2798 306.236,36.7798 329.5,50C 332.318,53.3379 333.151,57.1712 332,61.5C 329.459,66.0685 325.625,67.5685 320.5,66C 294.875,50.3095 267.875,47.3095 239.5,57C 228.428,58.5973 224.595,54.0973 228,43.5C 231.297,40.4333 235.131,38.2666 239.5,37C 244.596,35.6404 249.596,34.4737 254.5,33.5 Z"/></g>
<g><path style="opacity:0.927" fill="#000000" d="M 124.5,181.5 C 128.311,182.152 131.144,184.152 133,187.5C 132.958,212.373 140.291,234.706 155,254.5C 159.476,259.066 164.143,263.399 169,267.5C 170.657,279.584 165.824,283.418 154.5,279C 135.322,262.834 123.156,242.334 118,217.5C 115.43,206.836 115.096,196.17 117,185.5C 119.255,183.501 121.755,182.168 124.5,181.5 Z"/></g>
<g><path style="opacity:0.924" fill="#000000" d="M 388.5,215.5 C 396.088,214.258 400.421,217.425 401.5,225C 396.388,254.219 382.055,277.886 358.5,296C 353.666,299.252 348.666,302.252 343.5,305C 333.833,306.331 330,302.164 332,292.5C 347.18,282.991 360.18,270.991 371,256.5C 377.904,245.458 382.237,233.458 384,220.5C 385.025,218.313 386.525,216.646 388.5,215.5 Z"/></g>
<g><path style="opacity:0.947" fill="#000000" d="M 249.5,340.5 C 259.172,340.334 268.839,340.5 278.5,341C 287.404,342.904 293.571,348.071 297,356.5C 298.607,373.113 298.941,389.78 298,406.5C 295.5,417 289,423.5 278.5,426C 268.833,426.667 259.167,426.667 249.5,426C 239,423.5 232.5,417 230,406.5C 229.333,391.167 229.333,375.833 230,360.5C 232.682,349.986 239.182,343.319 249.5,340.5 Z M 252.5,358.5 C 250.525,359.646 249.025,361.313 248,363.5C 247.501,367.152 247.335,370.818 247.5,374.5C 258.5,374.5 269.5,374.5 280.5,374.5C 280.665,370.818 280.499,367.152 280,363.5C 279.535,362.069 278.701,360.903 277.5,360C 269.277,358.562 260.943,358.062 252.5,358.5 Z M 247.5,392.5 C 245.249,405.749 250.749,411.082 264,408.5C 277.251,411.082 282.751,405.749 280.5,392.5C 269.5,392.5 258.5,392.5 247.5,392.5 Z"/></g>
</svg>
