<?xml version="1.0" encoding="UTF-8"?>
<!DOCTYPE svg PUBLIC "-//W3C//DTD SVG 1.1//EN" "http://www.w3.org/Graphics/SVG/1.1/DTD/svg11.dtd">
<svg xmlns="http://www.w3.org/2000/svg" version="1.1" width="512px" height="512px" style="shape-rendering:geometricPrecision; text-rendering:geometricPrecision; image-rendering:optimizeQuality; fill-rule:evenodd; clip-rule:evenodd" xmlns:xlink="http://www.w3.org/1999/xlink">
<g><path style="opacity:0.938" fill="#000000" d="M 252.5,66.5 C 256.911,66.2028 260.911,67.3694 264.5,70C 288.083,84.041 311.583,98.2076 335,112.5C 335.333,98.1667 335.667,83.8333 336,69.5C 336.833,68.6667 337.667,67.8333 338.5,67C 357.833,66.3333 377.167,66.3333 396.5,67C 397.333,67.8333 398.167,68.6667 399,69.5C 399.333,95.8333 399.667,122.167 400,148.5C 420.166,160.248 440.166,172.248 460,184.5C 460.963,198.261 460.63,211.928 459,225.5C 457.933,226.191 456.766,226.691 455.5,227C 445.506,227.5 435.506,227.666 425.5,227.5C 425.994,299.249 425.494,370.916 424,442.5C 423.5,443 423,443.5 422.5,444C 311.167,444.667 199.833,444.667 88.5,444C 88,443.5 87.5,443 87,442.5C 85.5065,370.916 85.0065,299.249 85.5,227.5C 75.4944,227.666 65.4944,227.5 55.5,227C 54.2341,226.691 53.0674,226.191 52,225.5C 50.37,211.928 50.0367,198.261 51,184.5C 118.148,145.014 185.314,105.681 252.5,66.5 Z M 348.5,79.5 C 361.167,79.5 373.833,79.5 386.5,79.5C 386.333,105.169 386.5,130.835 387,156.5C 406.31,169.129 426.144,180.963 446.5,192C 447.48,199.079 447.813,206.245 447.5,213.5C 436.828,213.333 426.161,213.5 415.5,214C 413.951,215.214 412.785,216.714 412,218.5C 411.5,289.499 411.333,360.499 411.5,431.5C 307.5,431.5 203.5,431.5 99.5,431.5C 99.6667,360.499 99.5,289.499 99,218.5C 98.2155,216.714 97.0488,215.214 95.5,214C 84.8385,213.5 74.1719,213.333 63.5,213.5C 63.1868,206.245 63.5201,199.079 64.5,192C 128.167,155.167 191.833,118.333 255.5,81.5C 282.998,97.4147 310.332,113.581 337.5,130C 341.728,132.258 345.228,131.424 348,127.5C 348.5,111.503 348.667,95.5035 348.5,79.5 Z M 175.5,294.5 C 228.834,294.333 282.168,294.5 335.5,295C 339.667,296.5 342.5,299.333 344,303.5C 344.667,329.167 344.667,354.833 344,380.5C 342.402,385.099 339.235,387.932 334.5,389C 281.833,389.667 229.167,389.667 176.5,389C 171.765,387.932 168.598,385.099 167,380.5C 166.333,354.833 166.333,329.167 167,303.5C 168.688,299.315 171.521,296.315 175.5,294.5 Z"/></g>
<g><path style="opacity:0.918" fill="#000000" d="M 208.5,168.5 C 211.862,168.07 214.695,169.07 217,171.5C 217.667,175.833 217.667,180.167 217,184.5C 214.124,190.082 211.957,195.916 210.5,202C 212.234,208.305 214.401,214.471 217,220.5C 217.667,226.167 217.667,231.833 217,237.5C 213.36,245.09 210.527,252.923 208.5,261C 204.612,263.223 201.112,262.723 198,259.5C 197.333,255.167 197.333,250.833 198,246.5C 200.876,240.918 203.043,235.084 204.5,229C 202.766,222.695 200.599,216.529 198,210.5C 197.333,204.833 197.333,199.167 198,193.5C 201.742,186.609 204.075,179.276 205,171.5C 206.145,170.364 207.312,169.364 208.5,168.5 Z"/></g>
<g><path style="opacity:0.918" fill="#000000" d="M 256.5,168.5 C 259.862,168.07 262.695,169.07 265,171.5C 265.667,175.833 265.667,180.167 265,184.5C 262.124,190.082 259.957,195.916 258.5,202C 260.234,208.305 262.401,214.471 265,220.5C 265.667,226.167 265.667,231.833 265,237.5C 261.36,245.09 258.527,252.923 256.5,261C 252.612,263.223 249.112,262.723 246,259.5C 245.333,255.167 245.333,250.833 246,246.5C 248.876,240.918 251.043,235.084 252.5,229C 250.766,222.695 248.599,216.529 246,210.5C 245.333,204.833 245.333,199.167 246,193.5C 249.742,186.609 252.075,179.276 253,171.5C 254.145,170.364 255.312,169.364 256.5,168.5 Z"/></g>
<g><path style="opacity:0.918" fill="#000000" d="M 304.5,168.5 C 307.862,168.07 310.695,169.07 313,171.5C 313.667,175.833 313.667,180.167 313,184.5C 310.124,190.082 307.957,195.916 306.5,202C 308.234,208.305 310.401,214.471 313,220.5C 313.667,226.167 313.667,231.833 313,237.5C 309.36,245.09 306.527,252.923 304.5,261C 300.612,263.223 297.112,262.723 294,259.5C 293.333,255.167 293.333,250.833 294,246.5C 296.876,240.918 299.043,235.084 300.5,229C 298.766,222.695 296.599,216.529 294,210.5C 293.333,204.833 293.333,199.167 294,193.5C 297.742,186.609 300.075,179.276 301,171.5C 302.145,170.364 303.312,169.364 304.5,168.5 Z"/></g>
<g><path style="opacity:0.913" fill="#000000" d="M 174.5,280.5 C 228.501,280.333 282.501,280.5 336.5,281C 348.333,283.5 355.5,290.667 358,302.5C 358.667,328.833 358.667,355.167 358,381.5C 355.379,393.788 347.879,400.954 335.5,403C 282.167,403.667 228.833,403.667 175.5,403C 163.121,400.954 155.621,393.788 153,381.5C 152.333,354.833 152.333,328.167 153,301.5C 156.124,290.208 163.29,283.208 174.5,280.5 Z M 175.5,294.5 C 171.521,296.315 168.688,299.315 167,303.5C 166.333,329.167 166.333,354.833 167,380.5C 168.598,385.099 171.765,387.932 176.5,389C 229.167,389.667 281.833,389.667 334.5,389C 339.235,387.932 342.402,385.099 344,380.5C 344.667,354.833 344.667,329.167 344,303.5C 342.5,299.333 339.667,296.5 335.5,295C 282.168,294.5 228.834,294.333 175.5,294.5 Z"/></g>
<g><path style="opacity:0.899" fill="#000000" d="M 204.5,306.5 C 208.684,305.704 211.85,307.037 214,310.5C 214.667,331.5 214.667,352.5 214,373.5C 211.019,377.696 207.186,378.529 202.5,376C 201.874,375.25 201.374,374.416 201,373.5C 200.333,352.5 200.333,331.5 201,310.5C 201.69,308.65 202.856,307.316 204.5,306.5 Z"/></g>
<g><path style="opacity:0.899" fill="#000000" d="M 252.5,306.5 C 256.684,305.704 259.85,307.037 262,310.5C 262.667,331.5 262.667,352.5 262,373.5C 259.019,377.696 255.186,378.529 250.5,376C 249.874,375.25 249.374,374.416 249,373.5C 248.333,352.5 248.333,331.5 249,310.5C 249.69,308.65 250.856,307.316 252.5,306.5 Z"/></g>
<g><path style="opacity:0.899" fill="#000000" d="M 300.5,306.5 C 304.684,305.704 307.85,307.037 310,310.5C 310.667,331.5 310.667,352.5 310,373.5C 307.019,377.696 303.186,378.529 298.5,376C 297.874,375.25 297.374,374.416 297,373.5C 296.333,352.5 296.333,331.5 297,310.5C 297.69,308.65 298.856,307.316 300.5,306.5 Z"/></g>
</svg>
