<?xml version="1.0" encoding="UTF-8"?>
<!DOCTYPE svg PUBLIC "-//W3C//DTD SVG 1.1//EN" "http://www.w3.org/Graphics/SVG/1.1/DTD/svg11.dtd">
<svg xmlns="http://www.w3.org/2000/svg" version="1.1" width="512px" height="512px" style="shape-rendering:geometricPrecision; text-rendering:geometricPrecision; image-rendering:optimizeQuality; fill-rule:evenodd; clip-rule:evenodd" xmlns:xlink="http://www.w3.org/1999/xlink">
<g><path style="opacity:0.963" fill="#000000" d="M 187.5,15.5 C 190.978,15.1842 194.312,15.6842 197.5,17C 216.692,31.6924 236.025,46.1924 255.5,60.5C 274.975,46.1924 294.308,31.6924 313.5,17C 325.667,13.1667 329.833,17.3333 326,29.5C 310.898,40.302 296.065,51.4686 281.5,63C 347.167,63.3333 412.833,63.6667 478.5,64C 486.667,66.8333 492.167,72.3333 495,80.5C 495.667,170.5 495.667,260.5 495,350.5C 492.167,358.667 486.667,364.167 478.5,367C 460.17,367.5 441.836,367.667 423.5,367.5C 420.878,429.637 389.878,469.47 330.5,487C 305.925,493.522 280.925,496.355 255.5,495.5C 222.748,496.819 191.081,491.652 160.5,480C 124.18,464.208 101.347,437.041 92,398.5C 89.6308,388.286 88.1308,377.952 87.5,367.5C 69.1636,367.667 50.8303,367.5 32.5,367C 24.3333,364.167 18.8333,358.667 16,350.5C 14.8515,305.527 14.3515,260.527 14.5,215.5C 14.3515,170.473 14.8515,125.473 16,80.5C 18.8333,72.3333 24.3333,66.8333 32.5,64C 98.1667,63.6667 163.833,63.3333 229.5,63C 214.935,51.4686 200.102,40.302 185,29.5C 182.425,24.034 183.258,19.3673 187.5,15.5 Z M 39.5,79.5 C 184.876,79.0062 330.21,79.5062 475.5,81C 477.768,82.5577 478.934,84.7244 479,87.5C 479.667,172.833 479.667,258.167 479,343.5C 478.5,348 476,350.5 471.5,351C 455.503,351.5 439.503,351.667 423.5,351.5C 423.468,339.629 417.802,331.796 406.5,328C 396.172,327.5 385.839,327.334 375.5,327.5C 374.504,307.171 363.838,296.504 343.5,295.5C 337.559,295.093 332.059,296.426 327,299.5C 314.989,287.233 300.822,284.067 284.5,290C 279.525,292.074 275.358,295.241 272,299.5C 261,294.167 250,294.167 239,299.5C 226.989,287.233 212.822,284.067 196.5,290C 191.525,292.074 187.358,295.241 184,299.5C 164.472,290.901 149.139,295.568 138,313.5C 136.025,317.963 135.192,322.629 135.5,327.5C 124.09,327.067 112.756,327.567 101.5,329C 91.8716,333.425 87.2049,340.925 87.5,351.5C 71.4965,351.667 55.4965,351.5 39.5,351C 35,350.5 32.5,348 32,343.5C 31.3333,258.167 31.3333,172.833 32,87.5C 32.6804,82.9895 35.1804,80.3228 39.5,79.5 Z M 231.5,147.5 C 234.016,147.755 236.35,148.589 238.5,150C 257.547,165.382 276.881,180.382 296.5,195C 297.872,196.242 298.872,197.742 299.5,199.5C 297.554,202.981 294.887,205.815 291.5,208C 273.653,221.425 255.986,235.091 238.5,249C 233.212,253.015 229.712,251.849 228,245.5C 227.333,214.833 227.333,184.167 228,153.5C 228.564,151.113 229.73,149.113 231.5,147.5 Z M 205.5,304.5 C 213.422,303.049 220.255,305.049 226,310.5C 224.463,315.987 223.629,321.653 223.5,327.5C 215.5,327.5 207.5,327.5 199.5,327.5C 199.843,322.078 198.843,316.912 196.5,312C 197.101,310.395 198.101,309.062 199.5,308C 201.727,307.059 203.727,305.892 205.5,304.5 Z M 293.5,304.5 C 301.422,303.049 308.255,305.049 314,310.5C 312.463,315.987 311.629,321.653 311.5,327.5C 303.5,327.5 295.5,327.5 287.5,327.5C 287.843,322.078 286.843,316.912 284.5,312C 285.101,310.395 286.101,309.062 287.5,308C 289.727,307.059 291.727,305.892 293.5,304.5 Z M 162.5,312.5 C 174.406,310.766 181.072,315.766 182.5,327.5C 172.5,327.5 162.5,327.5 152.5,327.5C 152.669,320.34 156.003,315.34 162.5,312.5 Z M 250.5,312.5 C 262.406,310.766 269.072,315.766 270.5,327.5C 260.5,327.5 250.5,327.5 240.5,327.5C 240.669,320.34 244.003,315.34 250.5,312.5 Z M 338.5,312.5 C 350.406,310.766 357.072,315.766 358.5,327.5C 348.5,327.5 338.5,327.5 328.5,327.5C 328.669,320.34 332.003,315.34 338.5,312.5 Z M 111.5,343.5 C 207.501,343.333 303.501,343.5 399.5,344C 402.494,344.406 404.661,345.906 406,348.5C 408.781,380.381 401.115,409.381 383,435.5C 367.05,453.064 347.55,464.897 324.5,471C 278.5,482.333 232.5,482.333 186.5,471C 136.386,457.214 109.219,424.381 105,372.5C 104.333,364.5 104.333,356.5 105,348.5C 106.563,345.977 108.73,344.31 111.5,343.5 Z"/></g>
<g><path style="opacity:0.948" fill="#000000" d="M 227.5,131.5 C 232.93,131.161 238.264,131.661 243.5,133C 264.45,148.283 285.117,163.949 305.5,180C 315.41,187.697 318.244,197.531 314,209.5C 311.537,212.965 308.704,216.131 305.5,219C 286.319,233.425 267.319,248.091 248.5,263C 239.4,268.596 230.067,268.929 220.5,264C 216.509,261.011 213.676,257.178 212,252.5C 211.333,217.167 211.333,181.833 212,146.5C 215.106,139.225 220.272,134.225 227.5,131.5 Z M 231.5,147.5 C 229.73,149.113 228.564,151.113 228,153.5C 227.333,184.167 227.333,214.833 228,245.5C 229.712,251.849 233.212,253.015 238.5,249C 255.986,235.091 273.653,221.425 291.5,208C 294.887,205.815 297.554,202.981 299.5,199.5C 298.872,197.742 297.872,196.242 296.5,195C 276.881,180.382 257.547,165.382 238.5,150C 236.35,148.589 234.016,147.755 231.5,147.5 Z"/></g>
</svg>
