<?xml version="1.0" encoding="UTF-8"?>
<!DOCTYPE svg PUBLIC "-//W3C//DTD SVG 1.1//EN" "http://www.w3.org/Graphics/SVG/1.1/DTD/svg11.dtd">
<svg xmlns="http://www.w3.org/2000/svg" version="1.1" width="512px" height="512px" style="shape-rendering:geometricPrecision; text-rendering:geometricPrecision; image-rendering:optimizeQuality; fill-rule:evenodd; clip-rule:evenodd" xmlns:xlink="http://www.w3.org/1999/xlink">
<g><path style="opacity:0.92" fill="#000000" d="M 257.5,8.5 C 259.017,8.51056 260.184,9.17723 261,10.5C 263.5,14.3333 266,18.1667 268.5,22C 262.396,26.137 256.563,30.637 251,35.5C 247.667,41.8333 247.667,48.1667 251,54.5C 258.123,60.6169 264.123,67.6169 269,75.5C 273.919,89.3649 271.919,102.032 263,113.5C 257.096,118.202 250.929,122.536 244.5,126.5C 240.813,122.305 237.479,117.805 234.5,113C 240.604,108.863 246.437,104.363 252,99.5C 255.333,93.1667 255.333,86.8333 252,80.5C 244.877,74.3831 238.877,67.3831 234,59.5C 229.081,45.6351 231.081,32.9684 240,21.5C 245.812,17.0239 251.645,12.6906 257.5,8.5 Z"/></g>
<g><path style="opacity:0.92" fill="#000000" d="M 153.5,48.5 C 155.017,48.5106 156.184,49.1772 157,50.5C 159.5,54.3333 162,58.1667 164.5,62C 158.396,66.137 152.563,70.637 147,75.5C 143.667,81.8333 143.667,88.1667 147,94.5C 154.123,100.617 160.123,107.617 165,115.5C 169.919,129.365 167.919,142.032 159,153.5C 153.096,158.202 146.929,162.536 140.5,166.5C 136.813,162.305 133.479,157.805 130.5,153C 136.604,148.863 142.437,144.363 148,139.5C 151.333,133.167 151.333,126.833 148,120.5C 140.877,114.383 134.877,107.383 130,99.5C 125.081,85.6351 127.081,72.9684 136,61.5C 141.812,57.0239 147.645,52.6906 153.5,48.5 Z"/></g>
<g><path style="opacity:0.92" fill="#000000" d="M 369.5,48.5 C 371.017,48.5106 372.184,49.1772 373,50.5C 375.5,54.3333 378,58.1667 380.5,62C 374.396,66.137 368.563,70.637 363,75.5C 359.667,81.8333 359.667,88.1667 363,94.5C 370.123,100.617 376.123,107.617 381,115.5C 385.919,129.365 383.919,142.032 375,153.5C 369.096,158.202 362.929,162.536 356.5,166.5C 352.813,162.305 349.479,157.805 346.5,153C 352.604,148.863 358.437,144.363 364,139.5C 367.333,133.167 367.333,126.833 364,120.5C 356.877,114.383 350.877,107.383 346,99.5C 341.081,85.6351 343.081,72.9684 352,61.5C 357.812,57.0239 363.645,52.6906 369.5,48.5 Z"/></g>
<g><path style="opacity:0.971" fill="#000000" d="M 216.5,183.5 C 274.603,181.026 332.27,184.859 389.5,195C 419.742,200.08 448.408,209.747 475.5,224C 484.61,229.777 492.443,236.943 499,245.5C 500.725,248.674 502.058,252.007 503,255.5C 503.667,314.167 503.667,372.833 503,431.5C 501.018,438.976 497.185,445.309 491.5,450.5C 474.348,464.579 455.014,474.745 433.5,481C 375.291,497.193 315.958,504.693 255.5,503.5C 195.042,504.693 135.709,497.193 77.5,481C 56.4896,474.83 37.4896,464.996 20.5,451.5C 14.49,445.989 10.3233,439.322 8,431.5C 7.33333,372.833 7.33333,314.167 8,255.5C 11.0905,245.404 16.9238,237.237 25.5,231C 44.3619,217.907 65.0286,208.573 87.5,203C 129.986,192.151 172.986,185.651 216.5,183.5 Z M 251.5,199.5 C 308.748,198.99 365.081,205.824 420.5,220C 438.608,224.891 455.608,232.224 471.5,242C 491.5,256.333 491.5,270.667 471.5,285C 446.842,299 420.508,308.666 392.5,314C 308.385,329.753 224.051,331.087 139.5,318C 107.389,313.307 76.7226,303.974 47.5,290C 37.7202,285.22 30.2202,278.054 25,268.5C 23.5321,262.14 24.8654,256.474 29,251.5C 40.4864,240.166 53.9864,231.999 69.5,227C 107.459,214.008 146.459,206.008 186.5,203C 208.302,201.371 229.968,200.204 251.5,199.5 Z M 252.5,231.5 C 293.351,231.619 334.017,234.452 374.5,240C 397.722,242.842 420.055,248.842 441.5,258C 444.064,259.062 445.731,260.896 446.5,263.5C 443.934,267.545 440.267,270.378 435.5,272C 413.447,279.846 390.781,285.18 367.5,288C 290.483,297.651 213.483,297.317 136.5,287C 113.332,283.959 90.9991,277.959 69.5,269C 65.8184,267.68 64.3184,265.18 65,261.5C 68.0808,258.707 71.5808,256.54 75.5,255C 97.5576,247.152 120.224,241.819 143.5,239C 179.849,234.427 216.182,231.927 252.5,231.5 Z M 23.5,294.5 C 33.019,301.764 43.3523,307.764 54.5,312.5C 55.8333,359.5 55.8333,406.5 54.5,453.5C 43.4358,448.93 34.2691,441.93 27,432.5C 25.2503,429.754 24.2503,426.754 24,423.5C 23.5,380.501 23.3333,337.501 23.5,294.5 Z M 486.5,294.5 C 487.665,337.331 487.831,380.331 487,423.5C 485.345,430.967 481.512,437.134 475.5,442C 469.499,446.336 463.166,450.169 456.5,453.5C 455.167,406.5 455.167,359.5 456.5,312.5C 467.526,307.996 477.526,301.996 486.5,294.5 Z M 71.5,319.5 C 82.0885,322.48 92.7552,325.147 103.5,327.5C 103.833,375.171 103.5,422.838 102.5,470.5C 92.1555,467.663 81.9889,464.33 72,460.5C 71.5,413.501 71.3333,366.501 71.5,319.5 Z M 436.5,319.5 C 437.5,319.5 438.5,319.5 439.5,319.5C 439.667,366.501 439.5,413.501 439,460.5C 429.011,464.33 418.844,467.663 408.5,470.5C 407.5,422.838 407.167,375.171 407.5,327.5C 417.485,325.611 427.151,322.944 436.5,319.5 Z M 119.5,331.5 C 130.096,333.599 140.763,335.266 151.5,336.5C 151.5,384.167 151.5,431.833 151.5,479.5C 140.797,478.049 130.13,476.383 119.5,474.5C 119.5,426.833 119.5,379.167 119.5,331.5 Z M 388.5,331.5 C 389.5,331.5 390.5,331.5 391.5,331.5C 391.5,379.167 391.5,426.833 391.5,474.5C 380.869,476.383 370.202,478.05 359.5,479.5C 359.5,431.833 359.5,384.167 359.5,336.5C 369.42,335.57 379.087,333.903 388.5,331.5 Z M 167.5,338.5 C 178.052,340.217 188.718,341.217 199.5,341.5C 199.5,389.167 199.5,436.833 199.5,484.5C 188.876,484.321 178.376,483.321 168,481.5C 167.5,433.834 167.333,386.168 167.5,338.5 Z M 343.5,339.5 C 343.5,387.167 343.5,434.833 343.5,482.5C 332.842,483.299 322.175,483.966 311.5,484.5C 311.5,436.833 311.5,389.167 311.5,341.5C 322.184,341.098 332.851,340.432 343.5,339.5 Z M 215.5,342.5 C 226.085,343.476 236.752,343.809 247.5,343.5C 247.5,391.167 247.5,438.833 247.5,486.5C 236.833,486.5 226.167,486.5 215.5,486.5C 215.5,438.5 215.5,390.5 215.5,342.5 Z M 293.5,342.5 C 295.495,390.155 296.162,438.155 295.5,486.5C 284.833,486.5 274.167,486.5 263.5,486.5C 263.5,438.833 263.5,391.167 263.5,343.5C 273.681,343.827 283.681,343.494 293.5,342.5 Z"/></g>
<g><path style="opacity:0.939" fill="#000000" d="M 214.5,215.5 C 266.002,213.92 317.335,216.087 368.5,222C 391.358,224.705 413.691,229.705 435.5,237C 447.283,240.466 456.45,247.299 463,257.5C 464.091,263.097 463.424,268.43 461,273.5C 457.799,277.036 454.299,280.203 450.5,283C 430.901,292.734 410.234,299.068 388.5,302C 330.804,310.633 272.804,313.633 214.5,311C 176.811,309.664 139.478,305.331 102.5,298C 86.5664,294.69 71.5664,289.024 57.5,281C 44.1667,269.333 44.1667,257.667 57.5,246C 77.8049,235.01 99.4716,228.01 122.5,225C 153.162,220.301 183.829,217.134 214.5,215.5 Z M 252.5,231.5 C 216.182,231.927 179.849,234.427 143.5,239C 120.224,241.819 97.5576,247.152 75.5,255C 71.5808,256.54 68.0808,258.707 65,261.5C 64.3184,265.18 65.8184,267.68 69.5,269C 90.9991,277.959 113.332,283.959 136.5,287C 213.483,297.317 290.483,297.651 367.5,288C 390.781,285.18 413.447,279.846 435.5,272C 440.267,270.378 443.934,267.545 446.5,263.5C 445.731,260.896 444.064,259.062 441.5,258C 420.055,248.842 397.722,242.842 374.5,240C 334.017,234.452 293.351,231.619 252.5,231.5 Z"/></g>
</svg>
