<?xml version="1.0" encoding="UTF-8"?>
<!DOCTYPE svg PUBLIC "-//W3C//DTD SVG 1.1//EN" "http://www.w3.org/Graphics/SVG/1.1/DTD/svg11.dtd">
<svg xmlns="http://www.w3.org/2000/svg" version="1.1" width="512px" height="512px" style="shape-rendering:geometricPrecision; text-rendering:geometricPrecision; image-rendering:optimizeQuality; fill-rule:evenodd; clip-rule:evenodd" xmlns:xlink="http://www.w3.org/1999/xlink">
<g><path style="opacity:0.966" fill="#000000" d="M 138.5,-0.5 C 146.167,-0.5 153.833,-0.5 161.5,-0.5C 190.59,8.41026 211.09,27.0769 223,55.5C 238.891,96.5783 239.558,137.912 225,179.5C 219.423,194.334 211.09,207.334 200,218.5C 202.457,296.517 205.624,374.517 209.5,452.5C 207.261,484.057 190.928,503.724 160.5,511.5C 153.167,511.5 145.833,511.5 138.5,511.5C 107.902,503.055 91.9023,482.888 90.5,451C 94.1014,373.836 97.2681,296.669 100,219.5C 82.3705,200.573 71.3705,178.24 67,152.5C 59.2049,111.268 65.8716,72.6016 87,36.5C 99.5677,17.6445 116.734,5.31115 138.5,-0.5 Z M 142.5,30.5 C 158.795,28.8977 171.962,34.5644 182,47.5C 202.624,77.8847 209.291,111.218 202,147.5C 198.12,168.431 188.62,186.265 173.5,201C 154.861,214.216 137.361,212.716 121,196.5C 108.197,181.126 100.197,163.459 97,143.5C 91.015,109.088 97.6817,77.4211 117,48.5C 124.06,40.2441 132.56,34.2441 142.5,30.5 Z M 130.5,238.5 C 143.502,241.167 156.502,241.167 169.5,238.5C 170.696,278.861 172.362,319.194 174.5,359.5C 158.167,359.5 141.833,359.5 125.5,359.5C 127.427,319.179 129.094,278.845 130.5,238.5 Z M 124.5,390.5 C 141.5,390.5 158.5,390.5 175.5,390.5C 176.264,411.013 177.264,431.513 178.5,452C 176.78,469.386 167.28,479.219 150,481.5C 131.77,478.935 122.27,468.435 121.5,450C 122.457,430.157 123.457,410.324 124.5,390.5 Z"/></g>
<g><path style="opacity:0.967" fill="#000000" d="M 285.5,-0.5 C 289.167,-0.5 292.833,-0.5 296.5,-0.5C 301.64,1.81949 304.806,5.81949 306,11.5C 306.5,47.1651 306.667,82.8318 306.5,118.5C 319.5,118.5 332.5,118.5 345.5,118.5C 345.333,82.4985 345.5,46.4985 346,10.5C 347.599,5.40601 350.766,1.73934 355.5,-0.5C 359.167,-0.5 362.833,-0.5 366.5,-0.5C 371.234,1.73934 374.401,5.40601 376,10.5C 376.5,46.4985 376.667,82.4985 376.5,118.5C 389.833,118.5 403.167,118.5 416.5,118.5C 416.333,82.1651 416.5,45.8318 417,9.5C 419.022,4.98004 422.189,1.6467 426.5,-0.5C 429.833,-0.5 433.167,-0.5 436.5,-0.5C 442.622,2.02887 446.122,6.69554 447,13.5C 447.94,65.8501 447.606,118.183 446,170.5C 441.808,193.559 430.475,212.225 412,226.5C 411.833,230.333 411.667,234.167 411.5,238C 414.875,312.159 417.708,386.326 420,460.5C 414.613,487.383 398.779,504.383 372.5,511.5C 365.167,511.5 357.833,511.5 350.5,511.5C 322.291,504.452 306.124,486.452 302,457.5C 304.775,383.169 307.942,308.836 311.5,234.5C 311.333,231.833 311.167,229.167 311,226.5C 291.191,212.238 279.524,192.904 276,168.5C 275.333,115.5 275.333,62.5 276,9.5C 278.022,4.98004 281.189,1.6467 285.5,-0.5 Z M 306.5,149.5 C 343.167,149.5 379.833,149.5 416.5,149.5C 416.151,186.584 397.651,207.251 361,211.5C 334.066,209.861 316.399,196.194 308,170.5C 306.712,163.563 306.212,156.563 306.5,149.5 Z M 341.5,240.5 C 354.5,243.167 367.5,243.167 380.5,240.5C 382.353,280.154 384.019,319.82 385.5,359.5C 369.167,359.5 352.833,359.5 336.5,359.5C 338.512,319.86 340.179,280.193 341.5,240.5 Z M 335.5,390.5 C 352.5,390.5 369.5,390.5 386.5,390.5C 387.597,410.319 388.597,430.152 389.5,450C 388.73,468.435 379.23,478.935 361,481.5C 343.72,479.219 334.22,469.386 332.5,452C 333.746,431.514 334.746,411.014 335.5,390.5 Z"/></g>
</svg>
