<?xml version="1.0" encoding="UTF-8"?>
<!DOCTYPE svg PUBLIC "-//W3C//DTD SVG 1.1//EN" "http://www.w3.org/Graphics/SVG/1.1/DTD/svg11.dtd">
<svg xmlns="http://www.w3.org/2000/svg" version="1.1" width="512px" height="512px" style="shape-rendering:geometricPrecision; text-rendering:geometricPrecision; image-rendering:optimizeQuality; fill-rule:evenodd; clip-rule:evenodd" xmlns:xlink="http://www.w3.org/1999/xlink">
<g><path style="opacity:0.945" fill="#000000" d="M 291.5,-0.5 C 317.167,-0.5 342.833,-0.5 368.5,-0.5C 424.319,13.6588 456.319,49.3254 464.5,106.5C 463.742,110.425 461.908,113.758 459,116.5C 458.505,118.473 458.338,120.473 458.5,122.5C 473.911,127.413 483.744,137.747 488,153.5C 492.58,171.022 489.913,187.356 480,202.5C 473.162,211.835 463.995,216.835 452.5,217.5C 444.605,242.451 429.605,261.951 407.5,276C 420.829,288.823 429.329,304.323 433,322.5C 434.593,346.134 434.927,369.801 434,393.5C 431.774,397.861 428.274,399.361 423.5,398C 421.333,397.167 419.833,395.667 419,393.5C 418.667,372.5 418.333,351.5 418,330.5C 415.583,311.317 406.75,295.984 391.5,284.5C 381.215,288.738 370.548,291.405 359.5,292.5C 352.579,311.965 338.913,319.465 318.5,315C 307.056,311.06 300.056,303.226 297.5,291.5C 290.439,290.693 283.606,289.026 277,286.5C 262.671,298.032 254.504,313.032 252.5,331.5C 259.304,330.822 264.804,333.155 269,338.5C 272.242,346.647 275.742,354.647 279.5,362.5C 287.075,363.973 294.741,364.806 302.5,365C 306.976,368.661 307.643,372.994 304.5,378C 298.34,380.615 292.006,381.115 285.5,379.5C 284.417,387.752 281.75,395.418 277.5,402.5C 329.463,407.77 368.297,387.77 394,342.5C 396.958,332.75 393.458,326.75 383.5,324.5C 379.857,324.768 376.69,326.101 374,328.5C 365.998,346.169 353.498,359.669 336.5,369C 326.991,370.495 323.491,366.661 326,357.5C 333.214,352.888 339.881,347.554 346,341.5C 352.451,333.434 358.284,324.934 363.5,316C 375.359,306.915 387.692,306.248 400.5,314C 412.883,325.964 414.716,339.464 406,354.5C 383.271,393.177 349.438,415.01 304.5,420C 311.697,420.677 318.364,422.844 324.5,426.5C 337.28,418.345 349.946,418.512 362.5,427C 365.783,430.397 368.449,434.23 370.5,438.5C 386.486,439.499 402.486,439.833 418.5,439.5C 418.084,433.048 418.584,426.715 420,420.5C 425.441,416.074 430.108,416.741 434,422.5C 434.333,428.167 434.667,433.833 435,439.5C 455.573,445.412 465.24,459.079 464,480.5C 461.027,496.139 451.861,505.972 436.5,510C 402.833,510.667 369.167,510.667 335.5,510C 331.554,508.694 327.888,506.861 324.5,504.5C 321.112,506.861 317.446,508.694 313.5,510C 218.833,510.667 124.167,510.667 29.5,510C 26.3333,508.167 23.8333,505.667 22,502.5C 21.3333,463.167 21.3333,423.833 22,384.5C 23.8333,381.333 26.3333,378.833 29.5,377C 46.8301,376.5 64.1635,376.333 81.5,376.5C 81.3333,340.498 81.5,304.498 82,268.5C 83.2983,263.726 86.1316,260.226 90.5,258C 95.8642,257.829 101.198,257.329 106.5,256.5C 108.09,245.746 114.09,238.913 124.5,236C 142.553,235.054 160.553,235.388 178.5,237C 187.497,240.814 192.163,247.647 192.5,257.5C 197.844,257.334 203.177,257.501 208.5,258C 212.667,259.5 215.5,262.333 217,266.5C 217.5,275.827 217.666,285.161 217.5,294.5C 229.606,295.445 241.272,293.612 252.5,289C 254.847,285.989 257.181,282.989 259.5,280C 230.125,261.595 213.292,235.095 209,200.5C 208.833,176.826 208.333,153.16 207.5,129.5C 203.23,127.449 199.397,124.783 196,121.5C 195.68,68.1712 219.513,30.0045 267.5,7C 275.527,4.15525 283.527,1.65525 291.5,-0.5 Z M 312.5,13.5 C 324.171,13.3335 335.838,13.5001 347.5,14C 390.407,16.6095 421.241,37.1095 440,75.5C 443.718,83.9881 446.218,92.8215 447.5,102C 447.39,104.255 446.39,105.922 444.5,107C 439.033,109.6 433.366,111.6 427.5,113C 423.074,118.441 423.741,123.108 429.5,127C 433.636,127.671 437.636,127.171 441.5,125.5C 441.55,134.712 446.216,138.879 455.5,138C 468.054,144.587 474.387,155.087 474.5,169.5C 474.277,182.451 468.943,192.617 458.5,200C 452.735,200.839 447.069,202.006 441.5,203.5C 436.264,219.308 428.431,233.642 418,246.5C 400.966,264.266 380.133,274.433 355.5,277C 335.095,278.095 314.762,277.428 294.5,275C 254.215,265.049 231.048,239.549 225,198.5C 224.5,176.169 224.333,153.836 224.5,131.5C 233.774,130.28 241.607,126.28 248,119.5C 257.401,135.899 270.901,140.399 288.5,133C 293.974,129.523 298.807,125.356 303,120.5C 310.057,131.867 320.39,137.533 334,137.5C 349.157,136.088 361.49,129.421 371,117.5C 374.005,113.003 377.172,108.669 380.5,104.5C 384.728,109.897 389.728,114.397 395.5,118C 404.377,118.098 407.211,113.931 404,105.5C 396.461,98.6313 390.461,90.6313 386,81.5C 381.335,78.5442 377.002,78.8775 373,82.5C 368.178,94.6455 361.012,105.146 351.5,114C 340.958,123.229 330.124,123.729 319,115.5C 317.664,112.991 316.83,110.324 316.5,107.5C 317.983,102.916 318.483,98.2491 318,93.5C 314.108,87.7409 309.441,87.0742 304,91.5C 298.641,100.531 292.141,108.698 284.5,116C 272.516,124.003 265.182,121.003 262.5,107C 263.551,100.18 265.218,93.5133 267.5,87C 266.888,82.2195 264.222,79.7195 259.5,79.5C 257.074,79.4035 254.907,80.0702 253,81.5C 247.924,93.1569 240.757,103.324 231.5,112C 225.413,115.942 219.08,116.442 212.5,113.5C 214.162,71.6933 233.829,41.5266 271.5,23C 284.758,17.4329 298.425,14.2662 312.5,13.5 Z M 291.5,220.5 C 308.833,220.5 326.167,220.5 343.5,220.5C 341.557,235.776 332.89,243.776 317.5,244.5C 302.103,243.769 293.436,235.769 291.5,220.5 Z M 127.5,251.5 C 142.504,251.333 157.504,251.5 172.5,252C 174.635,252.759 175.968,254.259 176.5,256.5C 158.509,257.666 140.509,257.833 122.5,257C 123.692,254.645 125.359,252.812 127.5,251.5 Z M 97.5,272.5 C 132.167,272.5 166.833,272.5 201.5,272.5C 201.5,307.167 201.5,341.833 201.5,376.5C 166.833,376.5 132.167,376.5 97.5,376.5C 97.5,341.833 97.5,307.167 97.5,272.5 Z M 315.5,294.5 C 323.99,293.343 332.657,293.176 341.5,294C 333.053,302.443 324.386,302.61 315.5,294.5 Z M 149.5,309.5 C 151.35,312.687 153.35,315.853 155.5,319C 159.21,319.895 162.877,320.895 166.5,322C 163.96,324.205 161.793,326.705 160,329.5C 159.859,333.589 159.692,337.589 159.5,341.5C 156.372,339.601 153.038,338.267 149.5,337.5C 145.745,338.729 142.078,339.895 138.5,341C 140.281,336.85 140.447,332.684 139,328.5C 136.833,326.333 134.667,324.167 132.5,322C 141.447,322.201 147.114,318.034 149.5,309.5 Z M 235.5,309.5 C 237.527,309.338 239.527,309.505 241.5,310C 238.166,318.501 236.166,327.334 235.5,336.5C 229.561,337.457 223.561,337.79 217.5,337.5C 217.5,328.5 217.5,319.5 217.5,310.5C 223.69,310.823 229.69,310.49 235.5,309.5 Z M 254.5,347.5 C 259.27,357.62 263.77,367.953 268,378.5C 268.513,389.315 263.68,396.482 253.5,400C 242.759,400.293 232.092,399.46 221.5,397.5C 222,397.167 222.5,396.833 223,396.5C 229.782,397.828 236.615,398.328 243.5,398C 247.725,395.337 249.225,391.504 248,386.5C 247.215,384.714 246.049,383.214 244.5,382C 236.167,380.833 227.833,379.667 219.5,378.5C 220.167,378.167 220.833,377.833 221.5,377.5C 227.465,378.43 233.465,379.097 239.5,379.5C 246.211,380.488 249.877,377.655 250.5,371C 250.27,368.3 249.27,365.967 247.5,364C 240.186,362.536 232.853,361.202 225.5,360C 233.487,360.465 241.487,360.798 249.5,361C 251.667,360.167 253.167,358.667 254,356.5C 254.115,353.366 254.282,350.366 254.5,347.5 Z M 36.5,391.5 C 71.5,391.5 106.5,391.5 141.5,391.5C 141.5,426.167 141.5,460.833 141.5,495.5C 106.5,495.5 71.5,495.5 36.5,495.5C 36.5,460.833 36.5,426.167 36.5,391.5 Z M 157.5,391.5 C 173.833,391.5 190.167,391.5 206.5,391.5C 204.825,397.113 205.492,402.446 208.5,407.5C 198.145,406.266 189.645,409.599 183,417.5C 179.667,423.5 176.333,429.5 173,435.5C 170.447,443.299 171.447,450.633 176,457.5C 178.732,461.241 181.066,465.241 183,469.5C 190.019,477.562 198.852,480.562 209.5,478.5C 218.95,480.229 227.117,477.896 234,471.5C 238.523,464.455 242.523,457.122 246,449.5C 246.826,444.411 246.492,439.411 245,434.5C 241.7,428.37 238.2,422.37 234.5,416.5C 241.437,416.39 248.437,416.223 255.5,416C 257.218,415.654 258.885,415.154 260.5,414.5C 261.5,441.492 261.833,468.492 261.5,495.5C 226.833,495.5 192.167,495.5 157.5,495.5C 157.5,460.833 157.5,426.167 157.5,391.5 Z M 277.5,419.5 C 285.142,420.192 292.808,420.692 300.5,421C 289.765,423.278 282.265,429.444 278,439.5C 277.5,432.842 277.334,426.175 277.5,419.5 Z M 68.5,424.5 C 70.8568,424.337 73.1902,424.503 75.5,425C 78.7974,427.295 81.7974,429.962 84.5,433C 86.1012,433.273 87.6012,433.773 89,434.5C 90.3988,433.773 91.8988,433.273 93.5,433C 96.2026,429.962 99.2026,427.295 102.5,425C 111.218,423.389 115.051,426.889 114,435.5C 106.333,444.5 98,452.833 89,460.5C 80.8082,453.064 72.8082,445.397 65,437.5C 62.3476,432.039 63.5142,427.706 68.5,424.5 Z M 198.5,424.5 C 205.508,424.334 212.508,424.5 219.5,425C 223.61,430.04 227.11,435.54 230,441.5C 230.667,442.833 230.667,444.167 230,445.5C 227.085,450.998 223.919,456.332 220.5,461.5C 213.217,462.632 205.883,462.799 198.5,462C 194.199,456.202 190.532,450.035 187.5,443.5C 190.757,436.914 194.424,430.581 198.5,424.5 Z M 302.5,436.5 C 307.743,436.022 312.076,437.689 315.5,441.5C 314.172,457.696 314.172,473.863 315.5,490C 312.979,493.261 309.645,494.927 305.5,495C 296.173,495.5 286.839,495.666 277.5,495.5C 277.5,482.167 277.5,468.833 277.5,455.5C 281.605,455.766 285.605,455.266 289.5,454C 291.546,449.474 293.713,444.974 296,440.5C 298.095,438.875 300.261,437.542 302.5,436.5 Z M 340.5,436.5 C 344.966,436.156 348.966,437.323 352.5,440C 355.436,443.665 357.27,447.832 358,452.5C 359.419,453.46 360.919,454.293 362.5,455C 387.229,455.028 411.896,455.695 436.5,457C 450.758,466.809 452.092,478.142 440.5,491C 436.877,493.479 432.877,494.812 428.5,495C 398.46,495.96 368.46,495.627 338.5,494C 335.333,492.167 332.833,489.667 331,486.5C 330.333,472.833 330.333,459.167 331,445.5C 332.871,441.006 336.038,438.006 340.5,436.5 Z"/></g>
<g><path style="opacity:0.905" fill="#000000" d="M 452.5,152.5 C 456.603,151.769 460.103,152.769 463,155.5C 468.186,166.592 467.519,177.258 461,187.5C 458.023,190.821 454.356,192.821 450,193.5C 444.79,193.448 441.957,190.781 441.5,185.5C 442.098,184.205 442.598,182.872 443,181.5C 450.801,175.936 452.634,168.769 448.5,160C 448.777,156.902 450.11,154.402 452.5,152.5 Z"/></g>
<g><path style="opacity:0.894" fill="#000000" d="M 257.5,154.5 C 262.809,153.565 266.309,155.565 268,160.5C 268.667,166.167 268.667,171.833 268,177.5C 265.565,182.224 261.731,183.724 256.5,182C 255,181.167 253.833,180 253,178.5C 252.333,172.167 252.333,165.833 253,159.5C 254.025,157.313 255.525,155.646 257.5,154.5 Z"/></g>
<g><path style="opacity:0.898" fill="#000000" d="M 368.5,154.5 C 373.46,154.06 376.96,156.06 379,160.5C 379.667,165.833 379.667,171.167 379,176.5C 377.171,182.158 373.337,183.992 367.5,182C 365.667,181.5 364.5,180.333 364,178.5C 363.333,171.833 363.333,165.167 364,158.5C 365.397,156.93 366.897,155.596 368.5,154.5 Z"/></g>
<g><path style="opacity:0.902" fill="#000000" d="M 307.5,163.5 C 317.278,162.983 320.945,167.65 318.5,177.5C 326.662,177.498 329.828,181.498 328,189.5C 326.833,190.667 325.667,191.833 324.5,193C 306.371,195.53 299.204,187.697 303,169.5C 303.599,166.746 305.099,164.746 307.5,163.5 Z"/></g>
<g><path style="opacity:0.931" fill="#000000" d="M 285.5,204.5 C 306.836,204.333 328.169,204.5 349.5,205C 358.852,209.687 362.018,217.187 359,227.5C 353.243,248.631 339.41,259.631 317.5,260.5C 288.628,258.127 274.794,242.46 276,213.5C 278.256,209.47 281.422,206.47 285.5,204.5 Z M 291.5,220.5 C 293.436,235.769 302.103,243.769 317.5,244.5C 332.89,243.776 341.557,235.776 343.5,220.5C 326.167,220.5 308.833,220.5 291.5,220.5 Z"/></g>
<g><path style="opacity:0.928" fill="#000000" d="M 145.5,287.5 C 151.386,286.343 156.219,288.01 160,292.5C 162.039,296.745 164.206,300.912 166.5,305C 171.896,305.723 177.229,306.723 182.5,308C 185,309.167 186.833,311 188,313.5C 188.667,316.833 188.667,320.167 188,323.5C 183.921,328.068 180.087,332.735 176.5,337.5C 180.493,362.272 171.659,367.938 150,354.5C 143.595,359.467 136.428,361.634 128.5,361C 125,360.167 122.833,358 122,354.5C 121.237,348.562 121.737,342.728 123.5,337C 120.048,332.545 116.214,328.378 112,324.5C 109.225,317.827 110.725,312.327 116.5,308C 122.181,306.915 127.848,305.748 133.5,304.5C 135.746,299.674 138.246,295.008 141,290.5C 142.652,289.601 144.152,288.601 145.5,287.5 Z M 149.5,309.5 C 147.114,318.034 141.447,322.201 132.5,322C 134.667,324.167 136.833,326.333 139,328.5C 140.447,332.684 140.281,336.85 138.5,341C 142.078,339.895 145.745,338.729 149.5,337.5C 153.038,338.267 156.372,339.601 159.5,341.5C 159.692,337.589 159.859,333.589 160,329.5C 161.793,326.705 163.96,324.205 166.5,322C 162.877,320.895 159.21,319.895 155.5,319C 153.35,315.853 151.35,312.687 149.5,309.5 Z"/></g>
<g><path style="opacity:0.926" fill="#000000" d="M 64.5,408.5 C 73.6621,406.968 81.8288,408.968 89,414.5C 98.9415,407.481 109.441,406.648 120.5,412C 130.804,420.957 133.304,431.79 128,444.5C 117.466,456.701 105.966,467.868 93.5,478C 89.7054,478.837 86.0387,478.504 82.5,477C 72.3629,467.864 62.5295,458.364 53,448.5C 42.6011,430.878 46.4344,417.545 64.5,408.5 Z M 68.5,424.5 C 63.5142,427.706 62.3476,432.039 65,437.5C 72.8082,445.397 80.8082,453.064 89,460.5C 98,452.833 106.333,444.5 114,435.5C 115.051,426.889 111.218,423.389 102.5,425C 99.2026,427.295 96.2026,429.962 93.5,433C 91.8988,433.273 90.3988,433.773 89,434.5C 87.6012,433.773 86.1012,433.273 84.5,433C 81.7974,429.962 78.7974,427.295 75.5,425C 73.1902,424.503 70.8568,424.337 68.5,424.5 Z"/></g>
</svg>
