<?xml version="1.0" encoding="UTF-8"?>
<!DOCTYPE svg PUBLIC "-//W3C//DTD SVG 1.1//EN" "http://www.w3.org/Graphics/SVG/1.1/DTD/svg11.dtd">
<svg xmlns="http://www.w3.org/2000/svg" version="1.1" width="512px" height="512px" style="shape-rendering:geometricPrecision; text-rendering:geometricPrecision; image-rendering:optimizeQuality; fill-rule:evenodd; clip-rule:evenodd" xmlns:xlink="http://www.w3.org/1999/xlink">
<g><path style="opacity:0.971" fill="#000000" d="M 177.5,7.5 C 186.839,7.33355 196.173,7.50021 205.5,8C 210,9.83333 213.167,13 215,17.5C 215.667,48.1667 215.667,78.8333 215,109.5C 212.186,116.49 207.019,119.823 199.5,119.5C 199.5,124.833 199.5,130.167 199.5,135.5C 209.58,135.077 219.58,135.577 229.5,137C 255.001,152.585 280.668,167.918 306.5,183C 336.833,183.667 367.167,183.667 397.5,183C 416.5,173.5 435.5,164 454.5,154.5C 449.978,123.531 462.978,112.031 493.5,120C 498,121.833 501.167,125 503,129.5C 503.667,186.833 503.667,244.167 503,301.5C 501.167,306 498,309.167 493.5,311C 462.978,318.969 449.978,307.469 454.5,276.5C 435.5,267 416.5,257.5 397.5,248C 367.5,247.333 337.5,247.333 307.5,248C 282.333,273.167 257.167,298.333 232,323.5C 231.667,338.167 231.333,352.833 231,367.5C 227.833,380 220,387.833 207.5,391C 191.593,391.175 175.759,391.675 160,392.5C 157.296,415.17 154.962,437.837 153,460.5C 158.8,465.294 163.467,470.96 167,477.5C 170.054,489.725 165.887,498.225 154.5,503C 120.5,503.667 86.5,503.667 52.5,503C 41.1131,498.225 36.9465,489.725 40,477.5C 43.8696,470.624 48.8696,464.624 55,459.5C 60.6628,413.536 65.6628,367.536 70,321.5C 50.921,301.092 32.5877,280.092 15,258.5C 4.73485,237.665 5.06818,216.998 16,196.5C 31.7717,178.726 48.2717,161.56 65.5,145C 70.6734,140.413 76.6734,137.413 83.5,136C 116.832,135.5 150.165,135.333 183.5,135.5C 183.5,130.167 183.5,124.833 183.5,119.5C 175.981,119.823 170.814,116.49 168,109.5C 167.333,78.8333 167.333,48.1667 168,17.5C 170.022,12.98 173.189,9.6467 177.5,7.5 Z M 183.5,23.5 C 188.833,23.5 194.167,23.5 199.5,23.5C 199.5,50.1667 199.5,76.8333 199.5,103.5C 194.167,103.5 188.833,103.5 183.5,103.5C 183.5,76.8333 183.5,50.1667 183.5,23.5 Z M 471.5,135.5 C 476.833,135.5 482.167,135.5 487.5,135.5C 487.5,188.833 487.5,242.167 487.5,295.5C 482.167,295.5 476.833,295.5 471.5,295.5C 471.5,242.167 471.5,188.833 471.5,135.5 Z M 107.5,151.5 C 143.5,151.5 179.5,151.5 215.5,151.5C 215.5,162.167 215.5,172.833 215.5,183.5C 183.451,183.971 151.451,183.471 119.5,182C 117.951,180.786 116.785,179.286 116,177.5C 113.06,168.847 110.227,160.18 107.5,151.5 Z M 86.5,152.5 C 88.1238,152.36 89.2904,153.027 90,154.5C 93.6057,165.984 97.6057,177.318 102,188.5C 104.618,193.116 108.451,196.283 113.5,198C 147.438,199.479 181.438,199.979 215.5,199.5C 215.5,236.833 215.5,274.167 215.5,311.5C 171.499,311.667 127.499,311.5 83.5,311C 67,292.5 50.5,274 34,255.5C 21.7548,238.02 21.4215,220.353 33,202.5C 48.5,187 64,171.5 79.5,156C 81.9252,154.787 84.2585,153.621 86.5,152.5 Z M 231.5,158.5 C 252.472,170.989 273.472,183.489 294.5,196C 295.655,209.091 295.822,222.258 295,235.5C 274,256.5 253,277.5 232,298.5C 231.5,251.835 231.333,205.168 231.5,158.5 Z M 453.5,173.5 C 454.833,187.15 455.499,201.15 455.5,215.5C 455.167,229.5 454.833,243.5 454.5,257.5C 439.167,249.833 423.833,242.167 408.5,234.5C 407.167,221.833 407.167,209.167 408.5,196.5C 423.717,189.059 438.717,181.392 453.5,173.5 Z M 311.5,199.5 C 316.833,199.5 322.167,199.5 327.5,199.5C 327.5,210.167 327.5,220.833 327.5,231.5C 322.167,231.5 316.833,231.5 311.5,231.5C 311.5,220.833 311.5,210.167 311.5,199.5 Z M 343.5,199.5 C 348.833,199.5 354.167,199.5 359.5,199.5C 359.5,210.167 359.5,220.833 359.5,231.5C 354.167,231.5 348.833,231.5 343.5,231.5C 343.5,220.833 343.5,210.167 343.5,199.5 Z M 375.5,199.5 C 380.833,199.5 386.167,199.5 391.5,199.5C 391.5,210.167 391.5,220.833 391.5,231.5C 386.167,231.5 380.833,231.5 375.5,231.5C 375.5,220.833 375.5,210.167 375.5,199.5 Z M 98.5,232.5 C 115.765,232.257 121.598,240.257 116,256.5C 109.749,263.011 102.582,264.177 94.5,260C 87.9893,253.749 86.8227,246.582 91,238.5C 93.1141,235.879 95.6141,233.879 98.5,232.5 Z M 172.5,248.5 C 181.85,248.365 184.517,252.532 180.5,261C 171.956,264.322 168.123,261.489 169,252.5C 169.69,250.65 170.856,249.316 172.5,248.5 Z M 87.5,327.5 C 108.167,327.5 128.833,327.5 149.5,327.5C 145.33,369.527 140.83,411.527 136,453.5C 135.667,434.167 135.333,414.833 135,395.5C 128.924,368.924 112.758,351.924 86.5,344.5C 85.8687,338.826 86.202,333.159 87.5,327.5 Z M 167.5,327.5 C 171.833,327.5 176.167,327.5 180.5,327.5C 180.869,338.126 175.869,343.46 165.5,343.5C 165.949,338.124 166.616,332.791 167.5,327.5 Z M 198.5,327.5 C 204.167,327.5 209.833,327.5 215.5,327.5C 215.667,338.172 215.5,348.839 215,359.5C 213.833,368.667 208.667,373.833 199.5,375C 186.833,375.667 174.167,375.667 161.5,375C 162.565,369.926 163.231,364.759 163.5,359.5C 177.546,362.004 187.712,357.004 194,344.5C 195.352,338.755 196.852,333.089 198.5,327.5 Z M 83.5,361.5 C 99.0378,366.373 109.705,376.373 115.5,391.5C 103.833,391.5 92.1667,391.5 80.5,391.5C 81.2074,381.467 82.2074,371.467 83.5,361.5 Z M 78.5,407.5 C 92.1667,407.5 105.833,407.5 119.5,407.5C 119.5,412.833 119.5,418.167 119.5,423.5C 105.167,423.5 90.8333,423.5 76.5,423.5C 77.094,418.154 77.7607,412.82 78.5,407.5 Z M 74.5,439.5 C 89.5,439.5 104.5,439.5 119.5,439.5C 119.5,444.833 119.5,450.167 119.5,455.5C 104.167,455.5 88.8333,455.5 73.5,455.5C 73.6865,450.155 74.0199,444.822 74.5,439.5 Z M 67.5,471.5 C 91.5023,471.333 115.502,471.5 139.5,472C 143,475.5 146.5,479 150,482.5C 150.49,483.793 150.657,485.127 150.5,486.5C 119.167,487.833 87.8333,487.833 56.5,486.5C 56.3433,485.127 56.51,483.793 57,482.5C 60.7039,478.964 64.2039,475.298 67.5,471.5 Z"/></g>
<g><path style="opacity:0.93" fill="#000000" d="M 95.5,215.5 C 123.978,213.811 137.145,227.144 135,255.5C 128.645,274.438 115.478,282.272 95.5,279C 76.5615,272.645 68.7282,259.478 72,239.5C 75.349,226.985 83.1824,218.985 95.5,215.5 Z M 98.5,232.5 C 95.6141,233.879 93.1141,235.879 91,238.5C 86.8227,246.582 87.9893,253.749 94.5,260C 102.582,264.177 109.749,263.011 116,256.5C 121.598,240.257 115.765,232.257 98.5,232.5 Z"/></g>
<g><path style="opacity:0.934" fill="#000000" d="M 168.5,231.5 C 183.367,229.012 193.534,234.678 199,248.5C 201.982,263.376 196.482,273.543 182.5,279C 167.624,281.982 157.457,276.482 152,262.5C 149.146,247.533 154.646,237.199 168.5,231.5 Z M 172.5,248.5 C 170.856,249.316 169.69,250.65 169,252.5C 168.123,261.489 171.956,264.322 180.5,261C 184.517,252.532 181.85,248.365 172.5,248.5 Z"/></g>
</svg>
