<?xml version="1.0" encoding="UTF-8"?>
<!DOCTYPE svg PUBLIC "-//W3C//DTD SVG 1.1//EN" "http://www.w3.org/Graphics/SVG/1.1/DTD/svg11.dtd">
<svg xmlns="http://www.w3.org/2000/svg" version="1.1" width="512px" height="512px" style="shape-rendering:geometricPrecision; text-rendering:geometricPrecision; image-rendering:optimizeQuality; fill-rule:evenodd; clip-rule:evenodd" xmlns:xlink="http://www.w3.org/1999/xlink">
<g><path style="opacity:0.986" fill="#000000" d="M 411.5,15.5 C 416.982,14.5952 421.649,16.0952 425.5,20C 447.88,38.0486 470.547,55.7153 493.5,73C 496.167,77.3333 496.167,81.6667 493.5,86C 468.833,105 444.167,124 419.5,143C 416.833,143.667 414.167,143.667 411.5,143C 409.667,142.5 408.5,141.333 408,139.5C 407.5,130.173 407.334,120.839 407.5,111.5C 278.166,111.667 148.833,111.5 19.5,111C 17.6667,110.5 16.5,109.333 16,107.5C 15.3333,88.8333 15.3333,70.1667 16,51.5C 16.5,49.6667 17.6667,48.5 19.5,48C 148.833,47.5 278.166,47.3333 407.5,47.5C 407.334,38.1607 407.5,28.8274 408,19.5C 408.69,17.6498 409.856,16.3164 411.5,15.5 Z M 423.5,41.5 C 440.392,53.385 456.725,66.0517 472.5,79.5C 456.812,92.5169 440.812,105.184 424.5,117.5C 423.67,111.528 423.17,105.528 423,99.5C 422.5,97.6667 421.333,96.5 419.5,96C 290.167,95.5 160.834,95.3333 31.5,95.5C 31.5,84.8333 31.5,74.1667 31.5,63.5C 160.834,63.6667 290.167,63.5 419.5,63C 421.333,62.5 422.5,61.3333 423,59.5C 423.499,53.5092 423.666,47.5092 423.5,41.5 Z"/></g>
<g><path style="opacity:0.927" fill="#000000" d="M 120.5,135.5 C 162.787,131.978 198.287,145.644 227,176.5C 231.965,182.131 236.131,188.297 239.5,195C 237.286,197.458 234.619,199.458 231.5,201C 229.35,202.59 227.017,203.257 224.5,203C 198.686,163.598 162.353,147.265 115.5,154C 69.5494,165.712 42.0494,194.878 33,241.5C 29.1629,292.349 49.9963,328.849 95.5,351C 120.747,361.063 146.08,361.563 171.5,352.5C 172.167,352.833 172.833,353.167 173.5,353.5C 175,357.167 176.5,360.833 178,364.5C 178.781,365.944 178.614,367.277 177.5,368.5C 125.812,384.787 81.3118,373.454 44,334.5C 16.8367,300.691 8.83674,262.691 20,220.5C 37.0435,172.58 70.5435,144.247 120.5,135.5 Z"/></g>
<g><path style="opacity:0.971" fill="#000000" d="M 127.5,175.5 C 132.833,175.5 138.167,175.5 143.5,175.5C 143.667,203.502 143.5,231.502 143,259.5C 142.626,260.416 142.126,261.25 141.5,262C 124.589,270.372 107.756,278.872 91,287.5C 88.5,282.5 86,277.5 83.5,272.5C 97.677,264.911 112.01,257.578 126.5,250.5C 127.5,225.509 127.833,200.509 127.5,175.5 Z"/></g>
<g><path style="opacity:0.995" fill="#000000" d="M 249.5,215.5 C 258.839,215.334 268.173,215.5 277.5,216C 282,217.833 285.167,221 287,225.5C 287.5,232.826 287.666,240.159 287.5,247.5C 324.833,247.5 362.167,247.5 399.5,247.5C 399.334,240.159 399.5,232.826 400,225.5C 405.045,216.106 412.878,212.772 423.5,215.5C 434.122,212.772 441.955,216.106 447,225.5C 447.5,232.826 447.666,240.159 447.5,247.5C 462.17,247.333 476.837,247.5 491.5,248C 493.333,248.5 494.5,249.667 495,251.5C 495.667,331.5 495.667,411.5 495,491.5C 494.5,493.333 493.333,494.5 491.5,495C 392.833,495.667 294.167,495.667 195.5,495C 193.667,494.5 192.5,493.333 192,491.5C 191.333,411.5 191.333,331.5 192,251.5C 192.5,249.667 193.667,248.5 195.5,248C 210.163,247.5 224.83,247.333 239.5,247.5C 239.334,240.159 239.5,232.826 240,225.5C 242.022,220.98 245.189,217.647 249.5,215.5 Z M 255.5,231.5 C 260.833,231.5 266.167,231.5 271.5,231.5C 271.5,239.5 271.5,247.5 271.5,255.5C 266.167,255.5 260.833,255.5 255.5,255.5C 255.5,247.5 255.5,239.5 255.5,231.5 Z M 415.5,231.5 C 420.833,231.5 426.167,231.5 431.5,231.5C 431.5,239.5 431.5,247.5 431.5,255.5C 426.167,255.5 420.833,255.5 415.5,255.5C 415.5,247.5 415.5,239.5 415.5,231.5 Z M 207.5,263.5 C 218.853,263.168 230.186,263.501 241.5,264.5C 243.417,267.583 246.084,269.75 249.5,271C 258.833,271.667 268.167,271.667 277.5,271C 280.916,269.75 283.583,267.583 285.5,264.5C 324.167,263.167 362.833,263.167 401.5,264.5C 403.417,267.583 406.084,269.75 409.5,271C 418.833,271.667 428.167,271.667 437.5,271C 440.916,269.75 443.583,267.583 445.5,264.5C 456.814,263.501 468.147,263.168 479.5,263.5C 479.5,271.5 479.5,279.5 479.5,287.5C 388.833,287.5 298.167,287.5 207.5,287.5C 207.5,279.5 207.5,271.5 207.5,263.5 Z M 207.5,303.5 C 298.167,303.5 388.833,303.5 479.5,303.5C 479.5,362.167 479.5,420.833 479.5,479.5C 388.833,479.5 298.167,479.5 207.5,479.5C 207.5,420.833 207.5,362.167 207.5,303.5 Z M 239.5,335.5 C 250.167,335.5 260.833,335.5 271.5,335.5C 271.5,346.167 271.5,356.833 271.5,367.5C 260.833,367.5 250.167,367.5 239.5,367.5C 239.5,356.833 239.5,346.167 239.5,335.5 Z M 327.5,335.5 C 338.167,335.5 348.833,335.5 359.5,335.5C 359.5,346.167 359.5,356.833 359.5,367.5C 348.833,367.5 338.167,367.5 327.5,367.5C 327.5,356.833 327.5,346.167 327.5,335.5 Z M 415.5,335.5 C 426.167,335.5 436.833,335.5 447.5,335.5C 447.5,346.167 447.5,356.833 447.5,367.5C 436.833,367.5 426.167,367.5 415.5,367.5C 415.5,356.833 415.5,346.167 415.5,335.5 Z M 239.5,415.5 C 250.167,415.5 260.833,415.5 271.5,415.5C 271.5,426.167 271.5,436.833 271.5,447.5C 260.833,447.5 250.167,447.5 239.5,447.5C 239.5,436.833 239.5,426.167 239.5,415.5 Z M 327.5,415.5 C 338.167,415.5 348.833,415.5 359.5,415.5C 359.5,426.167 359.5,436.833 359.5,447.5C 348.833,447.5 338.167,447.5 327.5,447.5C 327.5,436.833 327.5,426.167 327.5,415.5 Z M 415.5,415.5 C 426.167,415.5 436.833,415.5 447.5,415.5C 447.5,426.167 447.5,436.833 447.5,447.5C 436.833,447.5 426.167,447.5 415.5,447.5C 415.5,436.833 415.5,426.167 415.5,415.5 Z"/></g>
<g><path style="opacity:0.992" fill="#000000" d="M 227.5,319.5 C 246.17,319.333 264.836,319.5 283.5,320C 284.416,320.374 285.25,320.874 286,321.5C 287.143,331.405 287.643,341.405 287.5,351.5C 295.833,381.167 285.167,391.833 255.5,383.5C 246.167,383.333 236.833,383.167 227.5,383C 226.584,382.626 225.75,382.126 225,381.5C 223.359,362.257 223.025,342.923 224,323.5C 224.69,321.65 225.856,320.316 227.5,319.5 Z M 239.5,335.5 C 239.5,346.167 239.5,356.833 239.5,367.5C 250.167,367.5 260.833,367.5 271.5,367.5C 271.5,356.833 271.5,346.167 271.5,335.5C 260.833,335.5 250.167,335.5 239.5,335.5 Z"/></g>
<g><path style="opacity:0.992" fill="#000000" d="M 315.5,319.5 C 334.17,319.333 352.836,319.5 371.5,320C 372.416,320.374 373.25,320.874 374,321.5C 375.143,331.405 375.643,341.405 375.5,351.5C 383.833,381.167 373.167,391.833 343.5,383.5C 334.167,383.333 324.833,383.167 315.5,383C 314.584,382.626 313.75,382.126 313,381.5C 311.359,362.257 311.025,342.923 312,323.5C 312.69,321.65 313.856,320.316 315.5,319.5 Z M 327.5,335.5 C 327.5,346.167 327.5,356.833 327.5,367.5C 338.167,367.5 348.833,367.5 359.5,367.5C 359.5,356.833 359.5,346.167 359.5,335.5C 348.833,335.5 338.167,335.5 327.5,335.5 Z"/></g>
<g><path style="opacity:0.992" fill="#000000" d="M 403.5,319.5 C 422.17,319.333 440.836,319.5 459.5,320C 460.416,320.374 461.25,320.874 462,321.5C 463.143,331.405 463.643,341.405 463.5,351.5C 471.833,381.167 461.167,391.833 431.5,383.5C 422.167,383.333 412.833,383.167 403.5,383C 402.584,382.626 401.75,382.126 401,381.5C 399.359,362.257 399.025,342.923 400,323.5C 400.69,321.65 401.856,320.316 403.5,319.5 Z M 415.5,335.5 C 415.5,346.167 415.5,356.833 415.5,367.5C 426.167,367.5 436.833,367.5 447.5,367.5C 447.5,356.833 447.5,346.167 447.5,335.5C 436.833,335.5 426.167,335.5 415.5,335.5 Z"/></g>
<g><path style="opacity:0.992" fill="#000000" d="M 227.5,399.5 C 246.17,399.333 264.836,399.5 283.5,400C 284.416,400.374 285.25,400.874 286,401.5C 287.143,411.405 287.643,421.405 287.5,431.5C 295.833,461.167 285.167,471.833 255.5,463.5C 246.167,463.333 236.833,463.167 227.5,463C 226.584,462.626 225.75,462.126 225,461.5C 223.359,442.257 223.025,422.923 224,403.5C 224.69,401.65 225.856,400.316 227.5,399.5 Z M 239.5,415.5 C 239.5,426.167 239.5,436.833 239.5,447.5C 250.167,447.5 260.833,447.5 271.5,447.5C 271.5,436.833 271.5,426.167 271.5,415.5C 260.833,415.5 250.167,415.5 239.5,415.5 Z"/></g>
<g><path style="opacity:0.992" fill="#000000" d="M 315.5,399.5 C 334.17,399.333 352.836,399.5 371.5,400C 372.416,400.374 373.25,400.874 374,401.5C 375.143,411.405 375.643,421.405 375.5,431.5C 383.833,461.167 373.167,471.833 343.5,463.5C 334.167,463.333 324.833,463.167 315.5,463C 314.584,462.626 313.75,462.126 313,461.5C 311.359,442.257 311.025,422.923 312,403.5C 312.69,401.65 313.856,400.316 315.5,399.5 Z M 327.5,415.5 C 327.5,426.167 327.5,436.833 327.5,447.5C 338.167,447.5 348.833,447.5 359.5,447.5C 359.5,436.833 359.5,426.167 359.5,415.5C 348.833,415.5 338.167,415.5 327.5,415.5 Z"/></g>
<g><path style="opacity:0.992" fill="#000000" d="M 403.5,399.5 C 422.17,399.333 440.836,399.5 459.5,400C 460.416,400.374 461.25,400.874 462,401.5C 463.143,411.405 463.643,421.405 463.5,431.5C 471.833,461.167 461.167,471.833 431.5,463.5C 422.167,463.333 412.833,463.167 403.5,463C 402.584,462.626 401.75,462.126 401,461.5C 399.359,442.257 399.025,422.923 400,403.5C 400.69,401.65 401.856,400.316 403.5,399.5 Z M 415.5,415.5 C 415.5,426.167 415.5,436.833 415.5,447.5C 426.167,447.5 436.833,447.5 447.5,447.5C 447.5,436.833 447.5,426.167 447.5,415.5C 436.833,415.5 426.167,415.5 415.5,415.5 Z"/></g>
</svg>
