<?xml version="1.0" encoding="UTF-8"?>
<!DOCTYPE svg PUBLIC "-//W3C//DTD SVG 1.1//EN" "http://www.w3.org/Graphics/SVG/1.1/DTD/svg11.dtd">
<svg xmlns="http://www.w3.org/2000/svg" version="1.1" width="512px" height="512px" style="shape-rendering:geometricPrecision; text-rendering:geometricPrecision; image-rendering:optimizeQuality; fill-rule:evenodd; clip-rule:evenodd" xmlns:xlink="http://www.w3.org/1999/xlink">
<g><path style="opacity:0.953" fill="#000000" d="M 511.5,80.5 C 511.5,186.5 511.5,292.5 511.5,398.5C 508.637,405.701 503.637,411.034 496.5,414.5C 495.669,422.145 495.169,429.812 495,437.5C 493.167,442 490,445.167 485.5,447C 475.5,447.667 465.5,447.667 455.5,447C 452.098,445.6 449.264,443.433 447,440.5C 442.961,432.255 438.794,424.089 434.5,416C 315.167,415.333 195.833,415.333 76.5,416C 72.2056,424.089 68.0389,432.255 64,440.5C 61.7357,443.433 58.9024,445.6 55.5,447C 45.5,447.667 35.5,447.667 25.5,447C 21,445.167 17.8333,442 16,437.5C 15.8315,429.812 15.3315,422.145 14.5,414.5C 7.36337,411.034 2.36337,405.701 -0.5,398.5C -0.5,292.167 -0.5,185.833 -0.5,79.5C 3.06724,72.1023 8.7339,66.9356 16.5,64C 175.833,63.3333 335.167,63.3333 494.5,64C 503.016,66.6841 508.683,72.1841 511.5,80.5 Z M 19.5,79.5 C 140.833,79.5 262.167,79.5 383.5,79.5C 381.414,87.6711 384.248,93.0045 392,95.5C 395.399,95.265 397.732,93.5984 399,90.5C 399.499,86.8484 399.665,83.1817 399.5,79.5C 430.168,79.3334 460.835,79.5 491.5,80C 492.667,81.1667 493.833,82.3333 495,83.5C 496.158,135.456 496.658,187.456 496.5,239.5C 496.658,291.544 496.158,343.544 495,395.5C 493.833,396.667 492.667,397.833 491.5,399C 460.835,399.5 430.168,399.667 399.5,399.5C 399.667,304.833 399.5,210.166 399,115.5C 395.58,111.247 391.413,110.413 386.5,113C 385.107,114.171 384.273,115.671 384,117.5C 383.502,120.817 383.335,124.15 383.5,127.5C 369.048,125.139 358.881,130.472 353,143.5C 351.848,175.454 351.348,207.454 351.5,239.5C 351.348,271.546 351.848,303.546 353,335.5C 358.881,348.528 369.048,353.861 383.5,351.5C 383.5,367.5 383.5,383.5 383.5,399.5C 262.166,399.667 140.833,399.5 19.5,399C 16.732,397.238 15.232,394.738 15,391.5C 14.3333,290.167 14.3333,188.833 15,87.5C 15.4506,84.2224 16.9506,81.5558 19.5,79.5 Z M 431.5,127.5 C 442.167,127.5 452.833,127.5 463.5,127.5C 463.5,135.5 463.5,143.5 463.5,151.5C 452.833,151.5 442.167,151.5 431.5,151.5C 431.5,143.5 431.5,135.5 431.5,127.5 Z M 372.5,143.5 C 376.167,143.5 379.833,143.5 383.5,143.5C 383.5,207.5 383.5,271.5 383.5,335.5C 379.818,335.665 376.152,335.499 372.5,335C 370.622,333.457 369.122,331.624 368,329.5C 367.333,269.5 367.333,209.5 368,149.5C 368.979,147.032 370.479,145.032 372.5,143.5 Z M 444.5,303.5 C 461.045,304.597 466.545,312.93 461,328.5C 454.206,336.367 446.372,337.534 437.5,332C 428.446,319.715 430.78,310.215 444.5,303.5 Z M 31.5,415.5 C 40.1922,415.169 48.8589,415.502 57.5,416.5C 55.1667,421.167 52.8333,425.833 50.5,430.5C 44.2015,431.496 37.8682,431.83 31.5,431.5C 31.5,426.167 31.5,420.833 31.5,415.5 Z M 453.5,415.5 C 462.167,415.5 470.833,415.5 479.5,415.5C 479.5,420.833 479.5,426.167 479.5,431.5C 473.132,431.83 466.798,431.496 460.5,430.5C 457.882,425.599 455.548,420.599 453.5,415.5 Z"/></g>
<g><path style="opacity:0.933" fill="#000000" d="M 426.5,111.5 C 440.837,111.333 455.171,111.5 469.5,112C 474,113.833 477.167,117 479,121.5C 479.667,133.167 479.667,144.833 479,156.5C 477.095,162.07 473.261,165.57 467.5,167C 454.5,167.667 441.5,167.667 428.5,167C 421.216,165.382 417.049,160.882 416,153.5C 415.333,143.833 415.333,134.167 416,124.5C 417.496,118.509 420.996,114.175 426.5,111.5 Z M 431.5,127.5 C 431.5,135.5 431.5,143.5 431.5,151.5C 442.167,151.5 452.833,151.5 463.5,151.5C 463.5,143.5 463.5,135.5 463.5,127.5C 452.833,127.5 442.167,127.5 431.5,127.5 Z"/></g>
<g><path style="opacity:0.935" fill="#000000" d="M 81.5,127.5 C 160.167,127.333 238.834,127.5 317.5,128C 326.64,130.474 332.474,136.307 335,145.5C 335.667,208.167 335.667,270.833 335,333.5C 332.5,342.667 326.667,348.5 317.5,351C 238.833,351.667 160.167,351.667 81.5,351C 67.2898,346.088 61.2898,336.088 63.5,321C 63.6667,316.5 63.8333,312 64,307.5C 68.7134,302.182 73.38,302.182 78,307.5C 79.2305,315.089 79.8972,322.756 80,330.5C 80.8333,332.667 82.3333,334.167 84.5,335C 161.167,335.667 237.833,335.667 314.5,335C 316.667,334.167 318.167,332.667 319,330.5C 319.667,269.833 319.667,209.167 319,148.5C 318.535,147.069 317.701,145.903 316.5,145C 277.583,143.839 238.583,143.339 199.5,143.5C 160.417,143.339 121.417,143.839 82.5,145C 81.2986,145.903 80.4652,147.069 80,148.5C 79.6667,192.833 79.3333,237.167 79,281.5C 75.0065,288.663 70.0065,289.33 64,283.5C 63.3333,237.167 63.3333,190.833 64,144.5C 67.118,135.88 72.9513,130.213 81.5,127.5 Z"/></g>
<g><path style="opacity:0.918" fill="#000000" d="M 155.5,175.5 C 160.635,174.426 164.468,176.093 167,180.5C 167.639,185.98 166.972,191.313 165,196.5C 162.106,202.062 158.439,207.062 154,211.5C 151.085,216.988 150.752,222.655 153,228.5C 171.847,247.595 172.181,266.928 154,286.5C 152.118,290.988 150.785,295.655 150,300.5C 145.046,304.677 140.38,304.343 136,299.5C 134.297,286.939 138.297,276.605 148,268.5C 152.193,262.353 152.526,256.02 149,249.5C 134.201,235.538 131.535,219.538 141,201.5C 147.86,195.779 151.527,188.446 152,179.5C 153.376,178.295 154.542,176.962 155.5,175.5 Z"/></g>
<g><path style="opacity:0.919" fill="#000000" d="M 203.5,175.5 C 208.635,174.426 212.468,176.093 215,180.5C 215.91,193.015 211.577,203.349 202,211.5C 198.43,218.365 198.763,225.032 203,231.5C 215.489,243.456 218.489,257.456 212,273.5C 208.333,278.5 204.667,283.5 201,288.5C 200.091,292.54 199.091,296.54 198,300.5C 193.667,304.5 189.333,304.5 185,300.5C 182.339,287.791 186.005,277.124 196,268.5C 200.121,262.335 200.454,256.002 197,249.5C 178.73,229.584 179.063,209.917 198,190.5C 199.036,187.247 199.703,183.914 200,180.5C 200.997,178.677 202.164,177.01 203.5,175.5 Z"/></g>
<g><path style="opacity:0.92" fill="#000000" d="M 252.5,175.5 C 259.759,174.596 263.426,177.763 263.5,185C 263.165,190.507 261.665,195.674 259,200.5C 255.425,204.653 252.091,208.986 249,213.5C 247.566,217.406 247.233,221.406 248,225.5C 253.179,232.528 257.845,239.861 262,247.5C 264.633,257.241 263.633,266.574 259,275.5C 255.425,279.653 252.091,283.986 249,288.5C 248.091,292.54 247.091,296.54 246,300.5C 241.667,304.5 237.333,304.5 233,300.5C 230.751,292.798 231.751,285.465 236,278.5C 239.091,273.986 242.425,269.653 246,265.5C 248.148,260.016 247.815,254.683 245,249.5C 240.185,244.023 236.185,238.023 233,231.5C 230.389,221.769 231.389,212.435 236,203.5C 239.575,199.347 242.909,195.014 246,190.5C 246.909,186.46 247.909,182.46 249,178.5C 250.145,177.364 251.312,176.364 252.5,175.5 Z"/></g>
<g><path style="opacity:0.886" fill="#000000" d="M 420.5,191.5 C 425.511,191.334 430.511,191.501 435.5,192C 439.277,194.955 440.443,198.788 439,203.5C 437.786,205.049 436.286,206.215 434.5,207C 428.981,207.999 423.647,207.499 418.5,205.5C 414.354,200.096 415.021,195.429 420.5,191.5 Z"/></g>
<g><path style="opacity:0.894" fill="#000000" d="M 460.5,191.5 C 465.511,191.334 470.511,191.501 475.5,192C 479.277,194.911 480.444,198.744 479,203.5C 477.786,205.049 476.286,206.215 474.5,207C 469.382,207.888 464.382,207.555 459.5,206C 454.475,200.854 454.808,196.02 460.5,191.5 Z"/></g>
<g><path style="opacity:0.889" fill="#000000" d="M 420.5,223.5 C 425.511,223.334 430.511,223.501 435.5,224C 439.277,226.955 440.443,230.788 439,235.5C 437.786,237.049 436.286,238.215 434.5,239C 428.981,239.999 423.647,239.499 418.5,237.5C 414.341,232.136 415.008,227.47 420.5,223.5 Z"/></g>
<g><path style="opacity:0.894" fill="#000000" d="M 460.5,223.5 C 465.511,223.334 470.511,223.501 475.5,224C 479.277,226.955 480.443,230.788 479,235.5C 477.786,237.049 476.286,238.215 474.5,239C 468.981,239.999 463.647,239.499 458.5,237.5C 454.696,232.232 455.362,227.565 460.5,223.5 Z"/></g>
<g><path style="opacity:0.886" fill="#000000" d="M 420.5,255.5 C 425.959,255.103 431.292,255.603 436.5,257C 439.394,259.909 440.227,263.409 439,267.5C 437.786,269.049 436.286,270.215 434.5,271C 429.051,271.896 423.718,271.563 418.5,270C 414.271,264.434 414.937,259.601 420.5,255.5 Z"/></g>
<g><path style="opacity:0.897" fill="#000000" d="M 460.5,255.5 C 465.959,255.103 471.292,255.603 476.5,257C 479.394,259.909 480.227,263.409 479,267.5C 477.786,269.049 476.286,270.215 474.5,271C 469.833,271.667 465.167,271.667 460.5,271C 453.982,265.856 453.982,260.689 460.5,255.5 Z"/></g>
<g><path style="opacity:0.926" fill="#000000" d="M 442.5,287.5 C 460.677,286.531 472.843,294.531 479,311.5C 481.849,331.656 473.682,344.823 454.5,351C 426.428,351.928 413.928,338.428 417,310.5C 421.587,298.409 430.087,290.742 442.5,287.5 Z M 444.5,303.5 C 430.78,310.215 428.446,319.715 437.5,332C 446.372,337.534 454.206,336.367 461,328.5C 466.545,312.93 461.045,304.597 444.5,303.5 Z"/></g>
</svg>
