<?xml version="1.0" encoding="UTF-8"?>
<!DOCTYPE svg PUBLIC "-//W3C//DTD SVG 1.1//EN" "http://www.w3.org/Graphics/SVG/1.1/DTD/svg11.dtd">
<svg xmlns="http://www.w3.org/2000/svg" version="1.1" width="512px" height="512px" style="shape-rendering:geometricPrecision; text-rendering:geometricPrecision; image-rendering:optimizeQuality; fill-rule:evenodd; clip-rule:evenodd" xmlns:xlink="http://www.w3.org/1999/xlink">
<g><path style="opacity:0.948" fill="#000000" d="M 32.5,-0.5 C 141.167,-0.5 249.833,-0.5 358.5,-0.5C 364.872,1.27028 370.705,4.27028 376,8.5C 378.505,4.18881 382.005,1.18881 386.5,-0.5C 396.833,-0.5 407.167,-0.5 417.5,-0.5C 430.923,3.759 439.423,12.759 443,26.5C 443.5,57.1649 443.667,87.8315 443.5,118.5C 459.503,118.333 475.503,118.5 491.5,119C 501.583,121.587 508.25,127.753 511.5,137.5C 511.5,187.833 511.5,238.167 511.5,288.5C 501.788,307.952 487.455,312.119 468.5,301C 465.213,297.707 462.713,293.873 461,289.5C 459.532,252.874 459.032,216.207 459.5,179.5C 454.167,179.5 448.833,179.5 443.5,179.5C 443.99,271.211 443.49,362.877 442,454.5C 438.167,465 431,472.167 420.5,476C 409.225,477.576 397.892,477.909 386.5,477C 381.815,475.65 378.315,472.817 376,468.5C 370.97,472.932 365.137,475.598 358.5,476.5C 361.217,493.419 354.883,505.086 339.5,511.5C 314.833,511.5 290.167,511.5 265.5,511.5C 250.416,505.353 244.082,494.02 246.5,477.5C 212.833,477.5 179.167,477.5 145.5,477.5C 147.411,493.697 141.078,505.031 126.5,511.5C 101.5,511.5 76.5,511.5 51.5,511.5C 36.4515,504.789 30.4515,493.122 33.5,476.5C 15.9975,472.329 4.66416,461.663 -0.5,444.5C -0.5,307.167 -0.5,169.833 -0.5,32.5C 4.83333,15.8333 15.8333,4.83333 32.5,-0.5 Z M 35.5,17.5 C 142.167,17.3333 248.834,17.5 355.5,18C 365.434,20.9334 371.6,27.4334 374,37.5C 374.667,171.5 374.667,305.5 374,439.5C 371.6,449.567 365.434,456.067 355.5,459C 249.167,459.667 142.833,459.667 36.5,459C 27.427,456.261 21.2603,450.427 18,441.5C 17.3333,306.167 17.3333,170.833 18,35.5C 21.3531,26.9815 27.1865,20.9815 35.5,17.5 Z M 392.5,17.5 C 399.841,17.3337 407.174,17.5003 414.5,18C 419.757,20.2563 423.257,24.0896 425,29.5C 425.667,168.833 425.667,308.167 425,447.5C 423.65,452.185 420.817,455.685 416.5,458C 408.585,459.401 400.585,459.901 392.5,459.5C 392.5,312.167 392.5,164.833 392.5,17.5 Z M 51.5,51.5 C 147.833,51.5 244.167,51.5 340.5,51.5C 340.5,110.833 340.5,170.167 340.5,229.5C 330.161,229.666 319.828,229.5 309.5,229C 311.227,223.594 312.727,218.094 314,212.5C 319.665,209.501 322.999,204.834 324,198.5C 324.667,169.5 324.667,140.5 324,111.5C 323.238,104.869 320.738,99.036 316.5,94C 323.665,91.4986 325.832,86.6653 323,79.5C 321.681,77.5125 319.848,76.3459 317.5,76C 281.833,75.3333 246.167,75.3333 210.5,76C 204.98,77.8631 202.814,81.6964 204,87.5C 205.388,90.9448 207.888,93.1114 211.5,94C 207.262,99.036 204.762,104.869 204,111.5C 203.333,140.5 203.333,169.5 204,198.5C 205.001,204.834 208.335,209.501 214,212.5C 215.273,218.094 216.773,223.594 218.5,229C 203.504,229.5 188.504,229.667 173.5,229.5C 173.771,219.653 177.605,211.653 185,205.5C 185.667,204.167 186.333,202.833 187,201.5C 187.667,170.5 187.667,139.5 187,108.5C 186.048,103.098 183.882,98.265 180.5,94C 186.795,91.5748 188.962,87.0748 187,80.5C 185.363,78.1898 183.196,76.6898 180.5,76C 145.167,75.3333 109.833,75.3333 74.5,76C 68.0048,77.8456 65.8381,82.0122 68,88.5C 69.2506,91.3807 71.4173,93.214 74.5,94C 71.1185,98.265 68.9518,103.098 68,108.5C 67.3333,139.5 67.3333,170.5 68,201.5C 70.4359,205.936 73.6025,209.769 77.5,213C 79.0726,218.456 80.4059,223.956 81.5,229.5C 71.5,229.5 61.5,229.5 51.5,229.5C 51.5,170.167 51.5,110.833 51.5,51.5 Z M 104.5,93.5 C 119.837,93.3334 135.17,93.5001 150.5,94C 156.449,97.5595 161.949,101.726 167,106.5C 167.862,108.087 168.529,109.754 169,111.5C 169.5,139.498 169.667,167.498 169.5,195.5C 141.5,195.5 113.5,195.5 85.5,195.5C 85.3334,167.498 85.5,139.498 86,111.5C 86.9643,107.532 89.1309,104.365 92.5,102C 96.7424,99.3904 100.742,96.5571 104.5,93.5 Z M 241.5,93.5 C 256.504,93.3334 271.504,93.5001 286.5,94C 293.043,97.6756 298.876,102.176 304,107.5C 304.973,109.392 305.64,111.392 306,113.5C 306.5,140.831 306.667,168.165 306.5,195.5C 278.167,195.5 249.833,195.5 221.5,195.5C 221.333,168.165 221.5,140.831 222,113.5C 222.521,110.126 223.854,107.126 226,104.5C 231.146,100.689 236.312,97.0219 241.5,93.5 Z M 443.5,136.5 C 458.504,136.333 473.504,136.5 488.5,137C 490.667,137.833 492.167,139.333 493,141.5C 493.5,148.158 493.666,154.825 493.5,161.5C 476.833,161.5 460.167,161.5 443.5,161.5C 443.5,153.167 443.5,144.833 443.5,136.5 Z M 477.5,179.5 C 482.833,179.5 488.167,179.5 493.5,179.5C 493.667,214.502 493.5,249.502 493,284.5C 487.172,291.352 482.172,290.685 478,282.5C 477.5,248.168 477.333,213.835 477.5,179.5 Z M 96.5,213.5 C 117.177,213.167 137.844,213.5 158.5,214.5C 157.487,218.22 156.32,221.886 155,225.5C 153.786,227.049 152.286,228.215 150.5,229C 142.833,229.167 135.167,229.333 127.5,229.5C 119.069,229.638 110.735,229.138 102.5,228C 99.0712,223.816 97.0712,218.982 96.5,213.5 Z M 233.5,213.5 C 253.833,213.5 274.167,213.5 294.5,213.5C 294.285,218.871 292.619,223.705 289.5,228C 281.072,229.122 272.572,229.622 264,229.5C 256.5,229.333 249,229.167 241.5,229C 240.167,228.333 238.833,227.667 237.5,227C 235.16,222.811 233.827,218.311 233.5,213.5 Z M 51.5,247.5 C 147.833,247.5 244.167,247.5 340.5,247.5C 340.5,306.833 340.5,366.167 340.5,425.5C 326.151,425.833 311.818,425.499 297.5,424.5C 298.656,401.21 298.823,377.876 298,354.5C 295.902,344.966 291.235,336.966 284,330.5C 283.138,328.913 282.471,327.246 282,325.5C 280.872,316.536 280.039,307.536 279.5,298.5C 280.946,294.105 281.946,289.605 282.5,285C 282.982,266.634 274.148,259.467 256,263.5C 237.514,259.13 228.347,266.297 228.5,285C 228.797,289.397 229.797,293.563 231.5,297.5C 230.963,306.869 230.13,316.202 229,325.5C 226.472,330.702 223.139,335.369 219,339.5C 216.163,344.172 214.163,349.172 213,354.5C 212.177,377.876 212.344,401.21 213.5,424.5C 201.852,425.499 190.186,425.832 178.5,425.5C 179.613,402.853 179.78,380.186 179,357.5C 177.143,346.452 172.143,337.119 164,329.5C 161.117,317.688 160.117,305.688 161,293.5C 162.701,291.1 163.534,288.433 163.5,285.5C 163.428,266.935 154.261,259.602 136,263.5C 117.743,259.598 108.576,266.931 108.5,285.5C 108.83,288.324 109.664,290.991 111,293.5C 111.518,303.853 111.184,314.186 110,324.5C 107.535,330.637 103.868,335.97 99,340.5C 95.7993,346.102 93.7993,352.102 93,358.5C 92.2209,380.853 92.3875,403.186 93.5,425.5C 79.5,425.5 65.5,425.5 51.5,425.5C 51.5,366.167 51.5,306.833 51.5,247.5 Z M 127.5,281.5 C 133.167,281.5 138.833,281.5 144.5,281.5C 142.226,296.422 142.059,311.422 144,326.5C 145.79,335.619 150.123,343.285 157,349.5C 158.893,352.618 160.226,355.951 161,359.5C 161.667,379.167 161.667,398.833 161,418.5C 160.261,421.573 158.428,423.74 155.5,425C 142.5,425.667 129.5,425.667 116.5,425C 113.117,423.62 111.284,421.12 111,417.5C 110.333,398.5 110.333,379.5 111,360.5C 111.483,356.533 112.816,352.866 115,349.5C 121.877,343.285 126.21,335.619 128,326.5C 129.995,311.4 129.828,296.4 127.5,281.5 Z M 247.5,281.5 C 253.167,281.5 258.833,281.5 264.5,281.5C 262.887,286.351 261.887,291.351 261.5,296.5C 262.035,307.528 262.868,318.528 264,329.5C 266.553,337.608 270.887,344.608 277,350.5C 278.275,352.717 279.275,355.051 280,357.5C 280.667,378.5 280.667,399.5 280,420.5C 279.167,422.667 277.667,424.167 275.5,425C 262.167,425.667 248.833,425.667 235.5,425C 233.333,424.167 231.833,422.667 231,420.5C 230.333,399.5 230.333,378.5 231,357.5C 233.996,350.845 237.996,344.845 243,339.5C 244.333,336.167 245.667,332.833 247,329.5C 248.577,316.204 249.244,302.871 249,289.5C 248.443,287.385 247.609,285.385 246.5,283.5C 246.863,282.817 247.196,282.15 247.5,281.5 Z M 51.5,477.5 C 76.8333,477.5 102.167,477.5 127.5,477.5C 128.359,483.588 126.693,488.755 122.5,493C 100.167,493.667 77.8333,493.667 55.5,493C 54.3333,491.833 53.1667,490.667 52,489.5C 51.5012,485.514 51.3345,481.514 51.5,477.5 Z M 264.5,477.5 C 289.833,477.5 315.167,477.5 340.5,477.5C 340.79,481.936 340.29,486.27 339,490.5C 338.097,491.701 336.931,492.535 335.5,493C 313.5,493.667 291.5,493.667 269.5,493C 267.333,492.167 265.833,490.667 265,488.5C 264.501,484.848 264.335,481.182 264.5,477.5 Z"/></g>
<g><path style="opacity:0.947" fill="#000000" d="M 44.5,33.5 C 145.167,33.3333 245.834,33.5 346.5,34C 352.731,35.963 356.564,40.1296 358,46.5C 358.667,174.5 358.667,302.5 358,430.5C 356.564,436.87 352.731,441.037 346.5,443C 246.167,443.667 145.833,443.667 45.5,443C 39.6667,441.167 35.8333,437.333 34,431.5C 33.3333,302.5 33.3333,173.5 34,44.5C 36.3566,39.6455 39.8566,35.9788 44.5,33.5 Z M 51.5,51.5 C 51.5,110.833 51.5,170.167 51.5,229.5C 61.5,229.5 71.5,229.5 81.5,229.5C 80.4059,223.956 79.0726,218.456 77.5,213C 73.6025,209.769 70.4359,205.936 68,201.5C 67.3333,170.5 67.3333,139.5 68,108.5C 68.9518,103.098 71.1185,98.265 74.5,94C 71.4173,93.214 69.2506,91.3807 68,88.5C 65.8381,82.0122 68.0048,77.8456 74.5,76C 109.833,75.3333 145.167,75.3333 180.5,76C 183.196,76.6898 185.363,78.1898 187,80.5C 188.962,87.0748 186.795,91.5748 180.5,94C 183.882,98.265 186.048,103.098 187,108.5C 187.667,139.5 187.667,170.5 187,201.5C 186.333,202.833 185.667,204.167 185,205.5C 177.605,211.653 173.771,219.653 173.5,229.5C 188.504,229.667 203.504,229.5 218.5,229C 216.773,223.594 215.273,218.094 214,212.5C 208.335,209.501 205.001,204.834 204,198.5C 203.333,169.5 203.333,140.5 204,111.5C 204.762,104.869 207.262,99.036 211.5,94C 207.888,93.1114 205.388,90.9448 204,87.5C 202.814,81.6964 204.98,77.8631 210.5,76C 246.167,75.3333 281.833,75.3333 317.5,76C 319.848,76.3459 321.681,77.5125 323,79.5C 325.832,86.6653 323.665,91.4986 316.5,94C 320.738,99.036 323.238,104.869 324,111.5C 324.667,140.5 324.667,169.5 324,198.5C 322.999,204.834 319.665,209.501 314,212.5C 312.727,218.094 311.227,223.594 309.5,229C 319.828,229.5 330.161,229.666 340.5,229.5C 340.5,170.167 340.5,110.833 340.5,51.5C 244.167,51.5 147.833,51.5 51.5,51.5 Z M 104.5,93.5 C 100.742,96.5571 96.7424,99.3904 92.5,102C 89.1309,104.365 86.9643,107.532 86,111.5C 85.5,139.498 85.3334,167.498 85.5,195.5C 113.5,195.5 141.5,195.5 169.5,195.5C 169.667,167.498 169.5,139.498 169,111.5C 168.529,109.754 167.862,108.087 167,106.5C 161.949,101.726 156.449,97.5595 150.5,94C 135.17,93.5001 119.837,93.3334 104.5,93.5 Z M 241.5,93.5 C 236.312,97.0219 231.146,100.689 226,104.5C 223.854,107.126 222.521,110.126 222,113.5C 221.5,140.831 221.333,168.165 221.5,195.5C 249.833,195.5 278.167,195.5 306.5,195.5C 306.667,168.165 306.5,140.831 306,113.5C 305.64,111.392 304.973,109.392 304,107.5C 298.876,102.176 293.043,97.6756 286.5,94C 271.504,93.5001 256.504,93.3334 241.5,93.5 Z M 96.5,213.5 C 97.0712,218.982 99.0712,223.816 102.5,228C 110.735,229.138 119.069,229.638 127.5,229.5C 135.167,229.333 142.833,229.167 150.5,229C 152.286,228.215 153.786,227.049 155,225.5C 156.32,221.886 157.487,218.22 158.5,214.5C 137.844,213.5 117.177,213.167 96.5,213.5 Z M 233.5,213.5 C 233.827,218.311 235.16,222.811 237.5,227C 238.833,227.667 240.167,228.333 241.5,229C 249,229.167 256.5,229.333 264,229.5C 272.572,229.622 281.072,229.122 289.5,228C 292.619,223.705 294.285,218.871 294.5,213.5C 274.167,213.5 253.833,213.5 233.5,213.5 Z M 51.5,247.5 C 51.5,306.833 51.5,366.167 51.5,425.5C 65.5,425.5 79.5,425.5 93.5,425.5C 92.3875,403.186 92.2209,380.853 93,358.5C 93.7993,352.102 95.7993,346.102 99,340.5C 103.868,335.97 107.535,330.637 110,324.5C 111.184,314.186 111.518,303.853 111,293.5C 109.664,290.991 108.83,288.324 108.5,285.5C 108.576,266.931 117.743,259.598 136,263.5C 154.261,259.602 163.428,266.935 163.5,285.5C 163.534,288.433 162.701,291.1 161,293.5C 160.117,305.688 161.117,317.688 164,329.5C 172.143,337.119 177.143,346.452 179,357.5C 179.78,380.186 179.613,402.853 178.5,425.5C 190.186,425.832 201.852,425.499 213.5,424.5C 212.344,401.21 212.177,377.876 213,354.5C 214.163,349.172 216.163,344.172 219,339.5C 223.139,335.369 226.472,330.702 229,325.5C 230.13,316.202 230.963,306.869 231.5,297.5C 229.797,293.563 228.797,289.397 228.5,285C 228.347,266.297 237.514,259.13 256,263.5C 274.148,259.467 282.982,266.634 282.5,285C 281.946,289.605 280.946,294.105 279.5,298.5C 280.039,307.536 280.872,316.536 282,325.5C 282.471,327.246 283.138,328.913 284,330.5C 291.235,336.966 295.902,344.966 298,354.5C 298.823,377.876 298.656,401.21 297.5,424.5C 311.818,425.499 326.151,425.833 340.5,425.5C 340.5,366.167 340.5,306.833 340.5,247.5C 244.167,247.5 147.833,247.5 51.5,247.5 Z M 127.5,281.5 C 129.828,296.4 129.995,311.4 128,326.5C 126.21,335.619 121.877,343.285 115,349.5C 112.816,352.866 111.483,356.533 111,360.5C 110.333,379.5 110.333,398.5 111,417.5C 111.284,421.12 113.117,423.62 116.5,425C 129.5,425.667 142.5,425.667 155.5,425C 158.428,423.74 160.261,421.573 161,418.5C 161.667,398.833 161.667,379.167 161,359.5C 160.226,355.951 158.893,352.618 157,349.5C 150.123,343.285 145.79,335.619 144,326.5C 142.059,311.422 142.226,296.422 144.5,281.5C 138.833,281.5 133.167,281.5 127.5,281.5 Z M 247.5,281.5 C 247.196,282.15 246.863,282.817 246.5,283.5C 247.609,285.385 248.443,287.385 249,289.5C 249.244,302.871 248.577,316.204 247,329.5C 245.667,332.833 244.333,336.167 243,339.5C 237.996,344.845 233.996,350.845 231,357.5C 230.333,378.5 230.333,399.5 231,420.5C 231.833,422.667 233.333,424.167 235.5,425C 248.833,425.667 262.167,425.667 275.5,425C 277.667,424.167 279.167,422.667 280,420.5C 280.667,399.5 280.667,378.5 280,357.5C 279.275,355.051 278.275,352.717 277,350.5C 270.887,344.608 266.553,337.608 264,329.5C 262.868,318.528 262.035,307.528 261.5,296.5C 261.887,291.351 262.887,286.351 264.5,281.5C 258.833,281.5 253.167,281.5 247.5,281.5 Z"/></g>
</svg>
