<?xml version="1.0" encoding="UTF-8"?>
<!DOCTYPE svg PUBLIC "-//W3C//DTD SVG 1.1//EN" "http://www.w3.org/Graphics/SVG/1.1/DTD/svg11.dtd">
<svg xmlns="http://www.w3.org/2000/svg" version="1.1" width="512px" height="512px" style="shape-rendering:geometricPrecision; text-rendering:geometricPrecision; image-rendering:optimizeQuality; fill-rule:evenodd; clip-rule:evenodd" xmlns:xlink="http://www.w3.org/1999/xlink">
<g><path style="opacity:0.918" fill="#000000" d="M 378.5,7.5 C 420.862,6.43577 455.029,22.4358 481,55.5C 509.79,99.5005 510.79,144.167 484,189.5C 453.789,230.673 413.289,247.173 362.5,239C 314.325,226.825 284.158,196.658 272,148.5C 263.823,97.7176 280.323,57.2176 321.5,27C 339.081,15.974 358.081,9.47402 378.5,7.5 Z M 375.5,22.5 C 427.514,20.7337 463.347,43.7337 483,91.5C 496.792,142.049 482.292,182.216 439.5,212C 408.025,229.403 375.692,231.07 342.5,217C 310.232,200.053 291.065,173.553 285,137.5C 281.764,87.4504 302.597,51.6171 347.5,30C 356.716,26.5318 366.049,24.0318 375.5,22.5 Z M 405.5,98.5 C 414.254,91.6104 423.254,84.9438 432.5,78.5C 433.833,80.5 433.833,82.5 432.5,84.5C 423.604,89.4476 414.604,94.1143 405.5,98.5 Z M 455.5,86.5 C 456.477,89.2869 456.81,92.2869 456.5,95.5C 442.45,100.129 428.45,104.629 414.5,109C 428.229,101.472 441.895,93.9719 455.5,86.5 Z M 353.5,117.5 C 357.677,116.842 359.177,118.508 358,122.5C 356.333,125.167 354.667,125.167 353,122.5C 352.36,120.735 352.527,119.068 353.5,117.5 Z M 380.5,136.5 C 395.342,146.092 409.676,156.425 423.5,167.5C 416.055,173.101 408.389,173.601 400.5,169C 396.952,163.406 393.785,157.573 391,151.5C 387.49,146.471 383.99,141.471 380.5,136.5 Z"/></g>
<g><path style="opacity:0.927" fill="#000000" d="M 245.5,15.5 C 262.325,13.8287 271.991,21.3287 274.5,38C 273.763,45.3073 270.763,51.474 265.5,56.5C 267.817,59.3174 270.317,61.9841 273,64.5C 273.615,74.4035 269.448,77.2369 260.5,73C 257.651,69.9838 254.651,67.1504 251.5,64.5C 244.628,70.1916 238.795,76.5249 234,83.5C 241.333,90.8333 248.667,98.1667 256,105.5C 258.869,109.258 259.202,113.258 257,117.5C 248.985,125.348 241.152,133.348 233.5,141.5C 239.485,147.986 245.652,154.319 252,160.5C 255.958,155.564 260.291,155.231 265,159.5C 266.721,163.72 265.887,167.553 262.5,171C 288.333,196.833 314.167,222.667 340,248.5C 343.79,244.146 348.123,243.479 353,246.5C 355.587,251.413 354.753,255.58 350.5,259C 356.5,265 362.5,271 368.5,277C 369.167,277.667 369.833,277.667 370.5,277C 379.167,268.333 387.833,259.667 396.5,251C 404.456,247.299 408.623,249.799 409,258.5C 415.167,264.667 421.333,270.833 427.5,277C 434.475,272.205 440.808,266.372 446.5,259.5C 443.516,256.015 440.349,252.682 437,249.5C 434.339,240.828 437.506,236.995 446.5,238C 449.016,240.683 451.683,243.183 454.5,245.5C 467.373,233.27 479.873,233.604 492,246.5C 498.736,260.612 495.569,271.779 482.5,280C 477.254,281.506 471.921,281.839 466.5,281C 461.859,278.853 457.526,276.519 453.5,274C 391,336.5 328.5,399 266,461.5C 266.72,464.265 268.387,466.599 271,468.5C 277.668,483.348 273.834,494.514 259.5,502C 238.13,505.298 228.296,496.131 230,474.5C 231.686,469.568 234.019,465.235 237,461.5C 174.5,399 112,336.5 49.5,274C 45.7649,276.981 41.4316,279.314 36.5,281C 14.9211,282.754 5.75443,272.921 9,251.5C 14.8419,239.329 24.3419,234.829 37.5,238C 41.4985,239.337 44.8318,241.67 47.5,245C 48.1667,245.667 48.8333,245.667 49.5,245C 112.5,182 175.5,119 238.5,56C 234.338,53.1883 231.505,49.355 230,44.5C 227.34,30.4799 232.506,20.8132 245.5,15.5 Z M 248.5,30.5 C 254.755,29.2607 258.422,31.7607 259.5,38C 258.933,42.7338 256.266,45.2338 251.5,45.5C 244.545,44.1528 242.379,40.1528 245,33.5C 246.145,32.3636 247.312,31.3636 248.5,30.5 Z M 221.5,93.5 C 228.577,99.0713 235.244,105.238 241.5,112C 235.319,118.348 228.986,124.515 222.5,130.5C 216.014,124.515 209.681,118.348 203.5,112C 209.703,105.965 215.703,99.7981 221.5,93.5 Z M 192.5,122.5 C 199.146,128.479 205.479,134.812 211.5,141.5C 205.515,147.986 199.348,154.319 193,160.5C 186.652,154.319 180.485,147.986 174.5,141.5C 180.522,135.146 186.522,128.813 192.5,122.5 Z M 162.5,152.5 C 169.577,158.071 176.244,164.238 182.5,171C 176.319,177.348 169.986,183.515 163.5,189.5C 157.014,183.515 150.681,177.348 144.5,171C 150.703,164.965 156.703,158.798 162.5,152.5 Z M 221.5,152.5 C 228.577,158.071 235.244,164.238 241.5,171C 235.319,177.348 228.986,183.515 222.5,189.5C 216.014,183.515 209.681,177.348 203.5,171C 209.703,164.965 215.703,158.798 221.5,152.5 Z M 133.5,181.5 C 140.146,187.479 146.479,193.812 152.5,200.5C 146.515,206.986 140.348,213.319 134,219.5C 127.652,213.319 121.485,206.986 115.5,200.5C 121.522,194.146 127.522,187.813 133.5,181.5 Z M 192.5,181.5 C 199.146,187.479 205.479,193.812 211.5,200.5C 205.515,206.986 199.348,213.319 193,219.5C 186.652,213.319 180.485,206.986 174.5,200.5C 180.522,194.146 186.522,187.813 192.5,181.5 Z M 251.5,181.5 C 258.146,187.479 264.479,193.812 270.5,200.5C 264.515,206.986 258.348,213.319 252,219.5C 245.652,213.319 239.485,206.986 233.5,200.5C 239.522,194.146 245.522,187.813 251.5,181.5 Z M 103.5,211.5 C 110.577,217.071 117.244,223.238 123.5,230C 117.319,236.348 110.986,242.515 104.5,248.5C 98.0145,242.515 91.6811,236.348 85.5,230C 91.7028,223.965 97.7028,217.798 103.5,211.5 Z M 162.5,211.5 C 169.577,217.071 176.244,223.238 182.5,230C 176.319,236.348 169.986,242.515 163.5,248.5C 157.014,242.515 150.681,236.348 144.5,230C 150.703,223.965 156.703,217.798 162.5,211.5 Z M 221.5,211.5 C 228.577,217.071 235.244,223.238 241.5,230C 235.319,236.348 228.986,242.515 222.5,248.5C 216.014,242.515 209.681,236.348 203.5,230C 209.703,223.965 215.703,217.798 221.5,211.5 Z M 280.5,211.5 C 287.423,216.753 293.757,222.753 299.5,229.5C 293.515,235.986 287.348,242.319 281,248.5C 274.833,242.333 268.667,236.167 262.5,230C 268.703,223.965 274.703,217.798 280.5,211.5 Z M 74.5,240.5 C 81.1457,246.479 87.479,252.812 93.5,259.5C 87.5148,265.986 81.3481,272.319 75,278.5C 68.6519,272.319 62.4852,265.986 56.5,259.5C 62.5216,253.146 68.5216,246.813 74.5,240.5 Z M 133.5,240.5 C 140.146,246.479 146.479,252.812 152.5,259.5C 146.515,265.986 140.348,272.319 134,278.5C 127.652,272.319 121.485,265.986 115.5,259.5C 121.522,253.146 127.522,246.813 133.5,240.5 Z M 192.5,240.5 C 199.146,246.479 205.479,252.812 211.5,259.5C 205.515,265.986 199.348,272.319 193,278.5C 186.652,272.319 180.485,265.986 174.5,259.5C 180.522,253.146 186.522,246.813 192.5,240.5 Z M 251.5,240.5 C 257.965,246.464 264.298,252.631 270.5,259C 264.319,265.348 257.986,271.515 251.5,277.5C 245.167,271.833 239.167,265.833 233.5,259.5C 239.522,253.146 245.522,246.813 251.5,240.5 Z M 309.5,240.5 C 316.577,246.071 323.244,252.238 329.5,259C 323.319,265.348 316.986,271.515 310.5,277.5C 304.014,271.515 297.681,265.348 291.5,259C 297.703,252.965 303.703,246.798 309.5,240.5 Z M 27.5,251.5 C 35.859,251.671 39.0256,255.671 37,263.5C 31.9791,268.917 27.3125,268.584 23,262.5C 21.7758,257.626 23.2758,253.959 27.5,251.5 Z M 470.5,251.5 C 479.61,251.772 482.443,256.105 479,264.5C 475,268.5 471,268.5 467,264.5C 464.348,259.039 465.514,254.706 470.5,251.5 Z M 280.5,269.5 C 287.146,275.479 293.479,281.812 299.5,288.5C 293.515,294.986 287.348,301.319 281,307.5C 274.652,301.319 268.485,294.986 262.5,288.5C 268.522,282.146 274.522,275.813 280.5,269.5 Z M 339.5,269.5 C 346.146,275.479 352.479,281.812 358.5,288.5C 352.515,294.986 346.348,301.319 340,307.5C 333.652,301.319 327.485,294.986 321.5,288.5C 327.522,282.146 333.522,275.813 339.5,269.5 Z M 398.5,269.5 C 405.146,275.479 411.479,281.812 417.5,288.5C 411.515,294.986 405.348,301.319 399,307.5C 392.652,301.319 386.485,294.986 380.5,288.5C 386.522,282.146 392.522,275.813 398.5,269.5 Z M 103.5,270.5 C 110.577,276.071 117.244,282.238 123.5,289C 117.319,295.348 110.986,301.515 104.5,307.5C 98.0145,301.515 91.6811,295.348 85.5,289C 91.7028,282.965 97.7028,276.798 103.5,270.5 Z M 162.5,270.5 C 169.577,276.071 176.244,282.238 182.5,289C 176.319,295.348 169.986,301.515 163.5,307.5C 157.014,301.515 150.681,295.348 144.5,289C 150.703,282.965 156.703,276.798 162.5,270.5 Z M 221.5,270.5 C 228.423,275.753 234.757,281.753 240.5,288.5C 234.515,294.986 228.348,301.319 222,307.5C 215.833,301.333 209.667,295.167 203.5,289C 209.703,282.965 215.703,276.798 221.5,270.5 Z M 133.5,299.5 C 140.146,305.479 146.479,311.812 152.5,318.5C 146.515,324.986 140.348,331.319 134,337.5C 127.652,331.319 121.485,324.986 115.5,318.5C 121.522,312.146 127.522,305.813 133.5,299.5 Z M 192.5,299.5 C 198.965,305.464 205.298,311.631 211.5,318C 205.319,324.348 198.986,330.515 192.5,336.5C 186.167,330.833 180.167,324.833 174.5,318.5C 180.522,312.146 186.522,305.813 192.5,299.5 Z M 250.5,299.5 C 257.577,305.071 264.244,311.238 270.5,318C 264.319,324.348 257.986,330.515 251.5,336.5C 245.014,330.515 238.681,324.348 232.5,318C 238.703,311.965 244.703,305.798 250.5,299.5 Z M 309.5,299.5 C 316.577,305.071 323.244,311.238 329.5,318C 323.319,324.348 316.986,330.515 310.5,336.5C 304.014,330.515 297.681,324.348 291.5,318C 297.703,311.965 303.703,305.798 309.5,299.5 Z M 368.5,299.5 C 375.577,305.071 382.244,311.238 388.5,318C 382.319,324.348 375.986,330.515 369.5,336.5C 363.014,330.515 356.681,324.348 350.5,318C 356.703,311.965 362.703,305.798 368.5,299.5 Z M 280.5,328.5 C 287.146,334.479 293.479,340.812 299.5,347.5C 293.515,353.986 287.348,360.319 281,366.5C 274.652,360.319 268.485,353.986 262.5,347.5C 268.522,341.146 274.522,334.813 280.5,328.5 Z M 339.5,328.5 C 346.146,334.479 352.479,340.812 358.5,347.5C 352.515,353.986 346.348,360.319 340,366.5C 333.652,360.319 327.485,353.986 321.5,347.5C 327.522,341.146 333.522,334.813 339.5,328.5 Z M 162.5,329.5 C 169.423,334.753 175.757,340.753 181.5,347.5C 175.515,353.986 169.348,360.319 163,366.5C 156.833,360.333 150.667,354.167 144.5,348C 150.703,341.965 156.703,335.798 162.5,329.5 Z M 221.5,329.5 C 228.423,334.753 234.757,340.753 240.5,347.5C 234.515,353.986 228.348,360.319 222,366.5C 215.833,360.333 209.667,354.167 203.5,348C 209.703,341.965 215.703,335.798 221.5,329.5 Z M 192.5,358.5 C 198.965,364.464 205.298,370.631 211.5,377C 205.319,383.348 198.986,389.515 192.5,395.5C 186.167,389.833 180.167,383.833 174.5,377.5C 180.522,371.146 186.522,364.813 192.5,358.5 Z M 250.5,358.5 C 257.577,364.071 264.244,370.238 270.5,377C 264.319,383.348 257.986,389.515 251.5,395.5C 245.014,389.515 238.681,383.348 232.5,377C 238.703,370.965 244.703,364.798 250.5,358.5 Z M 309.5,358.5 C 316.577,364.071 323.244,370.238 329.5,377C 323.319,383.348 316.986,389.515 310.5,395.5C 304.014,389.515 297.681,383.348 291.5,377C 297.703,370.965 303.703,364.798 309.5,358.5 Z M 221.5,387.5 C 228.146,393.479 234.479,399.812 240.5,406.5C 234.515,412.986 228.348,419.319 222,425.5C 215.652,419.319 209.485,412.986 203.5,406.5C 209.522,400.146 215.522,393.813 221.5,387.5 Z M 280.5,387.5 C 287.146,393.479 293.479,399.812 299.5,406.5C 293.515,412.986 287.348,419.319 281,425.5C 274.652,419.319 268.485,412.986 262.5,406.5C 268.522,400.146 274.522,393.813 280.5,387.5 Z M 250.5,417.5 C 257.577,423.071 264.244,429.238 270.5,436C 264.319,442.348 257.986,448.515 251.5,454.5C 245.014,448.515 238.681,442.348 232.5,436C 238.703,429.965 244.703,423.798 250.5,417.5 Z M 250.5,472.5 C 259.332,474.652 261.332,479.486 256.5,487C 246.562,490.06 242.728,486.56 245,476.5C 246.5,474.531 248.333,473.198 250.5,472.5 Z"/></g>
<g><path style="opacity:0.918" fill="#000000" d="M 348.5,147.5 C 342.565,150.136 336.898,153.302 331.5,157C 329.967,161.705 328.8,166.538 328,171.5C 324.333,175.5 320.667,175.5 317,171.5C 316.443,164.398 317.109,157.398 319,150.5C 327.414,144.709 335.914,139.043 344.5,133.5C 343.605,131.693 342.272,130.36 340.5,129.5C 328.281,132.645 315.948,134.812 303.5,136C 299.968,132.61 299.634,128.943 302.5,125C 314.438,122.079 326.438,119.412 338.5,117C 345.501,104 355.168,101.5 367.5,109.5C 390.307,93.1934 412.973,76.6934 435.5,60C 439.094,57.7527 442.261,58.2527 445,61.5C 446.174,66.7504 446.841,72.0838 447,77.5C 451.811,74.1776 456.978,71.5109 462.5,69.5C 464.697,69.8481 466.53,70.8481 468,72.5C 468.667,82.5 468.667,92.5 468,102.5C 467.692,103.308 467.192,103.975 466.5,104.5C 442.833,113 419.167,121.5 395.5,130C 410.067,141.2 424.901,152.033 440,162.5C 442,165.5 442,168.5 440,171.5C 428.537,182.656 415.037,186.489 399.5,183C 394.822,181.324 390.989,178.491 388,174.5C 384.508,166.847 380.508,159.513 376,152.5C 374.749,158.762 373.249,164.929 371.5,171C 374.997,178.144 376.83,185.644 377,193.5C 372.203,197.802 368.203,197.136 365,191.5C 362.824,184.973 360.658,178.473 358.5,172C 360.39,165.611 361.557,159.111 362,152.5C 358.333,156.833 354.667,161.167 351,165.5C 350.934,173.271 350.267,180.938 349,188.5C 344.585,191.55 340.918,190.883 338,186.5C 337.333,178.5 337.333,170.5 338,162.5C 341.745,157.602 345.245,152.602 348.5,147.5 Z M 405.5,98.5 C 414.604,94.1143 423.604,89.4476 432.5,84.5C 433.833,82.5 433.833,80.5 432.5,78.5C 423.254,84.9438 414.254,91.6104 405.5,98.5 Z M 455.5,86.5 C 441.895,93.9719 428.229,101.472 414.5,109C 428.45,104.629 442.45,100.129 456.5,95.5C 456.81,92.2869 456.477,89.2869 455.5,86.5 Z M 353.5,117.5 C 352.527,119.068 352.36,120.735 353,122.5C 354.667,125.167 356.333,125.167 358,122.5C 359.177,118.508 357.677,116.842 353.5,117.5 Z M 380.5,136.5 C 383.99,141.471 387.49,146.471 391,151.5C 393.785,157.573 396.952,163.406 400.5,169C 408.389,173.601 416.055,173.101 423.5,167.5C 409.676,156.425 395.342,146.092 380.5,136.5 Z"/></g>
</svg>
