<?xml version="1.0" encoding="UTF-8"?>
<!DOCTYPE svg PUBLIC "-//W3C//DTD SVG 1.1//EN" "http://www.w3.org/Graphics/SVG/1.1/DTD/svg11.dtd">
<svg xmlns="http://www.w3.org/2000/svg" version="1.1" width="512px" height="512px" style="shape-rendering:geometricPrecision; text-rendering:geometricPrecision; image-rendering:optimizeQuality; fill-rule:evenodd; clip-rule:evenodd" xmlns:xlink="http://www.w3.org/1999/xlink">
<g><path style="opacity:0.996" fill="#000000" d="M 80.5,15.5 C 198.223,15.0058 315.89,15.5058 433.5,17C 440.149,20.3141 444.649,25.4808 447,32.5C 447.5,74.832 447.667,117.165 447.5,159.5C 442.167,159.5 436.833,159.5 431.5,159.5C 431.5,148.833 431.5,138.167 431.5,127.5C 314.167,127.5 196.833,127.5 79.5,127.5C 79.5,135.5 79.5,143.5 79.5,151.5C 74.1667,151.5 68.8333,151.5 63.5,151.5C 63.3333,111.832 63.5,72.1653 64,32.5C 67.0191,24.3156 72.5191,18.649 80.5,15.5 Z M 87.5,31.5 C 199.5,31.3333 311.5,31.5 423.5,32C 428,32.5 430.5,35 431,39.5C 431.5,63.4977 431.667,87.4977 431.5,111.5C 314.167,111.5 196.833,111.5 79.5,111.5C 79.3334,87.4977 79.5,63.4977 80,39.5C 80.6804,34.9895 83.1804,32.3228 87.5,31.5 Z M 183.5,63.5 C 220.833,63.5 258.167,63.5 295.5,63.5C 295.5,68.8333 295.5,74.1667 295.5,79.5C 258.167,79.5 220.833,79.5 183.5,79.5C 183.5,74.1667 183.5,68.8333 183.5,63.5 Z M 124.5,64.5 C 133.85,64.3654 136.517,68.532 132.5,77C 123.956,80.3224 120.123,77.4891 121,68.5C 121.69,66.6498 122.856,65.3164 124.5,64.5 Z"/></g>
<g><path style="opacity:0.932" fill="#000000" d="M 120.5,47.5 C 135.367,45.0115 145.534,50.6782 151,64.5C 153.982,79.3761 148.482,89.5428 134.5,95C 119.624,97.9816 109.457,92.4816 104,78.5C 101.146,63.5328 106.646,53.1994 120.5,47.5 Z M 124.5,64.5 C 122.856,65.3164 121.69,66.6498 121,68.5C 120.123,77.4891 123.956,80.3224 132.5,77C 136.517,68.532 133.85,64.3654 124.5,64.5 Z"/></g>
<g><path style="opacity:0.995" fill="#000000" d="M 171.5,47.5 C 216.835,47.3333 262.168,47.5 307.5,48C 309.333,48.5 310.5,49.6667 311,51.5C 311.667,64.8333 311.667,78.1667 311,91.5C 310.5,93.3333 309.333,94.5 307.5,95C 262.167,95.6667 216.833,95.6667 171.5,95C 169.667,94.5 168.5,93.3333 168,91.5C 167.333,78.1667 167.333,64.8333 168,51.5C 168.69,49.6498 169.856,48.3164 171.5,47.5 Z M 183.5,63.5 C 183.5,68.8333 183.5,74.1667 183.5,79.5C 220.833,79.5 258.167,79.5 295.5,79.5C 295.5,74.1667 295.5,68.8333 295.5,63.5C 258.167,63.5 220.833,63.5 183.5,63.5 Z"/></g>
<g><path style="opacity:1" fill="#000000" d="M 327.5,63.5 C 338.167,63.5 348.833,63.5 359.5,63.5C 359.5,68.8333 359.5,74.1667 359.5,79.5C 348.833,79.5 338.167,79.5 327.5,79.5C 327.5,74.1667 327.5,68.8333 327.5,63.5 Z"/></g>
<g><path style="opacity:1" fill="#000000" d="M 375.5,63.5 C 386.167,63.5 396.833,63.5 407.5,63.5C 407.5,68.8333 407.5,74.1667 407.5,79.5C 396.833,79.5 386.167,79.5 375.5,79.5C 375.5,74.1667 375.5,68.8333 375.5,63.5 Z"/></g>
<g><path style="opacity:0.973" fill="#000000" d="M 239.5,143.5 C 289.947,139.65 330.447,157.65 361,197.5C 379.142,224.734 386.642,254.734 383.5,287.5C 419.502,287.333 455.502,287.5 491.5,288C 492.416,288.374 493.25,288.874 494,289.5C 495.66,356.751 495.993,424.085 495,491.5C 494.5,493.333 493.333,494.5 491.5,495C 353.444,495.995 215.444,495.662 77.5,494C 70.8513,490.686 66.3513,485.519 64,478.5C 63.5,417.501 63.3333,356.501 63.5,295.5C 68.8333,295.5 74.1667,295.5 79.5,295.5C 79.3333,354.168 79.5,412.834 80,471.5C 80.5,476 83,478.5 87.5,479C 153.833,479.667 220.167,479.667 286.5,479C 279.913,469.144 277.746,458.311 280,446.5C 282.437,437.626 286.937,429.959 293.5,423.5C 285.919,416.406 281.086,407.739 279,397.5C 230.484,405.218 189.817,390.885 157,354.5C 125.748,313.977 119.081,269.643 137,221.5C 157.343,177.254 191.51,151.254 239.5,143.5 Z M 241.5,160.5 C 289.377,157.189 326.21,175.522 352,215.5C 364.71,237.83 369.21,261.663 365.5,287C 357.841,287.5 350.174,287.666 342.5,287.5C 347.852,242.695 330.519,210.195 290.5,190C 279.319,185.248 267.652,183.081 255.5,183.5C 255.193,189.093 255.527,194.593 256.5,200C 292.132,202.73 314.966,221.23 325,255.5C 326.803,266.142 326.97,276.808 325.5,287.5C 302.032,285.821 286.865,296.154 280,318.5C 277.017,334.716 281.517,348.382 293.5,359.5C 287.661,365.177 283.327,371.843 280.5,379.5C 229.988,389.055 190.155,372.722 161,330.5C 141.684,296.688 139.35,261.688 154,225.5C 172.234,189.097 201.401,167.431 241.5,160.5 Z M 214.5,299.5 C 218.767,303.428 223.1,307.428 227.5,311.5C 223.167,315.167 219.167,319.167 215.5,323.5C 211.833,319.167 207.833,315.167 203.5,311.5C 207.92,308.085 211.586,304.085 214.5,299.5 Z M 319.5,303.5 C 372.833,303.5 426.167,303.5 479.5,303.5C 479.5,308.833 479.5,314.167 479.5,319.5C 423.5,319.5 367.5,319.5 311.5,319.5C 311.5,324.833 311.5,330.167 311.5,335.5C 367.5,335.5 423.5,335.5 479.5,335.5C 479.5,340.833 479.5,346.167 479.5,351.5C 424.134,351.975 368.801,351.475 313.5,350C 297.005,342.858 292.505,331.024 300,314.5C 305.052,308.063 311.552,304.396 319.5,303.5 Z M 319.5,367.5 C 372.833,367.5 426.167,367.5 479.5,367.5C 479.5,372.833 479.5,378.167 479.5,383.5C 423.5,383.5 367.5,383.5 311.5,383.5C 311.5,388.833 311.5,394.167 311.5,399.5C 367.5,399.5 423.5,399.5 479.5,399.5C 479.5,404.833 479.5,410.167 479.5,415.5C 424.134,415.975 368.801,415.475 313.5,414C 296.991,406.814 292.491,394.98 300,378.5C 305.068,372.055 311.568,368.388 319.5,367.5 Z M 135.5,415.5 C 146.172,415.333 156.839,415.5 167.5,416C 181.344,419.187 185.51,427.354 180,440.5C 176.736,444.382 172.57,446.549 167.5,447C 156.833,447.667 146.167,447.667 135.5,447C 123.657,445.153 118.824,438.32 121,426.5C 123.821,420.023 128.655,416.356 135.5,415.5 Z M 319.5,431.5 C 372.833,431.5 426.167,431.5 479.5,431.5C 479.5,436.833 479.5,442.167 479.5,447.5C 423.5,447.5 367.5,447.5 311.5,447.5C 311.5,452.833 311.5,458.167 311.5,463.5C 367.5,463.5 423.5,463.5 479.5,463.5C 479.5,468.833 479.5,474.167 479.5,479.5C 424.134,479.975 368.801,479.475 313.5,478C 297.005,470.858 292.505,459.024 300,442.5C 305.052,436.063 311.552,432.396 319.5,431.5 Z"/></g>
<g><path style="opacity:0.934" fill="#000000" d="M 67.5,167.5 C 71.2568,167.071 74.7568,167.737 78,169.5C 80.5,198.667 96.3333,214.5 125.5,217C 128.167,221.333 128.167,225.667 125.5,230C 96.3333,232.5 80.5,248.333 78,277.5C 73.6667,280.167 69.3333,280.167 65,277.5C 62.5,248.333 46.6667,232.5 17.5,230C 14.8333,225.667 14.8333,221.333 17.5,217C 45.9086,214.924 61.4086,199.757 64,171.5C 64.6897,169.65 65.8564,168.316 67.5,167.5 Z M 70.5,206.5 C 73.4218,208.594 75.9218,211.261 78,214.5C 81.6724,217.342 85.1724,220.342 88.5,223.5C 86.0029,225.826 83.3362,227.993 80.5,230C 77.6579,233.672 74.6579,237.172 71.5,240.5C 69.1741,238.003 67.0074,235.336 65,232.5C 61.3276,229.658 57.8276,226.658 54.5,223.5C 57.4952,220.675 60.6619,218.008 64,215.5C 66.3852,212.621 68.5518,209.621 70.5,206.5 Z"/></g>
<g><path style="opacity:0.936" fill="#000000" d="M 435.5,175.5 C 439.257,175.071 442.757,175.737 446,177.5C 447.793,183.041 449.126,188.708 450,194.5C 453.5,203.333 459.667,209.5 468.5,213C 474.292,213.874 479.959,215.207 485.5,217C 488.167,221.333 488.167,225.667 485.5,230C 479.959,231.793 474.292,233.126 468.5,234C 459.667,237.5 453.5,243.667 450,252.5C 449.126,258.292 447.793,263.959 446,269.5C 441.667,272.167 437.333,272.167 433,269.5C 431.207,263.959 429.874,258.292 429,252.5C 425.5,243.667 419.333,237.5 410.5,234C 404.708,233.126 399.041,231.793 393.5,230C 390.833,225.667 390.833,221.333 393.5,217C 399.041,215.207 404.708,213.874 410.5,213C 424.555,206.418 431.722,195.251 432,179.5C 432.69,177.65 433.856,176.316 435.5,175.5 Z M 438.5,211.5 C 442.767,215.428 447.1,219.428 451.5,223.5C 447.167,227.167 443.167,231.167 439.5,235.5C 435.833,231.167 431.833,227.167 427.5,223.5C 431.92,220.085 435.586,216.085 438.5,211.5 Z"/></g>
<g><path style="opacity:0.869" fill="#000000" d="M 236.5,184.5 C 237.931,184.881 238.764,185.881 239,187.5C 240.029,192.144 240.862,196.81 241.5,201.5C 236.793,202.624 232.127,203.957 227.5,205.5C 226.833,205.167 226.167,204.833 225.5,204.5C 223.629,199.926 221.629,195.426 219.5,191C 224.981,188.121 230.648,185.954 236.5,184.5 Z"/></g>
<g><path style="opacity:0.936" fill="#000000" d="M 211.5,263.5 C 215.257,263.071 218.757,263.737 222,265.5C 223.793,271.041 225.126,276.708 226,282.5C 229.5,291.333 235.667,297.5 244.5,301C 250.292,301.874 255.959,303.207 261.5,305C 264.167,309.333 264.167,313.667 261.5,318C 255.959,319.793 250.292,321.126 244.5,322C 235.667,325.5 229.5,331.667 226,340.5C 225.126,346.292 223.793,351.959 222,357.5C 217.667,360.167 213.333,360.167 209,357.5C 207.207,351.959 205.874,346.292 205,340.5C 201.5,331.667 195.333,325.5 186.5,322C 180.708,321.126 175.041,319.793 169.5,318C 166.833,313.667 166.833,309.333 169.5,305C 175.041,303.207 180.708,301.874 186.5,301C 200.555,294.418 207.722,283.251 208,267.5C 208.69,265.65 209.856,264.316 211.5,263.5 Z M 214.5,299.5 C 211.586,304.085 207.92,308.085 203.5,311.5C 207.833,315.167 211.833,319.167 215.5,323.5C 219.167,319.167 223.167,315.167 227.5,311.5C 223.1,307.428 218.767,303.428 214.5,299.5 Z"/></g>
<g><path style="opacity:0.95" fill="#000000" d="M 127.5,399.5 C 143.503,399.333 159.503,399.5 175.5,400C 185.31,402.646 192.477,408.48 197,417.5C 203.086,434.226 199.252,448.059 185.5,459C 182.326,460.725 178.993,462.058 175.5,463C 159.5,463.667 143.5,463.667 127.5,463C 108.562,456.645 100.728,443.478 104,423.5C 107.349,410.985 115.182,402.985 127.5,399.5 Z M 135.5,415.5 C 128.655,416.356 123.821,420.023 121,426.5C 118.824,438.32 123.657,445.153 135.5,447C 146.167,447.667 156.833,447.667 167.5,447C 172.57,446.549 176.736,444.382 180,440.5C 185.51,427.354 181.344,419.187 167.5,416C 156.839,415.5 146.172,415.333 135.5,415.5 Z"/></g>
</svg>
