<?xml version="1.0" encoding="UTF-8"?>
<!DOCTYPE svg PUBLIC "-//W3C//DTD SVG 1.1//EN" "http://www.w3.org/Graphics/SVG/1.1/DTD/svg11.dtd">
<svg xmlns="http://www.w3.org/2000/svg" version="1.1" width="512px" height="512px" style="shape-rendering:geometricPrecision; text-rendering:geometricPrecision; image-rendering:optimizeQuality; fill-rule:evenodd; clip-rule:evenodd" xmlns:xlink="http://www.w3.org/1999/xlink">
<g><path style="opacity:0.926" fill="#000000" d="M 72.5,50.5 C 94.8358,50.3334 117.169,50.5 139.5,51C 140,51.5 140.5,52 141,52.5C 141.5,73.4974 141.667,94.4974 141.5,115.5C 150.833,115.5 160.167,115.5 169.5,115.5C 169.022,94.0752 169.522,72.7419 171,51.5C 182.426,50.8384 193.926,50.5051 205.5,50.5C 217.074,50.5051 228.574,50.8384 240,51.5C 241.478,72.7419 241.978,94.0752 241.5,115.5C 250.833,115.5 260.167,115.5 269.5,115.5C 269.022,94.0752 269.522,72.7419 271,51.5C 282.426,50.8384 293.926,50.5051 305.5,50.5C 317.074,50.5051 328.574,50.8384 340,51.5C 341.478,72.7419 341.978,94.0752 341.5,115.5C 350.833,115.5 360.167,115.5 369.5,115.5C 369.333,94.4974 369.5,73.4974 370,52.5C 370.5,52 371,51.5 371.5,51C 393.833,50.3333 416.167,50.3333 438.5,51C 439.308,51.3076 439.975,51.8076 440.5,52.5C 441.488,73.4541 441.822,94.4541 441.5,115.5C 446.511,115.334 451.511,115.501 456.5,116C 457.931,116.465 459.097,117.299 460,118.5C 460.667,140.833 460.667,163.167 460,185.5C 459.5,186 459,186.5 458.5,187C 452.843,187.499 447.176,187.666 441.5,187.5C 441.5,222.167 441.5,256.833 441.5,291.5C 446.844,291.334 452.177,291.501 457.5,292C 458.333,292.833 459.167,293.667 460,294.5C 460.667,316.833 460.667,339.167 460,361.5C 459.5,362 459,362.5 458.5,363C 452.843,363.499 447.176,363.666 441.5,363.5C 441.667,394.835 441.5,426.168 441,457.5C 440.5,458.667 439.667,459.5 438.5,460C 416.167,460.667 393.833,460.667 371.5,460C 371,459.5 370.5,459 370,458.5C 369.5,426.835 369.333,395.168 369.5,363.5C 360.167,363.5 350.833,363.5 341.5,363.5C 341.667,394.835 341.5,426.168 341,457.5C 340.626,458.416 340.126,459.25 339.5,460C 316.833,460.667 294.167,460.667 271.5,460C 270.874,459.25 270.374,458.416 270,457.5C 269.5,426.168 269.333,394.835 269.5,363.5C 260.167,363.5 250.833,363.5 241.5,363.5C 241.667,394.835 241.5,426.168 241,457.5C 240.626,458.416 240.126,459.25 239.5,460C 216.833,460.667 194.167,460.667 171.5,460C 170.874,459.25 170.374,458.416 170,457.5C 169.5,426.168 169.333,394.835 169.5,363.5C 160.167,363.5 150.833,363.5 141.5,363.5C 141.667,395.168 141.5,426.835 141,458.5C 140.5,459 140,459.5 139.5,460C 117.167,460.667 94.8333,460.667 72.5,460C 71.3333,459.5 70.5,458.667 70,457.5C 69.5,426.168 69.3334,394.835 69.5,363.5C 63.8236,363.666 58.1569,363.499 52.5,363C 52,362.5 51.5,362 51,361.5C 50.3333,339.167 50.3333,316.833 51,294.5C 51.8333,293.667 52.6667,292.833 53.5,292C 58.8229,291.501 64.1563,291.334 69.5,291.5C 69.5,256.833 69.5,222.167 69.5,187.5C 63.8236,187.666 58.1569,187.499 52.5,187C 52,186.5 51.5,186 51,185.5C 50.3333,163.167 50.3333,140.833 51,118.5C 51.9025,117.299 53.0692,116.465 54.5,116C 59.4889,115.501 64.4889,115.334 69.5,115.5C 69.3334,94.8306 69.5,74.164 70,53.5C 70.6979,52.3094 71.5313,51.3094 72.5,50.5 Z M 80.5,61.5 C 97.1667,61.5 113.833,61.5 130.5,61.5C 130.5,79.5 130.5,97.5 130.5,115.5C 113.833,115.5 97.1667,115.5 80.5,115.5C 80.5,97.5 80.5,79.5 80.5,61.5 Z M 180.5,61.5 C 197.167,61.5 213.833,61.5 230.5,61.5C 230.5,79.5 230.5,97.5 230.5,115.5C 213.833,115.5 197.167,115.5 180.5,115.5C 180.5,97.5 180.5,79.5 180.5,61.5 Z M 280.5,61.5 C 297.167,61.5 313.833,61.5 330.5,61.5C 330.5,79.5 330.5,97.5 330.5,115.5C 313.833,115.5 297.167,115.5 280.5,115.5C 280.5,97.5 280.5,79.5 280.5,61.5 Z M 380.5,61.5 C 397.167,61.5 413.833,61.5 430.5,61.5C 430.5,79.5 430.5,97.5 430.5,115.5C 413.833,115.5 397.167,115.5 380.5,115.5C 380.5,97.5 380.5,79.5 380.5,61.5 Z M 61.5,127.5 C 190.833,127.5 320.167,127.5 449.5,127.5C 449.5,143.833 449.5,160.167 449.5,176.5C 320.167,176.5 190.833,176.5 61.5,176.5C 61.5,160.167 61.5,143.833 61.5,127.5 Z M 80.5,187.5 C 97.1667,187.5 113.833,187.5 130.5,187.5C 130.5,222.167 130.5,256.833 130.5,291.5C 113.833,291.5 97.1667,291.5 80.5,291.5C 80.5,256.833 80.5,222.167 80.5,187.5 Z M 141.5,187.5 C 150.833,187.5 160.167,187.5 169.5,187.5C 169.5,222.167 169.5,256.833 169.5,291.5C 160.167,291.5 150.833,291.5 141.5,291.5C 141.5,256.833 141.5,222.167 141.5,187.5 Z M 180.5,187.5 C 197.167,187.5 213.833,187.5 230.5,187.5C 230.5,222.167 230.5,256.833 230.5,291.5C 213.833,291.5 197.167,291.5 180.5,291.5C 180.5,256.833 180.5,222.167 180.5,187.5 Z M 241.5,187.5 C 250.833,187.5 260.167,187.5 269.5,187.5C 269.5,222.167 269.5,256.833 269.5,291.5C 260.167,291.5 250.833,291.5 241.5,291.5C 241.5,256.833 241.5,222.167 241.5,187.5 Z M 280.5,187.5 C 297.167,187.5 313.833,187.5 330.5,187.5C 330.5,222.167 330.5,256.833 330.5,291.5C 313.833,291.5 297.167,291.5 280.5,291.5C 280.5,256.833 280.5,222.167 280.5,187.5 Z M 341.5,187.5 C 350.833,187.5 360.167,187.5 369.5,187.5C 369.5,222.167 369.5,256.833 369.5,291.5C 360.167,291.5 350.833,291.5 341.5,291.5C 341.5,256.833 341.5,222.167 341.5,187.5 Z M 380.5,187.5 C 397.167,187.5 413.833,187.5 430.5,187.5C 430.5,222.167 430.5,256.833 430.5,291.5C 413.833,291.5 397.167,291.5 380.5,291.5C 380.5,256.833 380.5,222.167 380.5,187.5 Z M 61.5,302.5 C 190.833,302.5 320.167,302.5 449.5,302.5C 449.5,319.167 449.5,335.833 449.5,352.5C 320.167,352.5 190.833,352.5 61.5,352.5C 61.5,335.833 61.5,319.167 61.5,302.5 Z M 80.5,363.5 C 97.1667,363.5 113.833,363.5 130.5,363.5C 130.5,392.167 130.5,420.833 130.5,449.5C 113.833,449.5 97.1667,449.5 80.5,449.5C 80.5,420.833 80.5,392.167 80.5,363.5 Z M 180.5,363.5 C 197.167,363.5 213.833,363.5 230.5,363.5C 230.5,392.167 230.5,420.833 230.5,449.5C 213.833,449.5 197.167,449.5 180.5,449.5C 180.5,420.833 180.5,392.167 180.5,363.5 Z M 280.5,363.5 C 297.167,363.5 313.833,363.5 330.5,363.5C 330.5,392.167 330.5,420.833 330.5,449.5C 313.833,449.5 297.167,449.5 280.5,449.5C 280.5,420.833 280.5,392.167 280.5,363.5 Z M 380.5,363.5 C 397.167,363.5 413.833,363.5 430.5,363.5C 430.5,392.167 430.5,420.833 430.5,449.5C 413.833,449.5 397.167,449.5 380.5,449.5C 380.5,420.833 380.5,392.167 380.5,363.5 Z"/></g>
<g><path style="opacity:0.845" fill="#000000" d="M 102.5,141.5 C 104.857,141.337 107.19,141.503 109.5,142C 110.126,142.75 110.626,143.584 111,144.5C 111.667,149.5 111.667,154.5 111,159.5C 108.79,162.29 105.956,163.123 102.5,162C 101.107,160.829 100.273,159.329 100,157.5C 98.8345,151.753 99.6678,146.419 102.5,141.5 Z"/></g>
<g><path style="opacity:0.849" fill="#000000" d="M 202.5,141.5 C 204.527,141.338 206.527,141.505 208.5,142C 209.849,142.772 210.682,143.939 211,145.5C 211.667,149.833 211.667,154.167 211,158.5C 209.309,162.213 206.475,163.379 202.5,162C 201.299,161.097 200.465,159.931 200,158.5C 199.333,154.167 199.333,149.833 200,145.5C 200.662,144.016 201.496,142.683 202.5,141.5 Z"/></g>
<g><path style="opacity:0.846" fill="#000000" d="M 301.5,141.5 C 303.857,141.337 306.19,141.503 308.5,142C 309.701,142.903 310.535,144.069 311,145.5C 311.667,149.833 311.667,154.167 311,158.5C 309.309,162.213 306.475,163.379 302.5,162C 301.299,161.097 300.465,159.931 300,158.5C 299.052,152.65 299.552,146.983 301.5,141.5 Z"/></g>
<g><path style="opacity:0.845" fill="#000000" d="M 401.5,141.5 C 409.334,140.503 412.668,144.003 411.5,152C 411.862,155.796 410.862,159.129 408.5,162C 405.044,163.123 402.21,162.29 400,159.5C 398.979,153.29 399.479,147.29 401.5,141.5 Z"/></g>
<g><path style="opacity:0.835" fill="#000000" d="M 104.5,316.5 C 110.546,317.56 112.88,321.226 111.5,327.5C 111.565,330.625 111.065,333.625 110,336.5C 107,339.167 104,339.167 101,336.5C 99.5076,331.589 99.1743,326.589 100,321.5C 100.74,319.03 102.24,317.363 104.5,316.5 Z"/></g>
<g><path style="opacity:0.828" fill="#000000" d="M 204.5,316.5 C 210.546,317.56 212.88,321.226 211.5,327.5C 211.565,330.625 211.065,333.625 210,336.5C 207,339.167 204,339.167 201,336.5C 199.047,330.526 199.047,324.526 201,318.5C 202.302,317.915 203.469,317.249 204.5,316.5 Z"/></g>
<g><path style="opacity:0.828" fill="#000000" d="M 304.5,316.5 C 306.441,316.869 308.275,317.536 310,318.5C 311.953,324.526 311.953,330.526 310,336.5C 307,339.167 304,339.167 301,336.5C 299.437,331.282 299.104,325.949 300,320.5C 300.907,318.391 302.407,317.058 304.5,316.5 Z"/></g>
<g><path style="opacity:0.831" fill="#000000" d="M 403.5,316.5 C 407.255,316.337 409.755,318.003 411,321.5C 411.667,325.5 411.667,329.5 411,333.5C 409.923,338.115 407.09,339.615 402.5,338C 401.299,337.097 400.465,335.931 400,334.5C 399.333,329.833 399.333,325.167 400,320.5C 400.69,318.65 401.856,317.316 403.5,316.5 Z"/></g>
</svg>
