<?xml version="1.0" encoding="UTF-8"?>
<!DOCTYPE svg PUBLIC "-//W3C//DTD SVG 1.1//EN" "http://www.w3.org/Graphics/SVG/1.1/DTD/svg11.dtd">
<svg xmlns="http://www.w3.org/2000/svg" version="1.1" width="512px" height="512px" style="shape-rendering:geometricPrecision; text-rendering:geometricPrecision; image-rendering:optimizeQuality; fill-rule:evenodd; clip-rule:evenodd" xmlns:xlink="http://www.w3.org/1999/xlink">
<g><path style="opacity:0.955" fill="#000000" d="M 238.5,15.5 C 291.459,13.2873 344.126,16.1206 396.5,24C 414.358,26.7973 431.691,31.464 448.5,38C 457.14,41.6471 464.307,47.1471 470,54.5C 473.438,100.185 460.771,140.852 432,176.5C 413.785,198.347 391.951,215.514 366.5,228C 393.526,312.745 420.359,397.578 447,482.5C 447.667,485.5 447.667,488.5 447,491.5C 446.5,493.333 445.333,494.5 443.5,495C 430.167,495.667 416.833,495.667 403.5,495C 402.584,494.626 401.75,494.126 401,493.5C 380.6,430.398 360.434,367.232 340.5,304C 299.596,303.17 258.762,303.337 218,304.5C 209.932,330.203 201.766,355.87 193.5,381.5C 218.126,406.788 222.293,435.121 206,466.5C 185.259,494.188 158.426,502.355 125.5,491C 94.4149,474.659 82.2482,449.159 89,414.5C 98.5655,385.804 118.399,370.137 148.5,367.5C 162.781,320.873 177.448,274.373 192.5,228C 145.408,205.081 113.408,168.914 96.5,119.5C 85.495,119.667 74.495,119.5 63.5,119C 44.5615,112.645 36.7282,99.478 40,79.5C 43.1667,67 51,59.1667 63.5,56C 71.8333,55.6667 80.1667,55.3333 88.5,55C 94.3107,47.4206 101.644,41.754 110.5,38C 136.057,28.6838 162.39,22.6838 189.5,20C 205.972,18.3231 222.305,16.8231 238.5,15.5 Z M 238.5,32.5 C 239.492,39.9818 239.825,47.6484 239.5,55.5C 234.167,55.5 228.833,55.5 223.5,55.5C 223.5,48.1667 223.5,40.8333 223.5,33.5C 228.695,33.8205 233.695,33.4872 238.5,32.5 Z M 255.5,32.5 C 260.833,32.5 266.167,32.5 271.5,32.5C 271.5,40.1667 271.5,47.8333 271.5,55.5C 266.167,55.5 260.833,55.5 255.5,55.5C 255.5,47.8333 255.5,40.1667 255.5,32.5 Z M 287.5,32.5 C 292.833,32.5 298.167,32.5 303.5,32.5C 303.5,40.1667 303.5,47.8333 303.5,55.5C 298.167,55.5 292.833,55.5 287.5,55.5C 287.5,47.8333 287.5,40.1667 287.5,32.5 Z M 319.5,32.5 C 324.74,33.4491 330.073,33.7825 335.5,33.5C 335.5,40.8333 335.5,48.1667 335.5,55.5C 330.167,55.5 324.833,55.5 319.5,55.5C 319.5,47.8333 319.5,40.1667 319.5,32.5 Z M 200.5,35.5 C 202.833,35.5 205.167,35.5 207.5,35.5C 207.5,42.1667 207.5,48.8333 207.5,55.5C 202.167,55.5 196.833,55.5 191.5,55.5C 191.5,49.1667 191.5,42.8333 191.5,36.5C 194.713,36.81 197.713,36.4767 200.5,35.5 Z M 351.5,35.5 C 356.822,35.9801 362.155,36.3135 367.5,36.5C 367.5,42.8333 367.5,49.1667 367.5,55.5C 362.167,55.5 356.833,55.5 351.5,55.5C 351.5,48.8333 351.5,42.1667 351.5,35.5 Z M 170.5,39.5 C 172.167,39.5 173.833,39.5 175.5,39.5C 175.5,44.8333 175.5,50.1667 175.5,55.5C 170.167,55.5 164.833,55.5 159.5,55.5C 159.5,50.8333 159.5,46.1667 159.5,41.5C 163.387,41.3541 167.054,40.6874 170.5,39.5 Z M 383.5,39.5 C 388.833,40.1667 394.167,40.8333 399.5,41.5C 399.5,46.1667 399.5,50.8333 399.5,55.5C 394.167,55.5 388.833,55.5 383.5,55.5C 383.5,50.1667 383.5,44.8333 383.5,39.5 Z M 141.5,45.5 C 143.402,48.3373 144.069,51.6707 143.5,55.5C 134.161,55.6665 124.827,55.4998 115.5,55C 124.019,51.108 132.686,47.9414 141.5,45.5 Z M 415.5,45.5 C 425.197,47.5656 434.53,50.7323 443.5,55C 434.173,55.4998 424.839,55.6665 415.5,55.5C 415.5,52.1667 415.5,48.8333 415.5,45.5 Z M 71.5,71.5 C 76.8333,71.5 82.1667,71.5 87.5,71.5C 87.6044,82.0018 88.9377,92.3352 91.5,102.5C 83.1332,103.832 74.7999,103.665 66.5,102C 56.2773,96.7051 53.7773,88.8718 59,78.5C 62.4641,74.6898 66.6308,72.3564 71.5,71.5 Z M 115.5,72.5 C 124.652,71.5064 133.985,71.1731 143.5,71.5C 143.82,74.8984 143.487,78.2317 142.5,81.5C 133.277,79.0924 124.277,76.0924 115.5,72.5 Z M 159.5,71.5 C 164.833,71.5 170.167,71.5 175.5,71.5C 175.5,76.8333 175.5,82.1667 175.5,87.5C 170.167,86.8333 164.833,86.1667 159.5,85.5C 159.5,80.8333 159.5,76.1667 159.5,71.5 Z M 191.5,71.5 C 196.833,71.5 202.167,71.5 207.5,71.5C 207.5,78.1667 207.5,84.8333 207.5,91.5C 202.178,91.0199 196.845,90.6865 191.5,90.5C 191.5,84.1667 191.5,77.8333 191.5,71.5 Z M 223.5,71.5 C 228.833,71.5 234.167,71.5 239.5,71.5C 239.666,79.1739 239.5,86.8406 239,94.5C 233.928,93.5286 228.762,93.1953 223.5,93.5C 223.5,86.1667 223.5,78.8333 223.5,71.5 Z M 255.5,71.5 C 260.833,71.5 266.167,71.5 271.5,71.5C 271.5,79.1667 271.5,86.8333 271.5,94.5C 266.167,94.5 260.833,94.5 255.5,94.5C 255.5,86.8333 255.5,79.1667 255.5,71.5 Z M 287.5,71.5 C 292.833,71.5 298.167,71.5 303.5,71.5C 303.5,79.1667 303.5,86.8333 303.5,94.5C 298.167,94.5 292.833,94.5 287.5,94.5C 287.5,86.8333 287.5,79.1667 287.5,71.5 Z M 319.5,71.5 C 324.833,71.5 330.167,71.5 335.5,71.5C 335.5,78.8333 335.5,86.1667 335.5,93.5C 330.238,93.1953 325.072,93.5286 320,94.5C 319.5,86.8406 319.334,79.1739 319.5,71.5 Z M 351.5,71.5 C 356.833,71.5 362.167,71.5 367.5,71.5C 367.5,77.8333 367.5,84.1667 367.5,90.5C 362.155,90.6865 356.822,91.0199 351.5,91.5C 351.5,84.8333 351.5,78.1667 351.5,71.5 Z M 383.5,71.5 C 388.833,71.5 394.167,71.5 399.5,71.5C 399.5,76.1667 399.5,80.8333 399.5,85.5C 394.167,86.1667 388.833,86.8333 383.5,87.5C 383.5,82.1667 383.5,76.8333 383.5,71.5 Z M 415.5,71.5 C 424.839,71.3335 434.173,71.5002 443.5,72C 434.818,76.0609 425.818,79.2275 416.5,81.5C 415.513,78.2317 415.18,74.8984 415.5,71.5 Z M 105.5,86.5 C 127.563,95.9335 150.563,102.1 174.5,105C 242.124,113.274 309.79,113.608 377.5,106C 403.96,102.883 429.293,96.7162 453.5,87.5C 436.343,164.157 389.343,210.99 312.5,228C 257.545,236.928 208.211,224.262 164.5,190C 132.3,162.78 112.633,128.28 105.5,86.5 Z M 207.5,234.5 C 211.879,236.237 216.212,238.07 220.5,240C 217.662,247.682 215.328,255.515 213.5,263.5C 208.833,263.5 204.167,263.5 199.5,263.5C 202.167,253.833 204.833,244.167 207.5,234.5 Z M 350.5,234.5 C 354.074,243.896 357.074,253.562 359.5,263.5C 354.833,263.5 350.167,263.5 345.5,263.5C 343.672,255.515 341.338,247.682 338.5,240C 342.61,238.249 346.61,236.415 350.5,234.5 Z M 237.5,243.5 C 265.167,248.817 292.833,248.817 320.5,243.5C 321.086,243.709 321.586,244.043 322,244.5C 326.401,258.536 330.901,272.536 335.5,286.5C 298.167,287.833 260.833,287.833 223.5,286.5C 228.176,272.139 232.843,257.805 237.5,243.5 Z M 193.5,279.5 C 198.167,279.5 202.833,279.5 207.5,279.5C 198.441,309.179 189.274,338.845 180,368.5C 179.804,370.286 178.971,371.619 177.5,372.5C 174.344,370.837 171.011,369.67 167.5,369C 166.978,368.439 166.645,367.772 166.5,367C 175.608,337.845 184.608,308.679 193.5,279.5 Z M 351.5,279.5 C 356.167,279.5 360.833,279.5 365.5,279.5C 381.167,330.167 396.833,380.833 412.5,431.5C 407.833,431.5 403.167,431.5 398.5,431.5C 382.833,380.833 367.167,330.167 351.5,279.5 Z M 142.5,384.5 C 171.222,382.408 189.722,395.075 198,422.5C 201.073,443.514 193.906,460.014 176.5,472C 152.072,484.099 130.906,479.932 113,459.5C 97.9007,432.74 102.401,409.907 126.5,391C 131.744,388.315 137.077,386.148 142.5,384.5 Z M 146.5,416.5 C 163.765,416.257 169.598,424.257 164,440.5C 157.749,447.011 150.582,448.177 142.5,444C 135.989,437.749 134.823,430.582 139,422.5C 141.114,419.879 143.614,417.879 146.5,416.5 Z M 404.5,447.5 C 409.167,447.5 413.833,447.5 418.5,447.5C 421.5,458.167 424.5,468.833 427.5,479.5C 422.833,479.5 418.167,479.5 413.5,479.5C 410.5,468.833 407.5,458.167 404.5,447.5 Z"/></g>
<g><path style="opacity:0.925" fill="#000000" d="M 139.5,119.5 C 142.978,119.184 146.312,119.684 149.5,121C 178.906,172.398 223.573,198.731 283.5,200C 285.333,200.5 286.5,201.667 287,203.5C 287.817,206.964 287.483,210.298 286,213.5C 229.185,217.096 183.185,196.429 148,151.5C 143.149,144.464 138.816,137.131 135,129.5C 134.296,125.092 135.796,121.759 139.5,119.5 Z"/></g>
<g><path style="opacity:0.93" fill="#000000" d="M 143.5,399.5 C 171.978,397.811 185.145,411.144 183,439.5C 176.645,458.438 163.478,466.272 143.5,463C 124.556,456.632 116.723,443.466 120,423.5C 123.349,410.985 131.182,402.985 143.5,399.5 Z M 146.5,416.5 C 143.614,417.879 141.114,419.879 139,422.5C 134.823,430.582 135.989,437.749 142.5,444C 150.582,448.177 157.749,447.011 164,440.5C 169.598,424.257 163.765,416.257 146.5,416.5 Z"/></g>
</svg>
