<?xml version="1.0" encoding="UTF-8"?>
<!DOCTYPE svg PUBLIC "-//W3C//DTD SVG 1.1//EN" "http://www.w3.org/Graphics/SVG/1.1/DTD/svg11.dtd">
<svg xmlns="http://www.w3.org/2000/svg" version="1.1" width="512px" height="512px" style="shape-rendering:geometricPrecision; text-rendering:geometricPrecision; image-rendering:optimizeQuality; fill-rule:evenodd; clip-rule:evenodd" xmlns:xlink="http://www.w3.org/1999/xlink">
<g><path style="opacity:0.961" fill="#000000" d="M 220.5,105.5 C 226.477,105.071 230.977,107.404 234,112.5C 234.5,124.495 234.667,136.495 234.5,148.5C 249.17,148.333 263.837,148.5 278.5,149C 290.769,153.617 295.936,162.45 294,175.5C 290.025,187.758 285.859,199.924 281.5,212C 286.823,212.499 292.156,212.666 297.5,212.5C 297.334,202.494 297.5,192.494 298,182.5C 299.5,175.667 303.667,171.5 310.5,170C 323.5,169.333 336.5,169.333 349.5,170C 355.925,171.427 360.092,175.26 362,181.5C 362.5,191.828 362.666,202.161 362.5,212.5C 394.767,208.267 408.934,222.267 405,254.5C 402.776,265.057 396.609,272.224 386.5,276C 366.542,277.119 346.542,277.952 326.5,278.5C 335.167,298.833 343.833,319.167 352.5,339.5C 364.167,340.833 375.833,340.833 387.5,339.5C 390.706,332.922 394.039,326.422 397.5,320C 386.054,320.218 381.554,314.718 384,303.5C 385.961,300.865 388.461,299.031 391.5,298C 407.5,297.333 423.5,297.333 439.5,298C 447.069,300.584 449.569,305.751 447,313.5C 445.833,316 444,317.833 441.5,319C 435.141,319.169 428.807,319.669 422.5,320.5C 416.333,332.833 410.167,345.167 404,357.5C 402.833,358.667 401.667,359.833 400.5,361C 387.928,362.295 375.262,362.962 362.5,363C 369.329,378.816 376.163,394.65 383,410.5C 385.219,419.409 381.885,424.742 373,426.5C 369.545,426.129 366.545,424.795 364,422.5C 354.809,402.75 346.309,382.75 338.5,362.5C 290.499,362.333 242.499,362.5 194.5,363C 185.538,383.093 176.704,403.26 168,423.5C 161.747,428.958 155.747,428.624 150,422.5C 148.496,418.961 148.163,415.295 149,411.5C 155.931,395.541 162.764,379.541 169.5,363.5C 157.848,362.667 146.181,362.167 134.5,362C 133.167,361.333 131.833,360.667 130.5,360C 123.284,347.069 116.451,333.902 110,320.5C 103.581,319.687 97.0809,319.187 90.5,319C 85.2061,315.565 83.3728,310.732 85,304.5C 86.5629,301.272 89.0629,299.105 92.5,298C 108.833,297.333 125.167,297.333 141.5,298C 151.336,304.036 152.003,311.036 143.5,319C 140.774,319.182 138.107,319.682 135.5,320.5C 138.667,326.833 141.833,333.167 145,339.5C 156.667,340.833 168.333,340.833 180,339.5C 188.448,318.818 197.281,298.318 206.5,278C 187.5,277.667 168.5,277.333 149.5,277C 138.543,274.711 131.376,268.211 128,257.5C 127.333,248.833 127.333,240.167 128,231.5C 131.566,222.268 138.066,216.101 147.5,213C 153.5,212.667 159.5,212.333 165.5,212C 160.259,198.443 155.925,184.61 152.5,170.5C 152.855,159.621 158.188,152.455 168.5,149C 183.163,148.5 197.83,148.333 212.5,148.5C 212.333,136.495 212.5,124.495 213,112.5C 214.742,109.254 217.242,106.921 220.5,105.5 Z M 175.5,170.5 C 187.833,170.5 200.167,170.5 212.5,170.5C 211.872,176.762 212.705,182.762 215,188.5C 217.306,190.888 220.139,191.888 223.5,191.5C 228.928,192.037 232.428,189.704 234,184.5C 234.499,179.845 234.666,175.179 234.5,170.5C 246.833,170.5 259.167,170.5 271.5,170.5C 267.167,184.5 262.833,198.5 258.5,212.5C 235.167,212.5 211.833,212.5 188.5,212.5C 184.167,198.5 179.833,184.5 175.5,170.5 Z M 319.5,191.5 C 326.5,191.5 333.5,191.5 340.5,191.5C 340.5,198.5 340.5,205.5 340.5,212.5C 333.5,212.5 326.5,212.5 319.5,212.5C 319.5,205.5 319.5,198.5 319.5,191.5 Z M 152.5,234.5 C 228.167,234.333 303.834,234.5 379.5,235C 380.416,235.374 381.25,235.874 382,236.5C 384,241.833 384,247.167 382,252.5C 381.097,253.701 379.931,254.535 378.5,255C 303.833,255.667 229.167,255.667 154.5,255C 152.671,254.727 151.171,253.893 150,252.5C 149.333,247.5 149.333,242.5 150,237.5C 151.045,236.627 151.878,235.627 152.5,234.5 Z M 230.5,277.5 C 254.169,277.333 277.836,277.5 301.5,278C 310.305,298.749 319.305,319.416 328.5,340C 287.163,340.833 245.829,340.667 204.5,339.5C 213.368,318.891 222.034,298.224 230.5,277.5 Z"/></g>
</svg>
