<?xml version="1.0" encoding="UTF-8"?>
<!DOCTYPE svg PUBLIC "-//W3C//DTD SVG 1.1//EN" "http://www.w3.org/Graphics/SVG/1.1/DTD/svg11.dtd">
<svg xmlns="http://www.w3.org/2000/svg" version="1.1" width="512px" height="512px" style="shape-rendering:geometricPrecision; text-rendering:geometricPrecision; image-rendering:optimizeQuality; fill-rule:evenodd; clip-rule:evenodd" xmlns:xlink="http://www.w3.org/1999/xlink">
<g><path style="opacity:0.93" fill="#000000" d="M 240.5,17.5 C 284.172,16.7408 316.339,35.4075 337,73.5C 353.34,113.126 348.007,149.46 321,182.5C 291.177,212.081 256.01,220.914 215.5,209C 167.428,188.38 145.928,151.88 151,99.5C 162.352,51.92 192.185,24.5866 240.5,17.5 Z M 241.5,34.5 C 285.05,34.5654 313.55,55.232 327,96.5C 334.166,139.668 318.333,171.168 279.5,191C 240.587,204.36 208.087,195.194 182,163.5C 160.33,129.223 161.663,95.8895 186,63.5C 200.899,46.8019 219.399,37.1352 241.5,34.5 Z"/></g>
<g><path style="opacity:0.932" fill="#000000" d="M 245.5,47.5 C 249.115,47.2055 252.282,48.2055 255,50.5C 256.404,56.0438 256.904,61.7104 256.5,67.5C 275.925,72.0131 283.425,84.0131 279,103.5C 274.7,108.446 270.033,108.779 265,104.5C 263.785,99.9491 263.119,95.2824 263,90.5C 257.646,84.1613 250.813,81.9947 242.5,84C 234.371,86.0873 231.204,91.254 233,99.5C 234.122,101.624 235.622,103.457 237.5,105C 245.797,106.786 254.131,108.453 262.5,110C 274.841,114.513 280.841,123.346 280.5,136.5C 280.068,152.268 272.068,161.601 256.5,164.5C 256.666,169.511 256.499,174.511 256,179.5C 252.564,184.827 248.064,185.827 242.5,182.5C 241.416,181.335 240.583,180.002 240,178.5C 239.501,173.845 239.334,169.179 239.5,164.5C 220.101,160.05 212.601,148.05 217,128.5C 221.924,123.244 226.924,123.244 232,128.5C 230.525,143.685 237.358,150.185 252.5,148C 263.528,145.587 266.528,139.254 261.5,129C 259.833,128 258.167,127 256.5,126C 249.847,124.94 243.181,123.94 236.5,123C 220.434,118.043 213.601,107.21 216,90.5C 218.367,77.3004 226.2,69.6338 239.5,67.5C 239.334,62.8215 239.501,58.1548 240,53.5C 241.021,50.6499 242.854,48.6499 245.5,47.5 Z"/></g>
<g><path style="opacity:0.94" fill="#000000" d="M 176.5,221.5 C 216.835,221.333 257.168,221.5 297.5,222C 317.504,224.248 333.004,233.748 344,250.5C 351.793,268.713 359.293,287.046 366.5,305.5C 399.093,302.405 425.593,313.405 446,338.5C 453.734,349.641 458.4,361.974 460,375.5C 460.667,393.833 460.667,412.167 460,430.5C 458.021,441.145 451.854,447.978 441.5,451C 435.843,451.499 430.176,451.666 424.5,451.5C 424.038,474.589 413.372,491.089 392.5,501C 363.988,510.496 341.155,502.996 324,478.5C 319.632,470.36 317.132,461.693 316.5,452.5C 275.839,451.5 235.172,451.167 194.5,451.5C 191.508,484.492 173.508,502.492 140.5,505.5C 107.471,502.471 89.4708,484.471 86.5,451.5C 70.3881,454.693 58.8881,449.027 52,434.5C 50.8833,421.712 50.3833,408.878 50.5,396C 50.4032,382.466 50.9032,368.966 52,355.5C 59.7417,326.922 78.2417,310.589 107.5,306.5C 113.695,289.086 120.195,271.753 127,254.5C 138.045,235.283 154.545,224.283 176.5,221.5 Z M 177.5,238.5 C 216.835,238.333 256.168,238.5 295.5,239C 309.136,240.397 319.97,246.564 328,257.5C 335.382,273.478 341.882,289.811 347.5,306.5C 343.445,306.824 339.445,306.491 335.5,305.5C 330.488,291.965 324.988,278.631 319,265.5C 311.996,254.91 302.163,248.744 289.5,247C 254.5,246.333 219.5,246.333 184.5,247C 170.77,248.944 160.27,255.777 153,267.5C 147.804,280.087 142.804,292.754 138,305.5C 133.882,306.798 129.715,306.798 125.5,305.5C 131.659,288.848 138.492,272.515 146,256.5C 154.272,246.352 164.772,240.352 177.5,238.5 Z M 186.5,263.5 C 200.5,263.5 214.5,263.5 228.5,263.5C 228.5,277.833 228.5,292.167 228.5,306.5C 204.491,306.833 180.491,306.5 156.5,305.5C 160.373,295.047 164.54,284.713 169,274.5C 173.594,268.632 179.427,264.965 186.5,263.5 Z M 245.5,263.5 C 259.504,263.333 273.504,263.5 287.5,264C 296.737,266.235 303.237,271.735 307,280.5C 310.473,289.087 313.639,297.754 316.5,306.5C 292.833,306.5 269.167,306.5 245.5,306.5C 245.5,292.167 245.5,277.833 245.5,263.5 Z M 106.5,323.5 C 198.833,323.5 291.167,323.5 383.5,323.5C 381.213,337.292 385.213,348.792 395.5,358C 399.525,360.514 403.859,362.181 408.5,363C 419.077,363.179 429.577,363.679 440,364.5C 443.104,376.959 444.271,389.626 443.5,402.5C 426.83,402.667 410.163,402.5 393.5,402C 378.5,396 363.5,396 348.5,402C 314.168,402.5 279.835,402.667 245.5,402.5C 245.667,383.83 245.5,365.164 245,346.5C 243.328,340.493 239.495,338.327 233.5,340C 231.714,340.785 230.214,341.951 229,343.5C 228.5,363.164 228.333,382.831 228.5,402.5C 206.497,402.667 184.497,402.5 162.5,402C 147.833,396 133.167,396 118.5,402C 101.503,402.5 84.5033,402.667 67.5,402.5C 67.5,399.833 67.5,397.167 67.5,394.5C 75.1739,394.666 82.8406,394.5 90.5,394C 107.821,386.182 112.321,373.682 104,356.5C 95.8124,347.658 85.6458,344.158 73.5,346C 81.4946,334.009 92.4946,326.509 106.5,323.5 Z M 400.5,326.5 C 412.221,330.021 421.887,336.521 429.5,346C 423.167,346.667 416.833,346.667 410.5,346C 401.996,342.406 398.663,335.906 400.5,326.5 Z M 67.5,363.5 C 73.8421,363.334 80.1754,363.5 86.5,364C 92.9715,368.388 92.9715,372.722 86.5,377C 80.1754,377.5 73.8421,377.666 67.5,377.5C 67.5,372.833 67.5,368.167 67.5,363.5 Z M 132.5,414.5 C 161.317,413.154 176.15,426.821 177,455.5C 172.855,475.643 160.522,486.643 140,488.5C 114.769,484.606 102.769,469.939 104,444.5C 107.909,429.093 117.409,419.093 132.5,414.5 Z M 363.5,414.5 C 385.866,412.587 400.366,422.254 407,443.5C 409.704,463.598 401.871,477.765 383.5,486C 361.577,491.288 345.743,483.788 336,463.5C 330.618,438.926 339.785,422.593 363.5,414.5 Z M 67.5,419.5 C 77.1724,419.334 86.8391,419.5 96.5,420C 93.2201,424.393 90.8868,429.226 89.5,434.5C 83.3792,434.91 77.3792,434.41 71.5,433C 68.0358,429.215 66.7024,424.715 67.5,419.5 Z M 184.5,420.5 C 231.668,419.169 279.002,419.169 326.5,420.5C 323.769,424.796 321.435,429.296 319.5,434C 276.829,434.833 234.163,434.667 191.5,433.5C 189.915,428.658 187.582,424.325 184.5,420.5 Z M 415.5,419.5 C 424.833,419.5 434.167,419.5 443.5,419.5C 445.057,430.106 440.557,435.106 430,434.5C 427.245,434.475 424.578,434.141 422,433.5C 420.079,428.661 417.912,423.994 415.5,419.5 Z M 136.5,438.5 C 145.673,437.833 151.339,442 153.5,451C 150.912,461.962 144.245,465.629 133.5,462C 124.96,452.88 125.96,445.046 136.5,438.5 Z M 367.5,438.5 C 379.139,438.304 384.306,443.971 383,455.5C 378.047,463.878 371.214,465.711 362.5,461C 356.021,451.639 357.688,444.139 367.5,438.5 Z"/></g>
<g><path style="opacity:0.931" fill="#000000" d="M 134.5,421.5 C 155.669,420.241 167.669,430.074 170.5,451C 166.86,474.969 153.193,484.303 129.5,479C 115.741,472.557 109.575,461.724 111,446.5C 113.929,433.408 121.762,425.075 134.5,421.5 Z M 136.5,438.5 C 125.96,445.046 124.96,452.88 133.5,462C 144.245,465.629 150.912,461.962 153.5,451C 151.339,442 145.673,437.833 136.5,438.5 Z"/></g>
<g><path style="opacity:0.93" fill="#000000" d="M 364.5,421.5 C 389.567,420.594 401.401,432.594 400,457.5C 394.326,475.264 382.159,482.764 363.5,480C 345.969,474.1 338.803,461.934 342,443.5C 345.455,431.876 352.955,424.543 364.5,421.5 Z M 367.5,438.5 C 357.688,444.139 356.021,451.639 362.5,461C 371.214,465.711 378.047,463.878 383,455.5C 384.306,443.971 379.139,438.304 367.5,438.5 Z"/></g>
</svg>
