<?xml version="1.0" encoding="UTF-8"?>
<!DOCTYPE svg PUBLIC "-//W3C//DTD SVG 1.1//EN" "http://www.w3.org/Graphics/SVG/1.1/DTD/svg11.dtd">
<svg xmlns="http://www.w3.org/2000/svg" version="1.1" width="512px" height="512px" style="shape-rendering:geometricPrecision; text-rendering:geometricPrecision; image-rendering:optimizeQuality; fill-rule:evenodd; clip-rule:evenodd" xmlns:xlink="http://www.w3.org/1999/xlink">
<g><path style="opacity:0.993" fill="#000000" d="M 67.5,-0.5 C 192.833,-0.5 318.167,-0.5 443.5,-0.5C 472.757,4.90125 493.59,21.2346 506,48.5C 508.327,54.8282 510.16,61.1616 511.5,67.5C 511.5,118.5 511.5,169.5 511.5,220.5C 505.062,234.042 494.729,237.876 480.5,232C 476.961,230.093 474.461,227.26 473,223.5C 471.976,172.867 470.976,122.2 470,71.5C 464.647,51.9013 451.813,41.4013 431.5,40C 314.167,39.3333 196.833,39.3333 79.5,40C 55.6667,42.5 42.5,55.6667 40,79.5C 39.3333,196.833 39.3333,314.167 40,431.5C 42.5,455.333 55.6667,468.5 79.5,471C 165.5,471.333 251.5,471.667 337.5,472C 349.174,476.507 353.674,485.007 351,497.5C 348.983,504.682 344.483,509.348 337.5,511.5C 247.5,511.5 157.5,511.5 67.5,511.5C 38.2429,506.099 17.4096,489.765 5,462.5C 2.6729,456.172 0.839566,449.838 -0.5,443.5C -0.5,318.167 -0.5,192.833 -0.5,67.5C 4.90125,38.2429 21.2346,17.4096 48.5,5C 54.8282,2.6729 61.1616,0.839566 67.5,-0.5 Z"/></g>
<g><path style="opacity:0.986" fill="#000000" d="M 163.5,99.5 C 209.2,99.0307 254.867,99.5307 300.5,101C 342.667,111.167 368.833,137.333 379,179.5C 385.972,226.038 369.806,261.871 330.5,287C 319.171,292.999 307.171,296.999 294.5,299C 277.5,299.667 260.5,299.667 243.5,299C 231.826,294.493 227.326,285.993 230,273.5C 231.833,266.333 236.333,261.833 243.5,260C 255.833,259.667 268.167,259.333 280.5,259C 311.923,256.576 331.423,240.076 339,209.5C 341.994,175.642 327.494,153.142 295.5,142C 290.547,141.005 285.547,140.338 280.5,140C 250.168,139.5 219.835,139.333 189.5,139.5C 189.667,225.501 189.5,311.501 189,397.5C 183.535,410.337 174.035,414.503 160.5,410C 155.011,407.532 151.511,403.365 150,397.5C 149.333,302.833 149.333,208.167 150,113.5C 152.017,106.318 156.517,101.652 163.5,99.5 Z"/></g>
<g><path style="opacity:0.972" fill="#000000" d="M 511.5,411.5 C 511.5,417.5 511.5,423.5 511.5,429.5C 506.955,456.385 491.288,473.052 464.5,479.5C 463.671,484.802 463.171,490.136 463,495.5C 458.34,507.75 449.507,512.583 436.5,510C 429.572,507.406 425.072,502.573 423,495.5C 422.501,490.177 422.334,484.844 422.5,479.5C 395.736,477.235 379.902,462.902 375,436.5C 373.711,417.455 382.545,408.955 401.5,411C 405.792,412.396 409.292,414.896 412,418.5C 414.256,424.676 416.422,430.843 418.5,437C 420.715,438.044 423.048,438.71 425.5,439C 435.167,439.667 444.833,439.667 454.5,439C 467.984,436.903 473.15,429.069 470,415.5C 467.305,408.396 462.138,404.563 454.5,404C 432.576,407.357 413.242,402.023 396.5,388C 380.951,370.278 375.785,349.778 381,326.5C 386.902,304.931 400.568,290.931 422,284.5C 422.333,278.5 422.667,272.5 423,266.5C 427.66,254.25 436.493,249.417 449.5,252C 456.428,254.594 460.928,259.427 463,266.5C 463.499,272.491 463.666,278.491 463.5,284.5C 491.075,291.259 504.575,308.925 504,337.5C 499.387,350.123 490.554,354.957 477.5,352C 467.838,348.196 463.004,341.029 463,330.5C 461.132,326.479 457.965,324.313 453.5,324C 447.833,323.333 442.167,323.333 436.5,324C 425.281,325.053 419.948,331.22 420.5,342.5C 419.909,351.492 423.576,357.992 431.5,362C 442.785,363.217 454.118,363.884 465.5,364C 490.903,370.234 506.236,386.067 511.5,411.5 Z"/></g>
</svg>
