<?xml version="1.0" encoding="UTF-8"?>
<!DOCTYPE svg PUBLIC "-//W3C//DTD SVG 1.1//EN" "http://www.w3.org/Graphics/SVG/1.1/DTD/svg11.dtd">
<svg xmlns="http://www.w3.org/2000/svg" version="1.1" width="512px" height="512px" style="shape-rendering:geometricPrecision; text-rendering:geometricPrecision; image-rendering:optimizeQuality; fill-rule:evenodd; clip-rule:evenodd" xmlns:xlink="http://www.w3.org/1999/xlink">
<g><path style="opacity:0.996" fill="#000000" d="M 105.5,-0.5 C 205.5,-0.5 305.5,-0.5 405.5,-0.5C 409.811,1.6467 412.978,4.98004 415,9.5C 415.667,92.8333 415.667,176.167 415,259.5C 413.471,262.516 410.971,263.849 407.5,263.5C 404.029,263.849 401.529,262.516 400,259.5C 399.5,178.167 399.333,96.834 399.5,15.5C 303.5,15.5 207.5,15.5 111.5,15.5C 111.667,96.834 111.5,178.167 111,259.5C 109.471,262.516 106.971,263.849 103.5,263.5C 100.029,263.849 97.5286,262.516 96,259.5C 95.3333,176.167 95.3333,92.8333 96,9.5C 98.0223,4.98004 101.189,1.6467 105.5,-0.5 Z M 263.5,47.5 C 298.167,47.5 332.833,47.5 367.5,47.5C 367.5,71.5 367.5,95.5 367.5,119.5C 332.833,119.5 298.167,119.5 263.5,119.5C 263.5,95.5 263.5,71.5 263.5,47.5 Z"/></g>
<g><path style="opacity:0.996" fill="#000000" d="M 131.5,31.5 C 214.915,31.0056 298.249,31.5056 381.5,33C 382.126,33.7504 382.626,34.5838 383,35.5C 383.667,110.167 383.667,184.833 383,259.5C 382.5,261.333 381.333,262.5 379.5,263C 376.833,263.667 374.167,263.667 371.5,263C 369.667,262.5 368.5,261.333 368,259.5C 367.5,218.168 367.333,176.835 367.5,135.5C 332.833,135.5 298.167,135.5 263.5,135.5C 263.667,176.835 263.5,218.168 263,259.5C 261.471,262.516 258.971,263.849 255.5,263.5C 252.029,263.849 249.529,262.516 248,259.5C 247.5,188.834 247.333,118.167 247.5,47.5C 212.833,47.5 178.167,47.5 143.5,47.5C 143.5,71.5 143.5,95.5 143.5,119.5C 171.502,119.333 199.502,119.5 227.5,120C 230.516,121.529 231.849,124.029 231.5,127.5C 231.849,130.971 230.516,133.471 227.5,135C 199.502,135.5 171.502,135.667 143.5,135.5C 143.667,176.835 143.5,218.168 143,259.5C 141.471,262.516 138.971,263.849 135.5,263.5C 132.029,263.849 129.529,262.516 128,259.5C 127.333,184.833 127.333,110.167 128,35.5C 128.69,33.6498 129.856,32.3164 131.5,31.5 Z M 263.5,47.5 C 263.5,71.5 263.5,95.5 263.5,119.5C 298.167,119.5 332.833,119.5 367.5,119.5C 367.5,95.5 367.5,71.5 367.5,47.5C 332.833,47.5 298.167,47.5 263.5,47.5 Z"/></g>
<g><path style="opacity:0.964" fill="#000000" d="M 458.5,511.5 C 323.167,511.5 187.833,511.5 52.5,511.5C 50.525,510.354 49.025,508.687 48,506.5C 47.6667,495.833 47.3333,485.167 47,474.5C 41.2323,465.068 35.899,455.401 31,445.5C 26.7619,432.827 25.4286,419.827 27,406.5C 33.1688,369.487 39.3355,332.487 45.5,295.5C 41.5898,295.263 37.9231,296.096 34.5,298C 32.6218,301.674 31.1218,305.507 30,309.5C 17.5526,314.061 12.886,309.728 16,296.5C 18.8333,288.333 24.3333,282.833 32.5,280C 181.167,279.333 329.833,279.333 478.5,280C 492.534,285.237 497.701,295.07 494,309.5C 489.667,312.167 485.333,312.167 481,309.5C 479.878,305.507 478.378,301.674 476.5,298C 473.077,296.096 469.41,295.263 465.5,295.5C 472.81,336.361 479.144,377.361 484.5,418.5C 484.871,427.812 483.371,436.812 480,445.5C 475.101,455.401 469.768,465.068 464,474.5C 463.667,485.167 463.333,495.833 463,506.5C 461.975,508.687 460.475,510.354 458.5,511.5 Z M 62.5,295.5 C 70.1667,295.5 77.8333,295.5 85.5,295.5C 78.1898,336.361 71.8564,377.361 66.5,418.5C 66.2526,434.922 70.9192,449.756 80.5,463C 73.8333,463.667 67.1667,463.667 60.5,463C 55.0173,454.536 50.184,445.702 46,436.5C 43.6067,427.307 42.94,417.974 44,408.5C 50.3849,370.857 56.5516,333.191 62.5,295.5 Z M 102.5,295.5 C 110.167,295.5 117.833,295.5 125.5,295.5C 121.094,337.823 116.76,380.156 112.5,422.5C 112.358,429.288 113.191,435.955 115,442.5C 117.609,449.497 120.109,456.497 122.5,463.5C 115.159,463.666 107.826,463.5 100.5,463C 95.6209,455.411 91.1209,447.578 87,439.5C 83.7112,429.409 82.7112,419.076 84,408.5C 90.3849,370.857 96.5516,333.191 102.5,295.5 Z M 143.5,295.5 C 151.167,295.5 158.833,295.5 166.5,295.5C 162.785,338.294 159.452,381.128 156.5,424C 156.736,437.515 159.403,450.515 164.5,463C 156.587,463.814 148.754,463.647 141,462.5C 137.389,453.609 134.055,444.609 131,435.5C 130.045,431.223 129.545,426.889 129.5,422.5C 133.73,380.096 138.397,337.763 143.5,295.5 Z M 183.5,295.5 C 191.167,295.5 198.833,295.5 206.5,295.5C 206.202,337.338 205.535,379.172 204.5,421C 204.731,435.192 205.397,449.359 206.5,463.5C 198.167,463.5 189.833,463.5 181.5,463.5C 179.648,455.107 177.482,446.774 175,438.5C 174.046,433.38 173.546,428.213 173.5,423C 176.605,380.475 179.938,337.975 183.5,295.5 Z M 223.5,295.5 C 231.5,295.5 239.5,295.5 247.5,295.5C 247.5,351.5 247.5,407.5 247.5,463.5C 239.5,463.5 231.5,463.5 223.5,463.5C 222.443,449.19 221.776,434.856 221.5,420.5C 222.541,378.839 223.208,337.172 223.5,295.5 Z M 263.5,295.5 C 271.5,295.5 279.5,295.5 287.5,295.5C 287.688,338.842 288.354,382.175 289.5,425.5C 288.833,438.171 288.166,450.837 287.5,463.5C 279.5,463.5 271.5,463.5 263.5,463.5C 263.5,407.5 263.5,351.5 263.5,295.5 Z M 304.5,295.5 C 312.167,295.5 319.833,295.5 327.5,295.5C 331.053,338.142 334.387,380.808 337.5,423.5C 337.512,429.943 336.678,436.276 335,442.5C 332.693,449.396 330.86,456.396 329.5,463.5C 321.167,463.5 312.833,463.5 304.5,463.5C 305.222,451.008 305.888,438.508 306.5,426C 305.359,382.508 304.693,339.008 304.5,295.5 Z M 344.5,295.5 C 352.609,294.886 360.442,295.553 368,297.5C 372.756,339.142 377.256,380.808 381.5,422.5C 380.032,436.739 376.032,450.239 369.5,463C 361.833,463.667 354.167,463.667 346.5,463C 351.382,450.468 354.049,437.468 354.5,424C 351.525,381.129 348.191,338.295 344.5,295.5 Z M 385.5,295.5 C 393.167,295.5 400.833,295.5 408.5,295.5C 414.448,333.191 420.615,370.857 427,408.5C 428.289,419.076 427.289,429.409 424,439.5C 419.879,447.578 415.379,455.411 410.5,463C 403.174,463.5 395.841,463.666 388.5,463.5C 390.891,456.497 393.391,449.497 396,442.5C 397.809,435.955 398.642,429.288 398.5,422.5C 394.24,380.156 389.906,337.823 385.5,295.5 Z M 425.5,295.5 C 433.167,295.5 440.833,295.5 448.5,295.5C 454.448,333.191 460.615,370.857 467,408.5C 469.285,422.355 466.951,435.355 460,447.5C 456.708,452.583 453.541,457.75 450.5,463C 443.833,463.667 437.167,463.667 430.5,463C 442.451,446.028 446.951,427.195 444,406.5C 437.831,369.487 431.664,332.487 425.5,295.5 Z M 63.5,479.5 C 191.5,479.5 319.5,479.5 447.5,479.5C 447.5,484.833 447.5,490.167 447.5,495.5C 319.5,495.5 191.5,495.5 63.5,495.5C 63.5,490.167 63.5,484.833 63.5,479.5 Z"/></g>
</svg>
