<?xml version="1.0" encoding="UTF-8"?>
<!DOCTYPE svg PUBLIC "-//W3C//DTD SVG 1.1//EN" "http://www.w3.org/Graphics/SVG/1.1/DTD/svg11.dtd">
<svg xmlns="http://www.w3.org/2000/svg" version="1.1" width="512px" height="512px" style="shape-rendering:geometricPrecision; text-rendering:geometricPrecision; image-rendering:optimizeQuality; fill-rule:evenodd; clip-rule:evenodd" xmlns:xlink="http://www.w3.org/1999/xlink">
<g><path style="opacity:0.951" fill="#000000" d="M 233.5,-0.5 C 248.167,-0.5 262.833,-0.5 277.5,-0.5C 344.98,6.82263 401.48,35.4893 447,85.5C 447.333,58.8333 447.667,32.1667 448,5.5C 449.36,2.97739 451.193,0.977392 453.5,-0.5C 456.5,-0.5 459.5,-0.5 462.5,-0.5C 466.001,1.50567 468.167,4.50567 469,8.5C 469.333,43.8333 469.667,79.1667 470,114.5C 493.112,151.005 506.945,190.672 511.5,233.5C 511.5,248.167 511.5,262.833 511.5,277.5C 498.959,377.766 446.959,449.266 355.5,492C 330.316,502.296 304.316,508.796 277.5,511.5C 262.833,511.5 248.167,511.5 233.5,511.5C 133.234,498.959 61.734,446.959 19,355.5C 8.70393,330.316 2.20393,304.316 -0.5,277.5C -0.5,262.833 -0.5,248.167 -0.5,233.5C 12.0408,133.234 64.0408,61.734 155.5,19C 180.684,8.70393 206.684,2.20393 233.5,-0.5 Z M 238.5,21.5 C 325.794,18.5694 395.294,51.9027 447,121.5C 447.667,175.167 447.667,228.833 447,282.5C 429.333,300.167 411.667,317.833 394,335.5C 388.802,329.967 383.302,324.8 377.5,320C 372.306,318.758 367.64,319.758 363.5,323C 342.667,343.833 321.833,364.667 301,385.5C 297.749,389.826 297.082,394.493 299,399.5C 303.649,404.983 308.482,410.316 313.5,415.5C 308.482,420.684 303.649,426.017 299,431.5C 295.8,440.96 299.133,446.293 309,447.5C 311.3,447.506 313.466,447.006 315.5,446C 320.333,441.167 325.167,436.333 330,431.5C 335.198,437.033 340.698,442.2 346.5,447C 349.833,447.667 353.167,447.667 356.5,447C 379.305,425.195 401.805,403.028 424,380.5C 427.333,375.5 427.333,370.5 424,365.5C 419.318,360.985 414.818,356.319 410.5,351.5C 429.153,332.347 447.986,313.347 467,294.5C 467.862,292.913 468.529,291.246 469,289.5C 469.333,247.167 469.667,204.833 470,162.5C 500.052,236.117 495.386,307.45 456,376.5C 404.85,454.497 332.35,491.997 238.5,489C 146.828,478.773 80.9949,432.273 41,349.5C 10.9292,275.544 15.5959,203.878 55,134.5C 98.05,67.7111 159.217,30.0445 238.5,21.5 Z M 248.5,170.5 C 294.684,170.538 324.517,192.538 338,236.5C 344.548,272.195 333.715,301.362 305.5,324C 270.139,346.76 235.473,345.76 201.5,321C 172.252,293.84 164.085,261.34 177,223.5C 191.076,192.581 214.91,174.914 248.5,170.5 Z M 372.5,346.5 C 381.632,355.131 390.632,363.964 399.5,373C 383.653,389.014 367.653,404.847 351.5,420.5C 342.348,411.848 333.348,403.014 324.5,394C 340.395,377.938 356.395,362.104 372.5,346.5 Z"/></g>
<g><path style="opacity:0.943" fill="#000000" d="M 235.5,63.5 C 243.84,63.3336 252.173,63.5003 260.5,64C 267.628,69.575 268.295,75.9084 262.5,83C 260.913,83.8624 259.246,84.5291 257.5,85C 221.8,85.3463 189.133,95.3463 159.5,115C 149.833,122.667 140.167,130.333 130.5,138C 122.011,139.426 117.011,135.926 115.5,127.5C 116.068,124.548 117.234,121.881 119,119.5C 151.636,88.0996 190.47,69.4329 235.5,63.5 Z"/></g>
<g><path style="opacity:0.946" fill="#000000" d="M 243.5,148.5 C 290.519,145.755 326.019,164.422 350,204.5C 370.067,247.006 366.067,287.006 338,324.5C 306.666,358.546 268.499,369.713 223.5,358C 180.604,342.71 155.77,312.543 149,267.5C 145.768,220.458 164.268,184.958 204.5,161C 216.878,154.497 229.878,150.33 243.5,148.5 Z M 248.5,170.5 C 214.91,174.914 191.076,192.581 177,223.5C 164.085,261.34 172.252,293.84 201.5,321C 235.473,345.76 270.139,346.76 305.5,324C 333.715,301.362 344.548,272.195 338,236.5C 324.517,192.538 294.684,170.538 248.5,170.5 Z"/></g>
<g><path style="opacity:0.94" fill="#000000" d="M 251.5,233.5 C 268.977,233.476 277.477,242.143 277,259.5C 271.068,276.213 259.901,281.046 243.5,274C 230.167,261.667 230.167,249.333 243.5,237C 246.158,235.522 248.825,234.355 251.5,233.5 Z"/></g>
</svg>
