<?xml version="1.0" encoding="UTF-8"?>
<!DOCTYPE svg PUBLIC "-//W3C//DTD SVG 1.1//EN" "http://www.w3.org/Graphics/SVG/1.1/DTD/svg11.dtd">
<svg xmlns="http://www.w3.org/2000/svg" version="1.1" width="512px" height="512px" style="shape-rendering:geometricPrecision; text-rendering:geometricPrecision; image-rendering:optimizeQuality; fill-rule:evenodd; clip-rule:evenodd" xmlns:xlink="http://www.w3.org/1999/xlink">
<g><path style="opacity:0.941" fill="#000000" d="M 97.5,-0.5 C 172.5,-0.5 247.5,-0.5 322.5,-0.5C 331.651,3.15774 337.485,9.82441 340,19.5C 340.667,34.8333 340.667,50.1667 340,65.5C 336.987,70.5352 332.82,71.7019 327.5,69C 326.299,68.0975 325.465,66.9308 325,65.5C 324.667,50.8333 324.333,36.1667 324,21.5C 322.301,17.795 319.467,15.6283 315.5,15C 245.167,14.3333 174.833,14.3333 104.5,15C 100.562,15.2141 97.7282,17.0474 96,20.5C 95.5,74.499 95.3333,128.499 95.5,182.5C 147.834,182.667 200.168,182.5 252.5,182C 246.057,177.916 245.057,172.916 249.5,167C 253.167,165 256.833,165 260.5,167C 265.5,172 270.5,177 275.5,182C 287.833,182.667 300.167,182.667 312.5,182C 304.5,174 296.5,166 288.5,158C 280.5,157.667 272.5,157.333 264.5,157C 257.337,153.006 256.67,148.006 262.5,142C 265.5,141.667 268.5,141.333 271.5,141C 268.333,137.833 265.167,134.667 262,131.5C 259.71,122.211 263.21,118.378 272.5,120C 276.299,122.797 279.799,125.964 283,129.5C 281.548,122.423 284.215,118.089 291,116.5C 295.229,117.063 297.895,119.396 299,123.5C 299.333,131.167 299.667,138.833 300,146.5C 308,154.5 316,162.5 324,170.5C 324.667,159.5 324.667,148.5 324,137.5C 319,132.5 314,127.5 309,122.5C 305.399,112.11 308.899,107.943 319.5,110C 321,111.5 322.5,113 324,114.5C 324.333,108.167 324.667,101.833 325,95.5C 327.955,91.7235 331.788,90.5568 336.5,92C 338.049,93.214 339.215,94.714 340,96.5C 340.333,102.5 340.667,108.5 341,114.5C 345.187,108.419 350.187,107.419 356,111.5C 358,115.167 358,118.833 356,122.5C 351,127.5 346,132.5 341,137.5C 340.333,148.5 340.333,159.5 341,170.5C 349,162.5 357,154.5 365,146.5C 365.333,138.5 365.667,130.5 366,122.5C 369.275,116.631 373.775,115.464 379.5,119C 381.101,122.267 381.934,125.767 382,129.5C 386.199,124.966 390.699,120.799 395.5,117C 404.573,116.639 407.739,120.806 405,129.5C 401.167,133.333 397.333,137.167 393.5,141C 403.464,139.952 407.297,144.119 405,153.5C 403.786,155.049 402.286,156.215 400.5,157C 392.5,157.333 384.5,157.667 376.5,158C 368.5,166 360.5,174 352.5,182C 363.5,182.667 374.5,182.667 385.5,182C 390.5,177 395.5,172 400.5,167C 410.946,163.458 415.113,166.958 413,177.5C 411.5,179 410,180.5 408.5,182C 415.274,182.078 421.941,182.745 428.5,184C 431.394,186.909 432.227,190.409 431,194.5C 429.786,196.049 428.286,197.215 426.5,198C 420.5,198.333 414.5,198.667 408.5,199C 414.581,203.187 415.581,208.187 411.5,214C 407.833,216 404.167,216 400.5,214C 395.5,209 390.5,204 385.5,199C 374.5,198.333 363.5,198.333 352.5,199C 360.5,207 368.5,215 376.5,223C 384.5,223.333 392.5,223.667 400.5,224C 406.386,227.319 407.553,231.819 404,237.5C 400.733,239.101 397.233,239.934 393.5,240C 397.333,243.833 401.167,247.667 405,251.5C 408.201,260.599 405.034,264.765 395.5,264C 390.699,260.201 386.199,256.034 382,251.5C 382.356,262.554 377.522,266.054 367.5,262C 366.874,261.25 366.374,260.416 366,259.5C 365.667,251.167 365.333,242.833 365,234.5C 357,226.5 349,218.5 341,210.5C 340.333,222.833 340.333,235.167 341,247.5C 346,252.5 351,257.5 356,262.5C 359.542,272.946 356.042,277.113 345.5,275C 344,273.5 342.5,272 341,270.5C 340.667,345.833 340.333,421.167 340,496.5C 338.135,503.523 333.968,508.523 327.5,511.5C 317.5,511.5 307.5,511.5 297.5,511.5C 293.34,509.327 289.84,506.327 287,502.5C 283.196,493.582 279.696,484.582 276.5,475.5C 241.498,475.667 206.498,475.5 171.5,475C 168.634,473.607 167.301,471.274 167.5,468C 167.408,465.186 168.408,462.853 170.5,461C 221.774,459.513 273.107,459.013 324.5,459.5C 324.667,396.499 324.5,333.499 324,270.5C 319.235,277.224 313.902,277.89 308,272.5C 307.183,269.036 307.517,265.702 309,262.5C 314,257.5 319,252.5 324,247.5C 324.667,235.167 324.667,222.833 324,210.5C 316,218.5 308,226.5 300,234.5C 299.667,242.167 299.333,249.833 299,257.5C 295.445,265.411 290.445,266.411 284,260.5C 283.667,257.5 283.333,254.5 283,251.5C 279.799,255.036 276.299,258.203 272.5,261C 263.21,262.622 259.71,258.789 262,249.5C 265.167,246.333 268.333,243.167 271.5,240C 262.913,241.398 258.747,237.898 259,229.5C 259.94,226.227 262.107,224.394 265.5,224C 273.167,223.667 280.833,223.333 288.5,223C 296.5,215 304.5,207 312.5,199C 300.167,198.333 287.833,198.333 275.5,199C 270.5,204 265.5,209 260.5,214C 252.937,217.668 248.27,215.501 246.5,207.5C 247.493,203.999 249.493,201.166 252.5,199C 200.168,198.5 147.834,198.333 95.5,198.5C 95.5,285.5 95.5,372.5 95.5,459.5C 110.504,459.333 125.504,459.5 140.5,460C 145.781,462.846 147.281,467.013 145,472.5C 141.333,481.5 137.667,490.5 134,499.5C 131.231,505.105 127.064,509.105 121.5,511.5C 111.833,511.5 102.167,511.5 92.5,511.5C 86.5198,509.018 82.3531,504.685 80,498.5C 79.3333,338.167 79.3333,177.833 80,17.5C 82.6834,8.318 88.5167,2.318 97.5,-0.5 Z M 135.5,231.5 C 138.195,231.933 140.362,233.266 142,235.5C 142.667,251.833 142.667,268.167 142,284.5C 139.713,288.53 136.546,289.364 132.5,287C 131.107,285.829 130.273,284.329 130,282.5C 129.333,267.833 129.333,253.167 130,238.5C 130.233,234.78 132.066,232.447 135.5,231.5 Z M 95.5,475.5 C 105.839,475.334 116.172,475.5 126.5,476C 123.596,481.644 121.096,487.477 119,493.5C 118.097,494.701 116.931,495.535 115.5,496C 112.833,496.167 110.167,496.333 107.5,496.5C 103.471,496.68 99.6378,496.014 96,494.5C 95.5005,488.175 95.3338,481.842 95.5,475.5 Z M 293.5,476.5 C 303.653,475.506 313.986,475.172 324.5,475.5C 324.666,481.509 324.499,487.509 324,493.5C 323.097,494.701 321.931,495.535 320.5,496C 317.833,496.167 315.167,496.333 312.5,496.5C 308.627,496.701 304.961,496.034 301.5,494.5C 298.783,488.41 296.116,482.41 293.5,476.5 Z"/></g>
<g><path style="opacity:0.932" fill="#000000" d="M 135.5,66.5 C 146.889,67.0591 154.389,72.7258 158,83.5C 158.667,101.833 158.667,120.167 158,138.5C 154.985,149.682 147.652,155.348 136,155.5C 123.155,154.322 115.821,147.322 114,134.5C 113.333,119.167 113.333,103.833 114,88.5C 115.344,75.3234 122.511,67.9901 135.5,66.5 Z M 135.5,82.5 C 138.155,83.0007 140.322,84.3341 142,86.5C 142.667,102.833 142.667,119.167 142,135.5C 140.179,138.991 137.346,140.157 133.5,139C 131.513,137.681 130.346,135.848 130,133.5C 129.333,118.833 129.333,104.167 130,89.5C 130.59,86.0883 132.423,83.755 135.5,82.5 Z"/></g>
<g><path style="opacity:0.934" fill="#000000" d="M 133.5,215.5 C 145.914,215.086 154.081,220.752 158,232.5C 158.667,250.833 158.667,269.167 158,287.5C 156.128,294.266 152.128,299.266 146,302.5C 145.667,311.833 145.333,321.167 145,330.5C 142.77,337.463 138.27,339.296 131.5,336C 130.874,335.25 130.374,334.416 130,333.5C 129.667,323.5 129.333,313.5 129,303.5C 119.365,299.857 114.365,292.857 114,282.5C 113.09,265.461 113.423,248.461 115,231.5C 118.129,222.537 124.295,217.204 133.5,215.5 Z M 135.5,231.5 C 132.066,232.447 130.233,234.78 130,238.5C 129.333,253.167 129.333,267.833 130,282.5C 130.273,284.329 131.107,285.829 132.5,287C 136.546,289.364 139.713,288.53 142,284.5C 142.667,268.167 142.667,251.833 142,235.5C 140.362,233.266 138.195,231.933 135.5,231.5 Z"/></g>
</svg>
