<?xml version="1.0" encoding="UTF-8"?>
<!DOCTYPE svg PUBLIC "-//W3C//DTD SVG 1.1//EN" "http://www.w3.org/Graphics/SVG/1.1/DTD/svg11.dtd">
<svg xmlns="http://www.w3.org/2000/svg" version="1.1" width="512px" height="512px" style="shape-rendering:geometricPrecision; text-rendering:geometricPrecision; image-rendering:optimizeQuality; fill-rule:evenodd; clip-rule:evenodd" xmlns:xlink="http://www.w3.org/1999/xlink">
<g><path style="opacity:0.934" fill="#000000" d="M 116.5,24.5 C 152.499,22.5562 179.166,37.2228 196.5,68.5C 217.037,33.5701 247.37,19.7368 287.5,27C 291.707,30.0696 292.54,33.903 290,38.5C 276.833,51.6667 263.667,64.8333 250.5,78C 280.281,76.6901 304.447,87.5234 323,110.5C 326.536,114.401 327.536,118.734 326,123.5C 325.167,124.333 324.333,125.167 323.5,126C 295.835,126.5 268.169,126.667 240.5,126.5C 243.589,152.177 232.255,164.343 206.5,163C 203.692,162.402 201.192,161.235 199,159.5C 165.16,212.846 143.66,270.846 134.5,333.5C 152.833,333.5 171.167,333.5 189.5,333.5C 189.5,315.5 189.5,297.5 189.5,279.5C 168.877,276.252 161.377,264.585 167,244.5C 170.274,239.226 174.774,235.392 180.5,233C 217.46,231.532 254.46,231.032 291.5,231.5C 291.144,228.436 291.977,225.769 294,223.5C 323.472,195.028 352.639,166.195 381.5,137C 384.537,135.15 387.537,135.15 390.5,137C 420.639,166.139 450.472,195.639 480,225.5C 481.661,305.752 481.994,386.085 481,466.5C 478.609,476.558 472.443,483.058 462.5,486C 319.833,486.667 177.167,486.667 34.5,486C 30.9158,484.336 29.2492,481.503 29.5,477.5C 32.0503,452.619 45.3836,436.952 69.5,430.5C 69.5,414.167 69.5,397.833 69.5,381.5C 52.0705,379.576 43.9039,369.909 45,352.5C 48.0343,342.133 54.8676,335.966 65.5,334C 70.8229,333.501 76.1563,333.334 81.5,333.5C 89.0747,266.771 110.741,205.104 146.5,148.5C 143.413,141.388 142.747,134.054 144.5,126.5C 119.498,126.667 94.4978,126.5 69.5,126C 66.6061,123.091 65.7728,119.591 67,115.5C 85.1531,89.3405 110.32,76.8405 142.5,78C 128.637,64.4712 115.137,50.6379 102,36.5C 101.041,32.5786 102.208,29.4119 105.5,27C 109.312,26.2045 112.979,25.3712 116.5,24.5 Z M 126.5,40.5 C 154.637,41.739 174.304,55.5723 185.5,82C 182.639,84.894 180.139,88.0607 178,91.5C 160.965,74.2982 143.799,57.2982 126.5,40.5 Z M 259.5,39.5 C 262.187,39.3359 264.854,39.5026 267.5,40C 253,54.5 238.5,69 224,83.5C 220.057,79.7788 215.557,76.9454 210.5,75C 221.409,55.5792 237.742,43.7459 259.5,39.5 Z M 199.5,90.5 C 211.648,89.1533 217.481,94.4866 217,106.5C 212.741,116.141 205.908,118.641 196.5,114C 188.467,105.232 189.467,97.3987 199.5,90.5 Z M 125.5,93.5 C 139.251,92.217 152.251,94.717 164.5,101C 167.128,102.626 169.461,104.626 171.5,107C 166.069,107.477 161.069,109.144 156.5,112C 134.167,112.667 111.833,112.667 89.5,112C 99.7816,102.36 111.782,96.1932 125.5,93.5 Z M 250.5,93.5 C 271.16,91.4407 288.827,97.6073 303.5,112C 279.502,112.5 255.502,112.667 231.5,112.5C 232.035,108.181 232.535,103.848 233,99.5C 238.699,96.7681 244.532,94.7681 250.5,93.5 Z M 168.5,122.5 C 180.818,122.636 185.985,128.636 184,140.5C 179.047,148.878 172.214,150.711 163.5,146C 156.13,136.271 157.797,128.438 168.5,122.5 Z M 221.5,125.5 C 227.071,130.721 227.904,136.721 224,143.5C 216.299,150.458 208.965,150.124 202,142.5C 200.763,138.94 200.263,135.273 200.5,131.5C 208.425,132.298 215.425,130.298 221.5,125.5 Z M 385.5,154.5 C 412.749,180.248 439.582,206.581 466,233.5C 466.667,310.5 466.667,387.5 466,464.5C 465.167,468 463,470.167 459.5,471C 452.174,471.5 444.841,471.666 437.5,471.5C 437.667,450.497 437.5,429.497 437,408.5C 435.387,402.553 431.553,399.053 425.5,398C 399.167,397.333 372.833,397.333 346.5,398C 339.511,399.812 335.678,404.312 335,411.5C 334.5,431.497 334.333,451.497 334.5,471.5C 325.167,471.5 315.833,471.5 306.5,471.5C 306.333,391.833 306.5,312.166 307,232.5C 333.062,206.271 359.228,180.271 385.5,154.5 Z M 156.5,160.5 C 163.578,162.939 170.912,164.105 178.5,164C 147.762,215.877 127.928,271.71 119,331.5C 111.778,333.444 104.278,334.111 96.5,333.5C 103.791,271.29 123.791,213.623 156.5,160.5 Z M 186.5,246.5 C 221.5,246.5 256.5,246.5 291.5,246.5C 291.5,252.5 291.5,258.5 291.5,264.5C 256.832,264.667 222.165,264.5 187.5,264C 179.924,261.347 178.091,256.514 182,249.5C 183.652,248.601 185.152,247.601 186.5,246.5 Z M 353.5,251.5 C 357.077,251.205 360.243,252.205 363,254.5C 364.416,260.715 364.916,267.048 364.5,273.5C 358.833,273.5 353.167,273.5 347.5,273.5C 347.139,267.407 347.639,261.407 349,255.5C 350.397,253.93 351.897,252.596 353.5,251.5 Z M 413.5,251.5 C 417.987,251.161 421.487,252.827 424,256.5C 424.499,262.157 424.666,267.824 424.5,273.5C 418.833,273.5 413.167,273.5 407.5,273.5C 407.334,268.156 407.501,262.823 408,257.5C 409.36,254.977 411.193,252.977 413.5,251.5 Z M 204.5,279.5 C 233.5,279.5 262.5,279.5 291.5,279.5C 291.5,297.5 291.5,315.5 291.5,333.5C 262.5,333.5 233.5,333.5 204.5,333.5C 204.5,315.5 204.5,297.5 204.5,279.5 Z M 352.5,322.5 C 356.516,321.9 360.016,322.9 363,325.5C 364.416,331.715 364.916,338.048 364.5,344.5C 358.833,344.5 353.167,344.5 347.5,344.5C 347.334,339.156 347.501,333.823 348,328.5C 349.332,326.34 350.832,324.34 352.5,322.5 Z M 412.5,322.5 C 416.516,321.9 420.016,322.9 423,325.5C 424.416,331.715 424.916,338.048 424.5,344.5C 418.833,344.5 413.167,344.5 407.5,344.5C 407.334,339.156 407.501,333.823 408,328.5C 409.332,326.34 410.832,324.34 412.5,322.5 Z M 66.5,348.5 C 133.501,348.333 200.501,348.5 267.5,349C 263.046,354.128 259.379,359.795 256.5,366C 193.5,366.667 130.5,366.667 67.5,366C 60.642,363.783 58.4753,359.283 61,352.5C 62.8121,351.023 64.6455,349.69 66.5,348.5 Z M 290.5,349.5 C 291.499,389.997 291.832,430.663 291.5,471.5C 280.162,471.667 268.828,471.5 257.5,471C 245.775,467.869 234.108,464.536 222.5,461C 202.202,449.795 195.368,432.962 202,410.5C 210.336,392.411 224.503,384.911 244.5,388C 249.178,388.769 253.845,389.602 258.5,390.5C 260.299,390.423 261.966,389.923 263.5,389C 267.118,378.598 271.951,368.765 278,359.5C 281.963,355.787 286.129,352.454 290.5,349.5 Z M 84.5,381.5 C 124.501,381.333 164.501,381.5 204.5,382C 189.995,394.512 183.329,410.345 184.5,429.5C 151.167,429.5 117.833,429.5 84.5,429.5C 84.5,413.5 84.5,397.5 84.5,381.5 Z M 349.5,412.5 C 373.833,412.5 398.167,412.5 422.5,412.5C 422.5,432.167 422.5,451.833 422.5,471.5C 398.167,471.5 373.833,471.5 349.5,471.5C 349.5,451.833 349.5,432.167 349.5,412.5 Z M 73.5,444.5 C 111.501,444.333 149.501,444.5 187.5,445C 191.92,456.09 199.254,464.757 209.5,471C 154.83,471.833 100.164,471.667 45.5,470.5C 50.0879,456.574 59.4213,447.907 73.5,444.5 Z"/></g>
<g><path style="opacity:0.927" fill="#000000" d="M 351.5,236.5 C 363.659,235.042 372.493,239.709 378,250.5C 379.6,261.761 379.933,273.094 379,284.5C 377.992,286.259 376.492,287.426 374.5,288C 362.167,288.667 349.833,288.667 337.5,288C 335.333,287.167 333.833,285.667 333,283.5C 332.333,274.5 332.333,265.5 333,256.5C 334.91,245.761 341.077,239.094 351.5,236.5 Z M 353.5,251.5 C 351.897,252.596 350.397,253.93 349,255.5C 347.639,261.407 347.139,267.407 347.5,273.5C 353.167,273.5 358.833,273.5 364.5,273.5C 364.916,267.048 364.416,260.715 363,254.5C 360.243,252.205 357.077,251.205 353.5,251.5 Z"/></g>
<g><path style="opacity:0.926" fill="#000000" d="M 410.5,236.5 C 423.011,234.824 432.178,239.491 438,250.5C 439.6,261.761 439.933,273.094 439,284.5C 437.786,286.049 436.286,287.215 434.5,288C 422.167,288.667 409.833,288.667 397.5,288C 395.333,287.167 393.833,285.667 393,283.5C 392.097,272.774 392.431,262.107 394,251.5C 397.19,243.843 402.69,238.843 410.5,236.5 Z M 413.5,251.5 C 411.193,252.977 409.36,254.977 408,257.5C 407.501,262.823 407.334,268.156 407.5,273.5C 413.167,273.5 418.833,273.5 424.5,273.5C 424.666,267.824 424.499,262.157 424,256.5C 421.487,252.827 417.987,251.161 413.5,251.5 Z"/></g>
<g><path style="opacity:0.911" fill="#000000" d="M 226.5,296.5 C 239.504,296.333 252.504,296.5 265.5,297C 271.062,302.163 270.729,306.829 264.5,311C 252.167,311.667 239.833,311.667 227.5,311C 222.311,308.087 221.144,303.92 224,298.5C 224.995,297.934 225.828,297.267 226.5,296.5 Z"/></g>
<g><path style="opacity:0.926" fill="#000000" d="M 350.5,307.5 C 364.634,305.642 374.134,311.309 379,324.5C 379.667,334.833 379.667,345.167 379,355.5C 378.167,356.333 377.333,357.167 376.5,358C 364.238,359.606 351.904,359.939 339.5,359C 337.481,358.55 335.648,357.717 334,356.5C 332.024,345.18 332.024,333.847 334,322.5C 337.198,314.795 342.698,309.795 350.5,307.5 Z M 352.5,322.5 C 350.832,324.34 349.332,326.34 348,328.5C 347.501,333.823 347.334,339.156 347.5,344.5C 353.167,344.5 358.833,344.5 364.5,344.5C 364.916,338.048 364.416,331.715 363,325.5C 360.016,322.9 356.516,321.9 352.5,322.5 Z"/></g>
<g><path style="opacity:0.925" fill="#000000" d="M 409.5,307.5 C 423.981,305.318 433.814,310.985 439,324.5C 439.667,334.833 439.667,345.167 439,355.5C 438.167,356.333 437.333,357.167 436.5,358C 424.238,359.606 411.904,359.939 399.5,359C 397.481,358.55 395.648,357.717 394,356.5C 392.882,351.274 392.382,345.941 392.5,340.5C 390.071,325.017 395.738,314.017 409.5,307.5 Z M 412.5,322.5 C 410.832,324.34 409.332,326.34 408,328.5C 407.501,333.823 407.334,339.156 407.5,344.5C 413.167,344.5 418.833,344.5 424.5,344.5C 424.916,338.048 424.416,331.715 423,325.5C 420.016,322.9 416.516,321.9 412.5,322.5 Z"/></g>
<g><path style="opacity:0.908" fill="#000000" d="M 106.5,398.5 C 119.504,398.333 132.504,398.5 145.5,399C 151.062,404.163 150.729,408.829 144.5,413C 132.167,413.667 119.833,413.667 107.5,413C 102.311,410.087 101.144,405.92 104,400.5C 104.995,399.934 105.828,399.267 106.5,398.5 Z"/></g>
</svg>
