<?xml version="1.0" encoding="UTF-8"?>
<!DOCTYPE svg PUBLIC "-//W3C//DTD SVG 1.1//EN" "http://www.w3.org/Graphics/SVG/1.1/DTD/svg11.dtd">
<svg xmlns="http://www.w3.org/2000/svg" version="1.1" width="512px" height="512px" style="shape-rendering:geometricPrecision; text-rendering:geometricPrecision; image-rendering:optimizeQuality; fill-rule:evenodd; clip-rule:evenodd" xmlns:xlink="http://www.w3.org/1999/xlink">
<g><path style="opacity:0.945" fill="#000000" d="M 45.5,4.5 C 185.5,4.33333 325.5,4.5 465.5,5C 479.519,9.02012 488.019,18.1868 491,32.5C 491.667,170.833 491.667,309.167 491,447.5C 488.019,461.813 479.519,470.98 465.5,475C 459.509,475.499 453.509,475.666 447.5,475.5C 450.602,500.065 439.935,510.398 415.5,506.5C 391.575,509.908 381.242,499.575 384.5,475.5C 298.5,475.5 212.5,475.5 126.5,475.5C 129.758,499.575 119.425,509.908 95.5,506.5C 71.0647,510.398 60.398,500.065 63.5,475.5C 49.0921,477.975 36.9254,473.975 27,463.5C 23.5784,458.655 21.245,453.322 20,447.5C 19.3333,309.167 19.3333,170.833 20,32.5C 23.1686,18.1705 31.6686,8.83717 45.5,4.5 Z M 48.5,19.5 C 186.5,19.3333 324.5,19.5 462.5,20C 469.401,22.5683 473.901,27.4017 476,34.5C 476.667,171.5 476.667,308.5 476,445.5C 473.031,455.138 466.531,460.304 456.5,461C 322.5,461.667 188.5,461.667 54.5,461C 44.4688,460.304 37.9688,455.138 35,445.5C 34.3333,308.5 34.3333,171.5 35,34.5C 37.2903,27.3827 41.7903,22.3827 48.5,19.5 Z M 96.5,80.5 C 202.5,80.5 308.5,80.5 414.5,80.5C 414.5,186.833 414.5,293.167 414.5,399.5C 308.5,399.5 202.5,399.5 96.5,399.5C 96.1678,388.147 96.5012,376.814 97.5,365.5C 104.362,364.138 108.862,360.138 111,353.5C 111.667,328.167 111.667,302.833 111,277.5C 108.71,270.373 103.877,266.373 96.5,265.5C 96.167,245.156 96.5004,224.822 97.5,204.5C 104.362,203.138 108.862,199.138 111,192.5C 111.667,167.167 111.667,141.833 111,116.5C 108.71,109.373 103.877,105.373 96.5,104.5C 96.5,96.5 96.5,88.5 96.5,80.5 Z M 80.5,119.5 C 85.7616,119.195 90.9283,119.529 96,120.5C 96.8269,143.406 96.6602,166.239 95.5,189C 90.8333,189.667 86.1667,189.667 81.5,189C 80.8742,188.25 80.3742,187.416 80,186.5C 79.1881,164.124 79.3548,141.79 80.5,119.5 Z M 246.5,167.5 C 248.289,172.407 249.122,177.74 249,183.5C 253.333,187.5 257.667,187.5 262,183.5C 262.171,178.136 262.671,172.802 263.5,167.5C 277.396,169.35 289.729,174.683 300.5,183.5C 297.85,186.651 295.016,189.651 292,192.5C 289.236,201.077 292.403,204.91 301.5,204C 305.299,201.203 308.799,198.036 312,194.5C 320.742,205.658 325.908,218.325 327.5,232.5C 322.821,232.334 318.155,232.501 313.5,233C 306.833,237.667 306.833,242.333 313.5,247C 318.155,247.499 322.821,247.666 327.5,247.5C 325.908,261.675 320.742,274.342 312,285.5C 308.799,281.964 305.299,278.797 301.5,276C 292.403,275.09 289.236,278.923 292,287.5C 295.016,290.349 297.85,293.349 300.5,296.5C 289.729,305.317 277.396,310.65 263.5,312.5C 262.671,307.198 262.171,301.864 262,296.5C 257.667,292.5 253.333,292.5 249,296.5C 248.829,301.864 248.329,307.198 247.5,312.5C 233.604,310.65 221.271,305.317 210.5,296.5C 214.826,292.682 218.16,288.182 220.5,283C 219.313,276.901 215.646,274.568 209.5,276C 205.701,278.797 202.201,281.964 199,285.5C 190.258,274.342 185.092,261.675 183.5,247.5C 188.179,247.666 192.845,247.499 197.5,247C 204.167,242.333 204.167,237.667 197.5,233C 192.845,232.501 188.179,232.334 183.5,232.5C 185.092,218.325 190.258,205.658 199,194.5C 202.201,198.036 205.701,201.203 209.5,204C 219.395,204.54 222.229,200.373 218,191.5C 215.317,188.984 212.817,186.317 210.5,183.5C 221.106,174.86 233.106,169.527 246.5,167.5 Z M 250.5,214.5 C 271.984,214.482 281.817,225.149 280,246.5C 275.074,260.416 265.241,266.582 250.5,265C 235.027,260.171 228.527,249.671 231,233.5C 234.112,223.553 240.612,217.219 250.5,214.5 Z M 80.5,280.5 C 85.7616,280.195 90.9283,280.529 96,281.5C 96.8269,304.406 96.6602,327.239 95.5,350C 90.8333,350.667 86.1667,350.667 81.5,350C 80.8742,349.25 80.3742,348.416 80,347.5C 79.1881,325.124 79.3548,302.79 80.5,280.5 Z M 78.5,475.5 C 89.5,475.5 100.5,475.5 111.5,475.5C 111.781,480.565 111.448,485.565 110.5,490.5C 100.517,491.666 90.5166,491.832 80.5,491C 80,490.5 79.5,490 79,489.5C 78.5008,484.845 78.3342,480.179 78.5,475.5 Z M 399.5,475.5 C 410.5,475.5 421.5,475.5 432.5,475.5C 435.989,490.342 430.322,495.676 415.5,491.5C 410.5,491.167 405.5,490.833 400.5,490.5C 399.552,485.565 399.219,480.565 399.5,475.5 Z"/></g>
<g><path style="opacity:0.938" fill="#000000" d="M 87.5,65.5 C 199.5,65.3333 311.5,65.5 423.5,66C 425.329,66.2735 426.829,67.1068 428,68.5C 429.662,182.086 429.996,295.753 429,409.5C 428.065,412.102 426.232,413.602 423.5,414C 311.5,414.667 199.5,414.667 87.5,414C 84.7683,413.602 82.935,412.102 82,409.5C 81.5001,394.837 81.3334,380.17 81.5,365.5C 74.1427,364.906 68.9761,361.239 66,354.5C 65.3333,328.5 65.3333,302.5 66,276.5C 68.8464,269.477 74.0131,265.81 81.5,265.5C 81.5,245.167 81.5,224.833 81.5,204.5C 74.1792,203.919 69.0125,200.252 66,193.5C 65.3333,167.5 65.3333,141.5 66,115.5C 68.8464,108.477 74.0131,104.81 81.5,104.5C 81.3335,93.1618 81.5001,81.8284 82,70.5C 83.1065,67.887 84.9399,66.2203 87.5,65.5 Z M 96.5,80.5 C 96.5,88.5 96.5,96.5 96.5,104.5C 103.877,105.373 108.71,109.373 111,116.5C 111.667,141.833 111.667,167.167 111,192.5C 108.862,199.138 104.362,203.138 97.5,204.5C 96.5004,224.822 96.167,245.156 96.5,265.5C 103.877,266.373 108.71,270.373 111,277.5C 111.667,302.833 111.667,328.167 111,353.5C 108.862,360.138 104.362,364.138 97.5,365.5C 96.5012,376.814 96.1678,388.147 96.5,399.5C 202.5,399.5 308.5,399.5 414.5,399.5C 414.5,293.167 414.5,186.833 414.5,80.5C 308.5,80.5 202.5,80.5 96.5,80.5 Z M 80.5,119.5 C 79.3548,141.79 79.1881,164.124 80,186.5C 80.3742,187.416 80.8742,188.25 81.5,189C 86.1667,189.667 90.8333,189.667 95.5,189C 96.6602,166.239 96.8269,143.406 96,120.5C 90.9283,119.529 85.7616,119.195 80.5,119.5 Z M 246.5,167.5 C 233.106,169.527 221.106,174.86 210.5,183.5C 212.817,186.317 215.317,188.984 218,191.5C 222.229,200.373 219.395,204.54 209.5,204C 205.701,201.203 202.201,198.036 199,194.5C 190.258,205.658 185.092,218.325 183.5,232.5C 188.179,232.334 192.845,232.501 197.5,233C 204.167,237.667 204.167,242.333 197.5,247C 192.845,247.499 188.179,247.666 183.5,247.5C 185.092,261.675 190.258,274.342 199,285.5C 202.201,281.964 205.701,278.797 209.5,276C 215.646,274.568 219.313,276.901 220.5,283C 218.16,288.182 214.826,292.682 210.5,296.5C 221.271,305.317 233.604,310.65 247.5,312.5C 248.329,307.198 248.829,301.864 249,296.5C 253.333,292.5 257.667,292.5 262,296.5C 262.171,301.864 262.671,307.198 263.5,312.5C 277.396,310.65 289.729,305.317 300.5,296.5C 297.85,293.349 295.016,290.349 292,287.5C 289.236,278.923 292.403,275.09 301.5,276C 305.299,278.797 308.799,281.964 312,285.5C 320.742,274.342 325.908,261.675 327.5,247.5C 322.821,247.666 318.155,247.499 313.5,247C 306.833,242.333 306.833,237.667 313.5,233C 318.155,232.501 322.821,232.334 327.5,232.5C 325.908,218.325 320.742,205.658 312,194.5C 308.799,198.036 305.299,201.203 301.5,204C 292.403,204.91 289.236,201.077 292,192.5C 295.016,189.651 297.85,186.651 300.5,183.5C 289.729,174.683 277.396,169.35 263.5,167.5C 262.671,172.802 262.171,178.136 262,183.5C 257.667,187.5 253.333,187.5 249,183.5C 249.122,177.74 248.289,172.407 246.5,167.5 Z M 250.5,214.5 C 240.612,217.219 234.112,223.553 231,233.5C 228.527,249.671 235.027,260.171 250.5,265C 265.241,266.582 275.074,260.416 280,246.5C 281.817,225.149 271.984,214.482 250.5,214.5 Z M 80.5,280.5 C 79.3548,302.79 79.1881,325.124 80,347.5C 80.3742,348.416 80.8742,349.25 81.5,350C 86.1667,350.667 90.8333,350.667 95.5,350C 96.6602,327.239 96.8269,304.406 96,281.5C 90.9283,280.529 85.7616,280.195 80.5,280.5 Z"/></g>
<g><path style="opacity:0.924" fill="#000000" d="M 245.5,152.5 C 288.616,150.292 319.116,168.625 337,207.5C 349.931,245.943 341.764,279.11 312.5,307C 284.813,328.337 254.48,333.004 221.5,321C 179.856,300.214 162.689,266.714 170,220.5C 180.857,181.803 206.024,159.137 245.5,152.5 Z M 246.5,167.5 C 233.106,169.527 221.106,174.86 210.5,183.5C 212.817,186.317 215.317,188.984 218,191.5C 222.229,200.373 219.395,204.54 209.5,204C 205.701,201.203 202.201,198.036 199,194.5C 190.258,205.658 185.092,218.325 183.5,232.5C 188.179,232.334 192.845,232.501 197.5,233C 204.167,237.667 204.167,242.333 197.5,247C 192.845,247.499 188.179,247.666 183.5,247.5C 185.092,261.675 190.258,274.342 199,285.5C 202.201,281.964 205.701,278.797 209.5,276C 215.646,274.568 219.313,276.901 220.5,283C 218.16,288.182 214.826,292.682 210.5,296.5C 221.271,305.317 233.604,310.65 247.5,312.5C 248.329,307.198 248.829,301.864 249,296.5C 253.333,292.5 257.667,292.5 262,296.5C 262.171,301.864 262.671,307.198 263.5,312.5C 277.396,310.65 289.729,305.317 300.5,296.5C 297.85,293.349 295.016,290.349 292,287.5C 289.236,278.923 292.403,275.09 301.5,276C 305.299,278.797 308.799,281.964 312,285.5C 320.742,274.342 325.908,261.675 327.5,247.5C 322.821,247.666 318.155,247.499 313.5,247C 306.833,242.333 306.833,237.667 313.5,233C 318.155,232.501 322.821,232.334 327.5,232.5C 325.908,218.325 320.742,205.658 312,194.5C 308.799,198.036 305.299,201.203 301.5,204C 292.403,204.91 289.236,201.077 292,192.5C 295.016,189.651 297.85,186.651 300.5,183.5C 289.729,174.683 277.396,169.35 263.5,167.5C 262.671,172.802 262.171,178.136 262,183.5C 257.667,187.5 253.333,187.5 249,183.5C 249.122,177.74 248.289,172.407 246.5,167.5 Z M 250.5,214.5 C 240.612,217.219 234.112,223.553 231,233.5C 228.527,249.671 235.027,260.171 250.5,265C 265.241,266.582 275.074,260.416 280,246.5C 281.817,225.149 271.984,214.482 250.5,214.5 Z"/></g>
<g><path style="opacity:0.926" fill="#000000" d="M 249.5,199.5 C 272.593,198.291 287.76,208.624 295,230.5C 298.175,256.306 287.341,272.806 262.5,280C 238.994,281.999 223.494,271.833 216,249.5C 212.527,222.73 223.693,206.063 249.5,199.5 Z M 250.5,214.5 C 240.612,217.219 234.112,223.553 231,233.5C 228.527,249.671 235.027,260.171 250.5,265C 265.241,266.582 275.074,260.416 280,246.5C 281.817,225.149 271.984,214.482 250.5,214.5 Z"/></g>
</svg>
