<?xml version="1.0" encoding="UTF-8"?>
<!DOCTYPE svg PUBLIC "-//W3C//DTD SVG 1.1//EN" "http://www.w3.org/Graphics/SVG/1.1/DTD/svg11.dtd">
<svg xmlns="http://www.w3.org/2000/svg" version="1.1" width="512px" height="512px" style="shape-rendering:geometricPrecision; text-rendering:geometricPrecision; image-rendering:optimizeQuality; fill-rule:evenodd; clip-rule:evenodd" xmlns:xlink="http://www.w3.org/1999/xlink">
<g><path style="opacity:0.959" fill="#000000" d="M 109.5,-0.5 C 111.5,-0.5 113.5,-0.5 115.5,-0.5C 117.355,0.689603 119.188,2.02294 121,3.5C 127.112,13.5036 130.612,24.3369 131.5,36C 130.946,40.6092 129.946,45.1092 128.5,49.5C 151.428,87.3822 144.261,118.049 107,141.5C 102.938,146.652 102.605,151.985 106,157.5C 123.555,179.389 130.055,204.389 125.5,232.5C 154.391,232.895 170.391,247.395 173.5,276C 184.87,276.174 196.203,276.841 207.5,278C 221.667,281.5 230.5,290.333 234,304.5C 234.5,328.164 234.667,351.831 234.5,375.5C 260.736,379.569 275.736,394.736 279.5,421C 288.494,421.5 297.494,421.666 306.5,421.5C 306.333,363.166 306.5,304.832 307,246.5C 307.73,242.104 310.23,239.27 314.5,238C 377.833,237.333 441.167,237.333 504.5,238C 507.621,238.967 509.954,240.8 511.5,243.5C 511.5,330.833 511.5,418.167 511.5,505.5C 509.757,508.247 507.424,510.247 504.5,511.5C 466.833,511.5 429.167,511.5 391.5,511.5C 384.167,507.043 382.667,501.043 387,493.5C 388.419,492.54 389.919,491.707 391.5,491C 424.832,490.5 458.165,490.333 491.5,490.5C 491.5,474.5 491.5,458.5 491.5,442.5C 387.833,442.5 284.167,442.5 180.5,442.5C 180.5,458.5 180.5,474.5 180.5,490.5C 223.168,490.333 265.835,490.5 308.5,491C 315.869,495.175 317.369,501.008 313,508.5C 311.348,509.399 309.848,510.399 308.5,511.5C 207.833,511.5 107.167,511.5 6.5,511.5C 3.57608,510.247 1.24275,508.247 -0.5,505.5C -0.5,451.167 -0.5,396.833 -0.5,342.5C 0.971672,340.866 2.63834,339.366 4.5,338C 7.88182,337.824 11.2152,337.324 14.5,336.5C 6.8219,327.774 1.8219,317.774 -0.5,306.5C -0.5,266.5 -0.5,226.5 -0.5,186.5C 1.27518,179.688 3.77518,173.021 7,166.5C 11,161.167 15,155.833 19,150.5C 19.6667,142.833 19.6667,135.167 19,127.5C 3.31875,103.746 -1.01458,78.0791 6,50.5C 11.4405,37.393 20.6072,27.893 33.5,22C 51.9118,16.397 70.5785,11.7304 89.5,8C 96.752,6.20491 103.419,3.37158 109.5,-0.5 Z M 105.5,24.5 C 106.496,24.4142 107.329,24.7476 108,25.5C 112.206,36.0987 109.706,44.932 100.5,52C 84.5314,60.3183 68.5314,68.6516 52.5,77C 43.4056,82.9268 35.4056,90.0935 28.5,98.5C 22.6014,84.3333 22.1014,69.9999 27,55.5C 31.973,47.2504 39.1397,41.7504 48.5,39C 64.5,35.3333 80.5,31.6667 96.5,28C 99.7898,27.2751 102.79,26.1084 105.5,24.5 Z M 113.5,68.5 C 124.599,86.1863 122.266,102.02 106.5,116C 86.7387,125.689 79.572,141.189 85,162.5C 90.9325,172.035 96.5991,181.701 102,191.5C 102.945,195.114 103.612,198.781 104,202.5C 104.5,212.494 104.666,222.494 104.5,232.5C 92.8333,232.5 81.1667,232.5 69.5,232.5C 69.6666,219.829 69.4999,207.162 69,194.5C 64.9949,187.498 59.4949,185.998 52.5,190C 50.5125,191.319 49.3459,193.152 49,195.5C 48.0414,213.233 48.3747,230.899 50,248.5C 51.6374,250.81 53.804,252.31 56.5,253C 83.2073,253.045 109.874,253.711 136.5,255C 147.044,258.243 152.044,265.41 151.5,276.5C 116.793,276.966 82.1259,276.466 47.5,275C 33.0793,272.245 24.246,263.745 21,249.5C 19.034,229.164 19.034,208.83 21,188.5C 23.6077,179.563 28.2744,171.897 35,165.5C 36.3333,162.833 37.6667,160.167 39,157.5C 40.233,147.225 40.8997,136.892 41,126.5C 42.3286,116.01 47.1619,107.51 55.5,101C 72.1961,90.6493 89.5294,81.316 107.5,73C 109.684,71.6366 111.684,70.1366 113.5,68.5 Z M 327.5,258.5 C 341.167,258.5 354.833,258.5 368.5,258.5C 368.5,312.833 368.5,367.167 368.5,421.5C 354.833,421.5 341.167,421.5 327.5,421.5C 327.5,367.167 327.5,312.833 327.5,258.5 Z M 389.5,258.5 C 402.833,258.5 416.167,258.5 429.5,258.5C 429.5,312.833 429.5,367.167 429.5,421.5C 416.167,421.5 402.833,421.5 389.5,421.5C 389.5,367.167 389.5,312.833 389.5,258.5 Z M 450.5,258.5 C 464.167,258.5 477.833,258.5 491.5,258.5C 491.5,312.833 491.5,367.167 491.5,421.5C 477.833,421.5 464.167,421.5 450.5,421.5C 450.5,367.167 450.5,312.833 450.5,258.5 Z M 19.5,285.5 C 28.7965,291.989 39.1298,295.823 50.5,297C 74.1643,297.5 97.831,297.667 121.5,297.5C 121.5,310.833 121.5,324.167 121.5,337.5C 101.831,337.667 82.1638,337.5 62.5,337C 40.8747,335.366 27.0414,324.199 21,303.5C 20.1691,297.523 19.6691,291.523 19.5,285.5 Z M 142.5,297.5 C 161.836,297.333 181.17,297.5 200.5,298C 206.228,299.114 210.394,302.28 213,307.5C 213.034,334.882 213.701,362.215 215,389.5C 215.833,391.667 217.333,393.167 219.5,394C 229.906,394.744 239.572,397.744 248.5,403C 254.045,407.923 257.045,414.09 257.5,421.5C 231.833,421.5 206.167,421.5 180.5,421.5C 180.667,395.831 180.5,370.165 180,344.5C 179.214,341.417 177.381,339.251 174.5,338C 163.839,337.5 153.172,337.333 142.5,337.5C 142.5,324.167 142.5,310.833 142.5,297.5 Z M 19.5,357.5 C 66.1667,357.5 112.833,357.5 159.5,357.5C 159.5,367.833 159.5,378.167 159.5,388.5C 112.833,388.5 66.1667,388.5 19.5,388.5C 19.5,378.167 19.5,367.833 19.5,357.5 Z M 19.5,409.5 C 66.1667,409.5 112.833,409.5 159.5,409.5C 159.5,419.5 159.5,429.5 159.5,439.5C 112.833,439.5 66.1667,439.5 19.5,439.5C 19.5,429.5 19.5,419.5 19.5,409.5 Z M 19.5,460.5 C 66.1667,460.5 112.833,460.5 159.5,460.5C 159.5,470.5 159.5,480.5 159.5,490.5C 112.833,490.5 66.1667,490.5 19.5,490.5C 19.5,480.5 19.5,470.5 19.5,460.5 Z"/></g>
<g><path style="opacity:0.93" fill="#000000" d="M 346.5,105.5 C 355.796,106.298 359.63,111.298 358,120.5C 354.667,123.664 352.501,127.498 351.5,132C 352.367,136.873 354.867,140.706 359,143.5C 368.563,158.915 367.396,173.415 355.5,187C 343.821,191.982 337.988,188.149 338,175.5C 346.935,167.112 346.602,159.112 337,151.5C 327.299,135.808 328.799,121.308 341.5,108C 343.315,107.243 344.981,106.41 346.5,105.5 Z"/></g>
<g><path style="opacity:0.936" fill="#000000" d="M 407.5,105.5 C 417.12,106.077 420.954,111.077 419,120.5C 417.333,122.833 415.667,125.167 414,127.5C 413.333,130.5 413.333,133.5 414,136.5C 427.47,149.154 430.137,163.821 422,180.5C 417.839,188.169 411.673,190.669 403.5,188C 398.42,183.451 397.586,178.285 401,172.5C 405.143,169.081 406.476,164.748 405,159.5C 391.505,146.443 388.838,131.443 397,114.5C 399.489,110.168 402.989,107.168 407.5,105.5 Z"/></g>
<g><path style="opacity:0.931" fill="#000000" d="M 468.5,105.5 C 478.984,106.151 482.817,111.484 480,121.5C 478.333,123.833 476.667,126.167 475,128.5C 474.333,130.833 474.333,133.167 475,135.5C 479.161,140.486 482.827,145.819 486,151.5C 490.547,165.669 487.38,177.836 476.5,188C 464.526,191.267 459.359,186.767 461,174.5C 461.953,172.545 463.287,170.878 465,169.5C 467.188,165.84 467.522,162.174 466,158.5C 452.961,146.708 449.961,132.708 457,116.5C 460.095,111.902 463.928,108.235 468.5,105.5 Z"/></g>
<g><path style="opacity:0.888" fill="#000000" d="M 353.5,511.5 C 351.167,511.5 348.833,511.5 346.5,511.5C 338.091,505.801 337.424,499.301 344.5,492C 355.74,488.699 360.907,492.865 360,504.5C 358.575,507.606 356.408,509.94 353.5,511.5 Z"/></g>
</svg>
