<?xml version="1.0" standalone="no"?>
<!DOCTYPE svg PUBLIC "-//W3C//DTD SVG 20010904//EN"
 "http://www.w3.org/TR/2001/REC-SVG-20010904/DTD/svg10.dtd">
<svg version="1.0" xmlns="http://www.w3.org/2000/svg"
 width="512.000000pt" height="512.000000pt" viewBox="0 0 512.000000 512.000000"
 preserveAspectRatio="xMidYMid meet">

<g transform="translate(0.000000,512.000000) scale(0.100000,-0.100000)"
fill="#000000" stroke="none">
<path d="M1835 5106 c-67 -21 -100 -43 -148 -96 -54 -60 -77 -121 -77 -205 0
-83 23 -145 76 -204 70 -77 118 -95 354 -131 113 -17 213 -34 223 -36 14 -4 5
-13 -37 -39 -213 -128 -407 -344 -521 -580 -106 -219 -133 -355 -101 -505 39
-185 136 -304 354 -434 72 -43 132 -82 132 -86 0 -4 -71 -102 -158 -217 l-158
-210 -48 -179 c-27 -99 -50 -184 -52 -191 -2 -8 -28 -4 -91 13 -48 14 -125 34
-171 46 l-83 21 -45 63 c-25 36 -55 71 -67 79 -35 24 -83 19 -119 -14 -48 -43
-44 -82 16 -170 l48 -70 -31 -38 c-40 -51 -60 -101 -68 -173 -5 -49 -9 -60
-22 -55 -129 39 -923 245 -947 245 -20 0 -44 -9 -61 -24 l-28 -24 -3 -911 -2
-910 29 -33 29 -33 1015 -3 c652 -1 1024 1 1041 8 14 5 35 24 46 42 27 43 20
84 -20 120 l-30 28 -955 0 -955 0 0 755 c0 415 3 755 6 755 3 0 394 -104 868
-231 473 -127 1079 -289 1346 -360 267 -72 829 -223 1250 -335 755 -203 1139
-305 1213 -325 l37 -10 0 -124 0 -125 -991 0 -991 0 -29 -29 c-50 -51 -36
-133 28 -160 21 -8 302 -11 1076 -9 l1049 3 29 33 29 32 0 243 c0 268 -2 276
-64 302 -17 7 -254 72 -526 145 -272 73 -499 136 -503 140 -5 4 1 25 12 46 27
52 42 131 35 191 l-6 48 72 35 c70 34 110 73 110 108 0 28 -32 80 -56 91 -39
17 -66 13 -143 -21 l-72 -31 -74 17 c-41 10 -77 22 -80 27 -3 4 1 19 9 31 24
37 48 146 41 187 -22 128 -81 206 -200 268 -41 21 -75 41 -75 46 0 4 43 157
95 340 108 374 120 448 91 569 -22 96 -70 188 -134 258 -71 80 -98 97 -357
230 -121 62 -224 116 -228 120 -5 4 15 16 45 25 71 24 191 85 253 129 96 69
180 160 281 304 2 2 29 -6 60 -18 173 -64 376 -13 504 127 36 39 58 55 89 62
57 12 100 48 140 116 151 252 80 568 -164 731 -79 53 -157 77 -265 82 -160 7
-294 -43 -401 -150 -71 -71 -89 -104 -89 -161 0 -45 -12 -72 -61 -130 -4 -5
-45 29 -93 76 -192 189 -454 324 -751 386 -88 18 -656 82 -717 80 -12 0 -41
-6 -63 -13z m366 -216 c333 -34 365 -39 504 -82 233 -70 395 -167 548 -328
110 -116 142 -171 134 -232 -10 -76 -72 -130 -151 -130 -58 0 -75 11 -132 79
-121 146 -224 236 -354 306 -118 65 -226 93 -536 142 -340 52 -357 56 -383 94
-23 32 -28 90 -10 122 9 18 65 59 80 59 3 0 138 -14 300 -30z m1903 -91 c73
-27 148 -96 183 -167 38 -78 40 -200 4 -280 -13 -29 -27 -51 -32 -50 -4 2
-125 93 -268 203 l-260 199 27 29 c27 29 86 64 132 78 51 15 158 10 214 -12z
m-92 -565 l67 -52 -18 -24 c-28 -35 -113 -78 -169 -85 -204 -24 -359 199 -266
385 l26 52 146 -112 c81 -62 177 -136 214 -164z m-1343 85 c89 -50 187 -135
252 -217 71 -91 97 -114 163 -149 93 -47 226 -47 313 2 24 13 43 19 43 13 0
-6 -42 -51 -92 -102 -135 -133 -260 -195 -480 -237 l-108 -20 -422 41 c-233
22 -433 43 -446 46 l-22 4 26 53 c95 188 281 385 468 492 59 34 216 104 235
104 8 1 39 -13 70 -30z m-391 -864 l442 -44 357 -183 c397 -203 439 -233 490
-345 22 -49 27 -72 27 -148 0 -85 -5 -109 -92 -404 -50 -173 -94 -316 -96
-318 -5 -5 -208 47 -218 56 -3 3 9 147 28 319 30 279 32 317 19 341 -9 18 -84
74 -212 159 -155 102 -216 149 -282 216 -46 48 -95 89 -108 92 -71 18 -137
-49 -119 -121 4 -14 50 -73 104 -131 53 -58 105 -120 115 -137 22 -39 17 -98
-10 -136 -11 -14 -118 -100 -238 -190 l-220 -164 -110 28 c-60 15 -112 30
-114 32 -2 1 62 90 142 196 153 203 169 230 160 268 -10 41 -40 64 -235 180
-205 122 -237 150 -283 252 -26 56 -44 179 -32 211 4 9 14 16 24 16 10 0 217
-20 461 -45z m722 -791 c22 -15 40 -32 40 -38 -1 -6 -16 -150 -35 -321 -30
-279 -38 -327 -79 -474 -25 -90 -47 -165 -49 -168 -4 -4 -257 63 -264 70 -2 2
9 28 24 58 36 71 39 188 6 260 -26 57 -80 119 -127 144 -20 11 -36 22 -36 25
0 3 84 68 187 145 156 117 193 149 225 199 20 32 40 74 44 92 3 19 10 34 15
34 5 0 27 -12 49 -26z m-903 -510 c142 -38 294 -104 338 -149 69 -69 16 -195
-81 -195 -47 0 -448 111 -467 129 -17 17 -17 22 14 134 21 75 37 117 46 117 7
0 75 -16 150 -36z m1218 -330 c132 -35 274 -96 328 -142 29 -25 40 -86 23
-126 -16 -37 -67 -76 -101 -76 -39 0 -457 118 -472 133 -14 14 -13 27 17 136
27 98 36 120 49 117 9 -3 79 -22 156 -42z m-1847 -19 c71 -77 17 -195 -91
-195 -63 0 -125 73 -113 133 21 104 133 139 204 62z m1214 -301 l816 -218 -26
-51 c-16 -32 -28 -74 -31 -116 l-6 -66 -535 144 c-294 79 -697 187 -895 240
-198 52 -361 96 -362 97 -1 1 10 26 25 56 17 35 28 75 30 116 l4 62 82 -23
c44 -12 448 -120 898 -241z m1143 -316 c59 -46 66 -123 15 -178 -52 -55 -152
-45 -185 21 -33 62 -8 146 49 169 39 16 92 11 121 -12z"/>
<path d="M2459 171 c-73 -74 0 -196 98 -164 15 5 38 25 51 44 30 43 24 84 -18
122 -42 38 -92 37 -131 -2z"/>
</g>
</svg>
