<?xml version="1.0" standalone="no"?>
<!DOCTYPE svg PUBLIC "-//W3C//DTD SVG 20010904//EN"
 "http://www.w3.org/TR/2001/REC-SVG-20010904/DTD/svg10.dtd">
<svg version="1.0" xmlns="http://www.w3.org/2000/svg"
 width="512.000000pt" height="512.000000pt" viewBox="0 0 512.000000 512.000000"
 preserveAspectRatio="xMidYMid meet">

<g transform="translate(0.000000,512.000000) scale(0.100000,-0.100000)"
fill="#000000" stroke="none">
<path d="M4182 5100 c-109 -29 -187 -74 -273 -160 -130 -129 -193 -300 -173
-471 5 -43 9 -79 8 -79 -1 0 -30 13 -65 30 -187 87 -391 87 -576 0 -78 -36
-77 -35 -423 -315 -157 -127 -290 -234 -297 -238 -7 -4 -216 90 -487 219
l-474 226 24 51 c13 29 24 65 24 80 0 39 -40 77 -83 77 -40 0 -69 -24 -98 -83
-12 -23 -23 -44 -25 -46 -1 -1 -65 27 -141 63 -158 75 -199 82 -232 40 -26
-33 -27 -75 -4 -103 10 -12 79 -51 153 -86 74 -36 136 -69 138 -73 1 -5 -9
-33 -23 -63 -13 -30 -25 -64 -25 -75 0 -31 36 -71 71 -79 43 -10 73 14 109 85
l30 60 33 -14 c77 -33 833 -398 840 -405 5 -5 -16 -27 -45 -50 -214 -170 -277
-287 -265 -501 5 -106 29 -182 82 -265 70 -110 73 -112 654 -484 l314 -201
-74 -33 c-41 -19 -240 -108 -443 -198 -302 -134 -377 -171 -417 -207 -59 -53
-106 -144 -116 -227 l-8 -61 -535 327 c-444 272 -541 328 -573 328 -63 1 -103
-60 -74 -115 11 -20 404 -265 1578 -981 860 -525 1593 -970 1629 -988 117 -59
201 -80 325 -80 155 0 268 32 390 110 79 51 96 96 55 148 -31 39 -64 42 -118
11 -119 -68 -179 -90 -281 -100 -83 -8 -176 9 -257 46 -63 28 -1664 1001
-1664 1010 0 3 249 115 553 249 703 311 721 320 791 388 182 178 192 478 20
660 -28 30 -192 153 -384 288 -184 130 -336 239 -338 243 -4 12 208 113 221
105 7 -4 136 -93 289 -199 152 -106 295 -202 317 -214 99 -50 227 -46 328 11
l53 29 146 -70 c92 -44 160 -70 181 -70 57 0 95 57 74 113 -9 23 -38 41 -156
99 l-145 71 6 51 c3 28 7 56 9 62 6 20 -17 118 -36 156 -32 64 -82 111 -209
199 l-121 83 51 24 c60 28 100 87 100 148 0 37 -50 278 -66 318 -6 16 -4 18
12 12 102 -39 148 -50 240 -54 182 -8 307 42 440 173 123 121 173 243 176 420
2 162 -58 302 -178 421 -151 149 -361 206 -562 154z m240 -165 c82 -17 148
-54 211 -118 81 -83 119 -178 118 -299 0 -165 -95 -309 -250 -381 -85 -40
-209 -49 -292 -22 -270 88 -385 387 -242 627 74 124 208 202 358 207 17 0 60
-6 97 -14z m-887 -642 c87 -27 162 -73 225 -138 81 -85 122 -173 160 -348 16
-76 30 -139 30 -142 0 -2 -34 -11 -75 -20 -87 -20 -130 -54 -141 -111 -14 -74
5 -96 201 -233 211 -148 228 -169 223 -256 -4 -72 -30 -114 -85 -141 -43 -20
-119 -22 -154 -4 -39 21 -701 481 -732 509 -41 37 -52 63 -75 177 -23 111 -19
152 18 203 30 43 60 56 186 85 117 26 154 51 154 102 0 31 -50 84 -80 84 -49
0 -246 -52 -292 -77 -87 -48 -148 -133 -167 -236 -19 -105 32 -331 94 -411 19
-26 35 -48 35 -51 0 -2 -45 -27 -99 -55 -83 -42 -102 -57 -116 -87 -33 -70
-10 -171 48 -214 12 -9 171 -121 352 -249 182 -128 343 -244 358 -258 82 -78
108 -232 56 -342 -31 -67 -84 -119 -153 -153 -28 -14 -316 -143 -640 -287
-566 -252 -592 -262 -641 -258 -33 3 -64 13 -85 28 -36 26 -70 90 -70 135 0
45 34 109 71 137 19 14 225 110 459 213 234 104 440 199 458 212 17 13 39 38
48 55 23 44 15 134 -14 175 -14 20 -176 130 -446 303 -233 149 -441 287 -461
307 -77 75 -115 167 -115 279 0 95 27 168 83 224 57 56 913 752 973 790 117
74 276 95 409 53z"/>
<path d="M226 3308 c-37 -32 -43 -76 -16 -110 25 -32 718 -468 744 -468 25 0
73 27 80 45 11 30 6 73 -11 93 -28 34 -723 462 -749 462 -12 0 -34 -10 -48
-22z"/>
<path d="M820 3302 c-35 -35 -40 -79 -12 -110 26 -31 706 -451 741 -458 25 -5
36 -1 61 24 35 35 40 79 13 110 -27 31 -707 451 -742 458 -25 5 -36 1 -61 -24z"/>
</g>
</svg>
