<?xml version="1.0" standalone="no"?>
<!DOCTYPE svg PUBLIC "-//W3C//DTD SVG 20010904//EN"
 "http://www.w3.org/TR/2001/REC-SVG-20010904/DTD/svg10.dtd">
<svg version="1.0" xmlns="http://www.w3.org/2000/svg"
 width="512.000000pt" height="512.000000pt" viewBox="0 0 512.000000 512.000000"
 preserveAspectRatio="xMidYMid meet">

<g transform="translate(0.000000,512.000000) scale(0.100000,-0.100000)"
fill="#000000" stroke="none">
<path d="M2185 4309 c-974 -60 -1764 -354 -1965 -730 -59 -111 -60 -123 -60
-699 0 -580 1 -587 63 -704 43 -82 171 -210 279 -280 102 -66 272 -149 411
-201 112 -41 338 -108 344 -101 3 2 13 36 23 76 13 52 15 72 7 75 -7 3 -52 16
-102 30 -422 121 -732 306 -831 495 -24 46 -28 67 -28 130 0 94 29 155 118
248 253 264 859 462 1631 534 208 19 815 16 1025 -5 754 -78 1328 -270 1576
-529 89 -93 118 -154 118 -248 0 -63 -4 -84 -28 -130 -99 -189 -410 -375 -821
-492 -60 -17 -113 -32 -117 -34 -6 -4 26 -141 35 -151 6 -5 183 46 319 93 136
47 326 139 435 209 109 71 237 199 280 281 62 117 63 124 63 704 0 580 -1 587
-63 704 -40 76 -167 204 -265 270 -378 250 -984 411 -1722 456 -188 11 -533
11 -725 -1z m925 -174 c853 -86 1494 -336 1656 -645 28 -54 29 -59 32 -234 l4
-178 -74 62 c-248 210 -682 374 -1223 464 -1208 201 -2587 -10 -3128 -477
l-59 -50 4 179 c3 175 4 180 32 234 145 276 681 510 1407 614 150 22 243 31
504 50 118 9 700 -4 845 -19z m-1 -640 c622 -62 1115 -204 1426 -410 97 -64
193 -162 229 -232 41 -81 34 -91 -26 -40 -552 468 -1934 673 -3147 467 -534
-91 -959 -256 -1208 -468 -61 -51 -68 -41 -27 41 138 271 682 508 1405 611
150 22 243 31 504 50 118 9 700 -4 844 -19z"/>
<path d="M2480 2960 l0 -80 80 0 80 0 0 80 0 80 -80 0 -80 0 0 -80z"/>
<path d="M2455 2723 c-436 -13 -823 -108 -1052 -260 -131 -86 -192 -177 -193
-285 0 -55 10 -77 234 -526 129 -258 239 -488 245 -510 7 -25 31 -63 63 -97
84 -92 257 -164 498 -207 48 -8 159 -13 310 -13 151 0 262 5 310 13 241 43
414 115 498 207 32 34 56 72 63 97 6 22 116 252 245 510 224 449 234 471 234
526 -1 159 -150 300 -434 406 -251 95 -654 149 -1021 139z m420 -174 c253 -21
548 -99 702 -184 92 -52 173 -133 173 -174 0 -20 -70 -170 -197 -425 l-197
-394 -35 29 c-79 63 -258 127 -451 161 -101 18 -519 18 -620 0 -193 -34 -372
-98 -451 -161 l-35 -29 -197 394 c-127 255 -197 405 -197 425 0 23 12 42 53
83 101 102 295 184 556 236 272 54 563 67 896 39z m-80 -1140 c249 -30 485
-132 485 -209 0 -77 -236 -179 -485 -209 -116 -14 -354 -14 -470 0 -249 30
-485 132 -485 209 0 74 236 179 472 208 105 13 378 14 483 1z"/>
<path d="M2480 2080 l0 -240 80 0 80 0 0 240 0 240 -80 0 -80 0 0 -240z"/>
<path d="M2118 2258 c-32 -6 -58 -13 -58 -17 1 -25 78 -462 83 -467 3 -3 37
-1 76 6 55 9 71 16 71 28 0 10 -16 117 -36 240 -42 251 -27 228 -136 210z"/>
<path d="M2895 2248 c-5 -23 -75 -443 -75 -451 0 -5 150 -30 155 -25 4 5 75
434 75 456 0 17 -11 22 -63 31 -85 15 -86 14 -92 -11z"/>
<path d="M3261 2087 c-55 -172 -121 -385 -121 -394 0 -10 139 -58 146 -50 5 5
144 444 144 453 0 6 -33 18 -98 37 l-51 16 -20 -62z"/>
<path d="M1752 2119 c-39 -13 -62 -25 -59 -32 2 -7 35 -110 72 -229 38 -120
73 -218 80 -218 6 0 40 10 76 23 l65 22 -70 228 c-52 168 -74 227 -86 226 -8
0 -43 -9 -78 -20z"/>
<path d="M2480 1200 l0 -80 80 0 80 0 0 80 0 80 -80 0 -80 0 0 -80z"/>
<path d="M480 2400 l0 -80 80 0 80 0 0 80 0 80 -80 0 -80 0 0 -80z"/>
<path d="M4480 2400 l0 -80 80 0 80 0 0 80 0 80 -80 0 -80 0 0 -80z"/>
</g>
</svg>
