<?xml version="1.0" standalone="no"?>
<!DOCTYPE svg PUBLIC "-//W3C//DTD SVG 20010904//EN"
 "http://www.w3.org/TR/2001/REC-SVG-20010904/DTD/svg10.dtd">
<svg version="1.0" xmlns="http://www.w3.org/2000/svg"
 width="512.000000pt" height="512.000000pt" viewBox="0 0 512.000000 512.000000"
 preserveAspectRatio="xMidYMid meet">

<g transform="translate(0.000000,512.000000) scale(0.100000,-0.100000)"
fill="#000000" stroke="none">
<path d="M3665 4959 c-192 -39 -361 -204 -411 -402 -34 -132 -2 -309 78 -425
86 -125 227 -213 374 -233 197 -28 402 70 516 245 56 87 80 172 81 286 2 233
-143 437 -363 510 -75 26 -201 34 -275 19z m251 -130 c164 -62 264 -196 272
-370 9 -184 -76 -333 -237 -411 -55 -28 -77 -33 -158 -36 -79 -4 -103 -1 -156
18 -199 73 -314 266 -279 470 45 263 312 420 558 329z"/>
<path d="M463 4505 c-26 -18 -31 -66 -10 -84 8 -6 37 -15 65 -21 63 -12 95
-32 123 -76 24 -40 47 -54 86 -54 37 1 63 17 103 63 38 44 70 62 123 70 49 8
67 23 67 56 0 46 -14 56 -73 55 -63 -2 -129 -28 -180 -74 l-37 -32 -37 32
c-71 63 -188 96 -230 65z"/>
<path d="M1599 4141 c-14 -5 -34 -13 -46 -19 -48 -26 -1370 -945 -1385 -964
-23 -26 -25 -162 -4 -211 16 -39 61 -82 99 -96 17 -7 115 -11 240 -11 194 0
215 2 245 20 32 20 32 20 69 0 34 -18 57 -20 253 -20 196 0 219 2 253 20 37
20 37 20 69 0 26 -15 51 -20 111 -20 l77 0 0 -555 0 -555 -91 0 c-107 0 -155
-12 -203 -51 -101 -84 -104 -258 -5 -343 43 -36 97 -56 152 -56 25 0 35 -4 32
-12 -2 -7 -15 -66 -30 -130 l-27 -118 -571 0 c-638 0 -617 2 -664 -69 -23 -34
-23 -37 -23 -365 0 -313 1 -333 20 -364 11 -18 34 -41 52 -52 33 -20 56 -20
2338 -20 2175 0 2307 1 2339 18 19 9 44 30 55 45 20 27 21 43 24 355 3 280 1
332 -13 368 -31 80 -19 78 -465 84 l-395 5 -30 125 -31 125 121 5 c132 6 158
15 212 72 38 40 546 735 570 781 25 47 23 141 -5 193 -44 85 -122 128 -219
122 -92 -6 -125 -34 -262 -223 l-117 -160 -607 -3 -607 -2 -16 -25 c-14 -21
-15 -31 -6 -50 11 -24 16 -25 97 -25 47 0 85 -3 85 -7 0 -5 -36 -56 -80 -116
l-80 -107 -717 2 -718 3 0 555 0 555 91 5 c59 3 99 11 115 21 22 15 27 15 59
-2 31 -17 59 -19 255 -19 204 0 222 2 254 21 32 19 34 19 53 2 18 -16 43 -18
262 -18 237 0 242 0 274 23 53 38 72 88 72 185 0 66 -4 89 -17 105 -15 18
-972 680 -1298 898 -113 76 -161 92 -216 75z m150 -598 c55 -193 101 -354 101
-357 0 -7 -405 -8 -412 -1 -3 3 39 160 93 348 105 363 108 372 113 366 2 -2
49 -162 105 -356z m-330 22 c-49 -171 -94 -327 -100 -347 l-10 -38 -204 0
c-113 0 -205 2 -205 5 0 7 602 696 606 693 1 -2 -38 -143 -87 -313z m669 -37
c158 -181 289 -334 290 -339 5 -12 -395 -12 -403 1 -17 28 -201 689 -188 679
8 -7 143 -160 301 -341z m444 -93 c191 -132 348 -243 348 -247 0 -5 -78 -8
-173 -8 l-173 0 -248 286 c-137 157 -260 300 -275 317 -20 24 -2 14 74 -39 55
-38 257 -177 447 -309z m-1259 353 c-4 -7 -124 -147 -266 -310 l-258 -298
-177 0 c-138 0 -173 3 -164 12 12 12 864 607 870 608 2 0 0 -6 -5 -12z m-553
-758 c0 -38 -4 -52 -19 -60 -30 -16 -393 -13 -415 3 -11 8 -20 31 -23 60 l-6
47 232 0 231 0 0 -50z m580 3 c0 -70 -8 -73 -231 -73 -193 0 -198 1 -213 22
-9 12 -16 37 -16 55 l0 33 230 0 230 0 0 -37z m570 4 c0 -18 -7 -43 -16 -55
-15 -21 -20 -22 -211 -22 -224 0 -233 3 -233 72 l0 38 230 0 230 0 0 -33z
m580 -2 c0 -22 -8 -43 -20 -55 -19 -19 -33 -20 -211 -20 -112 0 -198 4 -210
10 -14 8 -19 21 -19 55 l0 45 230 0 230 0 0 -35z m570 -2 c0 -70 -8 -73 -231
-73 -223 0 -229 2 -229 71 l0 39 230 0 230 0 0 -37z m1786 -712 c40 -24 60
-79 46 -120 -12 -34 -527 -744 -567 -781 l-27 -25 -1435 0 -1435 0 -29 33
c-34 37 -40 102 -13 140 38 55 -41 52 1442 52 l1369 0 20 23 c11 12 120 162
243 332 122 171 236 322 251 338 36 33 89 36 135 8z m-548 -372 c-2 -7 -37
-58 -78 -115 l-75 -103 -413 -1 c-328 0 -412 3 -406 13 4 6 41 58 82 115 l74
102 410 0 c302 0 409 -3 406 -11z m-2498 -676 c-1 -5 -13 -62 -29 -128 l-28
-120 -86 -3 c-48 -1 -87 -1 -87 2 0 6 50 217 56 239 5 14 18 17 90 17 46 0 84
-3 84 -7z m1907 -123 l30 -130 -937 0 -937 0 28 123 c16 67 29 125 29 130 0 4
395 7 878 7 l878 0 31 -130z m284 20 c15 -58 31 -115 34 -128 6 -23 5 -23 -82
-20 l-88 3 -26 100 c-14 55 -29 113 -33 128 l-7 28 87 -3 87 -3 28 -105z m903
-276 c3 -9 6 -149 6 -313 0 -218 -3 -300 -12 -309 -17 -17 -4559 -17 -4576 0
-9 9 -12 91 -12 309 0 164 3 304 6 313 6 15 217 16 2294 16 2077 0 2288 -1
2294 -16z"/>
<path d="M560 709 c-29 -12 -40 -26 -40 -56 0 -49 100 -73 140 -33 26 26 25
46 -5 75 -25 26 -54 30 -95 14z"/>
<path d="M771 708 c-36 -19 -47 -42 -36 -74 14 -39 52 -46 216 -42 118 3 140
6 158 22 27 24 27 58 0 82 -18 17 -40 19 -168 22 -104 2 -153 -1 -170 -10z"/>
<path d="M2097 702 c-24 -26 -21 -68 5 -86 16 -12 47 -16 115 -16 80 0 96 3
113 20 24 24 25 48 4 78 -14 20 -23 22 -118 22 -87 0 -105 -3 -119 -18z"/>
<path d="M3965 696 c-19 -29 -11 -72 15 -86 10 -6 58 -10 107 -10 105 0 133
13 133 64 0 51 -13 56 -132 56 -102 0 -108 -1 -123 -24z"/>
<path d="M1380 500 c-24 -24 -25 -48 -4 -78 14 -20 23 -22 118 -22 113 0 136
10 136 62 0 46 -27 58 -133 58 -84 0 -100 -3 -117 -20z"/>
<path d="M3077 502 c-21 -23 -22 -66 -1 -86 12 -12 38 -16 115 -16 86 0 102 3
119 20 11 11 20 29 20 40 0 11 -9 29 -20 40 -17 17 -33 20 -118 20 -83 0 -102
-3 -115 -18z"/>
<path d="M3817 3245 c-21 -21 -22 -69 -1 -89 8 -9 28 -16 44 -16 49 0 83 -19
136 -77 47 -51 56 -56 94 -56 39 0 47 5 89 52 46 51 99 81 144 81 51 0 76 70
37 105 -40 37 -179 -5 -244 -73 l-28 -31 -23 28 c-57 67 -210 114 -248 76z"/>
<path d="M726 2344 c-20 -19 -21 -68 -2 -83 8 -7 36 -15 63 -20 45 -7 113 -38
113 -51 0 -3 15 -23 34 -43 27 -30 41 -37 71 -37 33 0 45 7 89 54 57 61 82 76
123 76 44 0 73 26 73 64 0 44 -16 56 -74 56 -63 0 -129 -29 -178 -77 l-37 -36
-33 33 c-68 68 -203 104 -242 64z"/>
</g>
</svg>
