<?xml version="1.0" standalone="no"?>
<!DOCTYPE svg PUBLIC "-//W3C//DTD SVG 20010904//EN"
 "http://www.w3.org/TR/2001/REC-SVG-20010904/DTD/svg10.dtd">
<svg version="1.0" xmlns="http://www.w3.org/2000/svg"
 width="512.000000pt" height="512.000000pt" viewBox="0 0 512.000000 512.000000"
 preserveAspectRatio="xMidYMid meet">

<g transform="translate(0.000000,512.000000) scale(0.100000,-0.100000)"
fill="#000000" stroke="none">
<path d="M1915 5109 c-550 -40 -1021 -199 -1205 -406 -24 -27 -56 -76 -72
-111 -27 -56 -30 -71 -26 -140 2 -55 10 -91 27 -125 31 -64 114 -152 190 -202
l60 -40 1 -491 0 -492 -187 -4 c-159 -4 -199 -8 -258 -27 -95 -31 -165 -72
-241 -143 -79 -74 -130 -151 -169 -253 l-30 -80 -3 -970 c-2 -877 -1 -974 14
-1013 38 -101 120 -152 245 -152 l77 0 4 -157 c5 -183 18 -223 90 -270 41 -27
45 -28 217 -31 192 -4 231 3 282 45 58 49 69 89 69 261 l0 152 1225 0 1225 0
0 -154 c0 -165 6 -195 48 -240 54 -57 89 -66 281 -66 207 0 243 11 292 88 29
46 29 46 29 209 l0 163 83 0 c122 1 193 37 240 125 21 39 22 52 25 457 l3 417
315 3 316 3 19 24 c18 21 19 42 19 272 0 236 -1 250 -20 269 -19 19 -33 20
-335 20 l-315 0 0 238 c0 273 -9 334 -69 458 -71 148 -209 269 -366 321 -72
24 -99 27 -267 31 l-188 4 0 492 0 491 46 29 c78 49 159 131 195 198 32 58 34
69 34 153 0 80 -4 96 -29 145 -116 222 -514 404 -1036 474 -256 35 -593 44
-855 25z m750 -154 c486 -59 877 -208 999 -382 43 -61 48 -136 12 -196 -31
-55 -109 -126 -182 -168 -32 -18 -59 -42 -65 -56 -5 -14 -9 -245 -9 -539 l0
-514 -1195 0 -1195 0 0 514 c0 294 -4 525 -9 539 -6 14 -33 38 -65 57 -73 41
-162 123 -187 171 -131 258 386 521 1161 589 141 13 584 4 735 -15z m1246
-2005 c133 -25 273 -128 337 -248 62 -115 62 -116 62 -884 l0 -698 -2085 0
-2085 0 0 703 c0 774 -1 761 63 881 61 115 202 221 327 245 65 13 3314 14
3381 1z m1069 -1195 l0 -155 -265 0 -265 0 0 155 0 155 265 0 265 0 0 -155z
m-670 -936 l0 -161 -29 -29 -29 -29 -2027 0 -2027 0 -29 29 -29 29 0 161 0
161 2085 0 2085 0 0 -161z m-3450 -501 c0 -189 11 -178 -190 -178 -108 0 -160
4 -168 12 -8 8 -12 58 -12 160 l0 148 185 0 185 0 0 -142z m3100 -8 c0 -137
-2 -150 -19 -160 -11 -5 -85 -10 -170 -10 -123 0 -152 3 -165 16 -13 13 -16
42 -16 160 l0 144 185 0 185 0 0 -150z"/>
<path d="M2205 4399 c-170 -66 -318 -128 -327 -136 -24 -21 -23 -75 0 -96 10
-10 31 -17 46 -17 43 0 648 236 669 261 22 28 22 50 -4 83 -13 17 -30 26 -47
25 -15 0 -166 -54 -337 -120z"/>
<path d="M2210 4045 c-316 -122 -585 -230 -597 -239 -48 -36 -19 -116 40 -116
37 0 1177 438 1205 463 44 40 13 118 -47 116 -14 -1 -285 -101 -601 -224z"/>
<path d="M2210 3690 c-168 -65 -315 -125 -327 -134 -16 -12 -23 -27 -23 -50 0
-40 26 -66 66 -66 45 0 646 235 667 261 22 28 22 50 -4 83 -13 17 -30 26 -47
25 -15 0 -164 -54 -332 -119z"/>
<path d="M590 2691 c-108 -35 -177 -121 -187 -231 -10 -103 51 -199 156 -248
92 -42 204 -18 277 60 53 55 68 95 68 173 0 101 -48 180 -138 227 -43 22 -136
32 -176 19z m120 -146 c78 -40 78 -160 0 -200 -57 -30 -127 -10 -155 45 -53
102 53 208 155 155z"/>
<path d="M1360 2691 c-71 -23 -131 -74 -166 -141 -27 -51 -25 -162 3 -215 80
-151 266 -191 388 -83 67 59 89 108 89 193 0 101 -48 180 -138 227 -43 22
-136 32 -176 19z m120 -146 c102 -53 60 -215 -55 -215 -38 0 -83 26 -100 60
-53 102 53 208 155 155z"/>
</g>
</svg>
