<?xml version="1.0" standalone="no"?>
<!DOCTYPE svg PUBLIC "-//W3C//DTD SVG 20010904//EN"
 "http://www.w3.org/TR/2001/REC-SVG-20010904/DTD/svg10.dtd">
<svg version="1.0" xmlns="http://www.w3.org/2000/svg"
 width="512.000000pt" height="512.000000pt" viewBox="0 0 512.000000 512.000000"
 preserveAspectRatio="xMidYMid meet">

<g transform="translate(0.000000,512.000000) scale(0.100000,-0.100000)"
fill="#000000" stroke="none">
<path d="M3725 5106 c-37 -17 -80 -62 -94 -99 -7 -19 -11 -229 -11 -628 l0
-600 110 -184 110 -185 0 -525 0 -526 -21 3 c-17 3 -55 92 -244 583 -192 498
-228 583 -254 605 -27 22 -37 46 -74 177 -45 159 -62 189 -121 220 -16 8 -50
15 -75 15 -59 -1 -365 -86 -401 -112 -35 -25 -70 -95 -70 -141 0 -19 18 -96
39 -171 37 -129 38 -139 25 -177 -12 -37 -8 -71 66 -508 44 -257 80 -474 80
-480 0 -8 -15 -13 -41 -13 -35 0 -48 -6 -80 -39 l-39 -39 0 -459 0 -460 -82
-6 c-46 -4 -95 -7 -110 -7 l-28 0 0 713 c0 792 2 766 -67 846 -59 69 -119 94
-245 99 l-108 5 0 81 c-1 160 -64 226 -220 226 l-70 0 0 160 0 160 43 0 c105
1 174 35 208 102 18 35 20 55 17 158 -3 111 -4 119 -32 154 -56 73 -69 76
-441 76 -299 0 -334 -2 -370 -19 -51 -23 -92 -71 -101 -116 l-6 -35 -131 0
-132 0 -87 -87 c-74 -74 -88 -93 -88 -120 0 -22 8 -38 26 -52 45 -35 69 -27
143 44 l68 65 100 0 101 0 6 -31 c16 -80 80 -126 190 -135 l76 -7 0 -158 0
-159 -72 0 c-89 0 -144 -23 -184 -76 -27 -34 -29 -46 -32 -134 l-4 -98 -106
-4 c-65 -3 -121 -11 -143 -20 -50 -22 -116 -83 -142 -132 -22 -41 -22 -41 -25
-835 -3 -857 -4 -829 48 -846 30 -10 75 12 89 41 6 14 11 72 11 129 l0 105
438 0 c240 1 457 5 481 9 48 10 84 33 115 75 20 26 21 41 24 420 l3 392 -23
34 c-13 19 -39 45 -57 57 l-34 23 -473 0 -474 0 0 153 c0 135 2 156 20 185 39
63 22 62 745 62 723 0 706 1 745 -62 19 -32 20 -48 20 -748 l0 -716 -84 -12
c-144 -21 -332 -78 -456 -139 -98 -48 -126 -67 -191 -132 -85 -85 -109 -136
-109 -230 0 -69 32 -142 89 -204 23 -24 41 -47 41 -51 0 -3 -61 -6 -136 -6
l-136 0 -40 -40 -40 -39 4 -123 c2 -101 7 -131 25 -166 l21 -43 -225 3 -225 3
-34 37 -34 38 0 334 c0 354 -2 375 -47 395 -36 16 -51 14 -78 -14 l-25 -24 0
-353 c0 -349 0 -354 24 -403 27 -59 72 -107 130 -138 l41 -22 1760 0 1760 0
55 26 c66 32 123 86 158 154 l27 50 3 1010 c2 743 -1 1017 -9 1038 -6 15 -25
39 -41 52 -25 21 -40 25 -99 25 l-69 0 0 155 c0 152 -1 156 -25 180 -31 32
-74 33 -103 2 -20 -21 -22 -35 -24 -177 l-3 -155 -85 0 -85 0 -5 550 -5 550
-108 177 -107 178 2 572 3 573 80 0 80 0 5 -535 5 -535 113 -187 112 -187 0
-276 c0 -262 1 -276 20 -295 30 -30 83 -27 109 6 20 26 21 38 21 317 l0 290
-95 160 c-52 87 -95 161 -95 163 0 2 54 4 119 4 130 0 161 7 205 48 56 53 56
55 56 517 0 404 -1 428 -20 465 -11 21 -34 49 -52 62 -30 21 -46 23 -194 28
l-160 5 -34 39 c-19 21 -49 45 -67 52 -43 18 -218 18 -258 0z m630 -656 l0
-405 -132 -3 -133 -3 0 411 0 411 133 -3 132 -3 0 -405z m-2537 -559 c2 -61
-1 -87 -10 -92 -15 -10 -598 -12 -622 -3 -13 5 -16 23 -16 88 0 46 3 86 7 89
4 4 149 6 322 5 l316 -3 3 -84z m1262 -120 c5 -20 21 -76 34 -124 18 -63 21
-89 13 -92 -43 -15 -306 -85 -319 -85 -21 0 -86 236 -69 253 15 15 301 95 318
89 7 -2 17 -20 23 -41z m-1530 -291 l0 -160 -55 0 -55 0 0 160 0 160 55 0 55
0 0 -160z m1881 -580 c110 -283 199 -521 199 -528 0 -10 -72 -12 -342 -10
l-343 3 -77 450 c-42 248 -77 459 -77 471 -1 18 21 26 202 77 111 30 211 55
221 54 15 -2 57 -100 217 -517z m-1593 188 l3 -78 -346 0 -345 0 0 73 c0 41 3
77 7 80 4 4 158 6 342 5 l336 -3 3 -77z m-198 -1127 c0 -309 -2 -350 -16 -355
-9 -3 -213 -6 -455 -6 l-439 0 0 355 0 355 455 0 455 0 0 -349z m2750 -711 c0
-1045 3 -997 -56 -1052 -45 -42 -75 -48 -229 -48 l-143 0 21 42 c16 33 22 67
25 151 5 121 -4 153 -50 192 -28 24 -35 25 -164 25 -74 0 -134 3 -134 6 0 4
18 26 39 49 67 73 86 118 86 210 0 70 -4 87 -30 134 -55 100 -183 196 -345
261 -141 57 -371 109 -552 125 l-78 7 0 429 0 429 805 0 805 0 0 -960z m-1454
-66 c295 -37 560 -141 658 -256 94 -109 37 -221 -163 -321 l-93 -47 -153 0
-154 0 -20 -26 c-27 -35 -26 -57 3 -91 l24 -28 411 -3 411 -3 0 -60 c0 -33 -6
-74 -14 -92 -17 -43 -78 -95 -118 -102 -18 -3 -535 -4 -1149 -3 l-1115 3 -37
25 c-54 37 -77 85 -77 164 l0 65 696 3 696 3 24 28 c29 34 30 56 3 91 l-20 26
-438 0 -437 0 -80 39 c-148 72 -224 148 -224 223 0 52 20 87 76 136 222 196
771 292 1290 226z"/>
</g>
</svg>
