<?xml version="1.0" standalone="no"?>
<!DOCTYPE svg PUBLIC "-//W3C//DTD SVG 20010904//EN"
 "http://www.w3.org/TR/2001/REC-SVG-20010904/DTD/svg10.dtd">
<svg version="1.0" xmlns="http://www.w3.org/2000/svg"
 width="512.000000pt" height="512.000000pt" viewBox="0 0 512.000000 512.000000"
 preserveAspectRatio="xMidYMid meet">

<g transform="translate(0.000000,512.000000) scale(0.100000,-0.100000)"
fill="#000000" stroke="none">
<path d="M2460 5104 c-227 -83 -293 -362 -125 -529 65 -65 125 -89 225 -89 73
0 92 4 137 27 116 60 178 160 178 287 -1 175 -124 305 -298 316 -51 3 -85 0
-117 -12z m167 -160 c77 -37 113 -134 78 -208 -50 -106 -188 -127 -264 -41
-113 129 31 322 186 249z"/>
<path d="M1200 4550 c-135 -137 -249 -250 -254 -250 -5 0 -33 23 -62 50 -44
41 -59 50 -90 50 -33 0 -47 -10 -138 -98 -56 -54 -209 -201 -341 -326 -322
-307 -315 -299 -315 -336 0 -42 39 -80 81 -80 26 0 47 15 118 83 145 139 534
510 569 541 l32 29 59 -56 c96 -92 80 -101 371 196 l248 252 84 -80 c46 -44
100 -96 121 -115 l37 -34 55 54 55 55 -142 143 c-145 145 -179 172 -220 172
-17 1 -86 -64 -268 -250z"/>
<path d="M3593 4751 c-32 -27 -110 -101 -173 -165 l-114 -116 49 -50 c27 -27
55 -50 62 -50 6 0 67 53 134 117 l121 118 249 -253 c291 -294 275 -286 369
-196 l58 55 297 -333 c352 -394 356 -398 393 -398 55 0 96 65 70 113 -11 20
-623 712 -695 785 -15 15 -34 22 -58 22 -31 0 -46 -9 -93 -55 l-57 -54 -250
255 c-206 210 -255 255 -277 254 -17 0 -48 -17 -85 -49z"/>
<path d="M1886 4314 l-141 -146 -27 22 c-29 22 -74 29 -99 14 -8 -5 -61 -57
-117 -116 -85 -88 -102 -112 -102 -138 0 -42 39 -80 82 -80 28 0 44 11 105 75
39 41 74 75 78 75 4 0 18 -9 32 -20 14 -11 40 -20 57 -20 27 0 49 19 171 145
l140 144 31 -27 c17 -15 122 -107 233 -204 164 -145 206 -178 231 -178 24 0
71 37 262 205 l233 204 140 -145 c122 -126 144 -144 171 -144 17 0 43 9 57 20
14 11 27 20 29 20 3 0 38 -34 79 -75 86 -85 119 -96 164 -50 49 48 32 85 -104
219 -110 109 -134 119 -189 76 l-27 -22 -142 146 c-164 168 -171 171 -246 109
-24 -21 -129 -112 -232 -203 -103 -91 -191 -165 -195 -165 -5 0 -93 74 -196
165 -271 239 -272 240 -307 240 -26 0 -50 -20 -171 -146z"/>
<path d="M25 3175 c-16 -15 -25 -36 -25 -55 0 -19 9 -40 25 -55 l24 -25 1753
0 1753 0 15 80 16 80 -1769 0 -1768 0 -24 -25z"/>
<path d="M3762 3174 c-24 -24 -31 -43 -40 -107 -16 -107 -15 -260 3 -354 8
-43 15 -81 15 -84 0 -3 -39 -9 -87 -12 -152 -10 -310 -64 -438 -149 -91 -60
-105 -84 -87 -146 15 -48 82 -127 131 -151 49 -25 138 -43 203 -40 45 2 101
-14 127 -37 1 -1 -9 -29 -24 -60 -82 -174 -122 -402 -80 -461 18 -25 100 -53
155 -53 80 0 187 62 245 140 24 32 44 49 65 53 17 4 53 29 85 60 l55 53 39
-100 c114 -291 191 -654 221 -1040 5 -71 10 -243 10 -383 l0 -254 25 -24 c44
-45 115 -22 131 41 12 47 -4 654 -20 794 -49 406 -142 777 -259 1023 l-44 94
31 51 31 51 55 1 55 0 52 -82 c343 -550 542 -1222 543 -1831 0 -112 1 -119 25
-142 44 -45 115 -22 131 42 11 40 -3 363 -21 498 -64 494 -224 971 -468 1396
-37 64 -67 120 -67 123 0 3 20 6 45 6 49 0 108 20 138 48 11 10 44 19 87 23
92 8 193 57 236 116 41 54 61 132 44 173 -24 59 -269 160 -430 178 l-65 7 3
45 c3 32 16 62 43 104 93 140 88 296 -12 381 -40 33 -62 30 -168 -20 -103 -49
-195 -113 -269 -185 l-62 -62 -16 38 c-71 176 -152 251 -279 262 -60 4 -65 3
-93 -24z m219 -294 c18 -60 27 -75 58 -96 21 -13 47 -38 60 -54 17 -24 29 -30
61 -30 36 0 43 5 98 73 83 101 217 205 286 223 23 5 26 3 26 -17 -1 -35 -32
-98 -74 -147 -30 -36 -36 -52 -36 -89 0 -59 -24 -107 -66 -132 -46 -27 -60
-66 -40 -108 20 -42 46 -48 146 -34 82 11 198 2 270 -20 85 -26 170 -63 167
-73 -2 -5 -15 -19 -30 -30 -21 -15 -49 -21 -115 -26 -82 -5 -91 -7 -126 -37
-30 -27 -45 -33 -81 -33 -24 0 -56 5 -70 12 -21 9 -36 8 -79 -5 -65 -21 -135
-22 -183 -2 -75 32 -116 10 -138 -73 -17 -67 -49 -115 -97 -147 -27 -18 -41
-37 -49 -67 -20 -68 -37 -86 -99 -109 -50 -18 -63 -28 -88 -69 -33 -53 -103
-110 -134 -110 -18 0 -19 5 -13 53 19 138 84 276 176 373 58 62 66 105 25 143
-21 19 -31 22 -63 17 -108 -19 -132 -19 -171 5 -32 20 -50 23 -137 24 -82 0
-106 4 -130 19 l-29 19 22 17 c33 27 166 80 241 96 78 16 188 18 251 3 53 -12
83 -6 110 23 25 28 25 54 -1 115 -37 86 -59 201 -59 310 0 139 4 146 51 96 27
-29 44 -62 60 -113z"/>
<path d="M4180 3185 c15 -19 29 -19 54 0 18 14 17 15 -23 15 -38 0 -42 -2 -31
-15z"/>
<path d="M4856 3143 c13 -32 24 -68 24 -80 0 -22 3 -23 93 -23 96 1 114 7 136
48 16 30 7 65 -21 92 -19 18 -35 20 -139 20 l-117 0 24 -57z"/>
<path d="M1517 2783 c-164 -186 -355 -348 -499 -423 -72 -38 -81 -40 -162 -40
-79 0 -89 -2 -111 -25 -48 -47 -30 -102 48 -141 87 -44 157 -104 206 -178 32
-49 61 -80 95 -101 l49 -30 456 0 456 0 47 28 c34 20 63 50 98 102 53 78 117
134 207 179 78 39 96 94 48 141 -22 23 -31 25 -122 25 -98 0 -99 0 -177 45
-146 83 -296 209 -412 347 -103 122 -109 128 -145 128 -26 0 -40 -10 -82 -57z
m3 -353 l0 -110 -131 0 -131 0 50 39 c27 22 85 71 128 110 44 39 80 71 82 71
1 0 2 -49 2 -110z m365 -77 l40 -32 -122 -1 -123 0 0 112 0 112 83 -80 c45
-44 100 -94 122 -111z m233 -220 c-14 -16 -37 -47 -52 -70 -14 -23 -34 -47
-45 -53 -27 -14 -815 -14 -842 0 -11 6 -31 30 -45 53 -15 23 -38 54 -52 70
l-26 27 544 0 544 0 -26 -27z"/>
<path d="M2385 1935 c-16 -15 -25 -36 -25 -55 0 -19 9 -40 25 -55 24 -25 26
-25 213 -25 171 0 192 2 213 19 18 14 24 29 24 61 0 32 -6 47 -24 61 -21 17
-42 19 -213 19 -187 0 -189 0 -213 -25z"/>
<path d="M1545 1615 c-16 -15 -25 -36 -25 -55 0 -19 9 -40 25 -55 l24 -25 705
0 c387 0 712 3 721 6 25 10 47 62 40 95 -14 62 19 59 -758 59 l-708 0 -24 -25z"/>
<path d="M25 1595 c-15 -14 -25 -36 -25 -52 0 -68 186 -286 326 -383 158 -109
344 -174 537 -186 187 -12 372 22 636 118 230 83 322 101 486 95 182 -7 253
-30 575 -186 346 -169 446 -200 630 -201 l95 0 100 100 99 99 -55 -15 c-30 -9
-113 -18 -189 -21 -199 -7 -263 12 -600 176 -146 71 -301 141 -345 155 -240
79 -484 74 -745 -16 -393 -135 -422 -141 -625 -141 -122 0 -165 4 -230 22
-214 58 -398 192 -519 378 -25 39 -53 73 -62 77 -32 12 -65 5 -89 -19z"/>
<path d="M4000 1273 c-8 -3 -152 -142 -320 -309 -236 -234 -317 -308 -355
-326 l-50 -23 -800 -5 c-880 -6 -841 -3 -943 -69 -74 -47 -212 -193 -212 -224
0 -39 40 -80 78 -80 26 0 47 15 117 82 129 124 133 125 412 129 l232 3 3 -201
3 -202 28 -24 c34 -29 66 -31 101 -3 l26 20 0 205 0 204 320 0 320 0 0 -196 0
-196 29 -29 c36 -36 73 -37 106 -4 25 24 25 25 25 223 l0 200 88 4 c99 6 176
30 249 78 26 18 182 168 345 334 305 309 312 318 292 371 -4 8 -19 22 -35 30
-30 16 -35 17 -59 8z"/>
</g>
</svg>
